<svg xmlns="http://www.w3.org/2000/svg" xmlns:xlink="http://www.w3.org/1999/xlink" viewBox="0 0 286.92 401.67"><defs><style>.cls-1,.cls-3{mask:url(#mask);}.cls-1{filter:url(#luminosity-noclip-6);}.cls-10,.cls-14,.cls-16,.cls-2,.cls-4,.cls-6,.cls-8{mix-blend-mode:multiply;}.cls-2{fill:url(#radial-gradient);}.cls-3{filter:url(#luminosity-noclip-7);}.cls-4{fill:url(#radial-gradient-2);}.cls-5{mask:url(#mask-3);filter:url(#luminosity-noclip-8);}.cls-6{fill:url(#radial-gradient-3);}.cls-7{mask:url(#mask-4);filter:url(#luminosity-noclip-9);}.cls-8{fill:url(#radial-gradient-4);}.cls-9{mask:url(#mask-5);filter:url(#luminosity-noclip-10);}.cls-10{fill:url(#radial-gradient-5);}.cls-11{isolation:isolate;}.cls-12{fill:#fff;}.cls-13{mask:url(#mask-6);}.cls-14{fill:url(#radial-gradient-6);}.cls-15{mask:url(#mask-7);}.cls-16{fill:url(#radial-gradient-7);}.cls-17{mask:url(#mask-8);}.cls-18{fill:url(#radial-gradient-8);}.cls-19{mask:url(#mask-9);}.cls-20{mix-blend-mode:screen;fill:url(#radial-gradient-9);}.cls-21{mask:url(#mask-10);}.cls-22{fill:url(#radial-gradient-10);}.cls-23{filter:url(#luminosity-noclip-5);}.cls-24{filter:url(#luminosity-noclip-4);}.cls-25{filter:url(#luminosity-noclip-3);}.cls-26{filter:url(#luminosity-noclip);}</style><filter id="luminosity-noclip" x="0.01" y="-8605.97" width="286.91" height="32766" filterUnits="userSpaceOnUse" color-interpolation-filters="sRGB"><feFlood flood-color="#fff" result="bg"/><feBlend in="SourceGraphic" in2="bg"/></filter><mask id="mask" x="0.01" y="-8605.97" width="286.91" height="32766" maskUnits="userSpaceOnUse"><g class="cls-26"/></mask><radialGradient id="radial-gradient" cx="139.02" cy="-136.93" r="580.83" gradientUnits="userSpaceOnUse"><stop offset="0.62"/><stop offset="0.75" stop-color="#020202"/><stop offset="0.8" stop-color="#090909"/><stop offset="0.84" stop-color="#151515"/><stop offset="0.87" stop-color="#262626"/><stop offset="0.9" stop-color="#3c3c3c"/><stop offset="0.92" stop-color="#585858"/><stop offset="0.94" stop-color="#797979"/><stop offset="0.96" stop-color="#9f9f9f"/><stop offset="0.98" stop-color="#cbcbcb"/><stop offset="1" stop-color="#f9f9f9"/><stop offset="1" stop-color="#fff"/></radialGradient><radialGradient id="radial-gradient-2" cx="144.77" cy="370.66" r="416.2" gradientUnits="userSpaceOnUse"><stop offset="0.62"/><stop offset="0.71" stop-color="#020202"/><stop offset="0.76" stop-color="#0a0a0a"/><stop offset="0.8" stop-color="#181818"/><stop offset="0.84" stop-color="#2c2c2c"/><stop offset="0.88" stop-color="#464646"/><stop offset="0.91" stop-color="#656565"/><stop offset="0.94" stop-color="#8a8a8a"/><stop offset="0.96" stop-color="#b6b6b6"/><stop offset="0.99" stop-color="#e5e5e5"/><stop offset="1" stop-color="#fff"/></radialGradient><filter id="luminosity-noclip-3" x="5.29" y="-8605.97" width="281.62" height="32766" filterUnits="userSpaceOnUse" color-interpolation-filters="sRGB"><feFlood flood-color="#fff" result="bg"/><feBlend in="SourceGraphic" in2="bg"/></filter><mask id="mask-3" x="5.29" y="-8605.97" width="281.62" height="32766" maskUnits="userSpaceOnUse"><g class="cls-25"/></mask><radialGradient id="radial-gradient-3" cx="-12.26" cy="-0.18" r="462.12" gradientUnits="userSpaceOnUse"><stop offset="0.1"/><stop offset="1" stop-color="#fff"/></radialGradient><filter id="luminosity-noclip-4" x="0.01" y="-8605.97" width="281.62" height="32766" filterUnits="userSpaceOnUse" color-interpolation-filters="sRGB"><feFlood flood-color="#fff" result="bg"/><feBlend in="SourceGraphic" in2="bg"/></filter><mask id="mask-4" x="0.01" y="-8605.97" width="281.62" height="32766" maskUnits="userSpaceOnUse"><g class="cls-24"/></mask><radialGradient id="radial-gradient-4" cx="78.38" cy="116.9" r="393.61" gradientUnits="userSpaceOnUse"><stop offset="0"/><stop offset="0.01" stop-color="#090909"/><stop offset="0.05" stop-color="#373737"/><stop offset="0.09" stop-color="#626262"/><stop offset="0.14" stop-color="#888"/><stop offset="0.2" stop-color="#a8a8a8"/><stop offset="0.25" stop-color="#c4c4c4"/><stop offset="0.32" stop-color="#dadada"/><stop offset="0.4" stop-color="#ebebeb"/><stop offset="0.49" stop-color="#f6f6f6"/><stop offset="0.63" stop-color="#fdfdfd"/><stop offset="1" stop-color="#fff"/></radialGradient><filter id="luminosity-noclip-5" x="0" y="-8605.97" width="0.58" height="32766" filterUnits="userSpaceOnUse" color-interpolation-filters="sRGB"><feFlood flood-color="#fff" result="bg"/><feBlend in="SourceGraphic" in2="bg"/></filter><mask id="mask-5" x="0" y="-8605.97" width="0.58" height="32766" maskUnits="userSpaceOnUse"><g class="cls-23"/></mask><radialGradient id="radial-gradient-5" cx="1546.22" cy="-0.18" r="462.11" gradientTransform="matrix(-1, 0, 0, 1, 1845.37, 0)" xlink:href="#radial-gradient-3"/><filter id="luminosity-noclip-6" x="0.01" y="216.77" width="286.91" height="184.9" filterUnits="userSpaceOnUse" color-interpolation-filters="sRGB"><feFlood flood-color="#fff" result="bg"/><feBlend in="SourceGraphic" in2="bg"/></filter><mask id="mask-6" x="0.01" y="216.77" width="286.91" height="184.9" maskUnits="userSpaceOnUse"><g class="cls-1"><path class="cls-2" d="M169.17,216.79,0,216.84V386.67c0,14.7,11.1,15,11.1,15h264.7s11.1-.3,11.1-15V216.77Z"/></g></mask><radialGradient id="radial-gradient-6" cx="139.02" cy="-136.93" r="580.83" gradientUnits="userSpaceOnUse"><stop offset="0.62" stop-color="#fff"/><stop offset="0.79" stop-color="#fdfdfd"/><stop offset="0.85" stop-color="#f6f6f6"/><stop offset="0.9" stop-color="#eaeaea"/><stop offset="0.94" stop-color="#d9d9d9"/><stop offset="0.97" stop-color="#c3c3c3"/><stop offset="1" stop-color="#ababab"/></radialGradient><filter id="luminosity-noclip-7" x="0.01" y="0" width="286.91" height="200.5" filterUnits="userSpaceOnUse" color-interpolation-filters="sRGB"><feFlood flood-color="#fff" result="bg"/><feBlend in="SourceGraphic" in2="bg"/></filter><mask id="mask-7" x="0.01" y="0" width="286.91" height="200.5" maskUnits="userSpaceOnUse"><g class="cls-3"><path class="cls-4" d="M0,200.4l72.43,0q104.39.06,208.75.05h5.72V15c0-14.7-11.1-15-11.1-15H11.11S0,.3,0,15V200.4Z"/></g></mask><radialGradient id="radial-gradient-7" cx="144.77" cy="370.66" r="416.2" gradientUnits="userSpaceOnUse"><stop offset="0.62" stop-color="#fff"/><stop offset="0.75" stop-color="#fdfdfd"/><stop offset="0.82" stop-color="#f5f5f5"/><stop offset="0.88" stop-color="#e7e7e7"/><stop offset="0.93" stop-color="#d3d3d3"/><stop offset="0.98" stop-color="#bababa"/><stop offset="1" stop-color="#ababab"/></radialGradient><filter id="luminosity-noclip-8" x="5.29" y="0" width="281.62" height="401.67" filterUnits="userSpaceOnUse" color-interpolation-filters="sRGB"><feFlood flood-color="#fff" result="bg"/><feBlend in="SourceGraphic" in2="bg"/></filter><mask id="mask-8" x="5.29" y="0" width="281.62" height="401.67" maskUnits="userSpaceOnUse"><g class="cls-5"><path class="cls-6" d="M286.33,15V386.11c0,14.68-11.12,15-11.12,15h-265a11.3,11.3,0,0,1-5-1.61,11.42,11.42,0,0,0,5.82,2.19h264.7s11.11-.3,11.11-15V15c0-14.7-11.11-15-11.11-15h-.59S286.33.3,286.33,15Z"/></g></mask><radialGradient id="radial-gradient-8" cx="-12.26" cy="-0.18" r="462.12" gradientUnits="userSpaceOnUse"><stop offset="0.1" stop-color="#fff"/><stop offset="1" stop-color="#ababab"/></radialGradient><filter id="luminosity-noclip-9" x="0.01" y="0" width="281.62" height="401.67" filterUnits="userSpaceOnUse" color-interpolation-filters="sRGB"><feFlood flood-color="#fff" result="bg"/><feBlend in="SourceGraphic" in2="bg"/></filter><mask id="mask-9" x="0.01" y="0" width="281.62" height="401.67" maskUnits="userSpaceOnUse"><g class="cls-7"><path class="cls-8" d="M.59,386.69V15.56C.59.88,11.7.58,11.7.58h265a11.27,11.27,0,0,1,5,1.61A11.42,11.42,0,0,0,275.81,0H11.11S0,.3,0,15V386.67c0,14.7,11.1,15,11.1,15h.59S.59,401.37.59,386.69Z"/></g></mask><radialGradient id="radial-gradient-9" cx="78.38" cy="116.9" r="393.61" gradientUnits="userSpaceOnUse"><stop offset="0" stop-color="#fff"/><stop offset="0.14" stop-color="#fff"/><stop offset="1" stop-color="#fff"/></radialGradient><filter id="luminosity-noclip-10" x="0" y="29.03" width="0.58" height="346.34" filterUnits="userSpaceOnUse" color-interpolation-filters="sRGB"><feFlood flood-color="#fff" result="bg"/><feBlend in="SourceGraphic" in2="bg"/></filter><mask id="mask-10" x="0" y="29.03" width="0.58" height="346.34" maskUnits="userSpaceOnUse"><g class="cls-9"><path class="cls-10" d="M0,29V375.37c.19-.7.38-1.4.58-2.1V35.3Q.28,32.17,0,29Z"/></g></mask><radialGradient id="radial-gradient-10" cx="1546.22" cy="-0.18" r="462.11" gradientTransform="matrix(-1, 0, 0, 1, 1845.37, 0)" xlink:href="#radial-gradient-8"/></defs><g class="cls-11"><g id="Layer_2" data-name="Layer 2"><g id="Layer_1-2" data-name="Layer 1"><path class="cls-12" d="M275.81,0H11.11S0,.3,0,15V386.67c0,14.7,11.1,15,11.1,15h264.7s11.1-.3,11.1-15V15C286.91.3,275.81,0,275.81,0Z"/><g class="cls-13"><path class="cls-14" d="M169.17,216.79,0,216.84V386.67c0,14.7,11.1,15,11.1,15h264.7s11.1-.3,11.1-15V216.77Z"/></g><g class="cls-15"><path class="cls-16" d="M0,200.4l72.43,0q104.39.06,208.75.05h5.72V15c0-14.7-11.1-15-11.1-15H11.11S0,.3,0,15V200.4Z"/></g><g class="cls-17"><path class="cls-18" d="M286.33,15V386.11c0,14.68-11.12,15-11.12,15h-265a11.3,11.3,0,0,1-5-1.61,11.42,11.42,0,0,0,5.82,2.19h264.7s11.11-.3,11.11-15V15c0-14.7-11.11-15-11.11-15h-.59S286.33.3,286.33,15Z"/></g><g class="cls-19"><path class="cls-20" d="M.59,386.69V15.56C.59.88,11.7.58,11.7.58h265a11.27,11.27,0,0,1,5,1.61A11.42,11.42,0,0,0,275.81,0H11.11S0,.3,0,15V386.67c0,14.7,11.1,15,11.1,15h.59S.59,401.37.59,386.69Z"/></g><g class="cls-21"><path class="cls-22" d="M0,29V375.37c.19-.7.38-1.4.58-2.1V35.3Q.28,32.17,0,29Z"/></g><path d="M20.75,79.83a25.49,25.49,0,0,1-4.83,12.7h9.66A25.6,25.6,0,0,1,20.75,79.83Z"/><path d="M27.76,71.38a6.94,6.94,0,0,0-2.71.55.46.46,0,0,1-.07-.07,7,7,0,1,0-8.1.26,7,7,0,1,0,3.86,6.57h0a7,7,0,1,0,7-7.32Z"/><path d="M24.63,47.9a10.84,10.84,0,0,0,2-.15,2.93,2.93,0,0,0,1.21-.51,2.5,2.5,0,0,0,.73-.93c.17-.38.4-1,.67-1.76H31.4L31,52H10.1V50.74A31.14,31.14,0,0,1,13,45.29a57.43,57.43,0,0,1,5.25-6.57q2.94-3.26,4.24-4.93a21.51,21.51,0,0,0,2.11-3.15,12.19,12.19,0,0,0,1-2.51,9.62,9.62,0,0,0,.3-2.37,8.66,8.66,0,0,0-.61-3.37,5,5,0,0,0-1.86-2.29,5.57,5.57,0,0,0-3.16-.84q-4.74,0-6.39,5.28H10.86V19.67a29.8,29.8,0,0,1,5.74-2.1,20.78,20.78,0,0,1,4.81-.64c3.15,0,5.52.69,7.13,2.07A7.46,7.46,0,0,1,31,25a10.65,10.65,0,0,1-.27,2.48,10,10,0,0,1-.84,2.23,17.25,17.25,0,0,1-1.53,2.37c-.64.85-1.35,1.7-2.13,2.57S24.06,37,22.15,39a52.24,52.24,0,0,0-7.08,8.9Z"/><path d="M263.19,320.78A25.59,25.59,0,0,1,268,308.09h-9.66A25.48,25.48,0,0,1,263.19,320.78Z"/><path d="M256.19,329.23a7,7,0,0,0,2.71-.54l.06.06a7,7,0,1,0,8.1-.26,6.87,6.87,0,0,0,3.13.74,7,7,0,1,0-7-7.31h0a7,7,0,1,0-7,7.32Z"/><path d="M259.31,352.72a10.65,10.65,0,0,0-2,.15,2.8,2.8,0,0,0-1.22.51,2.37,2.37,0,0,0-.72.92,17.5,17.5,0,0,0-.68,1.77h-2.15l.43-7.41h20.87v1.22a30.84,30.84,0,0,1-2.94,5.45,58.31,58.31,0,0,1-5.25,6.57q-2.94,3.24-4.23,4.92A21.43,21.43,0,0,0,259.3,370a11.39,11.39,0,0,0-1,2.51,9.18,9.18,0,0,0-.31,2.37,8.57,8.57,0,0,0,.61,3.36,5.1,5.1,0,0,0,1.86,2.3,5.57,5.57,0,0,0,3.16.83c3.17,0,5.3-1.75,6.39-5.27h3.07V381a30.4,30.4,0,0,1-5.74,2.09,20.83,20.83,0,0,1-4.81.65q-4.71,0-7.13-2.07a7.49,7.49,0,0,1-2.4-6,10.64,10.64,0,0,1,.26-2.47,9.78,9.78,0,0,1,.84-2.23,16.73,16.73,0,0,1,1.53-2.38c.65-.84,1.36-1.7,2.13-2.57s2.13-2.32,4-4.35a53.42,53.42,0,0,0,7.07-8.9Z"/><path d="M142.38,88.19a50.67,50.67,0,0,1-9.59,25.19H152A50.62,50.62,0,0,1,142.38,88.19Z"/><path d="M156.29,71.41a13.75,13.75,0,0,0-5.38,1.09l-.12-.13a13.91,13.91,0,1,0-16.09.51,13.9,13.9,0,1,0,7.67,13l0,0a13.9,13.9,0,1,0,13.89-14.53Z"/><path d="M142.38,313.54a50.57,50.57,0,0,1,9.6-25.19H132.79A50.61,50.61,0,0,1,142.38,313.54Z"/><path d="M128.48,330.31a13.93,13.93,0,0,0,5.38-1.08l.12.13a13.89,13.89,0,1,0,16.08-.52,13.9,13.9,0,1,0-7.66-13l0,0a13.9,13.9,0,1,0-13.89,14.53Z"/></g></g></g></svg>