<svg xmlns="http://www.w3.org/2000/svg" xmlns:xlink="http://www.w3.org/1999/xlink" viewBox="0 0 286.92 401.67"><defs><style>.cls-1{mask:url(#mask);filter:url(#luminosity-noclip-6);}.cls-10,.cls-14,.cls-16,.cls-2,.cls-4,.cls-6,.cls-8{mix-blend-mode:multiply;}.cls-2{fill:url(#radial-gradient);}.cls-3{mask:url(#mask-2);filter:url(#luminosity-noclip-7);}.cls-4{fill:url(#radial-gradient-2);}.cls-5{mask:url(#mask-3);filter:url(#luminosity-noclip-8);}.cls-6{fill:url(#radial-gradient-3);}.cls-7{mask:url(#mask-4);filter:url(#luminosity-noclip-9);}.cls-8{fill:url(#radial-gradient-4);}.cls-9{mask:url(#mask-5);filter:url(#luminosity-noclip-10);}.cls-10{fill:url(#radial-gradient-5);}.cls-11{isolation:isolate;}.cls-12{fill:#fff;}.cls-13{mask:url(#mask-6);}.cls-14{fill:url(#radial-gradient-6);}.cls-15{mask:url(#mask-7);}.cls-16{fill:url(#radial-gradient-7);}.cls-17{mask:url(#mask-8);}.cls-18{fill:url(#radial-gradient-8);}.cls-19{mask:url(#mask-9);}.cls-20{mix-blend-mode:screen;fill:url(#radial-gradient-9);}.cls-21{mask:url(#mask-10);}.cls-22{fill:url(#radial-gradient-10);}.cls-23{filter:url(#luminosity-noclip-5);}.cls-24{filter:url(#luminosity-noclip-4);}.cls-25{filter:url(#luminosity-noclip-3);}.cls-26{filter:url(#luminosity-noclip-2);}.cls-27{filter:url(#luminosity-noclip);}</style><filter id="luminosity-noclip" x="0.01" y="-8605.97" width="286.91" height="32766" filterUnits="userSpaceOnUse" color-interpolation-filters="sRGB"><feFlood flood-color="#fff" result="bg"/><feBlend in="SourceGraphic" in2="bg"/></filter><mask id="mask" x="0.01" y="-8605.97" width="286.91" height="32766" maskUnits="userSpaceOnUse"><g class="cls-27"/></mask><radialGradient id="radial-gradient" cx="139.02" cy="-136.93" r="580.83" gradientUnits="userSpaceOnUse"><stop offset="0.62"/><stop offset="0.75" stop-color="#020202"/><stop offset="0.8" stop-color="#090909"/><stop offset="0.84" stop-color="#151515"/><stop offset="0.87" stop-color="#262626"/><stop offset="0.9" stop-color="#3c3c3c"/><stop offset="0.92" stop-color="#585858"/><stop offset="0.94" stop-color="#797979"/><stop offset="0.96" stop-color="#9f9f9f"/><stop offset="0.98" stop-color="#cbcbcb"/><stop offset="1" stop-color="#f9f9f9"/><stop offset="1" stop-color="#fff"/></radialGradient><filter id="luminosity-noclip-2" x="0.01" y="-8605.97" width="286.91" height="32766" filterUnits="userSpaceOnUse" color-interpolation-filters="sRGB"><feFlood flood-color="#fff" result="bg"/><feBlend in="SourceGraphic" in2="bg"/></filter><mask id="mask-2" x="0.01" y="-8605.97" width="286.91" height="32766" maskUnits="userSpaceOnUse"><g class="cls-26"/></mask><radialGradient id="radial-gradient-2" cx="144.77" cy="370.66" r="416.2" gradientUnits="userSpaceOnUse"><stop offset="0.62"/><stop offset="0.71" stop-color="#020202"/><stop offset="0.76" stop-color="#0a0a0a"/><stop offset="0.8" stop-color="#181818"/><stop offset="0.84" stop-color="#2c2c2c"/><stop offset="0.88" stop-color="#464646"/><stop offset="0.91" stop-color="#656565"/><stop offset="0.94" stop-color="#8a8a8a"/><stop offset="0.96" stop-color="#b6b6b6"/><stop offset="0.99" stop-color="#e5e5e5"/><stop offset="1" stop-color="#fff"/></radialGradient><filter id="luminosity-noclip-3" x="5.29" y="-8605.97" width="281.62" height="32766" filterUnits="userSpaceOnUse" color-interpolation-filters="sRGB"><feFlood flood-color="#fff" result="bg"/><feBlend in="SourceGraphic" in2="bg"/></filter><mask id="mask-3" x="5.29" y="-8605.97" width="281.62" height="32766" maskUnits="userSpaceOnUse"><g class="cls-25"/></mask><radialGradient id="radial-gradient-3" cx="-12.26" cy="-0.18" r="462.13" gradientUnits="userSpaceOnUse"><stop offset="0.1"/><stop offset="1" stop-color="#fff"/></radialGradient><filter id="luminosity-noclip-4" x="0.01" y="-8605.97" width="281.63" height="32766" filterUnits="userSpaceOnUse" color-interpolation-filters="sRGB"><feFlood flood-color="#fff" result="bg"/><feBlend in="SourceGraphic" in2="bg"/></filter><mask id="mask-4" x="0.01" y="-8605.97" width="281.63" height="32766" maskUnits="userSpaceOnUse"><g class="cls-24"/></mask><radialGradient id="radial-gradient-4" cx="78.38" cy="116.9" r="393.61" gradientUnits="userSpaceOnUse"><stop offset="0"/><stop offset="0.01" stop-color="#090909"/><stop offset="0.05" stop-color="#373737"/><stop offset="0.09" stop-color="#626262"/><stop offset="0.14" stop-color="#888"/><stop offset="0.2" stop-color="#a8a8a8"/><stop offset="0.25" stop-color="#c4c4c4"/><stop offset="0.32" stop-color="#dadada"/><stop offset="0.4" stop-color="#ebebeb"/><stop offset="0.49" stop-color="#f6f6f6"/><stop offset="0.63" stop-color="#fdfdfd"/><stop offset="1" stop-color="#fff"/></radialGradient><filter id="luminosity-noclip-5" x="0" y="-8605.97" width="0.58" height="32766" filterUnits="userSpaceOnUse" color-interpolation-filters="sRGB"><feFlood flood-color="#fff" result="bg"/><feBlend in="SourceGraphic" in2="bg"/></filter><mask id="mask-5" x="0" y="-8605.97" width="0.58" height="32766" maskUnits="userSpaceOnUse"><g class="cls-23"/></mask><radialGradient id="radial-gradient-5" cx="-919.61" cy="-0.18" r="462.07" gradientTransform="matrix(-1, 0, 0, 1, -620.52, 0)" xlink:href="#radial-gradient-3"/><filter id="luminosity-noclip-6" x="0.01" y="216.77" width="286.91" height="184.9" filterUnits="userSpaceOnUse" color-interpolation-filters="sRGB"><feFlood flood-color="#fff" result="bg"/><feBlend in="SourceGraphic" in2="bg"/></filter><mask id="mask-6" x="0.01" y="216.77" width="286.91" height="184.9" maskUnits="userSpaceOnUse"><g class="cls-1"><path class="cls-2" d="M169.17,216.79,0,216.84V386.67c0,14.7,11.1,15,11.1,15h264.7s11.11-.3,11.11-15V216.77Z"/></g></mask><radialGradient id="radial-gradient-6" cx="139.02" cy="-136.93" r="580.83" gradientUnits="userSpaceOnUse"><stop offset="0.62" stop-color="#fff"/><stop offset="0.79" stop-color="#fdfdfd"/><stop offset="0.85" stop-color="#f6f6f6"/><stop offset="0.9" stop-color="#eaeaea"/><stop offset="0.94" stop-color="#d9d9d9"/><stop offset="0.97" stop-color="#c3c3c3"/><stop offset="1" stop-color="#ababab"/></radialGradient><filter id="luminosity-noclip-7" x="0.01" y="0" width="286.91" height="200.5" filterUnits="userSpaceOnUse" color-interpolation-filters="sRGB"><feFlood flood-color="#fff" result="bg"/><feBlend in="SourceGraphic" in2="bg"/></filter><mask id="mask-7" x="0.01" y="0" width="286.91" height="200.5" maskUnits="userSpaceOnUse"><g class="cls-3"><path class="cls-4" d="M0,200.4l72.43,0q104.39.06,208.75.05h5.73V15c0-14.7-11.11-15-11.11-15H11.11S0,.3,0,15V200.4Z"/></g></mask><radialGradient id="radial-gradient-7" cx="144.77" cy="370.66" r="416.2" gradientUnits="userSpaceOnUse"><stop offset="0.62" stop-color="#fff"/><stop offset="0.75" stop-color="#fdfdfd"/><stop offset="0.82" stop-color="#f5f5f5"/><stop offset="0.88" stop-color="#e7e7e7"/><stop offset="0.93" stop-color="#d3d3d3"/><stop offset="0.98" stop-color="#bababa"/><stop offset="1" stop-color="#ababab"/></radialGradient><filter id="luminosity-noclip-8" x="5.29" y="0" width="281.62" height="401.67" filterUnits="userSpaceOnUse" color-interpolation-filters="sRGB"><feFlood flood-color="#fff" result="bg"/><feBlend in="SourceGraphic" in2="bg"/></filter><mask id="mask-8" x="5.29" y="0" width="281.62" height="401.67" maskUnits="userSpaceOnUse"><g class="cls-5"><path class="cls-6" d="M286.34,15V386.11c0,14.68-11.12,15-11.12,15h-265a11.3,11.3,0,0,1-5-1.61,11.45,11.45,0,0,0,5.82,2.19h264.7s11.11-.3,11.11-15V15c0-14.7-11.11-15-11.11-15h-.59S286.34.3,286.34,15Z"/></g></mask><radialGradient id="radial-gradient-8" cx="-12.26" cy="-0.18" r="462.13" gradientUnits="userSpaceOnUse"><stop offset="0.1" stop-color="#fff"/><stop offset="1" stop-color="#ababab"/></radialGradient><filter id="luminosity-noclip-9" x="0.01" y="0" width="281.63" height="401.67" filterUnits="userSpaceOnUse" color-interpolation-filters="sRGB"><feFlood flood-color="#fff" result="bg"/><feBlend in="SourceGraphic" in2="bg"/></filter><mask id="mask-9" x="0.01" y="0" width="281.63" height="401.67" maskUnits="userSpaceOnUse"><g class="cls-7"><path class="cls-8" d="M.59,386.69V15.56C.59.88,11.71.58,11.71.58h265a11.27,11.27,0,0,1,5,1.61A11.42,11.42,0,0,0,275.81,0H11.11S0,.3,0,15V386.67c0,14.7,11.1,15,11.1,15h.6S.59,401.37.59,386.69Z"/></g></mask><radialGradient id="radial-gradient-9" cx="78.38" cy="116.9" r="393.61" gradientUnits="userSpaceOnUse"><stop offset="0" stop-color="#fff"/><stop offset="0.14" stop-color="#fff"/><stop offset="1" stop-color="#fff"/></radialGradient><filter id="luminosity-noclip-10" x="0" y="29.03" width="0.58" height="346.34" filterUnits="userSpaceOnUse" color-interpolation-filters="sRGB"><feFlood flood-color="#fff" result="bg"/><feBlend in="SourceGraphic" in2="bg"/></filter><mask id="mask-10" x="0" y="29.03" width="0.58" height="346.34" maskUnits="userSpaceOnUse"><g class="cls-9"><path class="cls-10" d="M0,29V375.37c.19-.7.38-1.4.58-2.1V35.3Q.28,32.17,0,29Z"/></g></mask><radialGradient id="radial-gradient-10" cx="-919.61" cy="-0.18" r="462.07" gradientTransform="matrix(-1, 0, 0, 1, -620.52, 0)" xlink:href="#radial-gradient-8"/></defs><g class="cls-11"><g id="Layer_2" data-name="Layer 2"><g id="Layer_1-2" data-name="Layer 1"><path class="cls-12" d="M275.81,0H11.11S0,.3,0,15V386.67c0,14.7,11.1,15,11.1,15h264.7s11.11-.3,11.11-15V15C286.92.3,275.81,0,275.81,0Z"/><g class="cls-13"><path class="cls-14" d="M169.17,216.79,0,216.84V386.67c0,14.7,11.1,15,11.1,15h264.7s11.11-.3,11.11-15V216.77Z"/></g><g class="cls-15"><path class="cls-16" d="M0,200.4l72.43,0q104.39.06,208.75.05h5.73V15c0-14.7-11.11-15-11.11-15H11.11S0,.3,0,15V200.4Z"/></g><g class="cls-17"><path class="cls-18" d="M286.34,15V386.11c0,14.68-11.12,15-11.12,15h-265a11.3,11.3,0,0,1-5-1.61,11.45,11.45,0,0,0,5.82,2.19h264.7s11.11-.3,11.11-15V15c0-14.7-11.11-15-11.11-15h-.59S286.34.3,286.34,15Z"/></g><g class="cls-19"><path class="cls-20" d="M.59,386.69V15.56C.59.88,11.71.58,11.71.58h265a11.27,11.27,0,0,1,5,1.61A11.42,11.42,0,0,0,275.81,0H11.11S0,.3,0,15V386.67c0,14.7,11.1,15,11.1,15h.6S.59,401.37.59,386.69Z"/></g><g class="cls-21"><path class="cls-22" d="M0,29V375.37c.19-.7.38-1.4.58-2.1V35.3Q.28,32.17,0,29Z"/></g><path d="M21.43,79.83a25.49,25.49,0,0,1-4.83,12.7h9.67A25.56,25.56,0,0,1,21.43,79.83Z"/><path d="M28.44,71.38a7,7,0,0,0-2.71.55l-.06-.07a7,7,0,1,0-8.1.26,7,7,0,1,0,3.86,6.57h0a7,7,0,1,0,7-7.32Z"/><path d="M29.78,18.32v1.25a14,14,0,0,0-6.92,1.67,13.56,13.56,0,0,0-5,4.92A22.44,22.44,0,0,0,15,33.87l.26.1a16.5,16.5,0,0,1,4.2-2.23A13.73,13.73,0,0,1,24,31a9,9,0,0,1,4.88,1.26,7.68,7.68,0,0,1,3,3.52,12.91,12.91,0,0,1,1,5.32A12.78,12.78,0,0,1,31.63,47a9.15,9.15,0,0,1-3.92,4,13.5,13.5,0,0,1-6.53,1.44q-5.55,0-8.38-3.45T10,38.74a24.66,24.66,0,0,1,1.42-8.45,20.81,20.81,0,0,1,4-6.86,19.4,19.4,0,0,1,6.06-4.61,18.39,18.39,0,0,1,7.25-1.89ZM22.22,33.69a10.51,10.51,0,0,0-2.4.28,9.19,9.19,0,0,0-2.16.82,10.63,10.63,0,0,0-2,1.34,1.87,1.87,0,0,0-.46.58,3.28,3.28,0,0,0-.33,1.19c-.05.48-.07,1.27-.07,2.39q0,4.85,1.62,7.38a5.44,5.44,0,0,0,4.92,2.54,6.94,6.94,0,0,0,3.19-.66,5.54,5.54,0,0,0,2.1-1.82A7.62,7.62,0,0,0,27.79,45a15.7,15.7,0,0,0,.34-3.39,9.59,9.59,0,0,0-1.55-5.84A5.09,5.09,0,0,0,22.22,33.69Z"/><path d="M263.93,320.78a25.48,25.48,0,0,1,4.83-12.69h-9.67A25.55,25.55,0,0,1,263.93,320.78Z"/><path d="M256.92,329.23a7,7,0,0,0,2.71-.54l.06.06a7,7,0,1,0,8.11-.26,6.84,6.84,0,0,0,3.13.74,7,7,0,1,0-7-7.31h0a7,7,0,1,0-7,7.32Z"/><path d="M255.58,382.29v-1.24a14.13,14.13,0,0,0,6.93-1.67,13.71,13.71,0,0,0,5-4.92,22.41,22.41,0,0,0,2.8-7.72l-.26-.1a16.3,16.3,0,0,1-4.19,2.23,13.53,13.53,0,0,1-4.48.71,9,9,0,0,1-4.88-1.25,7.7,7.7,0,0,1-3-3.53,14.14,14.14,0,0,1,.25-11.13,9.16,9.16,0,0,1,3.92-4,13.5,13.5,0,0,1,6.53-1.45c3.7,0,6.5,1.15,8.38,3.45s2.83,5.69,2.83,10.17a24.61,24.61,0,0,1-1.42,8.45,20.86,20.86,0,0,1-4,6.86,19.82,19.82,0,0,1-6.06,4.62,18.78,18.78,0,0,1-7.26,1.89Zm7.56-15.37a10,10,0,0,0,2.4-.28,9,9,0,0,0,2.17-.81,10.9,10.9,0,0,0,2-1.34,1.9,1.9,0,0,0,.46-.59,3.28,3.28,0,0,0,.33-1.19c0-.47.07-1.27.07-2.38q0-4.84-1.62-7.38a5.44,5.44,0,0,0-4.92-2.54,6.94,6.94,0,0,0-3.19.66,5.59,5.59,0,0,0-2.1,1.81,7.67,7.67,0,0,0-1.14,2.72,15.68,15.68,0,0,0-.34,3.38,9.69,9.69,0,0,0,1.55,5.85A5.11,5.11,0,0,0,263.14,366.92Z"/><path d="M196.67,88.16a50.61,50.61,0,0,1-9.59,25.19h19.18A50.61,50.61,0,0,1,196.67,88.16Z"/><path d="M210.57,71.38a13.7,13.7,0,0,0-5.37,1.09l-.13-.13a13.89,13.89,0,1,0-16.08.52,13.9,13.9,0,1,0,7.66,13l0,0a13.9,13.9,0,1,0,13.89-14.53Z"/><path d="M196.67,313.51a50.61,50.61,0,0,1,9.59-25.19H187.08A50.61,50.61,0,0,1,196.67,313.51Z"/><path d="M182.77,330.28a13.7,13.7,0,0,0,5.37-1.08l.13.13a13.89,13.89,0,1,0,16.08-.52,13.9,13.9,0,1,0-7.67-13l0,0a13.9,13.9,0,1,0-13.88,14.52Z"/><path d="M90.68,88.16a50.57,50.57,0,0,1-9.6,25.19h19.19A50.61,50.61,0,0,1,90.68,88.16Z"/><path d="M104.58,71.38a13.75,13.75,0,0,0-5.38,1.09l-.12-.13A13.89,13.89,0,1,0,83,72.86a13.9,13.9,0,1,0,7.66,13l0,0a13.9,13.9,0,1,0,13.89-14.53Z"/><path d="M196.67,208.63a50.67,50.67,0,0,1-9.59,25.2h19.18A50.67,50.67,0,0,1,196.67,208.63Z"/><path d="M210.57,191.86A13.7,13.7,0,0,0,205.2,193l-.13-.14a13.89,13.89,0,1,0-16.08.52,13.9,13.9,0,1,0,7.66,13s0,0,0,0a13.9,13.9,0,1,0,13.89-14.53Z"/><path d="M90.68,208.63a50.63,50.63,0,0,1-9.6,25.2h19.19A50.67,50.67,0,0,1,90.68,208.63Z"/><path d="M104.58,191.86A13.75,13.75,0,0,0,99.2,193l-.12-.14a13.89,13.89,0,1,0-16.08.52,13.9,13.9,0,1,0,7.66,13l0,0a13.9,13.9,0,1,0,13.89-14.53Z"/><path d="M90.68,313.51a50.51,50.51,0,0,1,9.59-25.19H81.08A50.68,50.68,0,0,1,90.68,313.51Z"/><path d="M76.77,330.28a13.74,13.74,0,0,0,5.38-1.08l.12.13a13.9,13.9,0,1,0,16.09-.52,13.9,13.9,0,1,0-7.67-13l0,0a13.9,13.9,0,1,0-13.89,14.52Z"/></g></g></g></svg>