<svg xmlns="http://www.w3.org/2000/svg" xmlns:xlink="http://www.w3.org/1999/xlink" viewBox="0 0 286.92 401.67"><defs><style>.cls-1{mask:url(#mask);filter:url(#luminosity-noclip-6);}.cls-10,.cls-14,.cls-16,.cls-2,.cls-4,.cls-6,.cls-8{mix-blend-mode:multiply;}.cls-2{fill:url(#radial-gradient);}.cls-3{mask:url(#mask-2);filter:url(#luminosity-noclip-7);}.cls-4{fill:url(#radial-gradient-2);}.cls-5{mask:url(#mask-3);filter:url(#luminosity-noclip-8);}.cls-6{fill:url(#radial-gradient-3);}.cls-7{mask:url(#mask-4);filter:url(#luminosity-noclip-9);}.cls-8{fill:url(#radial-gradient-4);}.cls-9{mask:url(#mask-5);filter:url(#luminosity-noclip-10);}.cls-10{fill:url(#radial-gradient-5);}.cls-11{isolation:isolate;}.cls-12{fill:#fff;}.cls-13{mask:url(#mask-6);}.cls-14{fill:url(#radial-gradient-6);}.cls-15{mask:url(#mask-7);}.cls-16{fill:url(#radial-gradient-7);}.cls-17{mask:url(#mask-8);}.cls-18{fill:url(#radial-gradient-8);}.cls-19{mask:url(#mask-9);}.cls-20{mix-blend-mode:screen;fill:url(#radial-gradient-9);}.cls-21{mask:url(#mask-10);}.cls-22{fill:url(#radial-gradient-10);}.cls-23{filter:url(#luminosity-noclip-5);}.cls-24{filter:url(#luminosity-noclip-4);}.cls-25{filter:url(#luminosity-noclip-3);}.cls-26{filter:url(#luminosity-noclip-2);}.cls-27{filter:url(#luminosity-noclip);}</style><filter id="luminosity-noclip" x="0.01" y="-8181.12" width="286.91" height="32766" filterUnits="userSpaceOnUse" color-interpolation-filters="sRGB"><feFlood flood-color="#fff" result="bg"/><feBlend in="SourceGraphic" in2="bg"/></filter><mask id="mask" x="0.01" y="-8181.12" width="286.91" height="32766" maskUnits="userSpaceOnUse"><g class="cls-27"/></mask><radialGradient id="radial-gradient" cx="139.02" cy="-136.93" r="580.83" gradientUnits="userSpaceOnUse"><stop offset="0.62"/><stop offset="0.75" stop-color="#020202"/><stop offset="0.8" stop-color="#090909"/><stop offset="0.84" stop-color="#151515"/><stop offset="0.87" stop-color="#262626"/><stop offset="0.9" stop-color="#3c3c3c"/><stop offset="0.92" stop-color="#585858"/><stop offset="0.94" stop-color="#797979"/><stop offset="0.96" stop-color="#9f9f9f"/><stop offset="0.98" stop-color="#cbcbcb"/><stop offset="1" stop-color="#f9f9f9"/><stop offset="1" stop-color="#fff"/></radialGradient><filter id="luminosity-noclip-2" x="0.01" y="-8181.12" width="286.91" height="32766" filterUnits="userSpaceOnUse" color-interpolation-filters="sRGB"><feFlood flood-color="#fff" result="bg"/><feBlend in="SourceGraphic" in2="bg"/></filter><mask id="mask-2" x="0.01" y="-8181.12" width="286.91" height="32766" maskUnits="userSpaceOnUse"><g class="cls-26"/></mask><radialGradient id="radial-gradient-2" cx="144.77" cy="370.66" r="416.2" gradientUnits="userSpaceOnUse"><stop offset="0.62"/><stop offset="0.71" stop-color="#020202"/><stop offset="0.76" stop-color="#0a0a0a"/><stop offset="0.8" stop-color="#181818"/><stop offset="0.84" stop-color="#2c2c2c"/><stop offset="0.88" stop-color="#464646"/><stop offset="0.91" stop-color="#656565"/><stop offset="0.94" stop-color="#8a8a8a"/><stop offset="0.96" stop-color="#b6b6b6"/><stop offset="0.99" stop-color="#e5e5e5"/><stop offset="1" stop-color="#fff"/></radialGradient><filter id="luminosity-noclip-3" x="5.29" y="-8181.12" width="281.62" height="32766" filterUnits="userSpaceOnUse" color-interpolation-filters="sRGB"><feFlood flood-color="#fff" result="bg"/><feBlend in="SourceGraphic" in2="bg"/></filter><mask id="mask-3" x="5.29" y="-8181.12" width="281.62" height="32766" maskUnits="userSpaceOnUse"><g class="cls-25"/></mask><radialGradient id="radial-gradient-3" cx="-12.26" cy="-0.18" r="462.12" gradientUnits="userSpaceOnUse"><stop offset="0.1"/><stop offset="1" stop-color="#fff"/></radialGradient><filter id="luminosity-noclip-4" x="0.01" y="-8181.12" width="281.63" height="32766" filterUnits="userSpaceOnUse" color-interpolation-filters="sRGB"><feFlood flood-color="#fff" result="bg"/><feBlend in="SourceGraphic" in2="bg"/></filter><mask id="mask-4" x="0.01" y="-8181.12" width="281.63" height="32766" maskUnits="userSpaceOnUse"><g class="cls-24"/></mask><radialGradient id="radial-gradient-4" cx="78.38" cy="116.9" r="393.61" gradientUnits="userSpaceOnUse"><stop offset="0"/><stop offset="0.01" stop-color="#090909"/><stop offset="0.05" stop-color="#373737"/><stop offset="0.09" stop-color="#626262"/><stop offset="0.14" stop-color="#888"/><stop offset="0.2" stop-color="#a8a8a8"/><stop offset="0.25" stop-color="#c4c4c4"/><stop offset="0.32" stop-color="#dadada"/><stop offset="0.4" stop-color="#ebebeb"/><stop offset="0.49" stop-color="#f6f6f6"/><stop offset="0.63" stop-color="#fdfdfd"/><stop offset="1" stop-color="#fff"/></radialGradient><filter id="luminosity-noclip-5" x="0" y="-8181.12" width="0.58" height="32766" filterUnits="userSpaceOnUse" color-interpolation-filters="sRGB"><feFlood flood-color="#fff" result="bg"/><feBlend in="SourceGraphic" in2="bg"/></filter><mask id="mask-5" x="0" y="-8181.12" width="0.58" height="32766" maskUnits="userSpaceOnUse"><g class="cls-23"/></mask><radialGradient id="radial-gradient-5" cx="929.56" cy="-0.18" r="462.23" gradientTransform="matrix(-1, 0, 0, 1, 1228.91, 0)" xlink:href="#radial-gradient-3"/><filter id="luminosity-noclip-6" x="0.01" y="216.77" width="286.91" height="184.9" filterUnits="userSpaceOnUse" color-interpolation-filters="sRGB"><feFlood flood-color="#fff" result="bg"/><feBlend in="SourceGraphic" in2="bg"/></filter><mask id="mask-6" x="0.01" y="216.77" width="286.91" height="184.9" maskUnits="userSpaceOnUse"><g class="cls-1"><path class="cls-2" d="M169.17,216.79,0,216.84V386.67c0,14.7,11.1,15,11.1,15h264.7s11.11-.3,11.11-15V216.77Z"/></g></mask><radialGradient id="radial-gradient-6" cx="139.02" cy="-136.93" r="580.83" gradientUnits="userSpaceOnUse"><stop offset="0.62" stop-color="#fff"/><stop offset="0.79" stop-color="#fdfdfd"/><stop offset="0.85" stop-color="#f6f6f6"/><stop offset="0.9" stop-color="#eaeaea"/><stop offset="0.94" stop-color="#d9d9d9"/><stop offset="0.97" stop-color="#c3c3c3"/><stop offset="1" stop-color="#ababab"/></radialGradient><filter id="luminosity-noclip-7" x="0.01" y="0" width="286.91" height="200.5" filterUnits="userSpaceOnUse" color-interpolation-filters="sRGB"><feFlood flood-color="#fff" result="bg"/><feBlend in="SourceGraphic" in2="bg"/></filter><mask id="mask-7" x="0.01" y="0" width="286.91" height="200.5" maskUnits="userSpaceOnUse"><g class="cls-3"><path class="cls-4" d="M0,200.4l72.43,0q104.39.06,208.75.05h5.73V15c0-14.7-11.11-15-11.11-15H11.11S0,.3,0,15V200.4Z"/></g></mask><radialGradient id="radial-gradient-7" cx="144.77" cy="370.66" r="416.2" gradientUnits="userSpaceOnUse"><stop offset="0.62" stop-color="#fff"/><stop offset="0.75" stop-color="#fdfdfd"/><stop offset="0.82" stop-color="#f5f5f5"/><stop offset="0.88" stop-color="#e7e7e7"/><stop offset="0.93" stop-color="#d3d3d3"/><stop offset="0.98" stop-color="#bababa"/><stop offset="1" stop-color="#ababab"/></radialGradient><filter id="luminosity-noclip-8" x="5.29" y="0" width="281.62" height="401.67" filterUnits="userSpaceOnUse" color-interpolation-filters="sRGB"><feFlood flood-color="#fff" result="bg"/><feBlend in="SourceGraphic" in2="bg"/></filter><mask id="mask-8" x="5.29" y="0" width="281.62" height="401.67" maskUnits="userSpaceOnUse"><g class="cls-5"><path class="cls-6" d="M286.34,15V386.11c0,14.68-11.12,15-11.12,15h-265a11.3,11.3,0,0,1-5-1.61,11.45,11.45,0,0,0,5.82,2.19h264.7s11.11-.3,11.11-15V15c0-14.7-11.11-15-11.11-15h-.59S286.34.3,286.34,15Z"/></g></mask><radialGradient id="radial-gradient-8" cx="-12.26" cy="-0.18" r="462.12" gradientUnits="userSpaceOnUse"><stop offset="0.1" stop-color="#fff"/><stop offset="1" stop-color="#ababab"/></radialGradient><filter id="luminosity-noclip-9" x="0.01" y="0" width="281.63" height="401.67" filterUnits="userSpaceOnUse" color-interpolation-filters="sRGB"><feFlood flood-color="#fff" result="bg"/><feBlend in="SourceGraphic" in2="bg"/></filter><mask id="mask-9" x="0.01" y="0" width="281.63" height="401.67" maskUnits="userSpaceOnUse"><g class="cls-7"><path class="cls-8" d="M.59,386.69V15.56C.59.88,11.71.58,11.71.58h265a11.27,11.27,0,0,1,5,1.61A11.42,11.42,0,0,0,275.81,0H11.11S0,.3,0,15V386.67c0,14.7,11.1,15,11.1,15h.6S.59,401.37.59,386.69Z"/></g></mask><radialGradient id="radial-gradient-9" cx="78.38" cy="116.9" r="393.61" gradientUnits="userSpaceOnUse"><stop offset="0" stop-color="#fff"/><stop offset="0.14" stop-color="#fff"/><stop offset="1" stop-color="#fff"/></radialGradient><filter id="luminosity-noclip-10" x="0" y="29.03" width="0.58" height="346.34" filterUnits="userSpaceOnUse" color-interpolation-filters="sRGB"><feFlood flood-color="#fff" result="bg"/><feBlend in="SourceGraphic" in2="bg"/></filter><mask id="mask-10" x="0" y="29.03" width="0.58" height="346.34" maskUnits="userSpaceOnUse"><g class="cls-9"><path class="cls-10" d="M0,29V375.37c.19-.7.38-1.4.58-2.1V35.3Q.28,32.17,0,29Z"/></g></mask><radialGradient id="radial-gradient-10" cx="929.56" cy="-0.18" r="462.23" gradientTransform="matrix(-1, 0, 0, 1, 1228.91, 0)" xlink:href="#radial-gradient-8"/></defs><g class="cls-11"><g id="Layer_2" data-name="Layer 2"><g id="Layer_1-2" data-name="Layer 1"><path class="cls-12" d="M275.81,0H11.11S0,.3,0,15V386.67c0,14.7,11.1,15,11.1,15h264.7s11.11-.3,11.11-15V15C286.92.3,275.81,0,275.81,0Z"/><g class="cls-13"><path class="cls-14" d="M169.17,216.79,0,216.84V386.67c0,14.7,11.1,15,11.1,15h264.7s11.11-.3,11.11-15V216.77Z"/></g><g class="cls-15"><path class="cls-16" d="M0,200.4l72.43,0q104.39.06,208.75.05h5.73V15c0-14.7-11.11-15-11.11-15H11.11S0,.3,0,15V200.4Z"/></g><g class="cls-17"><path class="cls-18" d="M286.34,15V386.11c0,14.68-11.12,15-11.12,15h-265a11.3,11.3,0,0,1-5-1.61,11.45,11.45,0,0,0,5.82,2.19h264.7s11.11-.3,11.11-15V15c0-14.7-11.11-15-11.11-15h-.59S286.34.3,286.34,15Z"/></g><g class="cls-19"><path class="cls-20" d="M.59,386.69V15.56C.59.88,11.71.58,11.71.58h265a11.27,11.27,0,0,1,5,1.61A11.42,11.42,0,0,0,275.81,0H11.11S0,.3,0,15V386.67c0,14.7,11.1,15,11.1,15h.6S.59,401.37.59,386.69Z"/></g><g class="cls-21"><path class="cls-22" d="M0,29V375.37c.19-.7.38-1.4.58-2.1V35.3Q.28,32.17,0,29Z"/></g><path d="M28.65,79.83a25.56,25.56,0,0,1-4.84,12.7h9.67A25.49,25.49,0,0,1,28.65,79.83Z"/><path d="M35.65,71.38a7,7,0,0,0-2.71.55l-.06-.07a7,7,0,1,0-8.1.26,7,7,0,1,0,3.86,6.57h0a7,7,0,1,0,7-7.32Z"/><path d="M21.31,45.34a11,11,0,0,0,.16,2.21,2.72,2.72,0,0,0,.58,1.22,2.77,2.77,0,0,0,1.21.74,9.41,9.41,0,0,0,2,.4c.79.1,1.84.16,3.14.19V52H9.64V50.1a32.44,32.44,0,0,0,4-.34,4.9,4.9,0,0,0,1.84-.64,2.48,2.48,0,0,0,.92-1.22,7.86,7.86,0,0,0,.3-2.56V24.77a2.46,2.46,0,0,0-.36-1.49,1.23,1.23,0,0,0-1-.47,5.33,5.33,0,0,0-2.31.84q-1.5.84-3.7,2.31L8.19,24l11.87-7.07h1.4q-.15,2.43-.15,6.74Z"/><path d="M37.72,52.36a9,9,0,0,1-8.16-4.31Q26.89,43.75,26.89,35a34.49,34.49,0,0,1,.82-8.06A17.45,17.45,0,0,1,30,21.28,9.5,9.5,0,0,1,33.58,18a9.82,9.82,0,0,1,4.54-1.06,9.12,9.12,0,0,1,8.27,4.28q2.72,4.29,2.72,13,0,9-2.91,13.58A9.41,9.41,0,0,1,37.72,52.36ZM31.83,34.2q0,8.27,1.54,12.14c1,2.58,2.61,3.87,4.75,3.87s3.57-1.22,4.56-3.64,1.48-6.19,1.48-11.28a47.29,47.29,0,0,0-.76-9.45,11.77,11.77,0,0,0-2.12-5.18A4.18,4.18,0,0,0,38,19.08a4.27,4.27,0,0,0-2.93,1,7.33,7.33,0,0,0-1.91,3,20,20,0,0,0-1,4.75A57.27,57.27,0,0,0,31.83,34.2Z"/><path d="M259.05,320.78a25.55,25.55,0,0,1,4.84-12.69h-9.67A25.48,25.48,0,0,1,259.05,320.78Z"/><path d="M252.05,329.23a7,7,0,0,0,2.71-.54l.06.06a7,7,0,1,0,8.1-.26,6.92,6.92,0,0,0,3.14.74,7,7,0,1,0-7-7.31h0a7,7,0,1,0-7,7.32Z"/><path d="M266.4,355.28a11,11,0,0,0-.17-2.22,2.67,2.67,0,0,0-.58-1.22,2.71,2.71,0,0,0-1.21-.73,9.38,9.38,0,0,0-2-.41c-.8-.09-1.85-.16-3.15-.19v-1.85h18.74v1.85a37.52,37.52,0,0,0-4,.34,4.83,4.83,0,0,0-1.83.65,2.39,2.39,0,0,0-.93,1.22,7.88,7.88,0,0,0-.29,2.56v20.57a2.5,2.5,0,0,0,.35,1.48,1.21,1.21,0,0,0,1,.47,5.42,5.42,0,0,0,2.31-.83q1.5-.84,3.7-2.31l1.12,1.95-11.87,7.08h-1.4c.11-1.63.16-3.87.16-6.75Z"/><path d="M250,348.25a8.93,8.93,0,0,1,8.15,4.32q2.69,4.31,2.68,13.08a34.59,34.59,0,0,1-.83,8.07,17.45,17.45,0,0,1-2.31,5.62,9.47,9.47,0,0,1-3.56,3.28,9.83,9.83,0,0,1-4.54,1.07,9.12,9.12,0,0,1-8.27-4.29q-2.72-4.29-2.71-13,0-9,2.9-13.58A9.43,9.43,0,0,1,250,348.25Zm5.88,18.16q0-8.27-1.53-12.13c-1-2.58-2.61-3.87-4.76-3.87s-3.56,1.21-4.55,3.64-1.49,6.18-1.49,11.27a48,48,0,0,0,.76,9.45,11.88,11.88,0,0,0,2.12,5.19,4.19,4.19,0,0,0,3.29,1.57,4.3,4.3,0,0,0,2.93-1,7.28,7.28,0,0,0,1.9-3,20.52,20.52,0,0,0,1-4.76A60,60,0,0,0,255.87,366.41Z"/><path d="M143.46,273.27a50.61,50.61,0,0,0-9.59-25.19h19.19A50.57,50.57,0,0,0,143.46,273.27Z"/><path d="M171.27,276.14a13.9,13.9,0,0,0-27.79-.63l0,0a13.91,13.91,0,1,0-7.67,13,13.91,13.91,0,1,0,16.08.52L152,289a13.74,13.74,0,0,0,5.37,1.09A13.9,13.9,0,0,0,171.27,276.14Z"/><path d="M143.46,126.71a50.67,50.67,0,0,1-9.59,25.19h19.19A50.62,50.62,0,0,1,143.46,126.71Z"/><path d="M157.36,109.93A13.74,13.74,0,0,0,152,111l-.13-.13a13.9,13.9,0,1,0-16.08.51,13.9,13.9,0,1,0,7.67,13l0,0a13.9,13.9,0,1,0,13.88-14.53Z"/><path d="M196.46,88.16a50.61,50.61,0,0,1-9.59,25.19h19.18A50.61,50.61,0,0,1,196.46,88.16Z"/><path d="M210.36,71.39A13.7,13.7,0,0,0,205,72.47a.8.8,0,0,1-.13-.13,13.89,13.89,0,1,0-16.08.52,13.9,13.9,0,1,0,7.66,13l0,0a13.9,13.9,0,1,0,13.88-14.52Z"/><path d="M196.46,313.51a50.61,50.61,0,0,1,9.59-25.19H186.87A50.61,50.61,0,0,1,196.46,313.51Z"/><path d="M182.56,330.29a13.74,13.74,0,0,0,5.37-1.09l.13.13a13.89,13.89,0,1,0,16.08-.52,13.9,13.9,0,1,0-7.66-13l0,0a13.9,13.9,0,1,0-13.88,14.53Z"/><path d="M196.46,168.48a50.67,50.67,0,0,1-9.59,25.19h19.18A50.67,50.67,0,0,1,196.46,168.48Z"/><path d="M210.36,151.7a13.7,13.7,0,0,0-5.37,1.09,1.59,1.59,0,0,1-.13-.13,13.9,13.9,0,1,0-16.08.51,13.9,13.9,0,1,0,7.66,13l0,0a13.9,13.9,0,1,0,13.88-14.53Z"/><path d="M196.46,233.19A50.67,50.67,0,0,0,186.87,208h19.18A50.67,50.67,0,0,0,196.46,233.19Z"/><path d="M224.26,236.07a13.9,13.9,0,0,0-27.78-.63.05.05,0,0,1,0,0,13.89,13.89,0,1,0-7.66,13,13.9,13.9,0,1,0,16.08.51,1.59,1.59,0,0,1,.13-.13,13.7,13.7,0,0,0,5.37,1.09A13.9,13.9,0,0,0,224.26,236.07Z"/><path d="M90.47,88.16a50.57,50.57,0,0,1-9.6,25.19h19.19A50.61,50.61,0,0,1,90.47,88.16Z"/><path d="M104.37,71.39A13.74,13.74,0,0,0,99,72.47l-.12-.13a13.89,13.89,0,1,0-16.08.52,13.9,13.9,0,1,0,7.66,13l0,0a13.9,13.9,0,1,0,13.89-14.52Z"/><path d="M90.47,168.48a50.62,50.62,0,0,1-9.6,25.19h19.19A50.67,50.67,0,0,1,90.47,168.48Z"/><path d="M104.37,151.7A13.75,13.75,0,0,0,99,152.79l-.12-.13a13.9,13.9,0,1,0-16.08.51,13.9,13.9,0,1,0,7.66,13l0,0a13.9,13.9,0,1,0,13.89-14.53Z"/><path d="M90.47,233.19A50.62,50.62,0,0,0,80.87,208h19.19A50.67,50.67,0,0,0,90.47,233.19Z"/><path d="M118.27,236.07a13.9,13.9,0,0,0-27.79-.63l0,0a13.89,13.89,0,1,0-7.66,13,13.9,13.9,0,1,0,16.08.51l.12-.13a13.75,13.75,0,0,0,5.38,1.09A13.91,13.91,0,0,0,118.27,236.07Z"/><path d="M90.47,313.51a50.61,50.61,0,0,1,9.59-25.19H80.87A50.57,50.57,0,0,1,90.47,313.51Z"/><path d="M76.56,330.29a13.75,13.75,0,0,0,5.38-1.09l.12.13a13.9,13.9,0,1,0,16.09-.52,13.9,13.9,0,1,0-7.67-13l0,0a13.9,13.9,0,1,0-13.89,14.53Z"/></g></g></g></svg>