<svg xmlns="http://www.w3.org/2000/svg" xmlns:xlink="http://www.w3.org/1999/xlink" viewBox="0 0 249.89 349.84"><defs><style>.cls-1{mask:url(#mask);filter:url(#luminosity-noclip-6);}.cls-10,.cls-14,.cls-16,.cls-2,.cls-4,.cls-6,.cls-8{mix-blend-mode:multiply;}.cls-2{fill:url(#radial-gradient);}.cls-3{mask:url(#mask-2);filter:url(#luminosity-noclip-7);}.cls-4{fill:url(#radial-gradient-2);}.cls-5{mask:url(#mask-3);filter:url(#luminosity-noclip-8);}.cls-6{fill:url(#radial-gradient-3);}.cls-7{mask:url(#mask-4);filter:url(#luminosity-noclip-9);}.cls-8{fill:url(#radial-gradient-4);}.cls-9{mask:url(#mask-5);filter:url(#luminosity-noclip-10);}.cls-10{fill:url(#radial-gradient-5);}.cls-11{isolation:isolate;}.cls-12{fill:#fff;}.cls-13{mask:url(#mask-6);}.cls-14{fill:url(#radial-gradient-6);}.cls-15{mask:url(#mask-7);}.cls-16{fill:url(#radial-gradient-7);}.cls-17{mask:url(#mask-8);}.cls-18{fill:url(#radial-gradient-8);}.cls-19{mask:url(#mask-9);}.cls-20{mix-blend-mode:screen;fill:url(#radial-gradient-9);}.cls-21{mask:url(#mask-10);}.cls-22{fill:url(#radial-gradient-10);}.cls-23{filter:url(#luminosity-noclip-5);}.cls-24{filter:url(#luminosity-noclip-4);}.cls-25{filter:url(#luminosity-noclip-3);}.cls-26{filter:url(#luminosity-noclip-2);}.cls-27{filter:url(#luminosity-noclip);}</style><filter id="luminosity-noclip" x="0.01" y="-8550.29" width="249.88" height="32766" filterUnits="userSpaceOnUse" color-interpolation-filters="sRGB"><feFlood flood-color="#fff" result="bg"/><feBlend in="SourceGraphic" in2="bg"/></filter><mask id="mask" x="0.01" y="-8550.29" width="249.88" height="32766" maskUnits="userSpaceOnUse"><g class="cls-27"/></mask><radialGradient id="radial-gradient" cx="121.08" cy="-119.27" r="505.88" gradientUnits="userSpaceOnUse"><stop offset="0.62"/><stop offset="0.75" stop-color="#020202"/><stop offset="0.8" stop-color="#090909"/><stop offset="0.84" stop-color="#151515"/><stop offset="0.87" stop-color="#262626"/><stop offset="0.9" stop-color="#3c3c3c"/><stop offset="0.92" stop-color="#585858"/><stop offset="0.94" stop-color="#797979"/><stop offset="0.96" stop-color="#9f9f9f"/><stop offset="0.98" stop-color="#cbcbcb"/><stop offset="1" stop-color="#f9f9f9"/><stop offset="1" stop-color="#fff"/></radialGradient><filter id="luminosity-noclip-2" x="0.01" y="-8550.29" width="249.89" height="32766" filterUnits="userSpaceOnUse" color-interpolation-filters="sRGB"><feFlood flood-color="#fff" result="bg"/><feBlend in="SourceGraphic" in2="bg"/></filter><mask id="mask-2" x="0.01" y="-8550.29" width="249.89" height="32766" maskUnits="userSpaceOnUse"><g class="cls-26"/></mask><radialGradient id="radial-gradient-2" cx="126.09" cy="322.84" r="362.49" gradientUnits="userSpaceOnUse"><stop offset="0.62"/><stop offset="0.71" stop-color="#020202"/><stop offset="0.76" stop-color="#0a0a0a"/><stop offset="0.8" stop-color="#181818"/><stop offset="0.84" stop-color="#2c2c2c"/><stop offset="0.88" stop-color="#464646"/><stop offset="0.91" stop-color="#656565"/><stop offset="0.94" stop-color="#8a8a8a"/><stop offset="0.96" stop-color="#b6b6b6"/><stop offset="0.99" stop-color="#e5e5e5"/><stop offset="1" stop-color="#fff"/></radialGradient><filter id="luminosity-noclip-3" x="4.61" y="-8550.29" width="245.29" height="32766" filterUnits="userSpaceOnUse" color-interpolation-filters="sRGB"><feFlood flood-color="#fff" result="bg"/><feBlend in="SourceGraphic" in2="bg"/></filter><mask id="mask-3" x="4.61" y="-8550.29" width="245.29" height="32766" maskUnits="userSpaceOnUse"><g class="cls-25"/></mask><radialGradient id="radial-gradient-3" cx="-10.68" cy="-0.16" r="402.5" gradientUnits="userSpaceOnUse"><stop offset="0.1"/><stop offset="1" stop-color="#fff"/></radialGradient><filter id="luminosity-noclip-4" x="0.01" y="-8550.29" width="245.29" height="32766" filterUnits="userSpaceOnUse" color-interpolation-filters="sRGB"><feFlood flood-color="#fff" result="bg"/><feBlend in="SourceGraphic" in2="bg"/></filter><mask id="mask-4" x="0.01" y="-8550.29" width="245.29" height="32766" maskUnits="userSpaceOnUse"><g class="cls-24"/></mask><radialGradient id="radial-gradient-4" cx="68.26" cy="101.81" r="342.82" gradientUnits="userSpaceOnUse"><stop offset="0"/><stop offset="0.01" stop-color="#090909"/><stop offset="0.05" stop-color="#373737"/><stop offset="0.09" stop-color="#626262"/><stop offset="0.14" stop-color="#888"/><stop offset="0.2" stop-color="#a8a8a8"/><stop offset="0.25" stop-color="#c4c4c4"/><stop offset="0.32" stop-color="#dadada"/><stop offset="0.4" stop-color="#ebebeb"/><stop offset="0.49" stop-color="#f6f6f6"/><stop offset="0.63" stop-color="#fdfdfd"/><stop offset="1" stop-color="#fff"/></radialGradient><filter id="luminosity-noclip-5" x="0" y="-8550.29" width="0.51" height="32766" filterUnits="userSpaceOnUse" color-interpolation-filters="sRGB"><feFlood flood-color="#fff" result="bg"/><feBlend in="SourceGraphic" in2="bg"/></filter><mask id="mask-5" x="0" y="-8550.29" width="0.51" height="32766" maskUnits="userSpaceOnUse"><g class="cls-23"/></mask><radialGradient id="radial-gradient-5" cx="1921.98" cy="-0.16" r="402.45" gradientTransform="matrix(-1, 0, 0, 1, 2182.48, 0)" xlink:href="#radial-gradient-3"/><filter id="luminosity-noclip-6" x="0.01" y="188.8" width="249.88" height="161.04" filterUnits="userSpaceOnUse" color-interpolation-filters="sRGB"><feFlood flood-color="#fff" result="bg"/><feBlend in="SourceGraphic" in2="bg"/></filter><mask id="mask-6" x="0.01" y="188.8" width="249.88" height="161.04" maskUnits="userSpaceOnUse"><g class="cls-1"><path class="cls-2" d="M147.35,188.81,0,188.86V336.78c0,12.8,9.67,13.06,9.67,13.06H240.22s9.67-.26,9.67-13.06v-148Z"/></g></mask><radialGradient id="radial-gradient-6" cx="121.08" cy="-119.27" r="505.88" gradientUnits="userSpaceOnUse"><stop offset="0.62" stop-color="#fff"/><stop offset="0.79" stop-color="#fdfdfd"/><stop offset="0.85" stop-color="#f6f6f6"/><stop offset="0.9" stop-color="#eaeaea"/><stop offset="0.94" stop-color="#d9d9d9"/><stop offset="0.97" stop-color="#c3c3c3"/><stop offset="1" stop-color="#ababab"/></radialGradient><filter id="luminosity-noclip-7" x="0.01" y="0" width="249.89" height="174.63" filterUnits="userSpaceOnUse" color-interpolation-filters="sRGB"><feFlood flood-color="#fff" result="bg"/><feBlend in="SourceGraphic" in2="bg"/></filter><mask id="mask-7" x="0.01" y="0" width="249.89" height="174.63" maskUnits="userSpaceOnUse"><g class="cls-3"><path class="cls-4" d="M0,174.54l63.09.05q90.9,0,181.81,0h5V13.07C249.89.26,240.22,0,240.22,0H9.68S0,.26,0,13.07V174.54Z"/></g></mask><radialGradient id="radial-gradient-7" cx="126.09" cy="322.84" r="362.49" gradientUnits="userSpaceOnUse"><stop offset="0.62" stop-color="#fff"/><stop offset="0.75" stop-color="#fdfdfd"/><stop offset="0.82" stop-color="#f5f5f5"/><stop offset="0.88" stop-color="#e7e7e7"/><stop offset="0.93" stop-color="#d3d3d3"/><stop offset="0.98" stop-color="#bababa"/><stop offset="1" stop-color="#ababab"/></radialGradient><filter id="luminosity-noclip-8" x="4.61" y="0" width="245.29" height="349.84" filterUnits="userSpaceOnUse" color-interpolation-filters="sRGB"><feFlood flood-color="#fff" result="bg"/><feBlend in="SourceGraphic" in2="bg"/></filter><mask id="mask-8" x="4.61" y="0" width="245.29" height="349.84" maskUnits="userSpaceOnUse"><g class="cls-5"><path class="cls-6" d="M249.39,13.05V336.29c0,12.78-9.68,13-9.68,13H8.93a9.71,9.71,0,0,1-4.32-1.39,10,10,0,0,0,5.07,1.9H240.22s9.67-.26,9.67-13.07V13.06C249.89.26,240.22,0,240.22,0h-.51S249.39.26,249.39,13.05Z"/></g></mask><radialGradient id="radial-gradient-8" cx="-10.68" cy="-0.16" r="402.5" gradientUnits="userSpaceOnUse"><stop offset="0.1" stop-color="#fff"/><stop offset="1" stop-color="#ababab"/></radialGradient><filter id="luminosity-noclip-9" x="0.01" y="0" width="245.29" height="349.84" filterUnits="userSpaceOnUse" color-interpolation-filters="sRGB"><feFlood flood-color="#fff" result="bg"/><feBlend in="SourceGraphic" in2="bg"/></filter><mask id="mask-9" x="0.01" y="0" width="245.29" height="349.84" maskUnits="userSpaceOnUse"><g class="cls-7"><path class="cls-8" d="M.51,336.79V13.55c0-12.78,9.68-13,9.68-13H241a9.87,9.87,0,0,1,4.32,1.39A10,10,0,0,0,240.22,0H9.68S0,.26,0,13.07V336.78c0,12.8,9.67,13.06,9.67,13.06h.51S.51,349.58.51,336.79Z"/></g></mask><radialGradient id="radial-gradient-9" cx="68.26" cy="101.81" r="342.82" gradientUnits="userSpaceOnUse"><stop offset="0" stop-color="#fff"/><stop offset="0.14" stop-color="#fff"/><stop offset="1" stop-color="#fff"/></radialGradient><filter id="luminosity-noclip-10" x="0" y="25.28" width="0.51" height="301.65" filterUnits="userSpaceOnUse" color-interpolation-filters="sRGB"><feFlood flood-color="#fff" result="bg"/><feBlend in="SourceGraphic" in2="bg"/></filter><mask id="mask-10" x="0" y="25.28" width="0.51" height="301.65" maskUnits="userSpaceOnUse"><g class="cls-9"><path class="cls-10" d="M0,25.28V326.93c.17-.61.33-1.22.51-1.83V30.75C.33,28.92.17,27.1,0,25.28Z"/></g></mask><radialGradient id="radial-gradient-10" cx="1921.98" cy="-0.16" r="402.45" gradientTransform="matrix(-1, 0, 0, 1, 2182.48, 0)" xlink:href="#radial-gradient-8"/></defs><g class="cls-11"><g id="Layer_2" data-name="Layer 2"><g id="Layer_1-2" data-name="Layer 1"><path class="cls-12" d="M240.22,0H9.68S0,.26,0,13.07V336.78c0,12.8,9.67,13.06,9.67,13.06H240.22s9.67-.26,9.67-13.06V13.07C249.89.26,240.22,0,240.22,0Z"/><g class="cls-13"><path class="cls-14" d="M147.35,188.81,0,188.86V336.78c0,12.8,9.67,13.06,9.67,13.06H240.22s9.67-.26,9.67-13.06v-148Z"/></g><g class="cls-15"><path class="cls-16" d="M0,174.54l63.09.05q90.9,0,181.81,0h5V13.07C249.89.26,240.22,0,240.22,0H9.68S0,.26,0,13.07V174.54Z"/></g><g class="cls-17"><path class="cls-18" d="M249.39,13.05V336.29c0,12.78-9.68,13-9.68,13H8.93a9.71,9.71,0,0,1-4.32-1.39,10,10,0,0,0,5.07,1.9H240.22s9.67-.26,9.67-13.07V13.06C249.89.26,240.22,0,240.22,0h-.51S249.39.26,249.39,13.05Z"/></g><g class="cls-19"><path class="cls-20" d="M.51,336.79V13.55c0-12.78,9.68-13,9.68-13H241a9.87,9.87,0,0,1,4.32,1.39A10,10,0,0,0,240.22,0H9.68S0,.26,0,13.07V336.78c0,12.8,9.67,13.06,9.67,13.06h.51S.51,349.58.51,336.79Z"/></g><g class="cls-21"><path class="cls-22" d="M0,25.28V326.93c.17-.61.33-1.22.51-1.83V30.75C.33,28.92.17,27.1,0,25.28Z"/></g><path d="M19.85,67.18a22.15,22.15,0,0,1-4.21,11h8.42A22.26,22.26,0,0,1,19.85,67.18Z"/><path d="M27.71,57.54a32.28,32.28,0,0,1-7.86-7.47h0A32,32,0,0,1,12,57.54c-5.28,3.65-6.48,8.2-4.59,11.64s9.44,5.11,12.45-1.71c3,6.82,10.57,5.15,12.46,1.71S33,61.19,27.71,57.54Z"/><path d="M23.49,45.52V44.43A7.19,7.19,0,0,0,25.13,44a1.88,1.88,0,0,0,.81-.74,2.58,2.58,0,0,0,.26-1.27A8.14,8.14,0,0,0,26,40.31q-.18-.87-.51-2l-.82-2.85H14.41l-.75,2.16a19,19,0,0,0-.75,2.48,7.27,7.27,0,0,0-.18,1.52,2.53,2.53,0,0,0,.67,1.95,3.81,3.81,0,0,0,2.07.81v1.09H6V44.43A3.33,3.33,0,0,0,8.19,43,15.2,15.2,0,0,0,10,39.46L19.18,15h3.49l7.51,24.63a24,24,0,0,0,.94,2.63,4.14,4.14,0,0,0,1,1.41,3.6,3.6,0,0,0,1.57.75v1.09ZM15,33.59h9.24L20,19.34Z"/><path d="M229.37,282.05A22.15,22.15,0,0,1,233.58,271h-8.42A22.26,22.26,0,0,1,229.37,282.05Z"/><path d="M221.51,291.69a32.28,32.28,0,0,1,7.86,7.47h0a32,32,0,0,1,7.86-7.47c5.28-3.65,6.48-8.2,4.59-11.64s-9.45-5.11-12.45,1.71c-3-6.82-10.57-5.15-12.46-1.71S216.22,288,221.51,291.69Z"/><path d="M225.73,303.71v1.09a7.74,7.74,0,0,0-1.64.48,1.88,1.88,0,0,0-.81.74,2.58,2.58,0,0,0-.26,1.27,8.14,8.14,0,0,0,.17,1.63q.18.87.51,1.95l.82,2.85h10.29l.75-2.16a19,19,0,0,0,.75-2.48,7.27,7.27,0,0,0,.18-1.52,2.51,2.51,0,0,0-.67-1.94,3.74,3.74,0,0,0-2.07-.82v-1.09h9.43v1.09a3.34,3.34,0,0,0-2.15,1.43,15.2,15.2,0,0,0-1.78,3.54L230,334.22h-3.49L219,309.59a24,24,0,0,0-.94-2.63,4.14,4.14,0,0,0-1-1.41,3.65,3.65,0,0,0-1.57-.75v-1.09Zm8.49,11.93H225l4.2,14.25Z"/><path d="M184.25,171.51a6.09,6.09,0,0,0-1.56-.24,6,6,0,1,0-5-10.93,5.94,5.94,0,0,0,2.72-3.46A6,6,0,0,0,171.5,150a6,6,0,0,0-7.06-9.66,6,6,0,0,0-7.13-9.38,6,6,0,0,0-7.79-8.7,6,6,0,0,0-4.74-9.72,6.07,6.07,0,0,0-1.77.27,6,6,0,0,0-5-9.42,5.94,5.94,0,0,0-3.05.84,6,6,0,0,0-3.37-9.89c-1-2.78-3.28-5.55-6.43-5.17a5.91,5.91,0,0,0-5.49,5.14,6,6,0,0,0-3.6,9.92,5.93,5.93,0,0,0-3-.84,6,6,0,0,0-5,9.42,6,6,0,0,0-7.78,5.75,6,6,0,0,0,1.28,3.7,6,6,0,0,0-8.84,5.31,6.06,6.06,0,0,0,1,3.39,5.9,5.9,0,0,0-2.62-.61,6,6,0,0,0-4.51,10,5.93,5.93,0,0,0-3-.83,6,6,0,0,0-4,10.49,6,6,0,1,0-6.18,10.31,6,6,0,0,0-8.36,7.14,6,6,0,0,0,3.35,3.79,6,6,0,1,0,.81,12,2,2,0,0,1,0,.24,6,6,0,1,0,3.48,11.33,6,6,0,1,0,10,6.49,6,6,0,0,0,.27,4.79,6,6,0,0,0,11-.69,6,6,0,0,0,11.84-1.83,6,6,0,0,0,10-6.27,5.14,5.14,0,0,0,6.65-6.44,4.11,4.11,0,0,0,2.93-1.58,4.09,4.09,0,0,0,2.92,1.58,5.14,5.14,0,0,0,6.65,6.44,6,6,0,0,0,10,6.27A6,6,0,0,0,157,205.41a6,6,0,1,0,11.31-4.06h0a6,6,0,1,0,10-6.53,6,6,0,1,0,3.6-11.31c0-.08,0-.16,0-.25a6,6,0,0,0,2.26-11.75ZM180,162.12a4.72,4.72,0,0,1,3.18,5.87,4.62,4.62,0,0,1-1.95,2.57c-.14-.52-.3-1-.46-1.54a3.85,3.85,0,0,0,.28-.66,3.73,3.73,0,0,0-2.4-4.61c-.27-.57-.55-1.14-.85-1.72A4.57,4.57,0,0,1,180,162.12Zm-51.58,22.32a.87.87,0,1,1,.87.87A.87.87,0,0,1,128.41,184.44ZM73.9,160.58c.08,0,.18.07.26.11l0,.06Zm6.6-9.89.21.11a.21.21,0,0,0,0,.06Zm7.63-9.12.12.07,0,0A1,1,0,0,1,88.13,141.57Zm15.39-17.67a5.69,5.69,0,0,0,.56.26l-.22.26A5.8,5.8,0,0,0,103.52,123.9Zm7.78-8.71.31.07-.15.2C111.4,115.37,111.35,115.28,111.3,115.19Zm7.08-8.52a6.24,6.24,0,0,0-.81-1.21,5.4,5.4,0,0,0,1.31.54Zm14-.7a5.55,5.55,0,0,0,1.2-.51,7,7,0,0,0-.76,1.11Zm7.26,9.27.22,0-.11.19Zm7.52,8.88a3.41,3.41,0,0,0,.48-.22c-.11.14-.2.29-.3.44Zm10.06,19.26a1.75,1.75,0,1,1,1.75,1.74A1.74,1.74,0,0,1,157.18,143.38Zm8.2,9.94a1.74,1.74,0,1,1,1.74,1.74A1.74,1.74,0,0,1,165.38,153.32ZM146.89,194.1a1.75,1.75,0,1,1-1.75-1.75A1.75,1.75,0,0,1,146.89,194.1Zm-9.84-4.28a1.26,1.26,0,1,1-1.26-1.26A1.25,1.25,0,0,1,137.05,189.82Zm-20.34,0a1.27,1.27,0,1,1-1.27-1.26A1.26,1.26,0,0,1,116.71,189.82Zm-8.87,4.28a1.75,1.75,0,1,1-1.75-1.75A1.74,1.74,0,0,1,107.84,194.1ZM82.37,153.32a1.75,1.75,0,1,1,1.75,1.74A1.74,1.74,0,0,1,82.37,153.32Zm8.2-9.94a1.74,1.74,0,1,1,1.74,1.74A1.74,1.74,0,0,1,90.57,143.38Zm16.71-18.68a1.75,1.75,0,1,1,1.75,1.74A1.75,1.75,0,0,1,107.28,124.7Zm7.87-9.24a1.74,1.74,0,1,1,1.74,1.75A1.74,1.74,0,0,1,115.15,115.46Zm10.48-16.8h0v0Zm0,0v0h0Zm0,4.32h.14a1.75,1.75,0,0,1,0,3.49l-.14,0-.14,0a1.75,1.75,0,1,1,0-3.49Zm7,12.49a1.75,1.75,0,1,1,1.75,1.75A1.74,1.74,0,0,1,132.6,115.46Zm7.87,9.24a1.74,1.74,0,1,1,1.74,1.74A1.74,1.74,0,0,1,140.47,124.7Zm14.16,58.9a2.56,2.56,0,0,0-.89-.65l-.11-.1a3.58,3.58,0,0,0-3.19-.39,2.13,2.13,0,0,0-.94,2.87,2.19,2.19,0,0,0,1.31,1.17,1.06,1.06,0,0,0,.53,0s.53-.25.21-.12a.38.38,0,0,0,.23-.34l.07-.09a.12.12,0,0,0-.08-.17h0c0-.51-.38-.93.18-1.37a1.67,1.67,0,0,1,.71-.35c1.27.89,2.3,2.7.38,3.87a8.45,8.45,0,0,1-2.74,1c-1.94.44-3.84.53-5.48-.78-2.24-1.8-1.88-5.69.27-7.39a7.61,7.61,0,0,1,3.28-1.32,11.45,11.45,0,0,0,4.51-1.53c6.61-3.5,5.3-12.83.8-17.44-.21-.22-.43-.42-.66-.63a4.16,4.16,0,0,0,.54.08c2.07.17,4.72-.32,5.92-2.27a6,6,0,0,0-5.06-8.92c-2.31,0-5.76,2.16-5.51,4.45a3.37,3.37,0,0,0,3,3.5c2.31.17,4.44-2,2.66-4.13-.71-.82-2.16-1.27-2.78-.13a1.46,1.46,0,0,0,.54,1.91,1.18,1.18,0,0,1-.38.09,2.21,2.21,0,0,1-1.86-.66c-.33-.45-.22-.8-.18-1.35a.18.18,0,0,0,0-.14,2.75,2.75,0,0,1,1-1,6.26,6.26,0,0,1,2.49-.47c1.79.09,4.27.75,4.71,2.76a4.22,4.22,0,0,1-2.86,5.11,5.92,5.92,0,0,1-3.3.28c-4.27-3.13-10.54-4.3-15.13-1.36a10.15,10.15,0,0,0-1.55.32c1.21-.94,2.49-1.84,3.86-2.76,2.59-1.74,6.3-3.86,7.51-6.93,1.66-4.23,1.17-10.19-3.92-11.56-2.11-.57-4.32,1.23-5,3.31a7.79,7.79,0,0,0-4.56-4.52,6.33,6.33,0,0,0,3.51-2.83c2.22-4.24-1.17-6.6-2.7-10.25,0,0-.07,0-.06,0,.8,3.18,3.7,7.43-.47,10a18.33,18.33,0,0,1-2.92,1.35,5.36,5.36,0,0,0,1.05-.94,8.63,8.63,0,0,0,1.56-5.58c-.07-4.35-4.54-6.93-6.26-10.68a12,12,0,0,1-1.33-2.71,9.89,9.89,0,0,1-1.66,3.85c-2,3.16-5.58,5.64-5.64,9.54a8.58,8.58,0,0,0,1.57,5.58,5.29,5.29,0,0,0,1,.94,19.18,19.18,0,0,1-2.92-1.35c-4.16-2.54-1.26-6.79-.47-10,0,0,0,0-.06,0-1.52,3.65-4.92,6-2.69,10.25a6.31,6.31,0,0,0,3.5,2.83,7.82,7.82,0,0,0-4.56,4.52c-.73-2.08-2.93-3.88-5-3.31-5.09,1.37-5.57,7.33-3.91,11.56,1.2,3.07,4.91,5.19,7.51,6.93,1.36.92,2.64,1.82,3.86,2.76a10.28,10.28,0,0,0-1.56-.32c-4.59-2.94-10.85-1.77-15.13,1.36A5.88,5.88,0,0,1,96,158.6a4.2,4.2,0,0,1-2.86-5.11c.44-2,2.91-2.67,4.7-2.76a6.26,6.26,0,0,1,2.49.47,2.67,2.67,0,0,1,1,1,.33.33,0,0,0,0,.14c0,.55.16.9-.18,1.35a2.2,2.2,0,0,1-1.86.66,1.18,1.18,0,0,1-.38-.09,1.47,1.47,0,0,0,.55-1.91c-.63-1.14-2.08-.69-2.78.13-1.79,2.08.35,4.3,2.65,4.13a3.36,3.36,0,0,0,3-3.5c.25-2.29-3.2-4.45-5.51-4.45a6,6,0,0,0-5.06,8.92c1.2,1.95,3.86,2.44,5.92,2.27a4.29,4.29,0,0,0,.55-.08c-.23.21-.46.41-.67.63-4.5,4.61-5.8,13.94.81,17.44a11.46,11.46,0,0,0,4.5,1.53,7.7,7.7,0,0,1,3.29,1.32c2.14,1.7,2.51,5.59.26,7.39-1.63,1.31-3.54,1.22-5.47.78a8.5,8.5,0,0,1-2.75-1c-1.92-1.17-.88-3,.39-3.87a1.64,1.64,0,0,1,.7.35c.56.44.21.86.19,1.37h0a.12.12,0,0,0-.09.17l.08.09a.36.36,0,0,0,.22.34c-.32-.13.16.1.21.12a1.06,1.06,0,0,0,.53,0,2.24,2.24,0,0,0,1.32-1.17,2.15,2.15,0,0,0-1-2.87,3.58,3.58,0,0,0-3.19.39l-.1.1a2.39,2.39,0,0,0-.89.65A4.8,4.8,0,0,0,96,188a4.68,4.68,0,0,0,1.42,1.65c-5.7-.75-10.57-3.63-12.93-9-5.67-13,1.48-24.65,16.85-40.79,17.81-18.69,24-28.94,24.21-29.3v0h0v0c.22.36,6.39,10.61,24.2,29.3,15.36,16.14,22.52,27.83,16.85,40.79-2.36,5.4-7.24,8.28-12.94,9a4.2,4.2,0,0,0,.94-6.09Zm-12.8,2.11a7.43,7.43,0,0,0,1.1,2.67,44.1,44.1,0,0,1-6.49-4.38c-3.84-2.93-7.2-7.29-8.19-12.13-1.06-5.19,2.92-12.22,8.82-12.12,4.07.07,10.23,1.95,8.27,7.87a5.37,5.37,0,0,1-4.87,3.42c-1.89.39-2.51-.71-1.84-3.3,0,.09.21.08.17,0-.53-1.6-3.22-3.54-4.44-1-1.5,3.08.74,5.85,3.78,6.7a7.3,7.3,0,0,0,6-.86,4.8,4.8,0,0,0,1.56,6.1,3.79,3.79,0,0,0,.6.38A5.82,5.82,0,0,0,141.83,185.71Zm-3.47-42c1.83,1.81,4.06,0,2.74-2.56a0,0,0,0,0,0,0c-2.28-6.29,5.28-4.34,4.85.75a16,16,0,0,1-2,6.4c-1.43,3-3.86,5-6.61,6.77a28.37,28.37,0,0,0-5.5,4.42,13.48,13.48,0,0,0-4.13,4.79,17.53,17.53,0,0,1,3.11-6c2.56-3.22,6.46-6.78,7.3-11A15.21,15.21,0,0,0,138.36,143.67Zm10.8,31,.5.17a1,1,0,0,0,1.1-.44c2-3-1.73-5-4.5-4a7.92,7.92,0,0,0,1.36-3.16c.76-4-2.18-7.4-5.52-8.91a10.25,10.25,0,0,0-4.46-.93c6-2.15,14.32,1.07,17,6.65,1.6,3.31,2.15,9.56-1.4,12.08-1.61,1.14-5.35,2.38-6.95.11q-2.91-5.53,2.58-4C147.28,172.2,148.17,174.4,149.16,174.71Zm-18.92-48.86c0,3.18-1.3,6-3.49,8.91a7.12,7.12,0,0,0-1.19,2.49,7,7,0,0,0-1.2-2.49c-2.19-2.94-3.49-5.73-3.49-8.91a7.21,7.21,0,0,1,.41-1.18c1.3-3,3.84-4.92,4.28-7.76.43,2.84,3,4.81,4.28,7.76A8.21,8.21,0,0,1,130.24,125.85ZM104.83,179a5,5,0,0,0,.6-.38,4.82,4.82,0,0,0,1.56-6.1,7.29,7.29,0,0,0,6,.86c3-.85,5.27-3.62,3.77-6.7-1.21-2.49-3.9-.55-4.44,1,0,.12.13.13.18,0,.66,2.59.05,3.69-1.85,3.3a5.35,5.35,0,0,1-4.86-3.42c-2-5.92,4.19-7.8,8.26-7.87,5.9-.1,9.88,6.93,8.82,12.12-1,4.84-4.35,9.2-8.19,12.13a43.58,43.58,0,0,1-6.49,4.38,7.26,7.26,0,0,0,1.11-2.67A5.82,5.82,0,0,0,104.83,179Zm-1.34-11.67a8.06,8.06,0,0,0,1.36,3.16c-2.77-1.05-6.5,1-4.5,4a1,1,0,0,0,1.1.44l.51-.17c1-.31,1.87-2.51.27-2.45q5.49-1.48,2.58,4c-1.59,2.27-5.33,1-6.94-.11-3.56-2.52-3-8.77-1.4-12.08,2.68-5.58,11-8.8,17-6.65a10.25,10.25,0,0,0-4.46.93C105.68,159.9,102.73,163.34,103.49,167.3Zm15.84-7.84a28,28,0,0,0-5.49-4.42c-2.76-1.78-5.19-3.75-6.62-6.77a16.32,16.32,0,0,1-2-6.4c-.42-5.09,7.14-7,4.85-.75,0,0,0,0,0,0-1.32,2.56.9,4.37,2.74,2.56a15.18,15.18,0,0,0,.29,3.56c.84,4.23,4.74,7.79,7.3,11a17.35,17.35,0,0,1,3.11,6A13.38,13.38,0,0,0,119.33,159.46Zm6.24-50.78h0v0Zm0,0v0h0Zm-25.29,27.49a1.75,1.75,0,1,1,1.75-1.74A1.74,1.74,0,0,1,100.27,136.16Zm-15.74,55a2.16,2.16,0,1,1-2.16,2.15A2.15,2.15,0,0,1,84.53,191.12Zm28.1-3.89c.64-.41,1.25-.83,1.84-1.22,4.75-3.17,8.28-7.22,10-12.7a11,11,0,0,0,.47-3.44,13.81,13.81,0,0,0-1.39-8.62c-1.87-3.33-4.53-6.07-6.36-9.4a24.29,24.29,0,0,1-2.08-5.57,13.33,13.33,0,0,1-.43-3c0-.8.07-1.6.11-2.39,1.17-4,7.44-5.12,7.22-.59-1.93,0-4.6,2.67-1.64,4.66,2.34,1.58,4.31.24,5.22-1.89.91,2.13,2.87,3.47,5.22,1.89,3-2,.28-4.66-1.64-4.66-.22-4.53,6.05-3.44,7.22.59,0,.79.07,1.59.11,2.39a13.34,13.34,0,0,1-.44,3,23.84,23.84,0,0,1-2.08,5.57c-1.83,3.33-4.48,6.07-6.35,9.4a13.81,13.81,0,0,0-1.4,8.62,11.25,11.25,0,0,0,.47,3.44c1.69,5.48,5.23,9.53,10,12.7l1.83,1.21a29.88,29.88,0,0,1-12.91-10.65A29.83,29.83,0,0,1,112.63,187.23Zm54.07,3.89a2.16,2.16,0,1,1-2.16,2.15A2.16,2.16,0,0,1,166.7,191.12Zm-15.73-55a1.75,1.75,0,1,1,1.74-1.74A1.74,1.74,0,0,1,151,136.16Zm-25.16-39.6c-.1-.15-.15-.25-.18-.28v0h0v0h0v0h0v0s-.1.16-.22.35a6,6,0,0,0-2.26-1.81,3.41,3.41,0,0,1,2.84-.54,3.12,3.12,0,0,1,1.35.91A5.76,5.76,0,0,0,125.81,96.56ZM80.17,185.22a2.36,2.36,0,1,1-2.36-2.36A2.36,2.36,0,0,1,80.17,185.22ZM78.31,164.8a1.75,1.75,0,1,1,1.75-1.75A1.74,1.74,0,0,1,78.31,164.8Zm-2.52,6.74a2.19,2.19,0,1,1-2.19,2.19A2.2,2.2,0,0,1,75.79,171.54Zm17,24.75A1.74,1.74,0,1,1,94.55,198,1.74,1.74,0,0,1,92.81,196.29Zm28.27-11.85a.88.88,0,1,1,.88.87A.87.87,0,0,1,121.08,184.44Zm33.86,11.85a1.75,1.75,0,1,1,1.75,1.74A1.74,1.74,0,0,1,154.94,196.29Zm18.48-13.43a2.36,2.36,0,1,1-2.35,2.36A2.36,2.36,0,0,1,173.42,182.86Zm-2.24-19.81a1.75,1.75,0,1,1,1.74,1.75A1.74,1.74,0,0,1,171.18,163.05Zm4.27,12.87a2.19,2.19,0,1,1,2.19-2.19A2.19,2.19,0,0,1,175.45,175.92ZM162.94,141.6l.05,0,0,0Zm7.55,9.15.13-.06-.1.1Zm6.55,9.9.18-.07-.15.11Zm-2.69-9.13a4.71,4.71,0,0,1,3.18,5.86,4.49,4.49,0,0,1-1.22,2c-.3-.51-.61-1-.93-1.54,0,0,0,0,0-.05a3.75,3.75,0,0,0-2.52-4.66,3.38,3.38,0,0,0-.76-.14l-.92-1.25A4.65,4.65,0,0,1,174.35,151.52Zm-8.16-9.38a4.71,4.71,0,0,1,4.71,4.71,4.6,4.6,0,0,1-1.11,3l-.93-1.19a3.34,3.34,0,0,0,.12-.84,3.75,3.75,0,0,0-3.75-3.75h-.14l-1.15-1.34A4.64,4.64,0,0,1,166.19,142.14ZM158.64,133a4.71,4.71,0,0,1,4.71,4.72,4.6,4.6,0,0,1-1.16,3.05l-.93-1a3.6,3.6,0,0,0,.16-1.05,3.73,3.73,0,0,0-4.5-3.67l-1-1.1A4.62,4.62,0,0,1,158.64,133ZM151,124.19a4.72,4.72,0,0,1,4.72,4.72,4.6,4.6,0,0,1-1.39,3.31l-.84-.92a3.59,3.59,0,0,0,.3-1.43,3.75,3.75,0,0,0-3.75-3.75,3.67,3.67,0,0,0-1.06.16c-.31-.34-.61-.69-.91-1A4.63,4.63,0,0,1,151,124.19Zm-7.55-9a4.71,4.71,0,0,1,4.71,4.71,4.59,4.59,0,0,1-1.67,3.55l-.72-.83a3.57,3.57,0,0,0,.46-1.75,3.72,3.72,0,0,0-4.95-3.54c-.29-.35-.56-.69-.85-1A4.65,4.65,0,0,1,143.48,115.18ZM136.75,106a4.71,4.71,0,0,1,4.71,4.71,4.65,4.65,0,0,1-2.28,4l-.52-.65a3.66,3.66,0,0,0,.87-2.38,3.75,3.75,0,0,0-3.75-3.75,3.69,3.69,0,0,0-1.65.4l-.7-.92A4.64,4.64,0,0,1,136.75,106Zm-2.84-4.45a4.68,4.68,0,0,1-2,3.83c-.21-.27-.4-.53-.59-.79a3.71,3.71,0,0,0,.65-2.07,3.71,3.71,0,0,0-4.65-3.63l-.79-1.19a4.61,4.61,0,0,1,2.65-.86A4.71,4.71,0,0,1,133.91,101.58ZM125.64,91c2.37-.06,4,1.45,5.09,3.31l-.24,0a6.26,6.26,0,0,0-1.45.18,4.75,4.75,0,0,0-3.69-1.79,3.91,3.91,0,0,0-2.94,1.9,5.94,5.94,0,0,0-1.79-.29l-.28,0A5.76,5.76,0,0,1,125.64,91Zm-3.72,5.9a4.61,4.61,0,0,1,2.73.91c-.21.34-.47.72-.76,1.17a3.66,3.66,0,0,0-1-.15,3.75,3.75,0,0,0-3.75,3.75,3.62,3.62,0,0,0,.71,2.14c-.19.25-.37.51-.57.77a4.66,4.66,0,0,1-2.07-3.88A4.71,4.71,0,0,1,121.92,96.87ZM114.37,106a4.63,4.63,0,0,1,3.38,1.47l-.68.89a3.73,3.73,0,0,0-5.49,3.31,3.66,3.66,0,0,0,.94,2.45l-.51.63a4.66,4.66,0,0,1-2.36-4A4.72,4.72,0,0,1,114.37,106Zm-6.74,9.15a4.63,4.63,0,0,1,3.09,1.18l-.83,1a3.45,3.45,0,0,0-1.29-.25,3.74,3.74,0,0,0-3.75,3.75,3.61,3.61,0,0,0,.51,1.84l-.7.8a4.6,4.6,0,0,1-1.74-3.61A4.71,4.71,0,0,1,107.63,115.18Zm-7.55,9a4.61,4.61,0,0,1,3,1.12l-.89,1a3.59,3.59,0,0,0-1.14-.19,3.74,3.74,0,0,0-3.75,3.75,3.64,3.64,0,0,0,.33,1.52c-.27.3-.54.6-.82.89a4.63,4.63,0,0,1-1.44-3.37A4.71,4.71,0,0,1,100.08,124.19ZM92.48,133a4.62,4.62,0,0,1,2.8,1l-1,1.08a3.28,3.28,0,0,0-.84-.11,3.75,3.75,0,0,0-3.75,3.75,3.39,3.39,0,0,0,.2,1.15l-.9,1a4.61,4.61,0,0,1-1.23-3.12A4.72,4.72,0,0,1,92.48,133Zm-7.56,9.16a4.61,4.61,0,0,1,2.33.65l-1.11,1.29h-.25a3.69,3.69,0,0,0-3.61,4.7l-.9,1.15a4.62,4.62,0,0,1-1.17-3.07A4.71,4.71,0,0,1,84.92,142.14Zm-8.16,9.38a4.66,4.66,0,0,1,3.24.23L79.11,153a3.29,3.29,0,0,0-.87.14,3.74,3.74,0,0,0-2.53,4.66c0,.06.05.11.07.16q-.47.75-.9,1.5a4.52,4.52,0,0,1-1.29-2A4.72,4.72,0,0,1,76.76,151.52ZM68,168a4.72,4.72,0,0,1,3.17-5.87,4.54,4.54,0,0,1,2.31-.06c-.29.55-.56,1.09-.82,1.63h0a3.74,3.74,0,0,0-2.53,4.66,3.62,3.62,0,0,0,.36.8c-.16.49-.3,1-.44,1.46A4.6,4.6,0,0,1,68,168Zm1,8a3.71,3.71,0,0,0-1.18,3.9A3.56,3.56,0,0,0,69,181.66c0,.35.07.7.12,1.05a4.63,4.63,0,0,1-3.47-3.21,4.71,4.71,0,0,1,3.18-5.86,2.63,2.63,0,0,1,.47-.1C69.19,174.35,69.07,175.16,69,176Zm.57,17.09a4.72,4.72,0,0,1-1.86-6.4,4.65,4.65,0,0,1,1.85-1.83c.12.58.27,1.15.43,1.73a1.88,1.88,0,0,1-.12.18,3.74,3.74,0,0,0,1.47,5.09,4,4,0,0,0,.85.33c.24.46.51.89.78,1.32A4.58,4.58,0,0,1,69.56,193.06ZM79,201.9a4.71,4.71,0,0,1-5.14-4.24,4.56,4.56,0,0,1,.38-2.33A17.27,17.27,0,0,0,75.82,197a3.73,3.73,0,0,0,3.92,2.91c.6.34,1.21.65,1.84.94A4.59,4.59,0,0,1,79,201.9Zm12.1,3.94a4.7,4.7,0,0,1-6.33-2.07,4.62,4.62,0,0,1-.5-2c.65.19,1.3.37,2,.51a3.74,3.74,0,0,0,4.85,1.36,4.15,4.15,0,0,0,.94-.71c.47,0,1,0,1.43,0A4.62,4.62,0,0,1,91.14,205.84Zm12.29-.69a4.72,4.72,0,0,1-6.63.73,4.62,4.62,0,0,1-1.69-3l1.3-.12a3.79,3.79,0,0,0,.84,1,3.74,3.74,0,0,0,5.27-.58,3.53,3.53,0,0,0,.76-1.82l1-.31A4.62,4.62,0,0,1,103.43,205.15Zm10.63-5.59a4.71,4.71,0,0,1-6.08,2.72,4.58,4.58,0,0,1-2.18-1.75c.53-.19,1-.39,1.56-.61a4,4,0,0,0,.4.22A3.74,3.74,0,0,0,112.6,198a3.41,3.41,0,0,0,.2-.76c.44-.26.87-.53,1.3-.81A4.58,4.58,0,0,1,114.06,199.56Zm6.73-6.36a4,4,0,0,1-4.36,1.6,39.5,39.5,0,0,0,4.67-4.1c.12,0,.24.08.36.1A4,4,0,0,1,120.79,193.2Zm3.94-6.27a3.17,3.17,0,0,1-1.72,1.68c.61-.74,1.19-1.51,1.75-2.3A3.22,3.22,0,0,0,124.73,186.93Zm1.66,0a3.82,3.82,0,0,0-.06-.83c.61.88,1.25,1.74,1.94,2.57A3.19,3.19,0,0,1,126.39,186.93Zm3.94,6.27a4,4,0,0,1-.68-2.4l.46-.12a39.5,39.5,0,0,0,4.67,4.1A4,4,0,0,1,130.33,193.2Zm12.81,9.08a4.72,4.72,0,0,1-6.09-2.72,4.66,4.66,0,0,1,0-3.23c.42.28.84.55,1.27.81a4,4,0,0,0,.21.83,3.56,3.56,0,0,0,5.29,1.93c.51.21,1,.4,1.54.59A4.59,4.59,0,0,1,143.14,202.28Zm11.18,3.6a4.72,4.72,0,0,1-6.63-.73,4.61,4.61,0,0,1-.84-4.13c.32.11.65.22,1,.31a3.57,3.57,0,0,0,.76,1.86,3.74,3.74,0,0,0,5.27.58,3.69,3.69,0,0,0,.85-1q.64.08,1.29.12A4.59,4.59,0,0,1,154.32,205.88Zm12-2.11a4.72,4.72,0,0,1-6.34,2.07,4.61,4.61,0,0,1-2.35-2.87c.48,0,.95,0,1.43,0a3.88,3.88,0,0,0,.93.71,3.74,3.74,0,0,0,4.83-1.33c.68-.14,1.34-.31,2-.5A4.59,4.59,0,0,1,166.31,203.77Zm10.91-6.11a4.72,4.72,0,0,1-5.15,4.24,4.57,4.57,0,0,1-2.5-1c.66-.29,1.3-.62,1.93-1a3.74,3.74,0,0,0,3.77-2.78,19.58,19.58,0,0,0,1.6-1.68A4.51,4.51,0,0,1,177.22,197.66Zm6.19-11a4.7,4.7,0,0,1-1.86,6.4,4.55,4.55,0,0,1-3.29.44c.28-.44.56-.9.82-1.38a3.46,3.46,0,0,0,.7-.29,3.74,3.74,0,0,0,1.47-5.09l0-.06c.17-.59.32-1.19.46-1.78A4.6,4.6,0,0,1,183.41,186.66Zm2-7.16a4.67,4.67,0,0,1-3.35,3.19c.06-.38.1-.76.13-1.13a3.64,3.64,0,0,0,1.1-1.69,3.71,3.71,0,0,0-1.06-3.79c-.08-.84-.2-1.68-.35-2.52a2.33,2.33,0,0,1,.36.08A4.71,4.71,0,0,1,185.43,179.5Z"/><polygon points="125.56 110.57 125.56 110.55 125.55 110.56 125.56 110.57"/><polygon points="125.57 110.56 125.56 110.55 125.56 110.57 125.57 110.56"/><path d="M87.36,164s0,0-.06,0c-1,2.5-1.66,4-.77,6.7.8,2.46,2.71,5.36,5.56,5.27a.71.71,0,0,0,.64-1c-.89-1.92-2.54-3.22-3.63-5A13.35,13.35,0,0,1,87.36,164Z"/><path d="M90.17,176.69A6,6,0,0,0,86,179.83c-.79,1.61,1.55,2.34,2.18.82s2.5-1.77,3.76-2.28a25,25,0,0,0,3.1-1s0-.08,0-.07a7.46,7.46,0,0,1-2.44-.52A5.3,5.3,0,0,0,90.17,176.69Z"/><path d="M112.71,177.9A3.68,3.68,0,0,0,110,178a3.75,3.75,0,0,0-1.15.65c-.4.28-.57.76-1,1.05,0,0-.08.14,0,.17.46.15.94,0,1.4.13.71.2,1.44.26,2.15.46C112.91,180.86,114.2,178.67,112.71,177.9Z"/><path d="M108.58,177.64a.93.93,0,0,0,.25-.1c.17-.09-.21.11.18-.07a1.93,1.93,0,0,0,.81-.86.77.77,0,0,0-.33-1.09,1,1,0,0,0-1.13.54,1.94,1.94,0,0,0-.17.7c0,.11,0,.12,0,.09h0c0,.06-.14.64-.23.64a.14.14,0,0,0-.11.23C108.06,177.93,108.38,177.69,108.58,177.64Z"/><path d="M115.51,178a1.27,1.27,0,0,0,1-1A.88.88,0,0,0,116,176a1.86,1.86,0,0,0-1.21.13,1.22,1.22,0,0,0-.56.39,1.87,1.87,0,0,1-.26.35c-.08.07-.12.2,0,.27C114.44,177.61,114.69,178.19,115.51,178Z"/><path d="M86.65,176.2a.74.74,0,0,0,.37-1c-.53-.86-1.46-1.32-2-2.16a9.1,9.1,0,0,1-1.24-3.22c0-.06-.09,0-.11,0a5,5,0,0,0-.45,4.32C83.76,175.58,85,176.81,86.65,176.2Z"/><path d="M91.47,170.48c.44.29.92-.21.83-.66a6.74,6.74,0,0,0-.68-1.9,3.71,3.71,0,0,1-.46-1.28,8.09,8.09,0,0,1,.14-1.27c0-.05-.06,0-.07,0a6.31,6.31,0,0,0-1,2.61A2.74,2.74,0,0,0,91.47,170.48Z"/><path d="M159,175.92c2.85.09,4.75-2.81,5.56-5.27.88-2.71.17-4.2-.78-6.7,0,0-.06,0-.06,0A13.23,13.23,0,0,1,162,169.9c-1.08,1.8-2.73,3.1-3.63,5A.71.71,0,0,0,159,175.92Z"/><path d="M159.15,178.37c1.26.51,3.2.9,3.77,2.28s3,.79,2.17-.82a6,6,0,0,0-4.15-3.14,5.25,5.25,0,0,0-2.43.07,7.57,7.57,0,0,1-2.44.52s0,.06,0,.07A24.31,24.31,0,0,0,159.15,178.37Z"/><path d="M142.24,178.64a3.59,3.59,0,0,0-1.14-.65,3.68,3.68,0,0,0-2.69-.09c-1.49.77-.21,3,1.25,2.55.7-.2,1.43-.26,2.14-.46.46-.13.95,0,1.4-.13.08,0,.06-.13,0-.17C142.82,179.4,142.65,178.92,142.24,178.64Z"/><path d="M143.13,177.49c-.09,0-.2-.58-.23-.64h0s0,0,0-.09a2.19,2.19,0,0,0-.18-.7,1,1,0,0,0-1.13-.54.77.77,0,0,0-.32,1.09,1.9,1.9,0,0,0,.8.86c.4.18,0,0,.18.07a1.3,1.3,0,0,0,.25.1c.21.05.52.29.71.08S143.24,177.5,143.13,177.49Z"/><path d="M136.9,176.54a1.22,1.22,0,0,0-.56-.39,1.87,1.87,0,0,0-1.21-.13.88.88,0,0,0-.49,1.06,1.29,1.29,0,0,0,1,1c.83.15,1.07-.43,1.59-.88.09-.07.05-.2,0-.27A1.28,1.28,0,0,1,136.9,176.54Z"/><path d="M164.09,175.18a.75.75,0,0,0,.38,1c1.61.61,2.89-.62,3.46-2.07a5,5,0,0,0-.46-4.32s-.09-.07-.11,0a8.74,8.74,0,0,1-1.24,3.22C165.55,173.86,164.63,174.32,164.09,175.18Z"/><path d="M159.65,170.48a2.78,2.78,0,0,0,1.26-2.51,6.47,6.47,0,0,0-1-2.61s-.07,0-.07,0a8.09,8.09,0,0,1,.14,1.27,3.52,3.52,0,0,1-.46,1.28,7.07,7.07,0,0,0-.68,1.9C158.73,170.27,159.21,170.77,159.65,170.48Z"/><path d="M122.75,127.74a13.7,13.7,0,0,0,2.73,5.93,13.83,13.83,0,0,0,2.73-5.93c.37-3-2.73-6.9-2.73-6.9S122.38,124.7,122.75,127.74Z"/><path d="M125.48,145.12s-4.33,5.39-3.81,9.64,3.81,8.29,3.81,8.29,3.29-4,3.81-8.29S125.48,145.12,125.48,145.12Z"/><path d="M134.05,150.4c.75-2.18-.91-5.52-.91-5.52s-2.89,2.35-3.11,4.65a10.4,10.4,0,0,0,1.06,4.8A10.43,10.43,0,0,0,134.05,150.4Z"/><path d="M117.91,144.88s-1.66,3.34-.91,5.52a10.43,10.43,0,0,0,3,3.93,10.4,10.4,0,0,0,1.06-4.8C120.8,147.23,117.91,144.88,117.91,144.88Z"/><path d="M155.67,211.42h0c-12.67,0-23.53-5.72-29.81-15.69a.39.39,0,0,0-.61,0c-6.28,10-17.14,15.69-29.8,15.69-14.75,0-28-8-33-19.88-8.88-21.12,2.8-39.91,26-65.23,22.36-24.44,32.9-39.95,36.4-45.49l.75-1.19.75,1.19c3.49,5.53,14,21,36.39,45.49,23.17,25.32,34.85,44.11,26,65.23C183.68,203.43,170.42,211.42,155.67,211.42Zm-30.11-17.63a2.14,2.14,0,0,1,1.81,1c5.95,9.45,16.26,14.86,28.3,14.86v0c14,0,26.64-7.55,31.37-18.79,8.5-20.24-3-38.55-25.65-63.34-21-23-31.68-38.16-35.83-44.56-4.16,6.41-14.8,21.57-35.83,44.56C67,152.3,55.57,170.61,64.08,190.85c4.72,11.24,17.33,18.79,31.37,18.79,12,0,22.35-5.41,28.3-14.86A2.13,2.13,0,0,1,125.56,193.79Z"/><path d="M166.62,123.43c-27.11-29.85-37.9-47.25-39.82-50.5l0,0a1.29,1.29,0,0,0-.6-.64,1.53,1.53,0,0,0-.45-.13h-.23a1.33,1.33,0,0,0-.34.05h0l-.2.08s-.06,0-.09.06l-.06,0a1.35,1.35,0,0,0-.45.53h0c-1.88,3.19-12.65,20.6-39.84,50.53-25.28,27.83-38,48.57-28.13,72.19,5.61,13.46,20.46,22.5,36.94,22.5a39.42,39.42,0,0,0,26.47-9.58.54.54,0,0,0,.15.09h0c-5.86,43.6-25.41,73.41-25.41,73.41h62S137,252.2,131.16,208.55l.12-.07a39.38,39.38,0,0,0,26.53,9.64h0c16.48,0,31.33-9,36.95-22.5C204.61,172,191.9,151.26,166.62,123.43ZM122.48,260.49a12.77,12.77,0,0,1,2,6.26s-.07.08-.08,0c-.72-5-6.76-6.08-7.67-10.82a8.91,8.91,0,0,1,2.14-7.82c.14-.16.32,0,.21.17C115.56,253.73,120.17,256.53,122.48,260.49Zm1.54-19c-2,5.72-2.49,10.25-.27,16,.08.2-.21.39-.35.22-2.7-3.24-4.67-7.36-3.36-11.68,1.87-6.12,4.89-11.17,5.33-17.71h0s0,0,0,0h0s0,0,0,0h0c.43,6.54,3.46,11.59,5.32,17.71,1.32,4.32-.66,8.44-3.36,11.68-.14.17-.43,0-.35-.22,2.23-5.71,1.72-10.24-.27-16a27.76,27.76,0,0,1-1.39-6.25A27.23,27.23,0,0,1,124,241.5Zm7.43,6.81c-.11-.17.07-.33.2-.17a8.85,8.85,0,0,1,2.14,7.82c-.91,4.74-6.95,5.81-7.66,10.82,0,.05-.08,0-.08,0a12.86,12.86,0,0,1,2-6.26C130.35,256.53,135,253.73,131.45,248.31Zm4.49,1.44c3.07,5.35,6.69,9.7,6.62,16.14A11.89,11.89,0,0,1,136,276.7c-7.59,3.94-14.91-9.14-6.42-12.55a2.43,2.43,0,0,1,1.7,0c1.23.05,2.45.65,3.74.63a3.31,3.31,0,0,0,3.36-2.94,2.33,2.33,0,0,0-1.77-2.71,1.69,1.69,0,0,0-1.52.38,1.28,1.28,0,0,0-.12,1.22c.14-.19.37-.08.47.09l0,.07a.32.32,0,0,1-.06.37c-1,1.12-2.81-1.16-1.92-2.27,1.29-1.62,3.7-1.09,4.82.45s0,4.08-1.31,5.18a4.25,4.25,0,0,1-1.91.82,6.66,6.66,0,0,1,2.12,2.35,3.9,3.9,0,0,1-2.65,5.64c-.1,0-.18-.12-.08-.17,1.83-.94,1.33-3.73.29-5a4.49,4.49,0,0,0-.84-.78c0,2.49-3.07,4.81-4,2.52-.24-.61.42-.95.84-.48,1.92-.94-.81-6.94-3.61-3-2.92,4.13,1.59,7.59,4.73,8.56,6.29,1.94,9.38-4.42,9.53-9.45.19-6.66-5.66-13.55-8.37-19.37a93.22,93.22,0,0,1-7.78-25.8,93.22,93.22,0,0,1-7.78,25.8c-2.71,5.82-8.56,12.71-8.37,19.37.15,5,3.24,11.39,9.53,9.45,3.14-1,7.65-4.43,4.73-8.56-2.8-4-5.53,2-3.61,3,.42-.47,1.08-.13.83.48-.91,2.29-4,0-4-2.52a4.76,4.76,0,0,0-.83.78c-1,1.31-1.54,4.1.29,5,.1.05,0,.19-.08.17a3.91,3.91,0,0,1-2.66-5.64,6.69,6.69,0,0,1,2.13-2.35,4.2,4.2,0,0,1-1.91-.82c-1.34-1.1-2.49-3.57-1.31-5.18s3.53-2.07,4.82-.45c.89,1.11-.91,3.39-1.92,2.27a.3.3,0,0,1-.06-.37.43.43,0,0,1,0-.07c.09-.17.33-.28.47-.09a1.28,1.28,0,0,0-.12-1.22,1.7,1.7,0,0,0-1.52-.38,2.33,2.33,0,0,0-1.77,2.71,3.3,3.3,0,0,0,3.36,2.94c1.28,0,2.5-.58,3.74-.63a2.43,2.43,0,0,1,1.7,0c8.49,3.41,1.17,16.49-6.42,12.55A11.89,11.89,0,0,1,108,265.89c-.07-6.44,3.54-10.79,6.62-16.14,5.36-9.35,8.54-19.85,10.3-30.51,0-.16.09-.31.13-.47h0l.23-.8c.17.76.36,1.51.56,2.25A90.4,90.4,0,0,0,135.94,249.75Zm55-57.26c-5.1,12-18.67,20.07-33.77,20.07h0c-12.95,0-24.06-5.78-30.47-15.86a1.33,1.33,0,0,0-2.22,0C118,206.78,106.93,212.56,94,212.56c-15.1,0-28.67-8.07-33.77-20.07-9.12-21.47,3-40.73,27.07-66.74C110.89,100.21,122,84,125.56,78.4c3.58,5.62,14.66,21.81,38.27,47.35C187.88,151.76,200,171,190.91,192.49Z"/></g></g></g></svg>