<?xml version="1.0" standalone="no"?>
<!DOCTYPE svg PUBLIC "-//W3C//DTD SVG 20010904//EN"
 "http://www.w3.org/TR/2001/REC-SVG-20010904/DTD/svg10.dtd">
<svg version="1.0" xmlns="http://www.w3.org/2000/svg"
 width="260.000000pt" height="260.000000pt" viewBox="0 0 260.000000 260.000000"
 preserveAspectRatio="xMidYMid meet">
<metadata>
Created by potrace 1.14, written by Peter Selinger 2001-2017
</metadata>
<g transform="translate(0.000000,260.000000) scale(0.100000,-0.100000)"
fill="#000000" stroke="none">
<path d="M0 1300 l0 -1300 1300 0 1300 0 0 1300 0 1300 -1300 0 -1300 0 0
-1300z m1514 948 c8 -13 20 -53 26 -90 7 -38 16 -68 21 -68 9 0 248 -33 364
-50 39 -6 105 -14 148 -19 43 -5 84 -15 92 -21 20 -16 19 -42 -6 -250 -11 -96
-29 -249 -39 -340 -11 -91 -28 -239 -40 -330 -11 -91 -29 -241 -40 -335 -37
-309 -49 -386 -61 -401 -18 -22 -35 -21 -514 46 -325 45 -318 45 -461 11 -71
-17 -155 -38 -186 -46 -32 -8 -64 -15 -71 -15 -19 0 -43 54 -56 125 -13 78
-68 369 -137 725 -30 157 -61 319 -69 360 -8 41 -28 147 -46 235 -32 168 -37
221 -21 237 11 11 86 32 207 57 50 11 133 29 185 41 52 12 151 35 220 50 126
28 269 61 370 85 82 19 98 18 114 -7z"/>
<path d="M1116 2000 c-26 -52 -31 -70 -20 -70 7 0 14 9 14 20 0 16 7 20 31 20
28 0 31 -3 27 -25 -4 -19 -1 -25 13 -25 15 0 17 4 9 28 -5 15 -11 48 -15 75
-3 26 -10 47 -15 47 -6 0 -25 -31 -44 -70z m44 5 c0 -18 -5 -25 -20 -25 -17 0
-18 3 -8 25 6 14 15 25 20 25 4 0 8 -11 8 -25z"/>
<path d="M516 1965 c4 -8 10 -12 15 -9 14 8 10 24 -6 24 -9 0 -12 -6 -9 -15z"/>
<path d="M458 1965 c-3 -3 0 -34 8 -68 7 -34 10 -65 8 -69 -3 -4 2 -8 11 -8
11 0 15 6 11 18 -9 28 -19 85 -20 110 -1 21 -7 27 -18 17z"/>
<path d="M504 1922 c-10 -15 -6 -24 17 -50 16 -18 36 -32 44 -32 10 0 2 12
-20 31 -25 22 -34 37 -30 50 8 24 3 24 -11 1z"/>
<path d="M1010 1910 c0 -12 -7 -20 -17 -20 -15 0 -14 -2 2 -14 22 -16 30 -13
45 14 8 15 6 21 -10 30 -17 9 -20 8 -20 -10z"/>
<path d="M1101 1872 c-38 -32 -40 -68 -3 -66 17 0 21 -4 17 -17 -3 -9 -1 -20
5 -24 5 -3 10 2 10 13 0 15 5 19 18 15 10 -2 24 3 31 11 12 14 9 22 -13 56
-14 22 -28 40 -29 40 -2 0 -18 -13 -36 -28z"/>
<path d="M914 1875 c3 -10 -1 -18 -12 -22 -14 -6 -13 -8 8 -13 27 -7 40 4 40
33 0 11 -8 17 -21 17 -15 0 -19 -5 -15 -15z"/>
<path d="M783 1809 c-17 -17 -24 -19 -42 -10 -40 22 -78 -19 -60 -66 7 -19 90
-83 107 -83 15 1 72 98 72 122 0 28 -23 58 -43 58 -7 0 -22 -9 -34 -21z"/>
<path d="M981 1819 c-14 -5 -31 -7 -38 -4 -8 2 -11 1 -8 -4 3 -5 -4 -12 -15
-16 -11 -3 -20 -11 -20 -16 0 -5 14 -2 32 7 17 9 47 22 67 29 20 8 29 14 21
14 -8 0 -26 -5 -39 -10z"/>
<path d="M551 1787 c-6 -6 -23 -11 -39 -12 -41 0 -37 -42 7 -72 l34 -23 24 39
c23 39 23 65 -2 74 -7 3 -18 0 -24 -6z"/>
<path d="M990 1751 c0 -5 9 -7 20 -4 11 3 20 7 20 9 0 2 -9 4 -20 4 -11 0 -20
-4 -20 -9z"/>
<path d="M1005 1720 c-3 -5 -1 -10 4 -10 6 0 11 5 11 10 0 6 -2 10 -4 10 -3 0
-8 -4 -11 -10z"/>
<path d="M1432 1560 c-89 -91 -174 -185 -188 -208 -37 -62 -43 -146 -15 -204
37 -77 128 -117 211 -92 24 7 45 12 46 11 1 -1 -8 -31 -19 -67 -21 -67 -87
-201 -115 -233 -8 -9 -13 -19 -10 -22 5 -5 139 -28 226 -38 38 -5 43 -3 37 11
-37 88 -82 342 -60 342 2 0 21 -12 42 -26 33 -22 46 -25 100 -22 51 3 69 9
100 34 95 77 91 197 -10 364 -87 143 -102 168 -141 240 l-41 76 -163 -166z
m162 105 c3 -9 0 -15 -9 -15 -9 0 -12 6 -9 15 4 8 7 15 9 15 2 0 5 -7 9 -15z
m20 -33 c5 -9 -52 -7 -61 2 -4 3 8 6 25 6 17 0 33 -4 36 -8z m-84 -32 c0 -5
-5 -10 -11 -10 -5 0 -7 5 -4 10 3 6 8 10 11 10 2 0 4 -4 4 -10z m24 -5 c-4 -8
-8 -15 -10 -15 -2 0 -4 7 -4 15 0 8 4 15 10 15 5 0 7 -7 4 -15z m56 -5 c0 -11
-2 -20 -4 -20 -2 0 -6 9 -9 20 -3 11 -1 20 4 20 5 0 9 -9 9 -20z m30 -10 c0
-5 -4 -10 -10 -10 -5 0 -10 5 -10 10 0 6 5 10 10 10 6 0 10 -4 10 -10z m-110
-18 c-8 -3 -18 -10 -22 -16 -5 -7 -8 -5 -8 6 0 18 19 29 35 20 5 -3 2 -8 -5
-10z m-40 -2 c0 -5 -5 -10 -11 -10 -5 0 -7 5 -4 10 3 6 8 10 11 10 2 0 4 -4 4
-10z m149 -22 c0 -16 -2 -18 -6 -8 -3 8 -11 18 -17 22 -7 5 -4 8 7 8 11 0 17
-7 16 -22z m-144 -8 c3 -5 -1 -10 -10 -10 -9 0 -13 5 -10 10 3 6 8 10 10 10 2
0 7 -4 10 -10z m85 2 c0 -5 15 -34 34 -65 30 -49 33 -62 26 -88 -5 -17 -17
-38 -27 -46 -16 -14 -15 -14 7 0 14 8 27 27 30 43 l5 28 18 -27 c19 -29 22
-41 8 -32 -5 3 -16 -4 -24 -15 -7 -11 -17 -17 -22 -12 -5 4 -5 2 -1 -5 7 -13
36 -6 48 11 5 7 8 4 8 -6 0 -10 -6 -18 -13 -18 -8 0 -12 -15 -12 -44 0 -24 3
-42 6 -40 4 2 9 -3 13 -11 3 -8 9 -15 14 -15 12 0 9 49 -4 58 -19 13 -21 37
-3 54 17 16 18 15 29 -17 6 -19 8 -39 5 -45 -4 -6 -8 -23 -10 -37 -4 -38 -55
-73 -55 -39 0 8 -5 18 -11 21 -6 4 -9 0 -7 -10 5 -30 -18 -27 -53 7 -19 18
-36 32 -39 31 -3 -1 -5 18 -5 42 0 24 2 39 6 33 7 -12 16 1 13 20 -1 6 -2 24
-3 38 -1 19 -5 25 -16 20 -8 -3 -15 -1 -15 5 0 6 -7 9 -15 5 -16 -6 -19 3 -9
28 7 17 34 22 34 6 0 -5 -5 -10 -11 -10 -5 0 -8 -4 -5 -9 10 -15 58 -10 52 5
-3 8 1 14 9 14 9 0 15 -10 15 -25 0 -18 -4 -23 -15 -19 -11 5 -15 -1 -15 -22
l1 -29 24 30 c26 31 33 65 14 65 -6 0 -8 9 -4 21 5 15 4 19 -5 14 -7 -4 -11
-1 -9 6 4 30 -4 42 -10 15 -3 -16 -13 -32 -21 -34 -13 -4 -13 -3 -2 11 8 9 12
24 9 34 -3 15 -6 14 -15 -7 -7 -17 -11 -20 -11 -8 -1 9 4 20 9 23 6 3 10 11
10 17 0 20 -30 -14 -31 -36 0 -20 -1 -20 -8 -1 -6 14 -3 24 8 32 14 11 14 14
1 23 -12 9 -10 10 8 5 13 -4 22 -2 22 4 0 6 5 11 10 11 6 0 10 -4 10 -8z
m-130 -14 c0 -5 -8 -8 -17 -6 -14 2 -17 -3 -15 -19 3 -19 -1 -23 -22 -21 l-26
2 25 26 c25 26 55 36 55 18z m215 -19 c11 -16 1 -19 -13 -3 -7 8 -8 14 -3 14
5 0 13 -5 16 -11z m-219 -30 c1 -25 -1 -28 -8 -15 -5 10 -7 24 -4 32 8 21 11
17 12 -17z m253 15 c4 3 8 -1 8 -9 0 -11 -4 -12 -14 -4 -7 6 -13 17 -12 23 0
7 2 6 6 -2 2 -6 8 -10 12 -8z m-186 -57 c-2 -4 -8 -5 -13 -2 -16 10 -17 -21
-3 -58 9 -21 20 -34 26 -30 6 4 7 1 2 -6 -5 -9 -10 -10 -18 -2 -13 13 -67 -14
-67 -35 0 -8 -7 -22 -15 -30 -13 -14 -16 -14 -21 0 -3 9 1 27 9 39 14 21 13
24 -1 34 -14 9 -15 13 -4 24 10 11 12 10 12 -3 0 -9 7 -19 16 -22 14 -5 15 -4
5 8 -7 8 -10 20 -6 26 3 5 -2 10 -12 10 -13 0 -4 13 32 46 43 39 50 43 56 27
4 -10 4 -21 2 -26z m-136 19 c-1 -6 -10 -14 -19 -18 -10 -4 -18 -15 -18 -23 0
-10 -7 -15 -17 -13 -10 1 -25 -1 -33 -6 -8 -5 2 9 23 31 36 38 68 52 64 29z
m31 0 c-7 -8 -15 -12 -17 -11 -5 6 10 25 20 25 5 0 4 -6 -3 -14z m319 -26 c-7
-20 -14 -25 -19 -17 -4 7 -3 14 2 15 6 2 8 8 4 13 -7 12 5 31 16 24 4 -3 3
-18 -3 -35z m26 -17 c-4 -10 -2 -14 4 -10 5 3 10 0 10 -7 0 -8 -6 -12 -13 -9
-8 3 -13 15 -12 28 1 13 6 21 10 19 4 -3 4 -12 1 -21z m-385 3 c-7 -8 -15 -12
-17 -11 -5 6 10 25 20 25 5 0 4 -6 -3 -14z m-38 -41 c-7 -9 -15 -13 -17 -11
-7 7 7 26 19 26 6 0 6 -6 -2 -15z m-30 -12 c0 -7 -4 -13 -10 -13 -5 0 -10 5
-10 12 0 6 -7 3 -16 -8 -15 -19 -15 -18 -5 2 11 23 41 28 41 7z m450 2 c0 -8
-2 -15 -4 -15 -2 0 -6 7 -10 15 -3 8 -1 15 4 15 6 0 10 -7 10 -15z m-352 -60
c-10 -22 -9 -29 9 -47 21 -20 23 -20 57 -4 20 9 36 24 36 33 0 13 -3 13 -15 3
-13 -10 -18 -11 -28 -1 -9 10 -8 15 8 27 26 19 36 14 60 -28 19 -36 19 -37 1
-57 -11 -12 -21 -19 -24 -16 -3 2 -13 0 -23 -6 -25 -13 -26 8 -1 27 16 13 16
14 -1 8 -10 -4 -23 -17 -28 -30 -9 -25 -33 -32 -44 -14 -3 6 2 10 11 10 15 0
16 2 5 13 -10 10 -15 8 -27 -8 -15 -20 -15 -20 -30 0 -13 18 -13 21 6 29 11 5
20 13 20 18 0 5 -9 4 -19 -2 -11 -5 -22 -6 -25 -1 -6 10 6 58 24 91 12 22 12
22 26 2 11 -17 12 -26 2 -47z m409 30 c15 -25 17 -46 2 -25 -8 11 -9 8 -4 -13
4 -20 2 -27 -6 -22 -6 4 -9 19 -5 36 3 16 2 28 -2 28 -19 -3 -33 2 -27 11 9
14 28 8 42 -15z m-522 -25 c-21 -22 -31 -27 -37 -18 -6 10 -8 9 -8 -3 0 -20
24 -42 35 -31 5 4 5 2 2 -5 -4 -6 -3 -23 3 -37 5 -14 6 -26 1 -26 -16 0 -4
-41 18 -63 21 -21 22 -21 15 -2 -4 11 -12 26 -17 33 -7 9 -6 11 7 6 9 -3 16
-13 16 -21 0 -8 4 -11 10 -8 5 3 18 1 27 -5 16 -10 15 -11 -4 -7 -25 5 -33
-17 -10 -26 7 -3 7 -6 1 -6 -22 -2 -79 45 -96 79 -19 37 -23 111 -8 145 6 13
9 15 9 5 1 -13 2 -13 11 0 9 13 10 13 10 0 1 -12 3 -11 11 3 5 9 15 17 21 17
7 0 -1 -14 -17 -30z m490 9 c11 -16 1 -19 -13 -3 -7 8 -8 14 -3 14 5 0 13 -5
16 -11z m-455 -39 c0 -5 -2 -10 -4 -10 -3 0 -8 5 -11 10 -3 6 -1 10 4 10 6 0
11 -4 11 -10z m517 -82 c-5 -53 -37 -108 -78 -132 -32 -19 -43 -20 -33 -4 5 8
2 9 -12 4 -10 -4 -15 -3 -10 1 4 4 20 8 34 8 21 0 26 5 27 25 0 14 6 35 13 47
6 12 12 32 13 45 0 16 2 19 7 8 15 -33 32 -20 31 23 -1 38 -2 39 -8 12 -4 -18
-9 -25 -14 -19 -4 7 -2 27 5 45 11 33 11 33 20 8 6 -13 8 -45 5 -71z m-392 62
c-3 -5 -11 -10 -16 -10 -6 0 -7 5 -4 10 3 6 11 10 16 10 6 0 7 -4 4 -10z m255
-14 c0 -3 -4 -8 -10 -11 -5 -3 -10 -1 -10 4 0 6 5 11 10 11 6 0 10 -2 10 -4z
m-375 -15 c3 -5 1 -12 -5 -16 -5 -3 -10 1 -10 9 0 18 6 21 15 7z m445 -5 c0
-3 -4 -8 -10 -11 -5 -3 -10 -1 -10 4 0 6 5 11 10 11 6 0 10 -2 10 -4z m-420
-46 c0 -5 -4 -10 -10 -10 -5 0 -10 5 -10 10 0 6 5 10 10 10 6 0 10 -4 10 -10z
m400 -10 c0 -5 -4 -10 -10 -10 -5 0 -10 5 -10 10 0 6 5 10 10 10 6 0 10 -4 10
-10z m-206 -17 c3 -10 9 -25 12 -33 4 -8 -2 -4 -14 10 -20 24 -20 25 -41 6
-12 -11 -21 -14 -21 -9 0 6 7 14 16 17 8 3 12 10 9 16 -3 5 3 10 13 10 11 0
22 -8 26 -17z m-82 -25 c-6 -6 -15 -8 -19 -4 -4 4 -1 11 7 16 19 12 27 3 12
-12z m258 8 c0 -3 -4 -8 -10 -11 -5 -3 -10 -1 -10 4 0 6 5 11 10 11 6 0 10 -2
10 -4z m-297 -18 c-2 -5 -10 -8 -18 -8 -8 0 -16 3 -18 8 -3 4 5 7 18 7 13 0
21 -3 18 -7z m173 -15 c-7 -7 -26 7 -26 19 0 6 6 6 15 -2 9 -7 13 -15 11 -17z
m154 -3 c0 -5 -8 -10 -17 -10 -15 0 -16 2 -3 10 19 12 20 12 20 0z m-109 -18
c-7 -2 -18 1 -23 6 -8 8 -4 9 13 5 13 -4 18 -8 10 -11z m-248 1 c-7 -2 -19 -2
-25 0 -7 3 -2 5 12 5 14 0 19 -2 13 -5z m293 -8 c-25 -19 -41 -19 -24 0 7 8
20 14 28 14 11 0 10 -3 -4 -14z m-172 -193 c-3 -17 -1 -22 7 -16 9 5 10 2 6
-9 -3 -9 -3 -18 1 -20 4 -2 2 -3 -4 -1 -6 1 -18 -3 -25 -9 -10 -10 -11 -9 -3
3 6 8 10 29 8 45 -1 17 -3 39 -3 49 -1 29 -13 11 -21 -31 l-6 -38 -5 37 c-3
20 -2 35 2 32 4 -2 11 6 15 18 7 22 8 22 20 -7 8 -16 11 -41 8 -53z m-52 -73
c-21 -19 -42 -21 -35 -2 3 7 14 13 24 13 12 0 16 5 13 15 -4 8 -10 12 -15 9
-5 -3 -6 2 -2 12 5 14 8 13 19 -7 10 -20 10 -26 -4 -40z m67 -21 c0 -13 -3
-17 -6 -10 -2 6 -8 10 -12 8 -4 -3 -8 1 -8 9 0 8 6 15 14 15 7 0 13 -10 12
-22z m-64 -18 c-3 -5 -16 -10 -28 -9 -20 1 -20 2 3 9 14 4 26 8 28 9 2 1 0 -3
-3 -9z m54 -19 c-6 -2 -18 4 -27 13 -15 15 -15 15 10 4 15 -7 23 -15 17 -17z"/>
<path d="M1565 1510 c3 -5 8 -10 11 -10 2 0 4 5 4 10 0 6 -5 10 -11 10 -5 0
-7 -4 -4 -10z"/>
<path d="M1575 1310 c-4 -6 5 -10 20 -10 29 0 44 -25 25 -43 -10 -9 -14 -9
-17 1 -3 6 -9 12 -14 12 -15 0 -10 -22 9 -36 15 -12 15 -15 2 -24 -11 -7 -11
-10 -2 -10 7 0 11 -4 8 -9 -4 -5 5 -4 19 2 13 7 20 14 15 15 -6 2 -10 8 -10
13 0 6 4 7 10 4 18 -11 -2 60 -22 78 -23 19 -34 21 -43 7z"/>
<path d="M1457 1380 c3 -10 13 -25 22 -32 13 -10 14 -10 4 2 -7 8 -13 22 -13
32 0 10 -4 18 -9 18 -5 0 -7 -9 -4 -20z"/>
<path d="M1329 1423 l-24 -28 28 24 c25 23 32 31 24 31 -2 0 -14 -12 -28 -27z"/>
<path d="M1358 1283 c-3 -12 0 -20 8 -20 16 0 17 6 5 25 -6 11 -9 9 -13 -5z"/>
<path d="M1245 1206 c6 -52 21 -66 23 -21 1 20 -3 33 -8 30 -4 -3 -11 3 -14
12 -3 10 -3 0 -1 -21z"/>
<path d="M1810 1143 c0 -14 -2 -15 -9 -5 -6 11 -10 10 -16 -5 -4 -10 -9 -27
-10 -37 -2 -16 2 -15 22 8 21 24 31 56 18 56 -3 0 -5 -8 -5 -17z"/>
<path d="M915 1670 c-3 -5 -1 -10 4 -10 6 0 11 5 11 10 0 6 -2 10 -4 10 -3 0
-8 -4 -11 -10z"/>
<path d="M971 1634 c0 -11 3 -14 6 -6 3 7 2 16 -1 19 -3 4 -6 -2 -5 -13z"/>
<path d="M871 1581 c-7 -14 -22 -39 -35 -56 l-23 -29 21 -19 c11 -10 17 -16
11 -14 -5 3 -10 -5 -11 -16 0 -12 -4 -31 -8 -42 -5 -12 7 -4 28 19 33 36 34
40 18 52 -26 20 -1 16 34 -5 l30 -18 28 29 c27 29 27 30 9 50 -10 11 -17 23
-16 27 1 3 -10 4 -24 3 -22 -3 -25 -1 -21 16 9 33 -28 36 -41 3z"/>
<path d="M975 1540 c3 -5 10 -10 16 -10 5 0 9 5 9 10 0 6 -7 10 -16 10 -8 0
-12 -4 -9 -10z"/>
<path d="M900 1440 c0 -25 -43 -68 -72 -72 -21 -3 -21 -4 -3 -18 15 -12 17
-12 10 -1 -6 11 -4 13 9 8 10 -4 24 -7 32 -7 8 0 11 -6 8 -15 -4 -11 6 -9 45
7 51 22 68 48 31 48 -21 0 -28 26 -10 32 6 2 -3 11 -20 21 -30 18 -30 18 -30
-3z"/>
<path d="M970 1450 c0 -5 5 -10 10 -10 6 0 10 5 10 10 0 6 -4 10 -10 10 -5 0
-10 -4 -10 -10z"/>
<path d="M925 1325 c-16 -7 -28 -14 -25 -14 3 -1 19 -5 37 -10 28 -8 31 -7 36
15 5 27 -5 29 -48 9z"/>
<path d="M860 1285 c-9 -10 -11 -32 -7 -66 4 -30 2 -47 -3 -44 -6 4 -10 0 -10
-7 0 -7 -7 -26 -15 -42 -15 -28 -12 -51 6 -40 12 7 39 -14 39 -29 0 -6 -7 -2
-16 9 -14 18 -15 18 -4 -3 13 -27 28 -30 37 -7 4 10 0 20 -10 25 -13 8 -15 22
-12 69 2 33 6 64 10 70 10 15 35 12 35 -5 0 -8 5 -15 10 -15 6 0 10 9 10 21 0
11 -4 18 -9 14 -6 -3 -15 4 -21 16 -11 20 -12 20 -25 2 -8 -10 -15 -13 -15 -7
0 6 7 17 15 24 13 11 18 10 30 -6 11 -15 15 -16 15 -4 1 8 7 -1 14 -20 8 -19
11 -38 9 -42 -2 -5 1 -8 6 -8 6 0 11 13 11 29 0 16 3 37 7 47 5 14 1 16 -26
12 -22 -3 -35 0 -38 9 -7 17 -28 17 -43 -2z"/>
<path d="M931 1074 c0 -11 3 -14 6 -6 3 7 2 16 -1 19 -3 4 -6 -2 -5 -13z"/>
<path d="M811 1024 c0 -11 3 -14 6 -6 3 7 2 16 -1 19 -3 4 -6 -2 -5 -13z"/>
<path d="M835 1010 c-3 -5 1 -10 9 -10 9 0 16 5 16 10 0 6 -4 10 -9 10 -6 0
-13 -4 -16 -10z"/>
<path d="M887 983 c7 -45 21 -85 23 -63 0 13 1 13 10 0 7 -11 10 -6 10 20 0
54 -10 80 -31 80 -15 0 -17 -6 -12 -37z m20 -35 c-3 -8 -6 -5 -6 6 -1 11 2 17
5 13 3 -3 4 -12 1 -19z"/>
<path d="M1930 695 c0 -8 4 -15 9 -15 5 0 11 7 15 15 3 9 0 15 -9 15 -8 0 -15
-7 -15 -15z"/>
<path d="M1887 683 c-14 -13 -6 -49 16 -77 l24 -29 32 24 c24 17 31 30 29 49
-2 20 -9 25 -30 25 -14 0 -30 3 -34 8 -9 9 -28 9 -37 0z"/>
<path d="M1877 493 c8 -38 17 -75 19 -83 3 -9 21 15 45 60 21 41 39 76 39 77
0 2 -7 3 -15 3 -8 0 -15 -8 -15 -18 0 -26 -6 -30 -36 -24 -21 4 -24 9 -20 28
5 19 2 24 -12 24 -18 0 -18 -3 -5 -67z m49 -20 c-3 -8 -6 -19 -6 -24 0 -5 -4
-9 -10 -9 -5 0 -10 13 -10 30 0 22 4 28 16 23 8 -3 13 -12 10 -20z"/>
</g>
</svg>
