<?xml version="1.0" standalone="no"?>
<!DOCTYPE svg PUBLIC "-//W3C//DTD SVG 20010904//EN"
 "http://www.w3.org/TR/2001/REC-SVG-20010904/DTD/svg10.dtd">
<svg version="1.0" xmlns="http://www.w3.org/2000/svg"
 width="260.000000pt" height="260.000000pt" viewBox="0 0 260.000000 260.000000"
 preserveAspectRatio="xMidYMid meet">
<metadata>
Created by potrace 1.14, written by Peter Selinger 2001-2017
</metadata>
<g transform="translate(0.000000,260.000000) scale(0.100000,-0.100000)"
fill="#000000" stroke="none">
<path d="M0 1300 l0 -1300 1300 0 1300 0 0 1300 0 1300 -1300 0 -1300 0 0
-1300z m1604 1217 c12 -9 26 -50 42 -121 22 -96 23 -109 9 -122 -19 -20 -19
-38 0 -58 14 -14 13 -30 -11 -166 -15 -83 -31 -149 -34 -148 -4 2 -44 49 -88
105 -60 76 -79 106 -75 122 3 12 0 28 -7 36 -15 18 -61 20 -78 3 -26 -26 -7
-78 28 -78 13 0 28 -37 64 -149 l47 -150 -21 -21 c-19 -19 -20 -24 -7 -43 8
-12 26 -23 40 -25 27 -3 67 -44 67 -67 0 -24 -41 -64 -68 -67 -22 -2 -28 -9
-30 -33 -2 -18 2 -33 12 -40 13 -10 13 -18 4 -49 -9 -28 -9 -48 0 -79 9 -34 8
-46 -4 -62 -46 -62 -75 -113 -84 -145 -14 -48 9 -65 94 -74 80 -8 106 3 106
44 0 29 -34 65 -52 54 -14 -9 -9 -21 12 -27 22 -6 26 -29 8 -45 -12 -9 -135 1
-146 13 -11 11 21 87 56 132 35 46 37 51 37 130 0 45 5 87 11 92 7 8 44 7 124
-4 62 -8 115 -17 117 -19 2 -2 1 -22 -3 -44 l-6 -41 -41 27 c-33 22 -52 27
-100 27 -39 0 -62 -4 -64 -12 -3 -9 4 -11 26 -7 50 10 100 -5 142 -43 39 -35
39 -36 39 -112 0 -90 19 -186 53 -270 l24 -60 -46 -16 c-43 -14 -98 -43 -214
-110 -41 -23 -52 -26 -73 -16 -16 7 -24 19 -24 36 0 15 -5 35 -10 45 -7 13 -6
27 1 44 10 21 16 24 38 18 14 -4 52 -7 84 -6 47 0 65 6 99 30 40 28 70 76 56
89 -3 3 -21 -3 -39 -14 -48 -29 -75 -26 -141 15 -74 45 -127 45 -143 1 -7 -22
-6 -35 8 -59 25 -43 22 -59 -27 -151 -105 -194 -102 -351 6 -382 l36 -10 -20
-24 -19 -25 -237 17 -237 17 -99 -24 c-55 -13 -105 -22 -112 -19 -19 7 -23 22
-164 663 -73 327 -160 725 -196 884 -46 210 -61 293 -54 306 6 12 30 23 62 30
29 6 309 68 623 139 314 71 573 129 576 130 3 0 13 -5 23 -12z m774 -113 c17
-7 32 -16 32 -19 0 -3 -9 -1 -19 5 -17 8 -20 6 -26 -21 -6 -28 -10 -31 -37
-25 -17 3 -39 6 -49 6 -16 0 -19 6 -17 40 l3 41 40 -7 c22 -3 55 -12 73 -20z
m-163 6 c-27 -12 -43 -12 -25 0 8 5 22 9 30 9 10 0 8 -3 -5 -9z m245 -65 c19
-19 32 -35 29 -35 -3 0 -20 16 -39 35 -19 19 -32 35 -29 35 3 0 20 -16 39 -35z
m-300 -29 c-1 -6 -14 -27 -30 -46 l-30 -34 -25 25 -26 25 31 43 32 43 24 -23
c13 -12 24 -27 24 -33z m270 14 c0 -5 -4 -10 -10 -10 -5 0 -10 5 -10 10 0 6 5
10 10 10 6 0 10 -4 10 -10z m-210 -20 c-8 -5 -17 -7 -19 -4 -3 3 1 9 9 14 8 5
17 7 19 4 3 -3 -1 -9 -9 -14z m83 13 c-7 -2 -19 -2 -25 0 -7 3 -2 5 12 5 14 0
19 -2 13 -5z m65 -21 c2 -7 -2 -10 -12 -6 -9 3 -16 11 -16 16 0 13 23 5 28
-10z m162 -92 c0 -9 -14 -21 -31 -27 -26 -10 -31 -9 -35 5 -3 9 -12 32 -20 50
-14 33 -14 33 18 47 33 14 33 14 50 -23 10 -20 18 -44 18 -52z m-370 55 c-7
-9 -15 -13 -18 -10 -3 2 1 11 8 20 7 9 15 13 18 10 3 -2 -1 -11 -8 -20z m-252
-5 c52 -5 96 -11 99 -13 5 -5 -139 -287 -147 -287 -3 0 -33 54 -68 120 -54
103 -62 125 -56 155 7 41 11 41 172 25z m518 -17 c-7 -7 -26 7 -26 19 0 6 6 6
15 -2 9 -7 13 -15 11 -17z m-189 -30 c-3 -10 -8 -35 -12 -55 -9 -56 -29 -49
-22 7 4 28 3 45 -4 45 -6 0 -7 5 -4 10 3 6 15 10 26 10 15 0 19 -5 16 -17z
m-107 0 c0 -5 -5 -15 -10 -23 -8 -12 -10 -11 -10 8 0 12 5 22 10 22 6 0 10 -3
10 -7z m173 -42 c-3 -55 -24 -81 -48 -61 -13 11 -15 24 -11 54 9 51 14 58 39
54 19 -3 22 -9 20 -47z m-282 -7 c-3 -50 -1 -51 50 -30 12 5 19 -3 29 -36 8
-24 14 -47 15 -52 0 -16 -60 -36 -76 -25 -8 5 -9 9 -2 9 8 0 8 9 0 35 -13 45
-27 45 -27 -1 0 -30 -4 -37 -30 -46 -35 -12 -64 -59 -55 -88 3 -11 17 -28 30
-38 19 -16 23 -24 17 -47 l-8 -27 -35 43 c-20 24 -39 49 -43 56 -5 9 127 293
137 293 1 0 0 -21 -2 -46z m357 1 c4 -51 -18 -85 -45 -69 -14 9 -17 21 -15 50
7 75 55 90 60 19z m72 20 c0 -8 -4 -15 -10 -15 -5 0 -10 7 -10 15 0 8 5 15 10
15 6 0 10 -7 10 -15z m-682 -116 c35 -66 62 -122 60 -124 -1 -1 -37 -12 -78
-22 -41 -11 -82 -23 -91 -27 -15 -7 -15 2 2 91 10 54 21 122 25 151 4 28 10
52 13 52 3 0 35 -55 69 -121z m349 49 c-3 -7 -5 -2 -5 12 0 14 2 19 5 13 2 -7
2 -19 0 -25z m329 -4 c-3 -9 -6 -18 -6 -20 0 -2 -4 -4 -9 -4 -5 0 -7 9 -4 20
3 11 10 20 15 20 6 0 7 -7 4 -16z m54 6 c0 -5 -5 -10 -11 -10 -5 0 -7 5 -4 10
3 6 8 10 11 10 2 0 4 -4 4 -10z m-344 -77 c-7 -7 -26 7 -26 19 0 6 6 6 15 -2
9 -7 13 -15 11 -17z m324 9 c26 -21 20 -40 -22 -79 -23 -21 -23 -21 -46 -3
l-23 19 28 40 c15 22 31 40 34 41 4 0 17 -8 29 -18z m-852 -195 c9 1 42 11 72
22 31 11 78 23 105 26 l50 6 58 -76 58 -75 86 59 c82 58 86 60 113 46 27 -14
28 -16 23 -82 -3 -37 -7 -69 -8 -71 -3 -4 -581 65 -627 74 -24 5 -30 16 -67
134 -23 70 -41 131 -41 135 0 4 36 -39 81 -96 50 -65 87 -103 97 -102z m780
183 c-7 -10 -14 -18 -15 -16 -6 6 9 36 18 36 5 0 4 -9 -3 -20z m-191 -46 c-7
-7 -37 7 -37 17 0 6 9 5 21 -1 11 -7 19 -14 16 -16z m143 7 c0 -5 -9 -11 -20
-14 -22 -6 -28 8 -7 16 19 8 27 8 27 -2z m-210 -21 c0 -5 -4 -10 -10 -10 -5 0
-10 5 -10 10 0 6 5 10 10 10 6 0 10 -4 10 -10z m133 3 c-7 -2 -19 -2 -25 0 -7
3 -2 5 12 5 14 0 19 -2 13 -5z m-163 -72 c0 -9 -17 -27 -37 -41 -21 -14 -49
-33 -64 -42 l-25 -18 4 30 c3 21 11 32 27 36 32 8 57 37 59 69 l1 26 18 -22
c9 -12 17 -29 17 -38z m172 43 c3 -2 3 -16 -1 -32 -7 -25 -11 -27 -49 -24 -24
2 -42 -1 -42 -7 0 -6 -7 -8 -15 -5 -8 4 -15 10 -15 15 0 4 6 6 13 3 10 -3 12
5 9 32 l-4 37 48 -8 c27 -4 52 -9 56 -11z m78 -8 c0 -3 -4 -8 -10 -11 -5 -3
-10 -1 -10 4 0 6 5 11 10 11 6 0 10 -2 10 -4z m-523 -226 c181 -22 331 -41
335 -43 4 -1 4 -8 -1 -16 -7 -11 -64 -7 -346 27 -186 23 -340 43 -342 46 -7 7
6 26 17 26 5 0 157 -18 337 -40z m-58 -56 c161 -19 160 -18 89 -58 l-33 -18
40 -35 40 -35 -65 7 c-36 3 -114 13 -173 21 -59 8 -110 14 -113 14 -2 0 3 11
12 25 12 18 15 38 11 66 -5 38 -4 40 16 36 12 -3 91 -13 176 -23z m344 -41
l49 -6 -7 -61 c-4 -34 -9 -63 -11 -65 -2 -2 -54 2 -116 10 l-113 15 43 22 c23
12 42 28 42 34 0 6 -15 25 -32 40 l-33 29 65 -6 c36 -3 87 -8 113 -12z m-273
-129 c168 -20 307 -38 309 -40 15 -14 -37 -10 -295 21 -352 43 -364 44 -364
56 0 5 10 7 23 5 12 -3 159 -22 327 -42z m-1488 -814 c11 0 15 -6 11 -19 -4
-16 -1 -19 17 -14 16 4 18 8 8 14 -20 13 -4 10 33 -6 19 -8 26 -14 16 -15 -13
0 -16 -7 -15 -32 3 -30 1 -32 -41 -40 -52 -9 -61 -5 -61 28 0 36 -15 30 -73
-28 l-52 -52 33 -13 c19 -8 31 -19 28 -26 -2 -7 -10 -29 -17 -50 -10 -32 -16
-37 -33 -33 -12 3 -27 6 -35 6 -18 0 -7 63 20 108 11 19 17 37 14 42 -3 4 12
18 33 30 20 13 31 25 25 27 -7 3 -13 18 -13 35 0 26 -3 29 -22 22 -13 -3 -20
-3 -16 1 11 11 79 24 103 19 11 -2 27 -4 37 -4z m-192 -51 l-44 -32 29 -22 28
-23 -22 -27 c-11 -15 -21 -34 -21 -41 0 -17 -11 -18 -45 -2 -30 14 -31 18 -5
67 19 38 94 111 113 111 6 0 -10 -14 -33 -31z m369 -8 c20 -11 54 -38 75 -61
l38 -42 -25 -25 -25 -25 -35 38 c-35 39 -35 39 -16 60 10 11 19 23 19 26 0 5
-55 30 -90 42 -11 3 -11 5 3 5 10 1 35 -8 56 -18z m-319 -11 c0 -5 -4 -10 -10
-10 -5 0 -10 5 -10 10 0 6 5 10 10 10 6 0 10 -4 10 -10z m2078 3 c-10 -2 -28
-2 -40 0 -13 2 -5 4 17 4 22 1 32 -1 23 -4z m-75 -10 c-9 -3 -8 -11 4 -29 8
-14 14 -26 12 -28 -15 -11 -82 -46 -88 -46 -4 0 -13 12 -20 26 -10 23 -14 24
-29 13 -14 -11 -14 -10 2 8 20 25 93 63 116 62 10 0 11 -2 3 -6z m124 1 c-3
-3 -12 -4 -19 -1 -8 3 -5 6 6 6 11 1 17 -2 13 -5z m78 -36 c17 -11 39 -32 49
-47 l20 -26 -21 18 c-21 18 -22 18 -33 -2 -14 -27 -23 -26 -63 1 -18 13 -34
24 -36 25 -2 1 2 16 9 33 14 34 23 34 75 -2z m-125 12 c0 -5 -4 -10 -10 -10
-5 0 -10 5 -10 10 0 6 5 10 10 10 6 0 10 -4 10 -10z m-1835 -30 c3 -5 -1 -10
-9 -10 -8 0 -18 5 -21 10 -3 6 1 10 9 10 8 0 18 -4 21 -10z m-165 -4 c0 -3 -4
-8 -10 -11 -5 -3 -10 -1 -10 4 0 6 5 11 10 11 6 0 10 -2 10 -4z m90 0 c0 -2
-7 -6 -15 -10 -8 -3 -15 -1 -15 4 0 6 7 10 15 10 8 0 15 -2 15 -4z m147 -32
c-7 -7 -37 7 -37 17 0 6 9 5 21 -1 11 -7 19 -14 16 -16z m-353 -8 c-6 -16 -24
-23 -24 -8 0 10 22 33 27 28 2 -2 1 -11 -3 -20z m2086 14 c0 -5 -7 -10 -15
-10 -8 0 -15 5 -15 10 0 6 7 10 15 10 8 0 15 -4 15 -10z m80 -11 c0 -11 -3
-11 -24 -3 -23 9 -20 23 4 17 11 -3 20 -9 20 -14z m-2020 2 c0 -5 -7 -12 -16
-15 -14 -5 -15 -4 -4 9 14 17 20 19 20 6z m1865 -20 c-3 -6 -11 -11 -17 -11
-6 0 -6 6 2 15 14 17 26 13 15 -4z m-1615 -34 c0 -5 -4 -5 -10 -2 -5 3 -10 14
-10 23 0 15 2 15 10 2 5 -8 10 -19 10 -23z m1826 6 c-7 -7 -26 7 -26 19 0 6 6
6 15 -2 9 -7 13 -15 11 -17z m-296 7 c0 -5 -4 -10 -10 -10 -5 0 -10 5 -10 10
0 6 5 10 10 10 6 0 10 -4 10 -10z m-1591 -14 c7 -8 13 -34 14 -58 2 -38 -1
-43 -20 -46 -17 -3 -26 3 -33 23 -14 36 -13 82 3 88 20 9 24 8 36 -7z m1961 4
c0 -5 -5 -10 -11 -10 -5 0 -7 5 -4 10 3 6 8 10 11 10 2 0 4 -4 4 -10z m-2197
-20 c-3 -11 -9 -20 -14 -20 -11 0 -11 3 -3 24 9 23 23 20 17 -4z m1861 -4 c-3
-9 -10 -16 -15 -16 -6 0 -5 9 1 21 13 24 24 20 14 -5z m-1984 -1 c0 -8 -4 -15
-10 -15 -5 0 -10 7 -10 15 0 8 5 15 10 15 6 0 10 -7 10 -15z m288 2 c6 -7 13
-33 14 -58 3 -41 1 -44 -22 -44 -20 0 -26 7 -37 44 -9 33 -10 48 -2 58 14 17
33 17 47 0z m-81 -22 c-21 -15 -22 -23 -1 -21 10 0 21 -11 27 -28 8 -24 7 -32
-8 -42 -20 -15 -45 -8 -45 13 0 10 6 12 19 8 16 -5 18 -2 14 15 -4 16 -8 18
-19 9 -18 -14 -20 -12 -28 28 -6 28 -4 32 16 35 32 6 44 -3 25 -17z m283 15
c0 -5 -4 -10 -10 -10 -5 0 -10 5 -10 10 0 6 5 10 10 10 6 0 10 -4 10 -10z
m-540 -10 c0 -5 -4 -10 -10 -10 -5 0 -10 5 -10 10 0 6 5 10 10 10 6 0 10 -4
10 -10z m2330 -12 c0 -19 -2 -20 -10 -8 -13 19 -13 30 0 30 6 0 10 -10 10 -22z
m-1840 -13 c0 -8 -2 -15 -4 -15 -2 0 -6 7 -10 15 -3 8 -1 15 4 15 6 0 10 -7
10 -15z m1496 -7 c-3 -13 -6 -38 -6 -56 0 -30 -2 -32 -27 -26 -43 10 -48 21
-16 36 19 9 29 22 31 41 2 15 8 27 14 27 6 0 8 -10 4 -22z m184 12 c0 -5 -4
-10 -10 -10 -5 0 -10 -5 -10 -11 0 -6 7 -9 15 -5 32 12 59 -46 33 -72 -19 -19
-24 -15 -51 37 -19 36 -23 51 -14 60 14 14 37 15 37 1z m250 -53 c0 -30 -2
-56 -5 -59 -3 -2 -18 -3 -33 0 -28 4 -29 6 -26 55 1 29 3 53 3 55 1 1 15 2 31
2 30 0 30 -1 30 -53z m-2360 7 c0 -8 -4 -12 -10 -9 -5 3 -10 13 -10 21 0 8 5
12 10 9 6 -3 10 -13 10 -21z m97 -6 c-3 -7 -5 -2 -5 12 0 14 2 19 5 13 2 -7 2
-19 0 -25z m1850 0 c-3 -7 -5 -2 -5 12 0 14 2 19 5 13 2 -7 2 -19 0 -25z
m-1451 12 c18 0 18 -31 -1 -76 -12 -30 -18 -34 -37 -29 -35 11 -39 19 -27 56
6 19 13 40 15 48 2 7 11 10 20 7 9 -3 22 -6 30 -6z m-526 -14 c0 -7 10 -26 22
-41 l21 -27 -24 -19 c-31 -24 -39 -21 -66 27 -28 48 -28 49 0 62 31 15 47 14
47 -2z m2307 -18 c-3 -7 -5 -2 -5 12 0 14 2 19 5 13 2 -7 2 -19 0 -25z m-2217
12 c0 -5 -4 -10 -10 -10 -5 0 -10 5 -10 10 0 6 5 10 10 10 6 0 10 -4 10 -10z
m356 -26 c-4 -9 -9 -15 -11 -12 -3 3 -3 13 1 22 4 9 9 15 11 12 3 -3 3 -13 -1
-22z m-292 -20 c10 -25 -1 -29 -14 -5 -6 12 -7 21 -1 21 5 0 12 -7 15 -16z
m1839 -4 c3 -11 1 -20 -4 -20 -5 0 -9 2 -9 4 0 2 -3 11 -6 20 -3 9 -2 16 4 16
5 0 12 -9 15 -20z m-1813 -77 c0 -11 -43 -53 -53 -53 -6 0 -7 3 -4 7 11 10
-34 52 -49 46 -19 -7 -8 25 20 55 l20 23 33 -36 c18 -20 33 -39 33 -42z m2114
52 c-6 -16 -24 -21 -24 -7 0 11 11 22 21 22 5 0 6 -7 3 -15z m-1884 -10 c-7
-9 -15 -13 -17 -11 -7 7 7 26 19 26 6 0 6 -6 -2 -15z m1550 -5 c0 -5 -4 -10
-10 -10 -5 0 -10 5 -10 10 0 6 5 10 10 10 6 0 10 -4 10 -10z m-1750 -15 c7 -8
8 -15 2 -15 -5 0 -15 7 -22 15 -7 8 -8 15 -2 15 5 0 15 -7 22 -15z m1825 -6
c11 -17 -1 -21 -15 -4 -8 9 -8 15 -2 15 6 0 14 -5 17 -11z m305 7 c0 -3 -4 -8
-10 -11 -5 -3 -10 -1 -10 4 0 6 5 11 10 11 6 0 10 -2 10 -4z m-1985 -16 c-3
-5 -14 -10 -23 -10 -15 0 -15 2 -2 10 20 13 33 13 25 0z m-70 -10 c3 -5 -3
-10 -14 -10 -12 0 -21 5 -21 10 0 6 6 10 14 10 8 0 18 -4 21 -10z m165 6 c0
-3 -4 -8 -10 -11 -5 -3 -10 -1 -10 4 0 6 5 11 10 11 6 0 10 -2 10 -4z m1790
-11 c-7 -9 -15 -13 -17 -11 -7 7 7 26 19 26 6 0 6 -6 -2 -15z m-196 -17 c40
-26 42 -30 20 -63 -15 -23 -18 -24 -42 -10 -15 8 -35 21 -45 29 -18 14 -18 16
-2 40 21 32 25 32 69 4z m-1660 -14 c9 -36 -4 -47 -56 -48 -41 -1 -43 0 -43
29 0 25 5 31 30 36 55 12 63 10 69 -17z m1716 16 c12 -8 11 -10 -7 -10 -13 0
-23 5 -23 10 0 13 11 13 30 0z m189 -17 c13 -28 12 -29 -41 -58 -15 -8 -31
-15 -36 -15 -12 0 -36 54 -25 57 4 2 22 12 38 22 41 26 50 25 64 -6z m-109 7
c0 -5 -9 -10 -21 -10 -11 0 -17 5 -14 10 3 6 13 10 21 10 8 0 14 -4 14 -10z
m-1940 -14 c0 -3 -4 -8 -10 -11 -5 -3 -10 -1 -10 4 0 6 5 11 10 11 6 0 10 -2
10 -4z m1910 -40 c0 -3 -4 -8 -10 -11 -5 -3 -10 -1 -10 4 0 6 5 11 10 11 6 0
10 -2 10 -4z"/>
<path d="M995 2216 c-6 -43 -26 -328 -23 -332 2 -1 17 -4 33 -6 30 -3 30 -3
33 52 5 124 21 130 52 21 21 -73 25 -81 52 -86 16 -4 31 -5 33 -3 2 2 -10 50
-27 106 l-32 102 43 80 42 80 -34 0 c-33 0 -37 -4 -71 -70 -21 -38 -39 -70
-41 -70 -3 0 -2 33 1 74 l7 73 -32 5 c-28 4 -31 2 -36 -26z"/>
<path d="M509 2203 c-14 -3 -15 -26 -11 -191 2 -103 6 -189 8 -191 1 -1 15 1
31 6 25 9 27 13 25 50 -3 39 -2 41 28 48 17 4 32 5 34 3 1 -1 9 -20 18 -40 15
-33 20 -36 45 -29 15 4 27 12 26 17 -1 5 -34 82 -74 172 -75 170 -75 170 -130
155z m87 -209 c5 -19 2 -24 -14 -24 -20 0 -32 40 -31 105 0 29 1 28 20 -14 11
-24 22 -54 25 -67z"/>
<path d="M978 1788 c-36 -30 -30 -57 25 -117 l38 -42 49 36 c51 38 65 62 55
95 -9 27 -51 37 -74 16 -16 -15 -19 -15 -36 4 -21 23 -35 25 -57 8z"/>
<path d="M575 1734 c-33 -47 -37 -59 -29 -82 12 -34 56 -42 80 -14 14 16 21
18 45 9 25 -10 32 -8 51 11 21 21 22 24 8 48 -8 14 -38 38 -66 54 l-51 29 -38
-55z"/>
<path d="M640 1626 c0 -8 -3 -22 -7 -31 -5 -14 -2 -16 18 -10 32 10 32 10 17
34 -15 24 -28 27 -28 7z"/>
<path d="M791 1355 c-72 -101 -106 -232 -82 -320 12 -45 69 -141 78 -132 6 6
45 489 39 494 -1 2 -17 -17 -35 -42z"/>
<path d="M1582 1378 c-18 -5 -30 -13 -26 -19 3 -6 12 -8 19 -5 7 2 15 -4 18
-15 6 -23 34 -25 57 -4 15 13 19 14 29 1 10 -12 6 -16 -21 -22 -18 -4 -48 -6
-65 -5 -39 2 -42 -6 -8 -19 17 -6 43 -6 76 1 40 9 53 8 59 -1 4 -7 13 -9 19
-6 8 5 5 16 -10 37 -34 48 -93 71 -147 57z"/>
<path d="M2268 2165 c-2 -19 0 -35 4 -35 4 0 8 6 8 13 0 6 3 22 6 35 4 12 2
22 -4 22 -5 0 -12 -16 -14 -35z"/>
<path d="M2347 2177 c-4 -10 -7 -31 -6 -45 l0 -27 10 25 c5 13 8 33 7 45 -3
19 -4 19 -11 2z"/>
<path d="M1640 1645 c-20 -22 -22 -27 -10 -55 15 -36 29 -38 59 -6 22 23 22
25 7 55 -20 37 -26 38 -56 6z"/>
<path d="M1750 1630 c-20 -28 -20 -31 -4 -61 l16 -32 30 30 c29 30 30 31 14
62 -20 39 -29 39 -56 1z"/>
<path d="M2081 1596 c-16 -17 -20 -30 -16 -49 12 -45 29 -50 59 -18 27 28 27
30 12 60 -20 37 -26 38 -55 7z"/>
<path d="M504 420 c3 -14 6 -31 6 -37 0 -7 5 -13 10 -13 12 0 2 50 -13 65 -6
7 -8 2 -3 -15z"/>
<path d="M431 408 c1 -7 5 -24 9 -38 8 -24 8 -24 9 7 1 17 -3 35 -9 38 -5 3
-10 0 -9 -7z"/>
<path d="M2280 342 c0 -5 7 -13 16 -16 10 -4 14 -1 12 6 -5 15 -28 23 -28 10z"/>
</g>
</svg>
