<svg id="Layer_1" data-name="Layer 1" xmlns="http://www.w3.org/2000/svg" viewBox="0 0 40.8 58.07"><defs><style>.cls-1{fill:none;fill-rule:evenodd;}</style></defs><path class="cls-1" d="M2.4,0h36a2.39,2.39,0,0,1,2.4,2.4V55.67a2.39,2.39,0,0,1-2.4,2.4H2.4A2.39,2.39,0,0,1,0,55.67V2.4A2.39,2.39,0,0,1,2.4,0Z"/><path d="M20.85,40.26a26.53,26.53,0,0,1-5,13.19H25.88A26.53,26.53,0,0,1,20.85,40.26Z"/><path d="M28.14,31.47a7.36,7.36,0,0,0-2.82.57L25.25,32a7.28,7.28,0,1,0-8.43.27,7.28,7.28,0,1,0,4,6.83h0a7.28,7.28,0,1,0,7.28-7.61Z"/></svg>