<?xml version="1.0" encoding="utf-8"?>
<!-- Generator: Adobe Illustrator 25.4.1, SVG Export Plug-In . SVG Version: 6.00 Build 0)  -->
<svg version="1.1" id="Layer_1" xmlns="http://www.w3.org/2000/svg" xmlns:xlink="http://www.w3.org/1999/xlink" x="0px" y="0px"
	 viewBox="0 0 29.6 34.7" style="enable-background:new 0 0 29.6 34.7;" xml:space="preserve">
<path d="M14.9,21.4c-0.4,4.8-2.2,9.3-5,13.2h10C17.1,30.8,15.3,26.2,14.9,21.4z"/>
<path d="M22.2,12.6c-1,0-1.9,0.2-2.8,0.6h-0.1c3.2-2.4,3.8-7,1.4-10.2s-7-3.8-10.2-1.4s-3.8,7-1.4,10.2c0.5,0.6,1.1,1.2,1.8,1.7
	c-3.6-1.8-8-0.4-9.8,3.2s-0.4,8,3.2,9.8s8,0.4,9.8-3.2c0.5-0.9,0.7-1.9,0.8-2.9l0,0c0.2,4,3.6,7.1,7.6,6.9s7.1-3.6,6.9-7.6
	S26,12.7,22.2,12.6L22.2,12.6z"/>
</svg>
