<svg id="Layer_1" data-name="Layer 1" xmlns="http://www.w3.org/2000/svg" viewBox="0 0 40.8 58.07"><defs><style>.cls-1{fill:#b70707;}.cls-2{fill:none;fill-rule:evenodd;}</style></defs><path class="cls-1" d="M30.59,43.23a42.38,42.38,0,0,0-9.95,10.05h0a42.38,42.38,0,0,0-10-10.05C4,38.32,2.48,32.19,4.87,27.56s12-6.87,15.77,2.31c3.81-9.18,13.38-6.93,15.77-2.31S37.28,38.32,30.59,43.23Z"/><path class="cls-2" d="M2.4,0h36a2.39,2.39,0,0,1,2.4,2.4V55.67a2.39,2.39,0,0,1-2.4,2.4H2.4A2.39,2.39,0,0,1,0,55.67V2.4A2.39,2.39,0,0,1,2.4,0Z"/></svg>