<?xml version="1.0" encoding="utf-8"?>
<!-- Generator: Adobe Illustrator 26.0.3, SVG Export Plug-In . SVG Version: 6.00 Build 0)  -->
<svg version="1.1" id="Layer_1" xmlns="http://www.w3.org/2000/svg" xmlns:xlink="http://www.w3.org/1999/xlink" x="0px" y="0px"
	 viewBox="0 0 40.8 58.1" style="enable-background:new 0 0 40.8 58.1;" xml:space="preserve">
<style type="text/css">
	.st0{fill:#FFFFFF;}
	.st1{fill:#B70707;}
</style>
<path class="st0" d="M2.4,0h36c1.3,0,2.4,1.1,2.4,2.4c0,0,0,0,0,0v53.3c0,1.3-1.1,2.4-2.4,2.4c0,0,0,0,0,0h-36C1.1,58.1,0,57,0,55.7
	c0,0,0,0,0,0V2.4C0,1.1,1.1,0,2.4,0C2.4,0,2.4,0,2.4,0z"/>
<path class="st1" d="M30.6,43.2c-3.9,2.8-7.2,6.2-10,10l0,0c-2.7-3.9-6.1-7.3-10-10c-6.6-4.9-8.2-11-5.8-15.7s12-6.9,15.8,2.3
	c3.8-9.2,13.4-6.9,15.8-2.3S37.3,38.3,30.6,43.2z"/>
</svg>
