<svg id="Layer_1" data-name="Layer 1" xmlns="http://www.w3.org/2000/svg" viewBox="0 0 40.8 58.07"><defs><style>.cls-1{fill:none;fill-rule:evenodd;}</style></defs><path class="cls-1" d="M2.4,0h36a2.39,2.39,0,0,1,2.4,2.4V55.67a2.39,2.39,0,0,1-2.4,2.4H2.4A2.39,2.39,0,0,1,0,55.67V2.4A2.39,2.39,0,0,1,2.4,0Z"/><path d="M20.85,39.65a27.48,27.48,0,0,1-5.16,13.62H26A27.48,27.48,0,0,1,20.85,39.65Z"/><path d="M30.49,27.78a39.21,39.21,0,0,1-9.64-9.21h0a39.21,39.21,0,0,1-9.64,9.21c-6.48,4.5-8,10.1-5.63,14.34S17.16,48.42,20.85,40c3.69,8.41,13,6.34,15.27,2.11S37,32.28,30.49,27.78Z"/></svg>