<?xml version="1.0" encoding="utf-8"?>
<!-- Generator: Adobe Illustrator 26.0.3, SVG Export Plug-In . SVG Version: 6.00 Build 0)  -->
<svg version="1.1" id="Layer_1" xmlns="http://www.w3.org/2000/svg" xmlns:xlink="http://www.w3.org/1999/xlink" x="0px" y="0px"
	 viewBox="0 0 40.8 58.1" style="enable-background:new 0 0 40.8 58.1;" xml:space="preserve">
<style type="text/css">
	.st0{fill:#FFFFFF;}
</style>
<path class="st0" d="M2.4,0h36c1.3,0,2.4,1.1,2.4,2.4c0,0,0,0,0,0v53.3c0,1.3-1.1,2.4-2.4,2.4c0,0,0,0,0,0h-36C1.1,58.1,0,57,0,55.7
	c0,0,0,0,0,0V2.4C0,1.1,1.1,0,2.4,0C2.4,0,2.4,0,2.4,0z"/>
<path d="M20.9,39.7c-0.5,4.9-2.2,9.6-5.2,13.6H26C23.1,49.3,21.3,44.6,20.9,39.7z"/>
<path d="M30.5,27.8c-3.7-2.5-7-5.6-9.6-9.2l0,0c-2.7,3.6-5.9,6.7-9.6,9.2c-6.5,4.5-8,10.1-5.6,14.3s11.6,6.3,15.3-2.1
	c3.7,8.4,13,6.3,15.3,2.1S37,32.3,30.5,27.8z"/>
</svg>
