<?xml version="1.0" encoding="utf-8"?>
<!-- Generator: Adobe Illustrator 25.4.1, SVG Export Plug-In . SVG Version: 6.00 Build 0)  -->
<svg version="1.1" id="Layer_1" xmlns="http://www.w3.org/2000/svg" xmlns:xlink="http://www.w3.org/1999/xlink" x="0px" y="0px"
	 viewBox="0 0 55 50" style="enable-background:new 0 0 55 50;" xml:space="preserve">
<style type="text/css">
	.st0{fill-rule:evenodd;clip-rule:evenodd;fill:#FFFFFF;stroke:#FFFFFF;stroke-linejoin:round;}
</style>
<path id="cards-icon" class="st0" d="M30.7,1l0.3,1.3l22.7,6.3c0.3,0.1,0.5,0.4,0.4,0.7L43.9,49.1c-0.1,0.3-0.4,0.5-0.7,0.4
	c-5.2-1.4-10.4-3-15.7-4.4l-15.7,4.4c-0.3,0.1-0.6-0.1-0.7-0.4L1,9.3C0.9,9,1.1,8.7,1.4,8.6c0,0,0,0,0,0l22.7-6.3
	c0.1-0.4,0.2-0.9,0.4-1.4c0.1-0.2,0.3-0.4,0.6-0.3c0.8,0.2,1.7,0.5,2.5,0.7l2.5-0.7C30.4,0.6,30.7,0.8,30.7,1L30.7,1L30.7,1z
	 M29.8,1.9L2.2,9.6l9.9,38.6l27.6-7.7L29.8,1.9z M31.4,3.6l4.5,17.5c0.8-0.3,1.6-0.4,2.4-0.2c1.6,0.5,2.1,1.9,1.7,3.6
	c-0.6,1.1-1.4,2.1-2.5,2.7L41,40.8c0.1,0.3-0.1,0.6-0.4,0.7l-0.5,0.1c0.2,0.2,0.3,0.3,0.5,0.5c0.4-0.1,0.8-0.2,1.3-0.1
	c0.5,0.1,0.9,0.7,0.7,1.2c0,0.1,0,0.1-0.1,0.2c-0.2,0.8-1.9,1.5-2.8,2.1c-0.5-1-1.5-2.7-1.4-3.4c0,0-5.9,1.6-8.6,2.4L43,48.2L53,9.6
	L31.4,3.6z M26.8,4.5C27.6,5,29,5.3,29.3,6.4c0,0.8-0.7,1.4-1.4,1.4c0,0,0,0,0,0c0.1,0.4,0.2,0.7,0.5,1L27.5,9
	c0.1-0.4,0.1-0.8-0.1-1.2c-0.6,0.4-1.4,0.3-1.8-0.4c0,0,0,0,0-0.1C25.3,6.3,26.3,5.3,26.8,4.5L26.8,4.5L26.8,4.5z M47.7,9.9
	c0.4,0.2,0.7,0.4,1,0.8c0.4-0.1,0.9-0.2,1.3-0.1c0.5,0.1,0.9,0.7,0.7,1.2c0,0.1,0,0.1,0,0.2c-0.2,0.8-1.9,1.5-2.8,2.1
	c-0.5-1-1.5-2.6-1.4-3.3c0-0.5,0.4-0.9,0.9-0.9C47.5,9.8,47.6,9.8,47.7,9.9L47.7,9.9L47.7,9.9z M6.5,10.2c-0.1,0.4,0,0.8,0.1,1.2
	c0.6-0.4,1.4-0.2,1.8,0.4c0,0,0,0,0,0.1c0.3,1.1-0.8,2.1-1.2,2.9c-0.8-0.5-2.2-0.8-2.5-1.9c0-0.8,0.6-1.4,1.4-1.3c0,0,0,0,0,0
	c-0.1-0.4-0.2-0.8-0.5-1.1L6.5,10.2z M19.6,19.5c2,1.2,5.6,2,6.3,4.7c0.4,1.7-1.9,3.5-3.7,3.4c0.2,1,0.6,1.9,1.3,2.6l-2.1,0.6
	c0.2-1,0.2-2-0.2-2.9c-1.5,1-4.4,0.6-4.8-1C15.6,24.2,18.4,21.6,19.6,19.5L19.6,19.5L19.6,19.5z M35.2,35.3
	c-0.1,0.4-0.1,0.8,0.1,1.2c0.6-0.4,1.4-0.3,1.8,0.4c0,0,0,0,0,0.1c0.3,1.1-0.8,2.1-1.2,2.9c-0.8-0.5-2.2-0.8-2.5-1.9
	c0-0.8,0.6-1.4,1.4-1.4c0,0,0,0,0,0c-0.1-0.4-0.2-0.7-0.5-1L35.2,35.3z M14,41.2c0.8,0.5,2.2,0.8,2.5,1.9c0,0.8-0.6,1.4-1.4,1.3
	c0,0,0,0,0,0c0.1,0.4,0.2,0.8,0.5,1.1l-0.8,0.2c0.1-0.4,0.1-0.8-0.1-1.2c-0.6,0.4-1.4,0.3-1.9-0.4c0,0,0,0,0,0
	C12.5,43,13.6,42,14,41.2L14,41.2L14,41.2z"/>
</svg>
