<svg xmlns="http://www.w3.org/2000/svg" xmlns:xlink="http://www.w3.org/1999/xlink" viewBox="0 0 286.92 402.11"><defs><style>.cls-1{mask:url(#mask);filter:url(#luminosity-noclip-6);}.cls-10,.cls-14,.cls-16,.cls-2,.cls-4,.cls-6,.cls-8{mix-blend-mode:multiply;}.cls-2{fill:url(#radial-gradient);}.cls-3{mask:url(#mask-2);filter:url(#luminosity-noclip-7);}.cls-4{fill:url(#radial-gradient-2);}.cls-5{mask:url(#mask-3);filter:url(#luminosity-noclip-8);}.cls-6{fill:url(#radial-gradient-3);}.cls-7{mask:url(#mask-4);filter:url(#luminosity-noclip-9);}.cls-8{fill:url(#radial-gradient-4);}.cls-9{mask:url(#mask-5);filter:url(#luminosity-noclip-10);}.cls-10{fill:url(#radial-gradient-5);}.cls-11{isolation:isolate;}.cls-12{fill:#fff;}.cls-13{mask:url(#mask-6);}.cls-14{fill:url(#radial-gradient-6);}.cls-15{mask:url(#mask-7);}.cls-16{fill:url(#radial-gradient-7);}.cls-17{mask:url(#mask-8);}.cls-18{mix-blend-mode:screen;fill:url(#radial-gradient-8);}.cls-19{mask:url(#mask-9);}.cls-20{fill:url(#radial-gradient-9);}.cls-21{mask:url(#mask-10);}.cls-22{fill:url(#radial-gradient-10);}.cls-23{filter:url(#luminosity-noclip-5);}.cls-24{filter:url(#luminosity-noclip-4);}.cls-25{filter:url(#luminosity-noclip-3);}.cls-26{filter:url(#luminosity-noclip-2);}.cls-27{filter:url(#luminosity-noclip);}</style><filter id="luminosity-noclip" x="0.01" y="-8606.19" width="286.91" height="32766" filterUnits="userSpaceOnUse" color-interpolation-filters="sRGB"><feFlood flood-color="#fff" result="bg"/><feBlend in="SourceGraphic" in2="bg"/></filter><mask id="mask" x="0.01" y="-8606.19" width="286.91" height="32766" maskUnits="userSpaceOnUse"><g class="cls-27"/></mask><radialGradient id="radial-gradient" cx="139.02" cy="-136.5" r="580.82" gradientUnits="userSpaceOnUse"><stop offset="0.62"/><stop offset="0.75" stop-color="#020202"/><stop offset="0.8" stop-color="#090909"/><stop offset="0.84" stop-color="#151515"/><stop offset="0.87" stop-color="#262626"/><stop offset="0.9" stop-color="#3c3c3c"/><stop offset="0.92" stop-color="#585858"/><stop offset="0.94" stop-color="#797979"/><stop offset="0.96" stop-color="#9f9f9f"/><stop offset="0.98" stop-color="#cbcbcb"/><stop offset="1" stop-color="#f9f9f9"/><stop offset="1" stop-color="#fff"/></radialGradient><filter id="luminosity-noclip-2" x="0.01" y="-8606.19" width="286.91" height="32766" filterUnits="userSpaceOnUse" color-interpolation-filters="sRGB"><feFlood flood-color="#fff" result="bg"/><feBlend in="SourceGraphic" in2="bg"/></filter><mask id="mask-2" x="0.01" y="-8606.19" width="286.91" height="32766" maskUnits="userSpaceOnUse"><g class="cls-26"/></mask><radialGradient id="radial-gradient-2" cx="144.77" cy="371.1" r="416.2" gradientUnits="userSpaceOnUse"><stop offset="0.62"/><stop offset="0.71" stop-color="#020202"/><stop offset="0.76" stop-color="#0a0a0a"/><stop offset="0.8" stop-color="#181818"/><stop offset="0.84" stop-color="#2c2c2c"/><stop offset="0.88" stop-color="#464646"/><stop offset="0.91" stop-color="#656565"/><stop offset="0.94" stop-color="#8a8a8a"/><stop offset="0.96" stop-color="#b6b6b6"/><stop offset="0.99" stop-color="#e5e5e5"/><stop offset="1" stop-color="#fff"/></radialGradient><filter id="luminosity-noclip-3" x="0.01" y="-8606.19" width="281.63" height="32766" filterUnits="userSpaceOnUse" color-interpolation-filters="sRGB"><feFlood flood-color="#fff" result="bg"/><feBlend in="SourceGraphic" in2="bg"/></filter><mask id="mask-3" x="0.01" y="-8606.19" width="281.63" height="32766" maskUnits="userSpaceOnUse"><g class="cls-25"/></mask><radialGradient id="radial-gradient-3" cx="78.38" cy="117.33" r="393.61" gradientUnits="userSpaceOnUse"><stop offset="0"/><stop offset="0.01" stop-color="#090909"/><stop offset="0.05" stop-color="#373737"/><stop offset="0.09" stop-color="#626262"/><stop offset="0.14" stop-color="#888"/><stop offset="0.2" stop-color="#a8a8a8"/><stop offset="0.25" stop-color="#c4c4c4"/><stop offset="0.32" stop-color="#dadada"/><stop offset="0.4" stop-color="#ebebeb"/><stop offset="0.49" stop-color="#f6f6f6"/><stop offset="0.63" stop-color="#fdfdfd"/><stop offset="1" stop-color="#fff"/></radialGradient><filter id="luminosity-noclip-4" x="0" y="-8606.19" width="0.58" height="32766" filterUnits="userSpaceOnUse" color-interpolation-filters="sRGB"><feFlood flood-color="#fff" result="bg"/><feBlend in="SourceGraphic" in2="bg"/></filter><mask id="mask-4" x="0" y="-8606.19" width="0.58" height="32766" maskUnits="userSpaceOnUse"><g class="cls-24"/></mask><radialGradient id="radial-gradient-4" cx="313.08" cy="0.25" r="462.23" gradientTransform="matrix(-1, 0, 0, 1, 612.43, 0)" gradientUnits="userSpaceOnUse"><stop offset="0.1"/><stop offset="1" stop-color="#fff"/></radialGradient><filter id="luminosity-noclip-5" x="5.15" y="-8606.19" width="281.62" height="32766" filterUnits="userSpaceOnUse" color-interpolation-filters="sRGB"><feFlood flood-color="#fff" result="bg"/><feBlend in="SourceGraphic" in2="bg"/></filter><mask id="mask-5" x="5.15" y="-8606.19" width="281.62" height="32766" maskUnits="userSpaceOnUse"><g class="cls-23"/></mask><radialGradient id="radial-gradient-5" cx="-12.41" cy="-0.18" r="462.12" gradientTransform="matrix(1, 0, 0, 1, 0, 0)" xlink:href="#radial-gradient-4"/><filter id="luminosity-noclip-6" x="0.01" y="217.21" width="286.91" height="184.9" filterUnits="userSpaceOnUse" color-interpolation-filters="sRGB"><feFlood flood-color="#fff" result="bg"/><feBlend in="SourceGraphic" in2="bg"/></filter><mask id="mask-6" x="0.01" y="217.21" width="286.91" height="184.9" maskUnits="userSpaceOnUse"><g class="cls-1"><path class="cls-2" d="M169.17,217.22,0,217.28V387.11c0,14.69,11.1,15,11.1,15h264.7s11.11-.31,11.11-15V217.21Z"/></g></mask><radialGradient id="radial-gradient-6" cx="139.02" cy="-136.5" r="580.82" gradientUnits="userSpaceOnUse"><stop offset="0.62" stop-color="#fff"/><stop offset="0.79" stop-color="#fdfdfd"/><stop offset="0.85" stop-color="#f6f6f6"/><stop offset="0.9" stop-color="#eaeaea"/><stop offset="0.94" stop-color="#d9d9d9"/><stop offset="0.97" stop-color="#c3c3c3"/><stop offset="1" stop-color="#ababab"/></radialGradient><filter id="luminosity-noclip-7" x="0.01" y="0.44" width="286.91" height="200.5" filterUnits="userSpaceOnUse" color-interpolation-filters="sRGB"><feFlood flood-color="#fff" result="bg"/><feBlend in="SourceGraphic" in2="bg"/></filter><mask id="mask-7" x="0.01" y="0.44" width="286.91" height="200.5" maskUnits="userSpaceOnUse"><g class="cls-3"><path class="cls-4" d="M0,200.84l72.43,0q104.39.06,208.75.05h5.73V15.44c0-14.7-11.11-15-11.11-15H11.11S0,.74,0,15.44v185.4Z"/></g></mask><radialGradient id="radial-gradient-7" cx="144.77" cy="371.1" r="416.2" gradientUnits="userSpaceOnUse"><stop offset="0.62" stop-color="#fff"/><stop offset="0.75" stop-color="#fdfdfd"/><stop offset="0.82" stop-color="#f5f5f5"/><stop offset="0.88" stop-color="#e7e7e7"/><stop offset="0.93" stop-color="#d3d3d3"/><stop offset="0.98" stop-color="#bababa"/><stop offset="1" stop-color="#ababab"/></radialGradient><filter id="luminosity-noclip-8" x="0.01" y="0.44" width="281.63" height="401.67" filterUnits="userSpaceOnUse" color-interpolation-filters="sRGB"><feFlood flood-color="#fff" result="bg"/><feBlend in="SourceGraphic" in2="bg"/></filter><mask id="mask-8" x="0.01" y="0.44" width="281.63" height="401.67" maskUnits="userSpaceOnUse"><g class="cls-5"><path class="cls-6" d="M.59,387.13V16C.59,1.32,11.71,1,11.71,1h265a11.17,11.17,0,0,1,5,1.6A11.35,11.35,0,0,0,275.81.44H11.11S0,.74,0,15.44V387.11c0,14.69,11.1,15,11.1,15h.6S.59,401.8.59,387.13Z"/></g></mask><radialGradient id="radial-gradient-8" cx="78.38" cy="117.33" r="393.61" gradientUnits="userSpaceOnUse"><stop offset="0" stop-color="#fff"/><stop offset="0.14" stop-color="#fff"/><stop offset="1" stop-color="#fff"/></radialGradient><filter id="luminosity-noclip-9" x="0" y="29.46" width="0.58" height="346.34" filterUnits="userSpaceOnUse" color-interpolation-filters="sRGB"><feFlood flood-color="#fff" result="bg"/><feBlend in="SourceGraphic" in2="bg"/></filter><mask id="mask-9" x="0" y="29.46" width="0.58" height="346.34" maskUnits="userSpaceOnUse"><g class="cls-7"><path class="cls-8" d="M0,29.46V375.8c.19-.7.38-1.4.58-2.1v-338C.38,33.65.19,31.55,0,29.46Z"/></g></mask><radialGradient id="radial-gradient-9" cx="313.08" cy="0.25" r="462.23" gradientTransform="matrix(-1, 0, 0, 1, 612.43, 0)" gradientUnits="userSpaceOnUse"><stop offset="0.1" stop-color="#fff"/><stop offset="1" stop-color="#ababab"/></radialGradient><filter id="luminosity-noclip-10" x="5.15" y="0" width="281.62" height="401.67" filterUnits="userSpaceOnUse" color-interpolation-filters="sRGB"><feFlood flood-color="#fff" result="bg"/><feBlend in="SourceGraphic" in2="bg"/></filter><mask id="mask-10" x="5.15" y="0" width="281.62" height="401.67" maskUnits="userSpaceOnUse"><g class="cls-9"><path class="cls-10" d="M286.19,15V386.11c0,14.68-11.11,15-11.11,15h-265a11.27,11.27,0,0,1-5-1.61A11.42,11.42,0,0,0,11,401.67h264.7s11.1-.3,11.1-15V15c0-14.7-11.1-15-11.1-15h-.59S286.19.3,286.19,15Z"/></g></mask><radialGradient id="radial-gradient-10" cx="-12.41" cy="-0.18" r="462.12" gradientTransform="matrix(1, 0, 0, 1, 0, 0)" xlink:href="#radial-gradient-9"/></defs><g class="cls-11"><g id="Layer_2" data-name="Layer 2"><g id="Layer_1-2" data-name="Layer 1"><path class="cls-12" d="M275.81.44H11.11S0,.74,0,15.44V387.11c0,14.69,11.1,15,11.1,15h264.7s11.11-.31,11.11-15V15.44C286.92.74,275.81.44,275.81.44Z"/><g class="cls-13"><path class="cls-14" d="M169.17,217.22,0,217.28V387.11c0,14.69,11.1,15,11.1,15h264.7s11.11-.31,11.11-15V217.21Z"/></g><g class="cls-15"><path class="cls-16" d="M0,200.84l72.43,0q104.39.06,208.75.05h5.73V15.44c0-14.7-11.11-15-11.11-15H11.11S0,.74,0,15.44v185.4Z"/></g><g class="cls-17"><path class="cls-18" d="M.59,387.13V16C.59,1.32,11.71,1,11.71,1h265a11.17,11.17,0,0,1,5,1.6A11.35,11.35,0,0,0,275.81.44H11.11S0,.74,0,15.44V387.11c0,14.69,11.1,15,11.1,15h.6S.59,401.8.59,387.13Z"/></g><g class="cls-19"><path class="cls-20" d="M0,29.46V375.8c.19-.7.38-1.4.58-2.1v-338C.38,33.65.19,31.55,0,29.46Z"/></g><g class="cls-21"><path class="cls-22" d="M286.19,15V386.11c0,14.68-11.11,15-11.11,15h-265a11.27,11.27,0,0,1-5-1.61A11.42,11.42,0,0,0,11,401.67h264.7s11.1-.3,11.1-15V15c0-14.7-11.1-15-11.1-15h-.59S286.19.3,286.19,15Z"/></g><path d="M21,79.83a25.49,25.49,0,0,1-4.83,12.7h9.67A25.56,25.56,0,0,1,21,79.83Z"/><path d="M28,71.38a7,7,0,0,0-2.71.55l-.06-.07a7,7,0,1,0-8.11.26A7,7,0,1,0,21,78.69h0a7,7,0,1,0,7-7.32Z"/><path d="M19.66,50.49a5.21,5.21,0,0,0,2.11-.91,2.42,2.42,0,0,0,.69-1.4,17,17,0,0,0,.17-2.79V41.23H8.52v-1.9l14.84-22.4H27V38.77h.53a7,7,0,0,0,2.11-.22,2.2,2.2,0,0,0,1.05-.76A5.37,5.37,0,0,0,31.45,36h1.93l-.3,5.23H27v4.16a20.49,20.49,0,0,0,.11,2.48,3.78,3.78,0,0,0,.38,1.25,2.14,2.14,0,0,0,.79.76,7.68,7.68,0,0,0,1.69.61v1.24H19.66ZM12.71,38.77h9.92V32.45c0-1.59,0-3.37.07-5.34s.11-3.45.18-4.45h-.25L12.71,38.41Z"/><path d="M263.54,320.78a25.48,25.48,0,0,1,4.83-12.69H258.7A25.55,25.55,0,0,1,263.54,320.78Z"/><path d="M256.53,329.23a7,7,0,0,0,2.71-.54l.06.06a7,7,0,1,0,8.1-.26,6.92,6.92,0,0,0,3.14.74,7,7,0,1,0-7-7.31h0a7,7,0,1,0-7,7.32Z"/><path d="M264.83,350.13a5.23,5.23,0,0,0-2.11.9,2.48,2.48,0,0,0-.69,1.41,17,17,0,0,0-.17,2.79v4.16H276v1.9l-14.83,22.4H257.5V361.85H257a7.45,7.45,0,0,0-2.11.21,2.22,2.22,0,0,0-1.05.77,5.49,5.49,0,0,0-.78,1.78h-1.92l.3-5.22h6.09v-4.16a18.35,18.35,0,0,0-.12-2.49,3.3,3.3,0,0,0-.38-1.24,2,2,0,0,0-.78-.76,7.19,7.19,0,0,0-1.69-.61v-1.24h10.3Zm6.95,11.72h-9.92v6.31c0,1.59,0,3.37-.07,5.34s-.11,3.46-.18,4.46h.25l9.92-15.76Z"/><path d="M196.31,87.83A50.61,50.61,0,0,1,186.72,113h19.19A50.57,50.57,0,0,1,196.31,87.83Z"/><path d="M210.22,71.05a13.75,13.75,0,0,0-5.38,1.09l-.12-.13a13.89,13.89,0,1,0-16.08.52,13.9,13.9,0,1,0,7.66,13l0,0a13.9,13.9,0,1,0,13.89-14.53Z"/><path d="M196.31,313.18a50.57,50.57,0,0,1,9.6-25.19H186.72A50.61,50.61,0,0,1,196.31,313.18Z"/><path d="M182.41,330a13.74,13.74,0,0,0,5.38-1.08l.12.13a13.89,13.89,0,1,0,16.08-.52,13.9,13.9,0,1,0-7.66-13l0,0A13.9,13.9,0,1,0,182.41,330Z"/><path d="M90.32,87.83A50.61,50.61,0,0,1,80.73,113H99.91A50.61,50.61,0,0,1,90.32,87.83Z"/><path d="M104.22,71.05a13.74,13.74,0,0,0-5.37,1.09L98.72,72a13.89,13.89,0,1,0-16.08.52,13.9,13.9,0,1,0,7.66,13l0,0a13.9,13.9,0,1,0,13.88-14.53Z"/><path d="M90.32,313.18A50.61,50.61,0,0,1,99.91,288H80.73A50.61,50.61,0,0,1,90.32,313.18Z"/><path d="M76.42,330a13.78,13.78,0,0,0,5.38-1.08l.12.13A13.89,13.89,0,1,0,98,328.48a13.9,13.9,0,1,0-7.66-13l0,0A13.9,13.9,0,1,0,76.42,330Z"/></g></g></g></svg>