<svg xmlns="http://www.w3.org/2000/svg" xmlns:xlink="http://www.w3.org/1999/xlink" viewBox="0 0 286.92 401.67"><defs><style>.cls-1{mask:url(#mask);filter:url(#luminosity-noclip-6);}.cls-10,.cls-14,.cls-16,.cls-2,.cls-4,.cls-6,.cls-8{mix-blend-mode:multiply;}.cls-2{fill:url(#radial-gradient);}.cls-3{mask:url(#mask-2);filter:url(#luminosity-noclip-7);}.cls-4{fill:url(#radial-gradient-2);}.cls-5{mask:url(#mask-3);filter:url(#luminosity-noclip-8);}.cls-6{fill:url(#radial-gradient-3);}.cls-7{mask:url(#mask-4);filter:url(#luminosity-noclip-9);}.cls-8{fill:url(#radial-gradient-4);}.cls-9{mask:url(#mask-5);filter:url(#luminosity-noclip-10);}.cls-10{fill:url(#radial-gradient-5);}.cls-11{isolation:isolate;}.cls-12{fill:#fff;}.cls-13{mask:url(#mask-6);}.cls-14{fill:url(#radial-gradient-6);}.cls-15{mask:url(#mask-7);}.cls-16{fill:url(#radial-gradient-7);}.cls-17{mask:url(#mask-8);}.cls-18{fill:url(#radial-gradient-8);}.cls-19{mask:url(#mask-9);}.cls-20{mix-blend-mode:screen;fill:url(#radial-gradient-9);}.cls-21{mask:url(#mask-10);}.cls-22{fill:url(#radial-gradient-10);}.cls-23{filter:url(#luminosity-noclip-5);}.cls-24{filter:url(#luminosity-noclip-4);}.cls-25{filter:url(#luminosity-noclip-3);}.cls-26{filter:url(#luminosity-noclip-2);}.cls-27{filter:url(#luminosity-noclip);}</style><filter id="luminosity-noclip" x="0.01" y="-8181.12" width="286.91" height="32766" filterUnits="userSpaceOnUse" color-interpolation-filters="sRGB"><feFlood flood-color="#fff" result="bg"/><feBlend in="SourceGraphic" in2="bg"/></filter><mask id="mask" x="0.01" y="-8181.12" width="286.91" height="32766" maskUnits="userSpaceOnUse"><g class="cls-27"/></mask><radialGradient id="radial-gradient" cx="139.02" cy="-136.93" r="580.83" gradientUnits="userSpaceOnUse"><stop offset="0.62"/><stop offset="0.75" stop-color="#020202"/><stop offset="0.8" stop-color="#090909"/><stop offset="0.84" stop-color="#151515"/><stop offset="0.87" stop-color="#262626"/><stop offset="0.9" stop-color="#3c3c3c"/><stop offset="0.92" stop-color="#585858"/><stop offset="0.94" stop-color="#797979"/><stop offset="0.96" stop-color="#9f9f9f"/><stop offset="0.98" stop-color="#cbcbcb"/><stop offset="1" stop-color="#f9f9f9"/><stop offset="1" stop-color="#fff"/></radialGradient><filter id="luminosity-noclip-2" x="0.01" y="-8181.12" width="286.91" height="32766" filterUnits="userSpaceOnUse" color-interpolation-filters="sRGB"><feFlood flood-color="#fff" result="bg"/><feBlend in="SourceGraphic" in2="bg"/></filter><mask id="mask-2" x="0.01" y="-8181.12" width="286.91" height="32766" maskUnits="userSpaceOnUse"><g class="cls-26"/></mask><radialGradient id="radial-gradient-2" cx="144.77" cy="370.66" r="416.2" gradientUnits="userSpaceOnUse"><stop offset="0.62"/><stop offset="0.71" stop-color="#020202"/><stop offset="0.76" stop-color="#0a0a0a"/><stop offset="0.8" stop-color="#181818"/><stop offset="0.84" stop-color="#2c2c2c"/><stop offset="0.88" stop-color="#464646"/><stop offset="0.91" stop-color="#656565"/><stop offset="0.94" stop-color="#8a8a8a"/><stop offset="0.96" stop-color="#b6b6b6"/><stop offset="0.99" stop-color="#e5e5e5"/><stop offset="1" stop-color="#fff"/></radialGradient><filter id="luminosity-noclip-3" x="5.29" y="-8181.12" width="281.62" height="32766" filterUnits="userSpaceOnUse" color-interpolation-filters="sRGB"><feFlood flood-color="#fff" result="bg"/><feBlend in="SourceGraphic" in2="bg"/></filter><mask id="mask-3" x="5.29" y="-8181.12" width="281.62" height="32766" maskUnits="userSpaceOnUse"><g class="cls-25"/></mask><radialGradient id="radial-gradient-3" cx="-12.26" cy="-0.18" r="462.12" gradientUnits="userSpaceOnUse"><stop offset="0.1"/><stop offset="1" stop-color="#fff"/></radialGradient><filter id="luminosity-noclip-4" x="0.01" y="-8181.12" width="281.62" height="32766" filterUnits="userSpaceOnUse" color-interpolation-filters="sRGB"><feFlood flood-color="#fff" result="bg"/><feBlend in="SourceGraphic" in2="bg"/></filter><mask id="mask-4" x="0.01" y="-8181.12" width="281.62" height="32766" maskUnits="userSpaceOnUse"><g class="cls-24"/></mask><radialGradient id="radial-gradient-4" cx="78.38" cy="116.9" r="393.61" gradientUnits="userSpaceOnUse"><stop offset="0"/><stop offset="0.01" stop-color="#090909"/><stop offset="0.05" stop-color="#373737"/><stop offset="0.09" stop-color="#626262"/><stop offset="0.14" stop-color="#888"/><stop offset="0.2" stop-color="#a8a8a8"/><stop offset="0.25" stop-color="#c4c4c4"/><stop offset="0.32" stop-color="#dadada"/><stop offset="0.4" stop-color="#ebebeb"/><stop offset="0.49" stop-color="#f6f6f6"/><stop offset="0.63" stop-color="#fdfdfd"/><stop offset="1" stop-color="#fff"/></radialGradient><filter id="luminosity-noclip-5" x="0" y="-8181.12" width="0.58" height="32766" filterUnits="userSpaceOnUse" color-interpolation-filters="sRGB"><feFlood flood-color="#fff" result="bg"/><feBlend in="SourceGraphic" in2="bg"/></filter><mask id="mask-5" x="0" y="-8181.12" width="0.58" height="32766" maskUnits="userSpaceOnUse"><g class="cls-23"/></mask><radialGradient id="radial-gradient-5" cx="2162.77" cy="-0.18" r="462.07" gradientTransform="matrix(-1, 0, 0, 1, 2461.86, 0)" xlink:href="#radial-gradient-3"/><filter id="luminosity-noclip-6" x="0.01" y="216.77" width="286.91" height="184.9" filterUnits="userSpaceOnUse" color-interpolation-filters="sRGB"><feFlood flood-color="#fff" result="bg"/><feBlend in="SourceGraphic" in2="bg"/></filter><mask id="mask-6" x="0.01" y="216.77" width="286.91" height="184.9" maskUnits="userSpaceOnUse"><g class="cls-1"><path class="cls-2" d="M169.17,216.79,0,216.84V386.67c0,14.7,11.1,15,11.1,15h264.7s11.11-.3,11.11-15V216.77Z"/></g></mask><radialGradient id="radial-gradient-6" cx="139.02" cy="-136.93" r="580.83" gradientUnits="userSpaceOnUse"><stop offset="0.62" stop-color="#fff"/><stop offset="0.79" stop-color="#fdfdfd"/><stop offset="0.85" stop-color="#f6f6f6"/><stop offset="0.9" stop-color="#eaeaea"/><stop offset="0.94" stop-color="#d9d9d9"/><stop offset="0.97" stop-color="#c3c3c3"/><stop offset="1" stop-color="#ababab"/></radialGradient><filter id="luminosity-noclip-7" x="0.01" y="0" width="286.91" height="200.5" filterUnits="userSpaceOnUse" color-interpolation-filters="sRGB"><feFlood flood-color="#fff" result="bg"/><feBlend in="SourceGraphic" in2="bg"/></filter><mask id="mask-7" x="0.01" y="0" width="286.91" height="200.5" maskUnits="userSpaceOnUse"><g class="cls-3"><path class="cls-4" d="M0,200.4l72.43,0q104.39.06,208.75.05h5.73V15c0-14.7-11.11-15-11.11-15H11.11S0,.3,0,15V200.4Z"/></g></mask><radialGradient id="radial-gradient-7" cx="144.77" cy="370.66" r="416.2" gradientUnits="userSpaceOnUse"><stop offset="0.62" stop-color="#fff"/><stop offset="0.75" stop-color="#fdfdfd"/><stop offset="0.82" stop-color="#f5f5f5"/><stop offset="0.88" stop-color="#e7e7e7"/><stop offset="0.93" stop-color="#d3d3d3"/><stop offset="0.98" stop-color="#bababa"/><stop offset="1" stop-color="#ababab"/></radialGradient><filter id="luminosity-noclip-8" x="5.29" y="0" width="281.62" height="401.67" filterUnits="userSpaceOnUse" color-interpolation-filters="sRGB"><feFlood flood-color="#fff" result="bg"/><feBlend in="SourceGraphic" in2="bg"/></filter><mask id="mask-8" x="5.29" y="0" width="281.62" height="401.67" maskUnits="userSpaceOnUse"><g class="cls-5"><path class="cls-6" d="M286.34,15V386.11c0,14.68-11.12,15-11.12,15h-265a11.3,11.3,0,0,1-5-1.61,11.45,11.45,0,0,0,5.82,2.19h264.7s11.11-.3,11.11-15V15c0-14.7-11.11-15-11.11-15h-.59S286.34.3,286.34,15Z"/></g></mask><radialGradient id="radial-gradient-8" cx="-12.26" cy="-0.18" r="462.12" gradientUnits="userSpaceOnUse"><stop offset="0.1" stop-color="#fff"/><stop offset="1" stop-color="#ababab"/></radialGradient><filter id="luminosity-noclip-9" x="0.01" y="0" width="281.62" height="401.67" filterUnits="userSpaceOnUse" color-interpolation-filters="sRGB"><feFlood flood-color="#fff" result="bg"/><feBlend in="SourceGraphic" in2="bg"/></filter><mask id="mask-9" x="0.01" y="0" width="281.62" height="401.67" maskUnits="userSpaceOnUse"><g class="cls-7"><path class="cls-8" d="M.59,386.69V15.56C.59.88,11.71.58,11.71.58h265a11.27,11.27,0,0,1,5,1.61A11.42,11.42,0,0,0,275.81,0H11.11S0,.3,0,15V386.67c0,14.7,11.1,15,11.1,15h.6S.59,401.37.59,386.69Z"/></g></mask><radialGradient id="radial-gradient-9" cx="78.38" cy="116.9" r="393.61" gradientUnits="userSpaceOnUse"><stop offset="0" stop-color="#fff"/><stop offset="0.14" stop-color="#fff"/><stop offset="1" stop-color="#fff"/></radialGradient><filter id="luminosity-noclip-10" x="0" y="29.03" width="0.58" height="346.34" filterUnits="userSpaceOnUse" color-interpolation-filters="sRGB"><feFlood flood-color="#fff" result="bg"/><feBlend in="SourceGraphic" in2="bg"/></filter><mask id="mask-10" x="0" y="29.03" width="0.58" height="346.34" maskUnits="userSpaceOnUse"><g class="cls-9"><path class="cls-10" d="M0,29V375.37c.19-.7.38-1.4.58-2.1V35.3Q.28,32.17,0,29Z"/></g></mask><radialGradient id="radial-gradient-10" cx="2162.77" cy="-0.18" r="462.07" gradientTransform="matrix(-1, 0, 0, 1, 2461.86, 0)" xlink:href="#radial-gradient-8"/></defs><g class="cls-11"><g id="Layer_2" data-name="Layer 2"><g id="Layer_1-2" data-name="Layer 1"><path class="cls-12" d="M275.81,0H11.11S0,.3,0,15V386.67c0,14.7,11.1,15,11.1,15h264.7s11.11-.3,11.11-15V15C286.92.3,275.81,0,275.81,0Z"/><g class="cls-13"><path class="cls-14" d="M169.17,216.79,0,216.84V386.67c0,14.7,11.1,15,11.1,15h264.7s11.11-.3,11.11-15V216.77Z"/></g><g class="cls-15"><path class="cls-16" d="M0,200.4l72.43,0q104.39.06,208.75.05h5.73V15c0-14.7-11.11-15-11.11-15H11.11S0,.3,0,15V200.4Z"/></g><g class="cls-17"><path class="cls-18" d="M286.34,15V386.11c0,14.68-11.12,15-11.12,15h-265a11.3,11.3,0,0,1-5-1.61,11.45,11.45,0,0,0,5.82,2.19h264.7s11.11-.3,11.11-15V15c0-14.7-11.11-15-11.11-15h-.59S286.34.3,286.34,15Z"/></g><g class="cls-19"><path class="cls-20" d="M.59,386.69V15.56C.59.88,11.71.58,11.71.58h265a11.27,11.27,0,0,1,5,1.61A11.42,11.42,0,0,0,275.81,0H11.11S0,.3,0,15V386.67c0,14.7,11.1,15,11.1,15h.6S.59,401.37.59,386.69Z"/></g><g class="cls-21"><path class="cls-22" d="M0,29V375.37c.19-.7.38-1.4.58-2.1V35.3Q.28,32.17,0,29Z"/></g><path d="M21.89,79.83a25.49,25.49,0,0,1-4.83,12.7h9.67A25.56,25.56,0,0,1,21.89,79.83Z"/><path d="M28.9,71.38a7,7,0,0,0-2.71.55.23.23,0,0,1-.07-.07,7,7,0,1,0-8.1.26,7,7,0,1,0,3.86,6.57h0a7,7,0,1,0,7-7.32Z"/><path d="M27.6,33.67l0,.33A9.08,9.08,0,0,1,32,37.26a8.9,8.9,0,0,1,1.47,5.16A9.63,9.63,0,0,1,32,47.64a9.25,9.25,0,0,1-4.13,3.49,15.07,15.07,0,0,1-6.3,1.23,14.38,14.38,0,0,1-5.92-1.13,8.88,8.88,0,0,1-4-3.29,9.18,9.18,0,0,1-1.41-5.11A9,9,0,0,1,11.08,39a7.82,7.82,0,0,1,2-2.68,13.5,13.5,0,0,1,3.1-1.92l-.05-.33A8.23,8.23,0,0,1,10.68,26a8,8,0,0,1,1.43-4.66,9.55,9.55,0,0,1,4.09-3.23,14.51,14.51,0,0,1,5.87-1.16,16.25,16.25,0,0,1,6.14,1,8,8,0,0,1,3.74,3,8.47,8.47,0,0,1,1.25,4.66,8.27,8.27,0,0,1-1.37,4.8A9.64,9.64,0,0,1,27.6,33.67ZM15.17,42.39a11.79,11.79,0,0,0,.38,3.09A6.62,6.62,0,0,0,16.75,48a5.92,5.92,0,0,0,2.12,1.65,7.43,7.43,0,0,0,3.15.61,7.13,7.13,0,0,0,3.56-.85,5.48,5.48,0,0,0,2.26-2.53,9.42,9.42,0,0,0,.77-4,9.79,9.79,0,0,0-.83-4.19A6.16,6.16,0,0,0,25.42,36a6.64,6.64,0,0,0-3.53-.93,7.62,7.62,0,0,0-3.16.59,5.7,5.7,0,0,0-2.08,1.57,6.08,6.08,0,0,0-1.14,2.32A11.36,11.36,0,0,0,15.17,42.39Zm.28-16.64a11.11,11.11,0,0,0,.35,2.82,6.12,6.12,0,0,0,1.14,2.28,5.52,5.52,0,0,0,2,1.54,7.4,7.4,0,0,0,3.08.57,7,7,0,0,0,3.54-.83,5.07,5.07,0,0,0,2.13-2.41,9.05,9.05,0,0,0,.69-3.66,8.32,8.32,0,0,0-.82-3.87,5.38,5.38,0,0,0-2.27-2.35A7.1,7.1,0,0,0,22,19.08a6.52,6.52,0,0,0-4.89,1.74A6.8,6.8,0,0,0,15.45,25.75Z"/><path d="M264.42,320.78a25.48,25.48,0,0,1,4.83-12.69h-9.67A25.55,25.55,0,0,1,264.42,320.78Z"/><path d="M257.41,329.23a7,7,0,0,0,2.71-.54l.06.06a7,7,0,1,0,8.11-.26,6.84,6.84,0,0,0,3.13.74,7,7,0,1,0-7-7.31h0a7,7,0,1,0-7,7.32Z"/><path d="M258.71,367l0-.33a9.1,9.1,0,0,1-4.34-3.26,8.9,8.9,0,0,1-1.47-5.16,9.69,9.69,0,0,1,1.42-5.23,9.29,9.29,0,0,1,4.12-3.49,15.12,15.12,0,0,1,6.31-1.23,14.54,14.54,0,0,1,5.92,1.13,8.84,8.84,0,0,1,4,3.3,9.23,9.23,0,0,1,1.4,5.11,8.9,8.9,0,0,1-.76,3.83,7.86,7.86,0,0,1-2,2.68,13,13,0,0,1-3.11,1.91l.06.33a8.23,8.23,0,0,1,5.45,8.09,8,8,0,0,1-1.43,4.67,9.53,9.53,0,0,1-4.09,3.22,14.34,14.34,0,0,1-5.87,1.17,16.24,16.24,0,0,1-6.14-1,7.86,7.86,0,0,1-3.74-3,9.23,9.23,0,0,1,.11-9.46A9.71,9.71,0,0,1,258.71,367Zm12.43-8.73a12.09,12.09,0,0,0-.38-3.08,6.56,6.56,0,0,0-1.21-2.47,5.68,5.68,0,0,0-2.11-1.65,7.31,7.31,0,0,0-3.15-.61,7,7,0,0,0-3.56.85,5.51,5.51,0,0,0-2.26,2.52,9.33,9.33,0,0,0-.77,4,9.86,9.86,0,0,0,.83,4.2,6.22,6.22,0,0,0,2.36,2.69,6.73,6.73,0,0,0,3.53.92,7.62,7.62,0,0,0,3.16-.58,5.7,5.7,0,0,0,2.08-1.57,6.15,6.15,0,0,0,1.14-2.32A11.38,11.38,0,0,0,271.14,358.22Zm-.28,16.64a11.11,11.11,0,0,0-.35-2.82,6.06,6.06,0,0,0-1.15-2.28,5.49,5.49,0,0,0-2-1.53,7.4,7.4,0,0,0-3.08-.57,7,7,0,0,0-3.54.82,5.07,5.07,0,0,0-2.13,2.41,9.13,9.13,0,0,0-.7,3.67,8.25,8.25,0,0,0,.83,3.86,5.33,5.33,0,0,0,2.27,2.35,7,7,0,0,0,3.32.76,6.48,6.48,0,0,0,4.88-1.74A6.75,6.75,0,0,0,270.86,374.86Z"/><path d="M143.46,149.17a50.57,50.57,0,0,1-9.6,25.19h19.19A50.61,50.61,0,0,1,143.46,149.17Z"/><path d="M157.36,132.4a13.78,13.78,0,0,0-5.38,1.08l-.12-.13a13.89,13.89,0,1,0-16.08.52,13.9,13.9,0,1,0,7.66,13l0,0a13.9,13.9,0,1,0,13.89-14.52Z"/><path d="M143.46,259a50.61,50.61,0,0,1,9.59-25.19H133.86A50.57,50.57,0,0,1,143.46,259Z"/><path d="M129.55,275.79a13.74,13.74,0,0,0,5.38-1.08.74.74,0,0,1,.12.13,13.9,13.9,0,1,0,16.09-.52,13.9,13.9,0,1,0-7.67-13l0,0a13.9,13.9,0,1,0-13.89,14.52Z"/><path d="M196.46,88.16a50.57,50.57,0,0,1-9.6,25.19h19.19A50.61,50.61,0,0,1,196.46,88.16Z"/><path d="M210.36,71.39A13.74,13.74,0,0,0,205,72.47l-.12-.13a13.9,13.9,0,1,0-16.09.52,13.9,13.9,0,1,0,7.67,13l0,0a13.9,13.9,0,1,0,13.89-14.52Z"/><path d="M196.46,313.51a50.56,50.56,0,0,1,9.59-25.19H186.86A50.73,50.73,0,0,1,196.46,313.51Z"/><path d="M182.55,330.29a13.75,13.75,0,0,0,5.38-1.09l.12.13a13.9,13.9,0,1,0,16.08-.51,13.91,13.91,0,1,0-7.66-13l0,0a13.9,13.9,0,1,0-13.89,14.53Z"/><path d="M196.46,208.64a50.62,50.62,0,0,1-9.6,25.19h19.19A50.67,50.67,0,0,1,196.46,208.64Z"/><path d="M210.36,191.86A13.75,13.75,0,0,0,205,193l-.12-.13a13.91,13.91,0,1,0-16.09.51,13.9,13.9,0,1,0,7.67,13l0,0a13.9,13.9,0,1,0,13.89-14.53Z"/><path d="M90.46,88.16a50.61,50.61,0,0,1-9.59,25.19h19.18A50.61,50.61,0,0,1,90.46,88.16Z"/><path d="M104.36,71.39A13.73,13.73,0,0,0,99,72.47a.8.8,0,0,1-.13-.13,13.89,13.89,0,1,0-16.08.52,13.9,13.9,0,1,0,7.67,13l0,0a13.9,13.9,0,1,0,13.88-14.52Z"/><path d="M90.46,208.64a50.67,50.67,0,0,1-9.59,25.19h19.18A50.67,50.67,0,0,1,90.46,208.64Z"/><path d="M104.36,191.86A13.74,13.74,0,0,0,99,193l-.13-.13a13.9,13.9,0,1,0-16.08.51,13.9,13.9,0,1,0,7.67,13l0,0a13.9,13.9,0,1,0,13.88-14.53Z"/><path d="M90.46,313.51a50.67,50.67,0,0,1,9.59-25.19H80.87A50.67,50.67,0,0,1,90.46,313.51Z"/><path d="M76.56,330.29a13.7,13.7,0,0,0,5.37-1.09l.13.13a13.9,13.9,0,1,0,16.08-.51,13.91,13.91,0,1,0-7.66-13l0,0a13.9,13.9,0,1,0-13.89,14.53Z"/></g></g></g></svg>