<svg xmlns="http://www.w3.org/2000/svg" xmlns:xlink="http://www.w3.org/1999/xlink" viewBox="0 0 283.81 397.33"><defs><style>.cls-1,.cls-3{mask:url(#mask);}.cls-1{filter:url(#luminosity-noclip-6);}.cls-10,.cls-14,.cls-16,.cls-2,.cls-4,.cls-6,.cls-8{mix-blend-mode:multiply;}.cls-2{fill:url(#radial-gradient);}.cls-3{filter:url(#luminosity-noclip-7);}.cls-4{fill:url(#radial-gradient-2);}.cls-5{mask:url(#mask-3);filter:url(#luminosity-noclip-8);}.cls-6{fill:url(#radial-gradient-3);}.cls-7{mask:url(#mask-4);filter:url(#luminosity-noclip-9);}.cls-8{fill:url(#radial-gradient-4);}.cls-9{mask:url(#mask-5);filter:url(#luminosity-noclip-10);}.cls-10{fill:url(#radial-gradient-5);}.cls-11{isolation:isolate;}.cls-12{fill:#fff;}.cls-13{mask:url(#mask-6);}.cls-14{fill:url(#radial-gradient-6);}.cls-15{mask:url(#mask-7);}.cls-16{fill:url(#radial-gradient-7);}.cls-17{mask:url(#mask-8);}.cls-18{fill:url(#radial-gradient-8);}.cls-19{mask:url(#mask-9);}.cls-20{mix-blend-mode:screen;fill:url(#radial-gradient-9);}.cls-21{mask:url(#mask-10);}.cls-22{fill:url(#radial-gradient-10);}.cls-23{fill:#ff2601;}.cls-24{filter:url(#luminosity-noclip-5);}.cls-25{filter:url(#luminosity-noclip-4);}.cls-26{filter:url(#luminosity-noclip-3);}.cls-27{filter:url(#luminosity-noclip);}</style><filter id="luminosity-noclip" x="0.01" y="-8600.14" width="283.8" height="32766" filterUnits="userSpaceOnUse" color-interpolation-filters="sRGB"><feFlood flood-color="#fff" result="bg"/><feBlend in="SourceGraphic" in2="bg"/></filter><mask id="mask" x="0.01" y="-8600.14" width="283.8" height="32766" maskUnits="userSpaceOnUse"><g class="cls-27"/></mask><radialGradient id="radial-gradient" cx="137.52" cy="-135.45" r="574.54" gradientUnits="userSpaceOnUse"><stop offset="0.62"/><stop offset="0.75" stop-color="#020202"/><stop offset="0.8" stop-color="#090909"/><stop offset="0.84" stop-color="#151515"/><stop offset="0.87" stop-color="#262626"/><stop offset="0.9" stop-color="#3c3c3c"/><stop offset="0.92" stop-color="#585858"/><stop offset="0.94" stop-color="#797979"/><stop offset="0.96" stop-color="#9f9f9f"/><stop offset="0.98" stop-color="#cbcbcb"/><stop offset="1" stop-color="#f9f9f9"/><stop offset="1" stop-color="#fff"/></radialGradient><radialGradient id="radial-gradient-2" cx="143.2" cy="366.66" r="411.7" gradientUnits="userSpaceOnUse"><stop offset="0.62"/><stop offset="0.71" stop-color="#020202"/><stop offset="0.76" stop-color="#0a0a0a"/><stop offset="0.8" stop-color="#181818"/><stop offset="0.84" stop-color="#2c2c2c"/><stop offset="0.88" stop-color="#464646"/><stop offset="0.91" stop-color="#656565"/><stop offset="0.94" stop-color="#8a8a8a"/><stop offset="0.96" stop-color="#b6b6b6"/><stop offset="0.99" stop-color="#e5e5e5"/><stop offset="1" stop-color="#fff"/></radialGradient><filter id="luminosity-noclip-3" x="5.24" y="-8600.14" width="278.58" height="32766" filterUnits="userSpaceOnUse" color-interpolation-filters="sRGB"><feFlood flood-color="#fff" result="bg"/><feBlend in="SourceGraphic" in2="bg"/></filter><mask id="mask-3" x="5.24" y="-8600.14" width="278.58" height="32766" maskUnits="userSpaceOnUse"><g class="cls-26"/></mask><radialGradient id="radial-gradient-3" cx="-12.13" cy="-0.18" r="457.13" gradientUnits="userSpaceOnUse"><stop offset="0.1"/><stop offset="1" stop-color="#fff"/></radialGradient><filter id="luminosity-noclip-4" x="0.01" y="-8600.14" width="278.58" height="32766" filterUnits="userSpaceOnUse" color-interpolation-filters="sRGB"><feFlood flood-color="#fff" result="bg"/><feBlend in="SourceGraphic" in2="bg"/></filter><mask id="mask-4" x="0.01" y="-8600.14" width="278.58" height="32766" maskUnits="userSpaceOnUse"><g class="cls-25"/></mask><radialGradient id="radial-gradient-4" cx="77.53" cy="115.63" r="389.35" gradientUnits="userSpaceOnUse"><stop offset="0"/><stop offset="0.01" stop-color="#090909"/><stop offset="0.05" stop-color="#373737"/><stop offset="0.09" stop-color="#626262"/><stop offset="0.14" stop-color="#888"/><stop offset="0.2" stop-color="#a8a8a8"/><stop offset="0.25" stop-color="#c4c4c4"/><stop offset="0.32" stop-color="#dadada"/><stop offset="0.4" stop-color="#ebebeb"/><stop offset="0.49" stop-color="#f6f6f6"/><stop offset="0.63" stop-color="#fdfdfd"/><stop offset="1" stop-color="#fff"/></radialGradient><filter id="luminosity-noclip-5" x="0" y="-8600.14" width="0.58" height="32766" filterUnits="userSpaceOnUse" color-interpolation-filters="sRGB"><feFlood flood-color="#fff" result="bg"/><feBlend in="SourceGraphic" in2="bg"/></filter><mask id="mask-5" x="0" y="-8600.14" width="0.58" height="32766" maskUnits="userSpaceOnUse"><g class="cls-24"/></mask><radialGradient id="radial-gradient-5" cx="-1524.42" cy="-0.18" r="457.2" gradientTransform="matrix(-1, 0, 0, 1, -1228.36, 0)" xlink:href="#radial-gradient-3"/><filter id="luminosity-noclip-6" x="0.01" y="214.43" width="283.8" height="182.9" filterUnits="userSpaceOnUse" color-interpolation-filters="sRGB"><feFlood flood-color="#fff" result="bg"/><feBlend in="SourceGraphic" in2="bg"/></filter><mask id="mask-6" x="0.01" y="214.43" width="283.8" height="182.9" maskUnits="userSpaceOnUse"><g class="cls-1"><path class="cls-2" d="M167.34,214.44,0,214.5v168C0,397,11,397.33,11,397.33H272.83s11-.3,11-14.84V214.43Z"/></g></mask><radialGradient id="radial-gradient-6" cx="137.52" cy="-135.45" r="574.54" gradientUnits="userSpaceOnUse"><stop offset="0.62" stop-color="#fff"/><stop offset="0.79" stop-color="#fdfdfd"/><stop offset="0.85" stop-color="#f6f6f6"/><stop offset="0.9" stop-color="#eaeaea"/><stop offset="0.94" stop-color="#d9d9d9"/><stop offset="0.97" stop-color="#c3c3c3"/><stop offset="1" stop-color="#ababab"/></radialGradient><filter id="luminosity-noclip-7" x="0.01" y="0" width="283.8" height="198.34" filterUnits="userSpaceOnUse" color-interpolation-filters="sRGB"><feFlood flood-color="#fff" result="bg"/><feBlend in="SourceGraphic" in2="bg"/></filter><mask id="mask-7" x="0.01" y="0" width="283.8" height="198.34" maskUnits="userSpaceOnUse"><g class="cls-3"><path class="cls-4" d="M0,198.23l71.65.05q103.25.06,206.49.06h5.66V14.84c0-14.54-11-14.84-11-14.84H11S0,.3,0,14.84V198.23Z"/></g></mask><radialGradient id="radial-gradient-7" cx="143.2" cy="366.66" r="411.7" gradientUnits="userSpaceOnUse"><stop offset="0.62" stop-color="#fff"/><stop offset="0.75" stop-color="#fdfdfd"/><stop offset="0.82" stop-color="#f5f5f5"/><stop offset="0.88" stop-color="#e7e7e7"/><stop offset="0.93" stop-color="#d3d3d3"/><stop offset="0.98" stop-color="#bababa"/><stop offset="1" stop-color="#ababab"/></radialGradient><filter id="luminosity-noclip-8" x="5.24" y="0" width="278.58" height="397.33" filterUnits="userSpaceOnUse" color-interpolation-filters="sRGB"><feFlood flood-color="#fff" result="bg"/><feBlend in="SourceGraphic" in2="bg"/></filter><mask id="mask-8" x="5.24" y="0" width="278.58" height="397.33" maskUnits="userSpaceOnUse"><g class="cls-5"><path class="cls-6" d="M283.24,14.82V381.93c0,14.52-11,14.82-11,14.82H10.14a11,11,0,0,1-4.9-1.58A11.32,11.32,0,0,0,11,397.33H272.83s11-.3,11-14.84V14.84c0-14.54-11-14.84-11-14.84h-.59S283.24.3,283.24,14.82Z"/></g></mask><radialGradient id="radial-gradient-8" cx="-12.13" cy="-0.18" r="457.13" gradientUnits="userSpaceOnUse"><stop offset="0.1" stop-color="#fff"/><stop offset="1" stop-color="#ababab"/></radialGradient><filter id="luminosity-noclip-9" x="0.01" y="0" width="278.58" height="397.33" filterUnits="userSpaceOnUse" color-interpolation-filters="sRGB"><feFlood flood-color="#fff" result="bg"/><feBlend in="SourceGraphic" in2="bg"/></filter><mask id="mask-9" x="0.01" y="0" width="278.58" height="397.33" maskUnits="userSpaceOnUse"><g class="cls-7"><path class="cls-8" d="M.58,382.51V15.39C.58.87,11.58.58,11.58.58h262.1a11.11,11.11,0,0,1,4.91,1.58A11.37,11.37,0,0,0,272.83,0H11S0,.3,0,14.84V382.49C0,397,11,397.33,11,397.33h.59S.58,397,.58,382.51Z"/></g></mask><radialGradient id="radial-gradient-9" cx="77.53" cy="115.63" r="389.35" gradientUnits="userSpaceOnUse"><stop offset="0" stop-color="#fff"/><stop offset="0.14" stop-color="#fff"/><stop offset="1" stop-color="#fff"/></radialGradient><filter id="luminosity-noclip-10" x="0" y="28.71" width="0.58" height="342.6" filterUnits="userSpaceOnUse" color-interpolation-filters="sRGB"><feFlood flood-color="#fff" result="bg"/><feBlend in="SourceGraphic" in2="bg"/></filter><mask id="mask-10" x="0" y="28.71" width="0.58" height="342.6" maskUnits="userSpaceOnUse"><g class="cls-9"><path class="cls-10" d="M0,28.71v342.6l.57-2.08V34.92Q.28,31.82,0,28.71Z"/></g></mask><radialGradient id="radial-gradient-10" cx="-1524.42" cy="-0.18" r="457.2" gradientTransform="matrix(-1, 0, 0, 1, -1228.36, 0)" xlink:href="#radial-gradient-8"/></defs><g class="cls-11"><g id="Layer_2" data-name="Layer 2"><g id="Layer_1-2" data-name="Layer 1"><path class="cls-12" d="M272.83,0H11S0,.3,0,14.84V382.49C0,397,11,397.33,11,397.33H272.83s11-.3,11-14.84V14.84C283.81.3,272.83,0,272.83,0Z"/><g class="cls-13"><path class="cls-14" d="M167.34,214.44,0,214.5v168C0,397,11,397.33,11,397.33H272.83s11-.3,11-14.84V214.43Z"/></g><g class="cls-15"><path class="cls-16" d="M0,198.23l71.65.05q103.25.06,206.49.06h5.66V14.84c0-14.54-11-14.84-11-14.84H11S0,.3,0,14.84V198.23Z"/></g><g class="cls-17"><path class="cls-18" d="M283.24,14.82V381.93c0,14.52-11,14.82-11,14.82H10.14a11,11,0,0,1-4.9-1.58A11.32,11.32,0,0,0,11,397.33H272.83s11-.3,11-14.84V14.84c0-14.54-11-14.84-11-14.84h-.59S283.24.3,283.24,14.82Z"/></g><g class="cls-19"><path class="cls-20" d="M.58,382.51V15.39C.58.87,11.58.58,11.58.58h262.1a11.11,11.11,0,0,1,4.91,1.58A11.37,11.37,0,0,0,272.83,0H11S0,.3,0,14.84V382.49C0,397,11,397.33,11,397.33h.59S.58,397,.58,382.51Z"/></g><g class="cls-21"><path class="cls-22" d="M0,28.71v342.6l.57-2.08V34.92Q.28,31.82,0,28.71Z"/></g><path class="cls-23" d="M35.51,74.31h0c-7.18-4-12.94-16-13.12-16.43h0c-.18.38-5.93,12.45-13.11,16.43h0c7.18,4,12.93,16,13.11,16.44h0c.18-.39,5.94-12.46,13.12-16.44Z"/><path class="cls-23" d="M33.4,18.22,18.8,51.44H15.16V50.21L28.68,21.58v-.37h-11a6.08,6.08,0,0,0-1.65.18,2.6,2.6,0,0,0-1.72,1.47,18.23,18.23,0,0,0-.75,2.29H11.37l.5-8.13H33.4Z"/><path class="cls-23" d="M248.42,322.17h0c7.18,4,12.93,16.05,13.12,16.44h0c.18-.39,5.94-12.46,13.12-16.44h0c-7.18-4-12.94-16.06-13.12-16.44h0c-.19.38-5.94,12.45-13.12,16.44h0Z"/><path class="cls-23" d="M250.52,378.25,265.13,345h3.63v1.23l-13.52,28.62v.38h11a6,6,0,0,0,1.64-.19,2.8,2.8,0,0,0,1-.54,2.57,2.57,0,0,0,.69-.93,14.7,14.7,0,0,0,.75-2.28h2.16l-.5,8.13H250.52Z"/><path class="cls-23" d="M220.45,317.91h0c-14.25-7.9-25.67-31.86-26-32.62v0h0v0c-.37.76-11.79,24.72-26,32.62h0c14.24,7.9,25.66,31.86,26,32.63v0c.36-.77,11.78-24.73,26-32.63Z"/><path class="cls-23" d="M220.45,79.56h0c-14.25-7.91-25.67-31.86-26-32.63h0c-.37.77-11.79,24.72-26,32.63h0c14.24,7.9,25.66,31.85,26,32.62v0h0v0c.36-.77,11.78-24.72,26-32.62h0Z"/><path class="cls-23" d="M220.45,199.36h0c-14.25-7.91-25.67-31.86-26-32.63v0h0v0c-.37.77-11.79,24.72-26,32.63h0c14.24,7.91,25.66,31.86,26,32.63v0h0v0c.36-.77,11.78-24.72,26-32.63Z"/><path class="cls-23" d="M168,139.91h0c-14.25-7.91-25.67-31.86-26-32.63v0h0v0c-.36.77-11.78,24.72-26,32.63h0c14.25,7.9,25.67,31.85,26,32.62v0h0v0c.37-.77,11.79-24.72,26-32.62h0Z"/><path class="cls-23" d="M115.6,317.91h0c-14.25-7.9-25.67-31.86-26-32.62v0h0v0c-.36.76-11.78,24.72-26,32.62h0c14.25,7.9,25.67,31.86,26,32.63v0c.36-.77,11.78-24.73,26-32.63Z"/><path class="cls-23" d="M115.6,79.56h0c-14.25-7.91-25.67-31.86-26-32.63h0c-.36.77-11.78,24.72-26,32.63h0c14.25,7.9,25.67,31.85,26,32.62v0h0v0c.36-.77,11.78-24.72,26-32.62h0Z"/><path class="cls-23" d="M115.6,199.36h0c-14.25-7.91-25.67-31.86-26-32.63v0h0v0c-.36.77-11.78,24.72-26,32.63h0c14.25,7.91,25.67,31.86,26,32.63v0h0v0c.36-.77,11.78-24.72,26-32.63Z"/></g></g></g></svg>