<svg xmlns="http://www.w3.org/2000/svg" xmlns:xlink="http://www.w3.org/1999/xlink" viewBox="0 0 283.82 397.33"><defs><style>.cls-1,.cls-3{mask:url(#mask);}.cls-1{filter:url(#luminosity-noclip-6);}.cls-10,.cls-14,.cls-16,.cls-2,.cls-4,.cls-6,.cls-8{mix-blend-mode:multiply;}.cls-2{fill:url(#radial-gradient);}.cls-3{filter:url(#luminosity-noclip-7);}.cls-4{fill:url(#radial-gradient-2);}.cls-5{mask:url(#mask-3);filter:url(#luminosity-noclip-8);}.cls-6{fill:url(#radial-gradient-3);}.cls-7{mask:url(#mask-4);filter:url(#luminosity-noclip-9);}.cls-8{fill:url(#radial-gradient-4);}.cls-9{mask:url(#mask-5);filter:url(#luminosity-noclip-10);}.cls-10{fill:url(#radial-gradient-5);}.cls-11{isolation:isolate;}.cls-12{fill:#fff;}.cls-13{mask:url(#mask-6);}.cls-14{fill:url(#radial-gradient-6);}.cls-15{mask:url(#mask-7);}.cls-16{fill:url(#radial-gradient-7);}.cls-17{mask:url(#mask-8);}.cls-18{fill:url(#radial-gradient-8);}.cls-19{mask:url(#mask-9);}.cls-20{mix-blend-mode:screen;fill:url(#radial-gradient-9);}.cls-21{mask:url(#mask-10);}.cls-22{fill:url(#radial-gradient-10);}.cls-23{fill:#ff2601;}.cls-24{filter:url(#luminosity-noclip-5);}.cls-25{filter:url(#luminosity-noclip-4);}.cls-26{filter:url(#luminosity-noclip-3);}.cls-27{filter:url(#luminosity-noclip);}</style><filter id="luminosity-noclip" x="0.01" y="-8600.14" width="283.8" height="32766" filterUnits="userSpaceOnUse" color-interpolation-filters="sRGB"><feFlood flood-color="#fff" result="bg"/><feBlend in="SourceGraphic" in2="bg"/></filter><mask id="mask" x="0.01" y="-8600.14" width="283.8" height="32766" maskUnits="userSpaceOnUse"><g class="cls-27"/></mask><radialGradient id="radial-gradient" cx="137.52" cy="-135.45" r="574.54" gradientUnits="userSpaceOnUse"><stop offset="0.62"/><stop offset="0.75" stop-color="#020202"/><stop offset="0.8" stop-color="#090909"/><stop offset="0.84" stop-color="#151515"/><stop offset="0.87" stop-color="#262626"/><stop offset="0.9" stop-color="#3c3c3c"/><stop offset="0.92" stop-color="#585858"/><stop offset="0.94" stop-color="#797979"/><stop offset="0.96" stop-color="#9f9f9f"/><stop offset="0.98" stop-color="#cbcbcb"/><stop offset="1" stop-color="#f9f9f9"/><stop offset="1" stop-color="#fff"/></radialGradient><radialGradient id="radial-gradient-2" cx="143.2" cy="366.66" r="411.7" gradientUnits="userSpaceOnUse"><stop offset="0.62"/><stop offset="0.71" stop-color="#020202"/><stop offset="0.76" stop-color="#0a0a0a"/><stop offset="0.8" stop-color="#181818"/><stop offset="0.84" stop-color="#2c2c2c"/><stop offset="0.88" stop-color="#464646"/><stop offset="0.91" stop-color="#656565"/><stop offset="0.94" stop-color="#8a8a8a"/><stop offset="0.96" stop-color="#b6b6b6"/><stop offset="0.99" stop-color="#e5e5e5"/><stop offset="1" stop-color="#fff"/></radialGradient><filter id="luminosity-noclip-3" x="5.24" y="-8600.14" width="278.58" height="32766" filterUnits="userSpaceOnUse" color-interpolation-filters="sRGB"><feFlood flood-color="#fff" result="bg"/><feBlend in="SourceGraphic" in2="bg"/></filter><mask id="mask-3" x="5.24" y="-8600.14" width="278.58" height="32766" maskUnits="userSpaceOnUse"><g class="cls-26"/></mask><radialGradient id="radial-gradient-3" cx="-12.13" cy="-0.18" r="457.13" gradientUnits="userSpaceOnUse"><stop offset="0.1"/><stop offset="1" stop-color="#fff"/></radialGradient><filter id="luminosity-noclip-4" x="0.01" y="-8600.14" width="278.58" height="32766" filterUnits="userSpaceOnUse" color-interpolation-filters="sRGB"><feFlood flood-color="#fff" result="bg"/><feBlend in="SourceGraphic" in2="bg"/></filter><mask id="mask-4" x="0.01" y="-8600.14" width="278.58" height="32766" maskUnits="userSpaceOnUse"><g class="cls-25"/></mask><radialGradient id="radial-gradient-4" cx="77.53" cy="115.63" r="389.35" gradientUnits="userSpaceOnUse"><stop offset="0"/><stop offset="0.01" stop-color="#090909"/><stop offset="0.05" stop-color="#373737"/><stop offset="0.09" stop-color="#626262"/><stop offset="0.14" stop-color="#888"/><stop offset="0.2" stop-color="#a8a8a8"/><stop offset="0.25" stop-color="#c4c4c4"/><stop offset="0.32" stop-color="#dadada"/><stop offset="0.4" stop-color="#ebebeb"/><stop offset="0.49" stop-color="#f6f6f6"/><stop offset="0.63" stop-color="#fdfdfd"/><stop offset="1" stop-color="#fff"/></radialGradient><filter id="luminosity-noclip-5" x="0" y="-8600.14" width="0.58" height="32766" filterUnits="userSpaceOnUse" color-interpolation-filters="sRGB"><feFlood flood-color="#fff" result="bg"/><feBlend in="SourceGraphic" in2="bg"/></filter><mask id="mask-5" x="0" y="-8600.14" width="0.58" height="32766" maskUnits="userSpaceOnUse"><g class="cls-24"/></mask><radialGradient id="radial-gradient-5" cx="914.77" cy="-0.18" r="457.23" gradientTransform="matrix(-1, 0, 0, 1, 1210.88, 0)" xlink:href="#radial-gradient-3"/><filter id="luminosity-noclip-6" x="0.01" y="214.43" width="283.8" height="182.9" filterUnits="userSpaceOnUse" color-interpolation-filters="sRGB"><feFlood flood-color="#fff" result="bg"/><feBlend in="SourceGraphic" in2="bg"/></filter><mask id="mask-6" x="0.01" y="214.43" width="283.8" height="182.9" maskUnits="userSpaceOnUse"><g class="cls-1"><path class="cls-2" d="M167.35,214.44q-83.67,0-167.34.06v168C0,397,11,397.33,11,397.33H272.83s11-.3,11-14.84V214.43Z"/></g></mask><radialGradient id="radial-gradient-6" cx="137.52" cy="-135.45" r="574.54" gradientUnits="userSpaceOnUse"><stop offset="0.62" stop-color="#fff"/><stop offset="0.79" stop-color="#fdfdfd"/><stop offset="0.85" stop-color="#f6f6f6"/><stop offset="0.9" stop-color="#eaeaea"/><stop offset="0.94" stop-color="#d9d9d9"/><stop offset="0.97" stop-color="#c3c3c3"/><stop offset="1" stop-color="#ababab"/></radialGradient><filter id="luminosity-noclip-7" x="0.01" y="0" width="283.8" height="198.34" filterUnits="userSpaceOnUse" color-interpolation-filters="sRGB"><feFlood flood-color="#fff" result="bg"/><feBlend in="SourceGraphic" in2="bg"/></filter><mask id="mask-7" x="0.01" y="0" width="283.8" height="198.34" maskUnits="userSpaceOnUse"><g class="cls-3"><path class="cls-4" d="M0,198.23l71.65.05q103.25.06,206.49.06h5.66V14.84c0-14.54-11-14.84-11-14.84H11S0,.3,0,14.84V198.23Z"/></g></mask><radialGradient id="radial-gradient-7" cx="143.2" cy="366.66" r="411.7" gradientUnits="userSpaceOnUse"><stop offset="0.62" stop-color="#fff"/><stop offset="0.75" stop-color="#fdfdfd"/><stop offset="0.82" stop-color="#f5f5f5"/><stop offset="0.88" stop-color="#e7e7e7"/><stop offset="0.93" stop-color="#d3d3d3"/><stop offset="0.98" stop-color="#bababa"/><stop offset="1" stop-color="#ababab"/></radialGradient><filter id="luminosity-noclip-8" x="5.24" y="0" width="278.58" height="397.33" filterUnits="userSpaceOnUse" color-interpolation-filters="sRGB"><feFlood flood-color="#fff" result="bg"/><feBlend in="SourceGraphic" in2="bg"/></filter><mask id="mask-8" x="5.24" y="0" width="278.58" height="397.33" maskUnits="userSpaceOnUse"><g class="cls-5"><path class="cls-6" d="M283.24,14.82V381.93c0,14.52-11,14.82-11,14.82H10.14a11,11,0,0,1-4.9-1.58A11.32,11.32,0,0,0,11,397.33H272.83s11-.3,11-14.84V14.84c0-14.54-11-14.84-11-14.84h-.59S283.24.3,283.24,14.82Z"/></g></mask><radialGradient id="radial-gradient-8" cx="-12.13" cy="-0.18" r="457.13" gradientUnits="userSpaceOnUse"><stop offset="0.1" stop-color="#fff"/><stop offset="1" stop-color="#ababab"/></radialGradient><filter id="luminosity-noclip-9" x="0.01" y="0" width="278.58" height="397.33" filterUnits="userSpaceOnUse" color-interpolation-filters="sRGB"><feFlood flood-color="#fff" result="bg"/><feBlend in="SourceGraphic" in2="bg"/></filter><mask id="mask-9" x="0.01" y="0" width="278.58" height="397.33" maskUnits="userSpaceOnUse"><g class="cls-7"><path class="cls-8" d="M.58,382.51V15.39C.58.87,11.58.58,11.58.58h262.1a11.11,11.11,0,0,1,4.91,1.58A11.34,11.34,0,0,0,272.83,0H11S0,.3,0,14.84V382.49C0,397,11,397.33,11,397.33h.59S.58,397,.58,382.51Z"/></g></mask><radialGradient id="radial-gradient-9" cx="77.53" cy="115.63" r="389.35" gradientUnits="userSpaceOnUse"><stop offset="0" stop-color="#fff"/><stop offset="0.14" stop-color="#fff"/><stop offset="1" stop-color="#fff"/></radialGradient><filter id="luminosity-noclip-10" x="0" y="28.71" width="0.58" height="342.6" filterUnits="userSpaceOnUse" color-interpolation-filters="sRGB"><feFlood flood-color="#fff" result="bg"/><feBlend in="SourceGraphic" in2="bg"/></filter><mask id="mask-10" x="0" y="28.71" width="0.58" height="342.6" maskUnits="userSpaceOnUse"><g class="cls-9"><path class="cls-10" d="M0,28.71v342.6l.57-2.08V34.92Q.28,31.82,0,28.71Z"/></g></mask><radialGradient id="radial-gradient-10" cx="914.77" cy="-0.18" r="457.23" gradientTransform="matrix(-1, 0, 0, 1, 1210.88, 0)" xlink:href="#radial-gradient-8"/></defs><g class="cls-11"><g id="Layer_2" data-name="Layer 2"><g id="Layer_1-2" data-name="Layer 1"><path class="cls-12" d="M272.83,0H11S0,.3,0,14.84V382.49C0,397,11,397.33,11,397.33H272.83s11-.3,11-14.84V14.84C283.81.3,272.83,0,272.83,0Z"/><g class="cls-13"><path class="cls-14" d="M167.35,214.44q-83.67,0-167.34.06v168C0,397,11,397.33,11,397.33H272.83s11-.3,11-14.84V214.43Z"/></g><g class="cls-15"><path class="cls-16" d="M0,198.23l71.65.05q103.25.06,206.49.06h5.66V14.84c0-14.54-11-14.84-11-14.84H11S0,.3,0,14.84V198.23Z"/></g><g class="cls-17"><path class="cls-18" d="M283.24,14.82V381.93c0,14.52-11,14.82-11,14.82H10.14a11,11,0,0,1-4.9-1.58A11.32,11.32,0,0,0,11,397.33H272.83s11-.3,11-14.84V14.84c0-14.54-11-14.84-11-14.84h-.59S283.24.3,283.24,14.82Z"/></g><g class="cls-19"><path class="cls-20" d="M.58,382.51V15.39C.58.87,11.58.58,11.58.58h262.1a11.11,11.11,0,0,1,4.91,1.58A11.34,11.34,0,0,0,272.83,0H11S0,.3,0,14.84V382.49C0,397,11,397.33,11,397.33h.59S.58,397,.58,382.51Z"/></g><g class="cls-21"><path class="cls-22" d="M0,28.71v342.6l.57-2.08V34.92Q.28,31.82,0,28.71Z"/></g><path class="cls-23" d="M34.7,74.31h0c-7.18-4-12.93-16-13.12-16.43h0c-.18.38-5.94,12.45-13.12,16.43h0c7.18,4,12.94,16,13.12,16.44h0c.19-.39,5.94-12.46,13.12-16.44h0Z"/><path class="cls-23" d="M11.6,24.52V19.75A32.11,32.11,0,0,1,17,17.69,19,19,0,0,1,21.93,17a13.09,13.09,0,0,1,5,.87,7.12,7.12,0,0,1,3.26,2.53,6.68,6.68,0,0,1,1.13,3.92,7.92,7.92,0,0,1-.85,3.75A8.83,8.83,0,0,1,28,30.92a21.34,21.34,0,0,1-4,2.35v.23a11.93,11.93,0,0,1,2.95.94,9.54,9.54,0,0,1,2.52,1.72,7.85,7.85,0,0,1,1.77,2.52A8.11,8.11,0,0,1,31.94,42a10.45,10.45,0,0,1-1.26,5.17,8.86,8.86,0,0,1-3.88,3.56,14.09,14.09,0,0,1-6.35,1.31,24.7,24.7,0,0,1-4.65-.49,27.15,27.15,0,0,1-4.58-1.3V45h3a8.09,8.09,0,0,0,2.32,3.78,6,6,0,0,0,3.93,1.18,6.43,6.43,0,0,0,4.93-1.78,7.46,7.46,0,0,0,1.67-5.27,7,7,0,0,0-2.21-5.59q-2.21-1.93-6.47-1.93H16.14V33.15a15.15,15.15,0,0,0,5.7-1.31A8.11,8.11,0,0,0,25.29,29a6.92,6.92,0,0,0,1.13-3.89,5.84,5.84,0,0,0-1.48-4.29,5.78,5.78,0,0,0-4.31-1.51,5.69,5.69,0,0,0-3.84,1.28,7.56,7.56,0,0,0-2.18,3.92Z"/><path class="cls-23" d="M248.23,322.17h0c7.18,4,12.94,16.05,13.12,16.44h0c.19-.39,5.94-12.46,13.12-16.44h0c-7.18-4-12.93-16.06-13.12-16.44h0c-.18.38-5.94,12.45-13.12,16.44Z"/><path class="cls-23" d="M271.34,372v4.76a32.2,32.2,0,0,1-5.45,2.06,19,19,0,0,1-4.89.68,12.9,12.9,0,0,1-5-.88,7.1,7.1,0,0,1-3.26-2.52,6.81,6.81,0,0,1-1.13-3.93,7.92,7.92,0,0,1,.85-3.75,8.69,8.69,0,0,1,2.4-2.82,21.33,21.33,0,0,1,4-2.36V363a11.53,11.53,0,0,1-2.95-.94,9.5,9.5,0,0,1-2.52-1.71,8.34,8.34,0,0,1-1.77-2.53,8.08,8.08,0,0,1-.66-3.35,10.28,10.28,0,0,1,1.27-5.16,8.74,8.74,0,0,1,3.87-3.57,14.1,14.1,0,0,1,6.35-1.3,23.9,23.9,0,0,1,4.65.49,26.26,26.26,0,0,1,4.58,1.29v5.32h-3a8.1,8.1,0,0,0-2.32-3.79,6,6,0,0,0-3.93-1.18,6.4,6.4,0,0,0-4.92,1.78,7.43,7.43,0,0,0-1.67,5.27,7.05,7.05,0,0,0,2.2,5.6c1.48,1.28,3.63,1.93,6.48,1.93h2.25v2.21a15.25,15.25,0,0,0-5.7,1.3,8.12,8.12,0,0,0-3.45,2.84,7,7,0,0,0-1.13,3.88,5.84,5.84,0,0,0,1.48,4.29,5.77,5.77,0,0,0,4.31,1.51,5.65,5.65,0,0,0,3.84-1.28,7.6,7.6,0,0,0,2.19-3.91Z"/><path class="cls-23" d="M167.91,317.84h0c-14.25-7.9-25.67-31.86-26-32.62v0h0v0c-.37.76-11.79,24.72-26,32.62h0c14.25,7.9,25.67,31.86,26,32.62v0h0v0c.37-.76,11.79-24.72,26-32.62Z"/><path class="cls-23" d="M167.91,198.67h0c-14.25-7.9-25.67-31.86-26-32.63h0c-.37.77-11.79,24.73-26,32.63h0c14.25,7.9,25.67,31.86,26,32.62v0h0v0c.37-.76,11.79-24.72,26-32.62Z"/><path class="cls-23" d="M167.91,79.49h0c-14.25-7.91-25.67-31.86-26-32.63v0h0v0c-.37.77-11.79,24.72-26,32.63h0c14.25,7.9,25.67,31.85,26,32.62v0h0v0c.37-.77,11.79-24.72,26-32.62h0Z"/></g></g></g></svg>