<svg xmlns="http://www.w3.org/2000/svg" xmlns:xlink="http://www.w3.org/1999/xlink" width="1300" height="289.406" viewBox="0 0 1300 289.406">
  <defs>
    <style>
      .cls-1 {
        fill: #010101;
        fill-rule: evenodd;
        mix-blend-mode: overlay;
      }
    </style>
    <clipPath id="clip-path">
      <rect x="1.25" y="1.75" width="1300" height="800"/>
    </clipPath>
  </defs>
  <g clip-path="url(#clip-path)">
    <path id="game-header-text" class="cls-1" d="M134.1,75.876V52.309c0-38.451-21.375-55.816-58.187-55.816H8.62C4.662-3.507,1.5-.2,1.5,4.348v273.7c0,4.548,3.167,7.856,7.125,7.856H75.912c36.812,0,58.187-17.365,58.187-55.816V175.517c0-25.634-13.062-41.758-32.458-50.027C121.037,117.221,134.1,101.1,134.1,75.876ZM61.662,39.905c16.229,0,29.292-.413,30.479,15.711V80.424c-1.187,16.125-14.25,23.566-30.479,23.566h-18.6V39.905h18.6Zm30.479,186.88C90.953,242.91,77.891,242.5,61.662,242.5h-18.6V147.4h18.6c16.229,0,29.292,7.442,30.479,23.153v56.229ZM257.962,242.5H195.42V4.348c0-4.548-3.166-7.856-7.52-7.856H160.983c-3.958,0-7.125,3.308-7.125,7.856v273.7c0,4.548,3.167,7.856,7.125,7.856h96.979a7.686,7.686,0,0,0,7.521-7.856V249.939A7.594,7.594,0,0,0,257.962,242.5Zm178.093,35.557L394.1,4.348a8.735,8.735,0,0,0-8.708-7.856H335.513c-3.958,0-7.916,3.308-8.708,7.856l-41.563,273.7a6.4,6.4,0,0,0,6.334,7.856h26.916a8.652,8.652,0,0,0,8.313-7.856l5.542-37.21h56.208l5.541,37.21c0.792,4.548,4.355,7.856,8.709,7.856h26.916C433.68,285.909,436.451,282.6,436.055,278.053Zm-96.979-81.036L360.451,58.511l21.375,138.506h-42.75ZM519.943-3.507H509.255c-37.208,0-61.354,31.422-61.354,69.873v149.67c0,38.451,24.146,69.873,61.354,69.873h10.688c36.812,0,60.958-31.422,60.958-69.873V192.469a7.691,7.691,0,0,0-7.521-7.856H546.86a7.691,7.691,0,0,0-7.521,7.856v17.778c0,17.779-7.917,32.249-24.542,32.249-17.417,0-24.937-14.47-24.937-32.249V72.155c0-17.778,7.52-32.249,24.937-32.249,16.625,0,24.542,14.471,24.542,32.249V91.587a7.342,7.342,0,0,0,7.521,7.442h26.52a7.342,7.342,0,0,0,7.521-7.442V66.366C580.9,27.915,556.755-3.507,519.943-3.507Zm208.964,0H701.99c-3.958,0-8.708,3.308-10.688,7.856,0,0-22.958,54.162-49.083,114.94V4.348c0-4.548-3.166-7.856-7.125-7.856H608.178c-4.355,0-7.521,3.308-7.521,7.856v273.7c0,4.548,3.166,7.856,7.521,7.856h26.916c3.959,0,7.125-3.308,7.125-7.856V216.862c3.563-8.269,7.521-17.364,11.479-26.46l37.209,87.651a12.041,12.041,0,0,0,10.687,7.856h26.917c3.958,0,5.937-3.308,3.958-7.856,0,0-28.9-67.392-58.187-136.439L733.261,4.348C735.24-.2,733.261-3.507,728.907-3.507Zm102.886,0H804.876c-3.958,0-7.125,3.308-7.125,7.856v205.9c0,16.952-7.125,31.009-22.562,32.249H757.376a7.594,7.594,0,0,0-7.521,7.443v28.114a7.686,7.686,0,0,0,7.521,7.856h20.979c36.813,0,60.959-31.422,60.959-69.873V4.348A7.685,7.685,0,0,0,831.793-3.507Zm166.225,281.56L956.06,4.348a8.736,8.736,0,0,0-8.709-7.856H897.477c-3.959,0-7.917,3.308-8.709,7.856l-41.562,273.7a6.4,6.4,0,0,0,6.333,7.856h26.917a8.652,8.652,0,0,0,8.312-7.856l5.542-37.21h56.208l5.542,37.21c0.791,4.548,4.354,7.856,8.708,7.856h26.917C995.643,285.909,998.414,282.6,998.018,278.053Zm-96.979-81.036L922.414,58.511l21.375,138.506h-42.75ZM1081.91-3.507h-10.69c-37.21,0-61.36,31.422-61.36,69.873v149.67c0,38.451,24.15,69.873,61.36,69.873h10.69c36.81,0,60.95-31.422,60.95-69.873V192.469a7.687,7.687,0,0,0-7.52-7.856h-26.52a7.694,7.694,0,0,0-7.52,7.856v17.778c0,17.779-7.91,32.249-24.54,32.249-17.42,0-24.94-14.47-24.94-32.249V72.155c0-17.778,7.52-32.249,24.94-32.249,16.63,0,24.54,14.471,24.54,32.249V91.587a7.344,7.344,0,0,0,7.52,7.442h26.52a7.338,7.338,0,0,0,7.52-7.442V66.366C1142.86,27.915,1118.72-3.507,1081.91-3.507Zm208.96,0h-26.92c-3.95,0-8.7,3.308-10.68,7.856,0,0-22.96,54.162-49.09,114.94V4.348c0-4.548-3.16-7.856-7.12-7.856h-26.92c-4.35,0-7.52,3.308-7.52,7.856v273.7c0,4.548,3.17,7.856,7.52,7.856h26.92c3.96,0,7.12-3.308,7.12-7.856V216.862c3.57-8.269,7.52-17.364,11.48-26.46l37.21,87.651a12.035,12.035,0,0,0,10.69,7.856h26.91c3.96,0,5.94-3.308,3.96-7.856,0,0-28.89-67.392-58.18-136.439L1295.22,4.348C1297.2-.2,1295.22-3.507,1290.87-3.507Z" transform="translate(1.25 1.75)"/>
  </g>
</svg>
