<svg xmlns="http://www.w3.org/2000/svg" xmlns:xlink="http://www.w3.org/1999/xlink" viewBox="0 0 246.75 345.44"><defs><style>.cls-1{mask:url(#mask);filter:url(#luminosity-noclip-6);}.cls-10,.cls-14,.cls-16,.cls-2,.cls-4,.cls-6,.cls-8{mix-blend-mode:multiply;}.cls-2{fill:url(#radial-gradient);}.cls-3{mask:url(#mask-2);filter:url(#luminosity-noclip-7);}.cls-4{fill:url(#radial-gradient-2);}.cls-5{mask:url(#mask-3);filter:url(#luminosity-noclip-8);}.cls-6{fill:url(#radial-gradient-3);}.cls-7{mask:url(#mask-4);filter:url(#luminosity-noclip-9);}.cls-8{fill:url(#radial-gradient-4);}.cls-9{mask:url(#mask-5);filter:url(#luminosity-noclip-10);}.cls-10{fill:url(#radial-gradient-5);}.cls-11{isolation:isolate;}.cls-12{fill:#fff;}.cls-13{mask:url(#mask-6);}.cls-14{fill:url(#radial-gradient-6);}.cls-15{mask:url(#mask-7);}.cls-16{fill:url(#radial-gradient-7);}.cls-17{mask:url(#mask-8);}.cls-18{fill:url(#radial-gradient-8);}.cls-19{mask:url(#mask-9);}.cls-20{mix-blend-mode:screen;fill:url(#radial-gradient-9);}.cls-21{mask:url(#mask-10);}.cls-22{fill:url(#radial-gradient-10);}.cls-23{fill:#ff2601;}.cls-24{filter:url(#luminosity-noclip-5);}.cls-25{filter:url(#luminosity-noclip-4);}.cls-26{filter:url(#luminosity-noclip-3);}.cls-27{filter:url(#luminosity-noclip-2);}.cls-28{filter:url(#luminosity-noclip);}</style><filter id="luminosity-noclip" x="0.01" y="-8183.22" width="246.74" height="32766" filterUnits="userSpaceOnUse" color-interpolation-filters="sRGB"><feFlood flood-color="#fff" result="bg"/><feBlend in="SourceGraphic" in2="bg"/></filter><mask id="mask" x="0.01" y="-8183.22" width="246.74" height="32766" maskUnits="userSpaceOnUse"><g class="cls-28"/></mask><radialGradient id="radial-gradient" cx="119.56" cy="-117.76" r="499.52" gradientUnits="userSpaceOnUse"><stop offset="0.62"/><stop offset="0.75" stop-color="#020202"/><stop offset="0.8" stop-color="#090909"/><stop offset="0.84" stop-color="#151515"/><stop offset="0.87" stop-color="#262626"/><stop offset="0.9" stop-color="#3c3c3c"/><stop offset="0.92" stop-color="#585858"/><stop offset="0.94" stop-color="#797979"/><stop offset="0.96" stop-color="#9f9f9f"/><stop offset="0.98" stop-color="#cbcbcb"/><stop offset="1" stop-color="#f9f9f9"/><stop offset="1" stop-color="#fff"/></radialGradient><filter id="luminosity-noclip-2" x="0.01" y="-8183.22" width="246.74" height="32766" filterUnits="userSpaceOnUse" color-interpolation-filters="sRGB"><feFlood flood-color="#fff" result="bg"/><feBlend in="SourceGraphic" in2="bg"/></filter><mask id="mask-2" x="0.01" y="-8183.22" width="246.74" height="32766" maskUnits="userSpaceOnUse"><g class="cls-27"/></mask><radialGradient id="radial-gradient-2" cx="124.5" cy="318.78" r="357.94" gradientUnits="userSpaceOnUse"><stop offset="0.62"/><stop offset="0.71" stop-color="#020202"/><stop offset="0.76" stop-color="#0a0a0a"/><stop offset="0.8" stop-color="#181818"/><stop offset="0.84" stop-color="#2c2c2c"/><stop offset="0.88" stop-color="#464646"/><stop offset="0.91" stop-color="#656565"/><stop offset="0.94" stop-color="#8a8a8a"/><stop offset="0.96" stop-color="#b6b6b6"/><stop offset="0.99" stop-color="#e5e5e5"/><stop offset="1" stop-color="#fff"/></radialGradient><filter id="luminosity-noclip-3" x="4.55" y="-8183.22" width="242.2" height="32766" filterUnits="userSpaceOnUse" color-interpolation-filters="sRGB"><feFlood flood-color="#fff" result="bg"/><feBlend in="SourceGraphic" in2="bg"/></filter><mask id="mask-3" x="4.55" y="-8183.22" width="242.2" height="32766" maskUnits="userSpaceOnUse"><g class="cls-26"/></mask><radialGradient id="radial-gradient-3" cx="-10.55" cy="-0.16" r="397.43" gradientUnits="userSpaceOnUse"><stop offset="0.1"/><stop offset="1" stop-color="#fff"/></radialGradient><filter id="luminosity-noclip-4" x="0.01" y="-8183.22" width="242.2" height="32766" filterUnits="userSpaceOnUse" color-interpolation-filters="sRGB"><feFlood flood-color="#fff" result="bg"/><feBlend in="SourceGraphic" in2="bg"/></filter><mask id="mask-4" x="0.01" y="-8183.22" width="242.2" height="32766" maskUnits="userSpaceOnUse"><g class="cls-25"/></mask><radialGradient id="radial-gradient-4" cx="67.41" cy="100.53" r="338.51" gradientUnits="userSpaceOnUse"><stop offset="0"/><stop offset="0.01" stop-color="#090909"/><stop offset="0.05" stop-color="#373737"/><stop offset="0.09" stop-color="#626262"/><stop offset="0.14" stop-color="#888"/><stop offset="0.2" stop-color="#a8a8a8"/><stop offset="0.25" stop-color="#c4c4c4"/><stop offset="0.32" stop-color="#dadada"/><stop offset="0.4" stop-color="#ebebeb"/><stop offset="0.49" stop-color="#f6f6f6"/><stop offset="0.63" stop-color="#fdfdfd"/><stop offset="1" stop-color="#fff"/></radialGradient><filter id="luminosity-noclip-5" x="0" y="-8183.22" width="0.5" height="32766" filterUnits="userSpaceOnUse" color-interpolation-filters="sRGB"><feFlood flood-color="#fff" result="bg"/><feBlend in="SourceGraphic" in2="bg"/></filter><mask id="mask-5" x="0" y="-8183.22" width="0.5" height="32766" maskUnits="userSpaceOnUse"><g class="cls-24"/></mask><radialGradient id="radial-gradient-5" cx="1371.16" cy="-0.16" r="397.35" gradientTransform="matrix(-1, 0, 0, 1, 1628.32, 0)" xlink:href="#radial-gradient-3"/><filter id="luminosity-noclip-6" x="0.01" y="186.43" width="246.74" height="159.02" filterUnits="userSpaceOnUse" color-interpolation-filters="sRGB"><feFlood flood-color="#fff" result="bg"/><feBlend in="SourceGraphic" in2="bg"/></filter><mask id="mask-6" x="0.01" y="186.43" width="246.74" height="159.02" maskUnits="userSpaceOnUse"><g class="cls-1"><path class="cls-2" d="M145.49,186.44,0,186.49V332.54c0,12.64,9.55,12.9,9.55,12.9H237.2s9.55-.26,9.55-12.9V186.43Z"/></g></mask><radialGradient id="radial-gradient-6" cx="119.56" cy="-117.76" r="499.52" gradientUnits="userSpaceOnUse"><stop offset="0.62" stop-color="#fff"/><stop offset="0.79" stop-color="#fdfdfd"/><stop offset="0.85" stop-color="#f6f6f6"/><stop offset="0.9" stop-color="#eaeaea"/><stop offset="0.94" stop-color="#d9d9d9"/><stop offset="0.97" stop-color="#c3c3c3"/><stop offset="1" stop-color="#ababab"/></radialGradient><filter id="luminosity-noclip-7" x="0.01" y="0" width="246.74" height="172.44" filterUnits="userSpaceOnUse" color-interpolation-filters="sRGB"><feFlood flood-color="#fff" result="bg"/><feBlend in="SourceGraphic" in2="bg"/></filter><mask id="mask-7" x="0.01" y="0" width="246.74" height="172.44" maskUnits="userSpaceOnUse"><g class="cls-3"><path class="cls-4" d="M0,172.35l62.29,0q89.76,0,179.53.05h4.92V12.9C246.75.26,237.2,0,237.2,0H9.56S0,.26,0,12.9V172.35Z"/></g></mask><radialGradient id="radial-gradient-7" cx="124.5" cy="318.78" r="357.94" gradientUnits="userSpaceOnUse"><stop offset="0.62" stop-color="#fff"/><stop offset="0.75" stop-color="#fdfdfd"/><stop offset="0.82" stop-color="#f5f5f5"/><stop offset="0.88" stop-color="#e7e7e7"/><stop offset="0.93" stop-color="#d3d3d3"/><stop offset="0.98" stop-color="#bababa"/><stop offset="1" stop-color="#ababab"/></radialGradient><filter id="luminosity-noclip-8" x="4.55" y="0" width="242.2" height="345.44" filterUnits="userSpaceOnUse" color-interpolation-filters="sRGB"><feFlood flood-color="#fff" result="bg"/><feBlend in="SourceGraphic" in2="bg"/></filter><mask id="mask-8" x="4.55" y="0" width="242.2" height="345.44" maskUnits="userSpaceOnUse"><g class="cls-5"><path class="cls-6" d="M246.25,12.88V332.06c0,12.62-9.56,12.88-9.56,12.88H8.82a9.75,9.75,0,0,1-4.27-1.38,9.76,9.76,0,0,0,5,1.88H237.2s9.55-.26,9.55-12.9V12.9C246.75.26,237.2,0,237.2,0h-.51S246.25.26,246.25,12.88Z"/></g></mask><radialGradient id="radial-gradient-8" cx="-10.55" cy="-0.16" r="397.43" gradientUnits="userSpaceOnUse"><stop offset="0.1" stop-color="#fff"/><stop offset="1" stop-color="#ababab"/></radialGradient><filter id="luminosity-noclip-9" x="0.01" y="0" width="242.2" height="345.44" filterUnits="userSpaceOnUse" color-interpolation-filters="sRGB"><feFlood flood-color="#fff" result="bg"/><feBlend in="SourceGraphic" in2="bg"/></filter><mask id="mask-9" x="0.01" y="0" width="242.2" height="345.44" maskUnits="userSpaceOnUse"><g class="cls-7"><path class="cls-8" d="M.51,332.56V13.38C.51.76,10.07.5,10.07.5H237.94a9.75,9.75,0,0,1,4.27,1.38,9.76,9.76,0,0,0-5-1.88H9.56S0,.26,0,12.9V332.54c0,12.64,9.55,12.9,9.55,12.9h.51S.51,345.18.51,332.56Z"/></g></mask><radialGradient id="radial-gradient-9" cx="67.41" cy="100.53" r="338.51" gradientUnits="userSpaceOnUse"><stop offset="0" stop-color="#fff"/><stop offset="0.14" stop-color="#fff"/><stop offset="1" stop-color="#fff"/></radialGradient><filter id="luminosity-noclip-10" x="0" y="24.96" width="0.5" height="297.86" filterUnits="userSpaceOnUse" color-interpolation-filters="sRGB"><feFlood flood-color="#fff" result="bg"/><feBlend in="SourceGraphic" in2="bg"/></filter><mask id="mask-10" x="0" y="24.96" width="0.5" height="297.86" maskUnits="userSpaceOnUse"><g class="cls-9"><path class="cls-10" d="M0,25V322.82c.17-.6.33-1.2.5-1.81V30.36C.33,28.56.16,26.76,0,25Z"/></g></mask><radialGradient id="radial-gradient-10" cx="1371.16" cy="-0.16" r="397.35" gradientTransform="matrix(-1, 0, 0, 1, 1628.32, 0)" xlink:href="#radial-gradient-8"/></defs><g class="cls-11"><g id="Layer_2" data-name="Layer 2"><g id="Layer_1-2" data-name="Layer 1"><path class="cls-12" d="M237.2,0H9.56S0,.26,0,12.9V332.54c0,12.64,9.55,12.9,9.55,12.9H237.2s9.55-.26,9.55-12.9V12.9C246.75.26,237.2,0,237.2,0Z"/><g class="cls-13"><path class="cls-14" d="M145.49,186.44,0,186.49V332.54c0,12.64,9.55,12.9,9.55,12.9H237.2s9.55-.26,9.55-12.9V186.43Z"/></g><g class="cls-15"><path class="cls-16" d="M0,172.35l62.29,0q89.76,0,179.53.05h4.92V12.9C246.75.26,237.2,0,237.2,0H9.56S0,.26,0,12.9V172.35Z"/></g><g class="cls-17"><path class="cls-18" d="M246.25,12.88V332.06c0,12.62-9.56,12.88-9.56,12.88H8.82a9.75,9.75,0,0,1-4.27-1.38,9.76,9.76,0,0,0,5,1.88H237.2s9.55-.26,9.55-12.9V12.9C246.75.26,237.2,0,237.2,0h-.51S246.25.26,246.25,12.88Z"/></g><g class="cls-19"><path class="cls-20" d="M.51,332.56V13.38C.51.76,10.07.5,10.07.5H237.94a9.75,9.75,0,0,1,4.27,1.38,9.76,9.76,0,0,0-5-1.88H9.56S0,.26,0,12.9V332.54c0,12.64,9.55,12.9,9.55,12.9h.51S.51,345.18.51,332.56Z"/></g><g class="cls-21"><path class="cls-22" d="M0,25V322.82c.17-.6.33-1.2.5-1.81V30.36C.33,28.56.16,26.76,0,25Z"/></g><path class="cls-23" d="M28.3,66.71a33,33,0,0,0-7.76,7.83h0a33,33,0,0,0-7.76-7.83c-5.22-3.82-6.41-8.6-4.54-12.2s9.33-5.36,12.3,1.8c3-7.16,10.43-5.4,12.3-1.8S33.52,62.89,28.3,66.71Z"/><path class="cls-23" d="M15.34,44.08V43a10.05,10.05,0,0,0,5.29-1.35,9.74,9.74,0,0,0,3.6-4,20.17,20.17,0,0,0,1.82-6.94l-.22-.09a14.43,14.43,0,0,1-3.61,1.92,11.73,11.73,0,0,1-3.85.61,7.76,7.76,0,0,1-4.2-1.08,6.67,6.67,0,0,1-2.61-3,11.16,11.16,0,0,1-.87-4.57,10.7,10.7,0,0,1,.65-3.72,8.78,8.78,0,0,1,1.95-3.08,9.07,9.07,0,0,1,3.21-2.09A12,12,0,0,1,21,14.8,8.23,8.23,0,0,1,28,18q2.4,3.16,2.4,9.09a23.08,23.08,0,0,1-1.77,9.42,14.5,14.5,0,0,1-4.95,6.19,15.2,15.2,0,0,1-7.44,2.61Zm4.53-13.22a8.85,8.85,0,0,0,1.58-.14,8.34,8.34,0,0,0,1.48-.42,7.91,7.91,0,0,0,1.4-.69,10.19,10.19,0,0,0,1.24-.91,1.92,1.92,0,0,0,.35-.46,2.39,2.39,0,0,0,.23-.74,8.31,8.31,0,0,0,.09-1.44,19.09,19.09,0,0,0-.6-5.12,6.5,6.5,0,0,0-1.83-3.2,4.45,4.45,0,0,0-3-1.08,6.1,6.1,0,0,0-2.77.57,4.84,4.84,0,0,0-1.85,1.56,6.78,6.78,0,0,0-1,2.33A12.11,12.11,0,0,0,14.79,24a8.28,8.28,0,0,0,1.33,5A4.42,4.42,0,0,0,19.87,30.86Z"/><path class="cls-23" d="M219.55,278.15a32.6,32.6,0,0,0,7.76-7.83h0a32.6,32.6,0,0,0,7.76,7.83c5.22,3.83,6.41,8.61,4.54,12.21s-9.33,5.36-12.3-1.8c-3,7.16-10.43,5.4-12.3,1.8S214.33,282,219.55,278.15Z"/><path class="cls-23" d="M232.51,300.79v1.07a10,10,0,0,0-5.28,1.35,9.63,9.63,0,0,0-3.6,4,20.06,20.06,0,0,0-1.83,7l.22.09a14.43,14.43,0,0,1,3.61-1.92,11.73,11.73,0,0,1,3.85-.61,7.76,7.76,0,0,1,4.2,1.08,6.67,6.67,0,0,1,2.61,3,11.16,11.16,0,0,1,.87,4.57,10.7,10.7,0,0,1-.65,3.72,8.9,8.9,0,0,1-1.94,3.08,9.35,9.35,0,0,1-3.22,2.09,12,12,0,0,1-4.51.77,8.22,8.22,0,0,1-7-3.16q-2.4-3.16-2.4-9.09a23,23,0,0,1,1.77-9.42,14.5,14.5,0,0,1,5-6.19,15.2,15.2,0,0,1,7.44-2.61ZM228,314a8.93,8.93,0,0,0-1.58.14,8.34,8.34,0,0,0-1.48.42,8.26,8.26,0,0,0-1.4.69,10.19,10.19,0,0,0-1.24.91,1.92,1.92,0,0,0-.35.46,2.39,2.39,0,0,0-.23.74,8.16,8.16,0,0,0-.09,1.44,19,19,0,0,0,.6,5.11,6.49,6.49,0,0,0,1.83,3.21,4.45,4.45,0,0,0,3,1.08,6.1,6.1,0,0,0,2.77-.57,4.85,4.85,0,0,0,1.85-1.56,6.78,6.78,0,0,0,1-2.33,12.17,12.17,0,0,0,.33-2.91,8.28,8.28,0,0,0-1.33-5A4.42,4.42,0,0,0,228,314Z"/><path class="cls-23" d="M184.36,81.65A65.24,65.24,0,0,0,169,97.19h0a65.66,65.66,0,0,0-15.41-15.54c-10.35-7.6-12.71-17.07-9-24.22S163.06,46.79,169,61c5.89-14.2,20.71-10.71,24.41-3.56S194.72,74.05,184.36,81.65Z"/><path class="cls-23" d="M184.36,212.63A65.24,65.24,0,0,0,169,228.17h0a65.66,65.66,0,0,0-15.41-15.54c-10.35-7.6-12.71-17.07-9-24.22S163.06,177.77,169,192c5.89-14.2,20.71-10.71,24.41-3.56S194.72,205,184.36,212.63Z"/><path class="cls-23" d="M153.55,263.22A65,65,0,0,0,169,247.68h0a65.2,65.2,0,0,0,15.4,15.55c10.36,7.59,12.72,17.07,9,24.22s-18.52,10.63-24.41-3.57c-5.9,14.2-20.71,10.72-24.41,3.57S143.2,270.82,153.55,263.22Z"/><path class="cls-23" d="M184.36,147.14A65.24,65.24,0,0,0,169,162.68h0a65.66,65.66,0,0,0-15.41-15.54c-10.35-7.6-12.71-17.07-9-24.22s18.51-10.64,24.41,3.56c5.89-14.2,20.71-10.71,24.41-3.56S194.72,139.54,184.36,147.14Z"/><path class="cls-23" d="M93.21,81.65a65.24,65.24,0,0,0-15.4,15.54h0A65.24,65.24,0,0,0,62.4,81.65c-10.36-7.6-12.71-17.07-9-24.22S71.91,46.79,77.8,61c5.9-14.2,20.71-10.71,24.41-3.56S103.56,74.05,93.21,81.65Z"/><path class="cls-23" d="M93.21,212.63a65.24,65.24,0,0,0-15.4,15.54h0a65.24,65.24,0,0,0-15.4-15.54c-10.36-7.6-12.71-17.07-9-24.22S71.91,177.77,77.8,192c5.9-14.2,20.71-10.71,24.41-3.56S103.56,205,93.21,212.63Z"/><path class="cls-23" d="M62.4,263.22a64.83,64.83,0,0,0,15.4-15.54h0a65,65,0,0,0,15.4,15.55c10.35,7.59,12.71,17.07,9,24.22S83.7,298.08,77.8,283.88c-5.89,14.2-20.71,10.72-24.41,3.57S52,270.82,62.4,263.22Z"/><path class="cls-23" d="M93.21,147.14a65.24,65.24,0,0,0-15.4,15.54h0a65.24,65.24,0,0,0-15.4-15.54c-10.36-7.6-12.71-17.07-9-24.22s18.52-10.64,24.41,3.56c5.9-14.2,20.71-10.71,24.41-3.56S103.56,139.54,93.21,147.14Z"/><path class="cls-23" d="M138.78,179.88a65.24,65.24,0,0,0-15.4,15.54v0h0v0A65.48,65.48,0,0,0,108,179.88c-10.36-7.59-12.72-17.07-9-24.22s18.51-10.63,24.41,3.57c5.89-14.2,20.71-10.72,24.41-3.57S149.14,172.29,138.78,179.88Z"/></g></g></g></svg>