<svg xmlns="http://www.w3.org/2000/svg" xmlns:xlink="http://www.w3.org/1999/xlink" viewBox="0 0 246.75 345.44"><defs><style>.cls-1,.cls-3{mask:url(#mask);}.cls-1{filter:url(#luminosity-noclip-6);}.cls-10,.cls-14,.cls-16,.cls-2,.cls-4,.cls-6,.cls-8{mix-blend-mode:multiply;}.cls-2{fill:url(#radial-gradient);}.cls-3{filter:url(#luminosity-noclip-7);}.cls-4{fill:url(#radial-gradient-2);}.cls-5{mask:url(#mask-3);filter:url(#luminosity-noclip-8);}.cls-6{fill:url(#radial-gradient-3);}.cls-7{mask:url(#mask-4);filter:url(#luminosity-noclip-9);}.cls-8{fill:url(#radial-gradient-4);}.cls-9{mask:url(#mask-5);filter:url(#luminosity-noclip-10);}.cls-10{fill:url(#radial-gradient-5);}.cls-11{isolation:isolate;}.cls-12{fill:#fff;}.cls-13{mask:url(#mask-6);}.cls-14{fill:url(#radial-gradient-6);}.cls-15{mask:url(#mask-7);}.cls-16{fill:url(#radial-gradient-7);}.cls-17{mask:url(#mask-8);}.cls-18{fill:url(#radial-gradient-8);}.cls-19{mask:url(#mask-9);}.cls-20{mix-blend-mode:screen;fill:url(#radial-gradient-9);}.cls-21{mask:url(#mask-10);}.cls-22{fill:url(#radial-gradient-10);}.cls-23{fill:#ff2601;}.cls-24{filter:url(#luminosity-noclip-5);}.cls-25{filter:url(#luminosity-noclip-4);}.cls-26{filter:url(#luminosity-noclip-3);}.cls-27{filter:url(#luminosity-noclip);}</style><filter id="luminosity-noclip" x="0.01" y="-8548.51" width="246.74" height="32766" filterUnits="userSpaceOnUse" color-interpolation-filters="sRGB"><feFlood flood-color="#fff" result="bg"/><feBlend in="SourceGraphic" in2="bg"/></filter><mask id="mask" x="0.01" y="-8548.51" width="246.74" height="32766" maskUnits="userSpaceOnUse"><g class="cls-27"/></mask><radialGradient id="radial-gradient" cx="119.56" cy="-117.76" r="499.52" gradientUnits="userSpaceOnUse"><stop offset="0.62"/><stop offset="0.75" stop-color="#020202"/><stop offset="0.8" stop-color="#090909"/><stop offset="0.84" stop-color="#151515"/><stop offset="0.87" stop-color="#262626"/><stop offset="0.9" stop-color="#3c3c3c"/><stop offset="0.92" stop-color="#585858"/><stop offset="0.94" stop-color="#797979"/><stop offset="0.96" stop-color="#9f9f9f"/><stop offset="0.98" stop-color="#cbcbcb"/><stop offset="1" stop-color="#f9f9f9"/><stop offset="1" stop-color="#fff"/></radialGradient><radialGradient id="radial-gradient-2" cx="124.5" cy="318.78" r="357.94" gradientUnits="userSpaceOnUse"><stop offset="0.62"/><stop offset="0.71" stop-color="#020202"/><stop offset="0.76" stop-color="#0a0a0a"/><stop offset="0.8" stop-color="#181818"/><stop offset="0.84" stop-color="#2c2c2c"/><stop offset="0.88" stop-color="#464646"/><stop offset="0.91" stop-color="#656565"/><stop offset="0.94" stop-color="#8a8a8a"/><stop offset="0.96" stop-color="#b6b6b6"/><stop offset="0.99" stop-color="#e5e5e5"/><stop offset="1" stop-color="#fff"/></radialGradient><filter id="luminosity-noclip-3" x="4.55" y="-8548.51" width="242.2" height="32766" filterUnits="userSpaceOnUse" color-interpolation-filters="sRGB"><feFlood flood-color="#fff" result="bg"/><feBlend in="SourceGraphic" in2="bg"/></filter><mask id="mask-3" x="4.55" y="-8548.51" width="242.2" height="32766" maskUnits="userSpaceOnUse"><g class="cls-26"/></mask><radialGradient id="radial-gradient-3" cx="-10.55" cy="-0.16" r="397.43" gradientUnits="userSpaceOnUse"><stop offset="0.1"/><stop offset="1" stop-color="#fff"/></radialGradient><filter id="luminosity-noclip-4" x="0.01" y="-8548.51" width="242.2" height="32766" filterUnits="userSpaceOnUse" color-interpolation-filters="sRGB"><feFlood flood-color="#fff" result="bg"/><feBlend in="SourceGraphic" in2="bg"/></filter><mask id="mask-4" x="0.01" y="-8548.51" width="242.2" height="32766" maskUnits="userSpaceOnUse"><g class="cls-25"/></mask><radialGradient id="radial-gradient-4" cx="67.41" cy="100.53" r="338.51" gradientUnits="userSpaceOnUse"><stop offset="0"/><stop offset="0.01" stop-color="#090909"/><stop offset="0.05" stop-color="#373737"/><stop offset="0.09" stop-color="#626262"/><stop offset="0.14" stop-color="#888"/><stop offset="0.2" stop-color="#a8a8a8"/><stop offset="0.25" stop-color="#c4c4c4"/><stop offset="0.32" stop-color="#dadada"/><stop offset="0.4" stop-color="#ebebeb"/><stop offset="0.49" stop-color="#f6f6f6"/><stop offset="0.63" stop-color="#fdfdfd"/><stop offset="1" stop-color="#fff"/></radialGradient><filter id="luminosity-noclip-5" x="0" y="-8548.51" width="0.5" height="32766" filterUnits="userSpaceOnUse" color-interpolation-filters="sRGB"><feFlood flood-color="#fff" result="bg"/><feBlend in="SourceGraphic" in2="bg"/></filter><mask id="mask-5" x="0" y="-8548.51" width="0.5" height="32766" maskUnits="userSpaceOnUse"><g class="cls-24"/></mask><radialGradient id="radial-gradient-5" cx="-219.69" cy="-0.16" r="397.54" gradientTransform="matrix(-1, 0, 0, 1, 37.78, 0)" xlink:href="#radial-gradient-3"/><filter id="luminosity-noclip-6" x="0.01" y="186.43" width="246.74" height="159.02" filterUnits="userSpaceOnUse" color-interpolation-filters="sRGB"><feFlood flood-color="#fff" result="bg"/><feBlend in="SourceGraphic" in2="bg"/></filter><mask id="mask-6" x="0.01" y="186.43" width="246.74" height="159.02" maskUnits="userSpaceOnUse"><g class="cls-1"><path class="cls-2" d="M145.49,186.44,0,186.49V332.54c0,12.64,9.55,12.9,9.55,12.9H237.2s9.55-.26,9.55-12.9V186.43Z"/></g></mask><radialGradient id="radial-gradient-6" cx="119.56" cy="-117.76" r="499.52" gradientUnits="userSpaceOnUse"><stop offset="0.62" stop-color="#fff"/><stop offset="0.79" stop-color="#fdfdfd"/><stop offset="0.85" stop-color="#f6f6f6"/><stop offset="0.9" stop-color="#eaeaea"/><stop offset="0.94" stop-color="#d9d9d9"/><stop offset="0.97" stop-color="#c3c3c3"/><stop offset="1" stop-color="#ababab"/></radialGradient><filter id="luminosity-noclip-7" x="0.01" y="0" width="246.74" height="172.44" filterUnits="userSpaceOnUse" color-interpolation-filters="sRGB"><feFlood flood-color="#fff" result="bg"/><feBlend in="SourceGraphic" in2="bg"/></filter><mask id="mask-7" x="0.01" y="0" width="246.74" height="172.44" maskUnits="userSpaceOnUse"><g class="cls-3"><path class="cls-4" d="M0,172.35l62.29,0q89.78.06,179.53.05h4.92V12.9C246.75.26,237.2,0,237.2,0H9.56S0,.26,0,12.9V172.35Z"/></g></mask><radialGradient id="radial-gradient-7" cx="124.5" cy="318.78" r="357.94" gradientUnits="userSpaceOnUse"><stop offset="0.62" stop-color="#fff"/><stop offset="0.75" stop-color="#fdfdfd"/><stop offset="0.82" stop-color="#f5f5f5"/><stop offset="0.88" stop-color="#e7e7e7"/><stop offset="0.93" stop-color="#d3d3d3"/><stop offset="0.98" stop-color="#bababa"/><stop offset="1" stop-color="#ababab"/></radialGradient><filter id="luminosity-noclip-8" x="4.55" y="0" width="242.2" height="345.44" filterUnits="userSpaceOnUse" color-interpolation-filters="sRGB"><feFlood flood-color="#fff" result="bg"/><feBlend in="SourceGraphic" in2="bg"/></filter><mask id="mask-8" x="4.55" y="0" width="242.2" height="345.44" maskUnits="userSpaceOnUse"><g class="cls-5"><path class="cls-6" d="M246.25,12.88V332.06c0,12.62-9.56,12.88-9.56,12.88H8.82a9.75,9.75,0,0,1-4.27-1.38,9.76,9.76,0,0,0,5,1.88H237.2s9.55-.26,9.55-12.9V12.9C246.75.26,237.2,0,237.2,0h-.51S246.25.26,246.25,12.88Z"/></g></mask><radialGradient id="radial-gradient-8" cx="-10.55" cy="-0.16" r="397.43" gradientUnits="userSpaceOnUse"><stop offset="0.1" stop-color="#fff"/><stop offset="1" stop-color="#ababab"/></radialGradient><filter id="luminosity-noclip-9" x="0.01" y="0" width="242.2" height="345.44" filterUnits="userSpaceOnUse" color-interpolation-filters="sRGB"><feFlood flood-color="#fff" result="bg"/><feBlend in="SourceGraphic" in2="bg"/></filter><mask id="mask-9" x="0.01" y="0" width="242.2" height="345.44" maskUnits="userSpaceOnUse"><g class="cls-7"><path class="cls-8" d="M.51,332.56V13.38C.51.76,10.07.5,10.07.5H237.94a9.75,9.75,0,0,1,4.27,1.38,9.76,9.76,0,0,0-5-1.88H9.56S0,.26,0,12.9V332.54c0,12.64,9.55,12.9,9.55,12.9h.51S.51,345.18.51,332.56Z"/></g></mask><radialGradient id="radial-gradient-9" cx="67.41" cy="100.53" r="338.51" gradientUnits="userSpaceOnUse"><stop offset="0" stop-color="#fff"/><stop offset="0.14" stop-color="#fff"/><stop offset="1" stop-color="#fff"/></radialGradient><filter id="luminosity-noclip-10" x="0" y="24.96" width="0.5" height="297.86" filterUnits="userSpaceOnUse" color-interpolation-filters="sRGB"><feFlood flood-color="#fff" result="bg"/><feBlend in="SourceGraphic" in2="bg"/></filter><mask id="mask-10" x="0" y="24.96" width="0.5" height="297.86" maskUnits="userSpaceOnUse"><g class="cls-9"><path class="cls-10" d="M0,25V322.82c.17-.6.33-1.2.5-1.81V30.36C.33,28.56.16,26.76,0,25Z"/></g></mask><radialGradient id="radial-gradient-10" cx="-219.69" cy="-0.16" r="397.54" gradientTransform="matrix(-1, 0, 0, 1, 37.78, 0)" xlink:href="#radial-gradient-8"/></defs><g class="cls-11"><g id="Layer_2" data-name="Layer 2"><g id="Layer_1-2" data-name="Layer 1"><path class="cls-12" d="M237.2,0H9.56S0,.26,0,12.9V332.54c0,12.64,9.55,12.9,9.55,12.9H237.2s9.55-.26,9.55-12.9V12.9C246.75.26,237.2,0,237.2,0Z"/><g class="cls-13"><path class="cls-14" d="M145.49,186.44,0,186.49V332.54c0,12.64,9.55,12.9,9.55,12.9H237.2s9.55-.26,9.55-12.9V186.43Z"/></g><g class="cls-15"><path class="cls-16" d="M0,172.35l62.29,0q89.78.06,179.53.05h4.92V12.9C246.75.26,237.2,0,237.2,0H9.56S0,.26,0,12.9V172.35Z"/></g><g class="cls-17"><path class="cls-18" d="M246.25,12.88V332.06c0,12.62-9.56,12.88-9.56,12.88H8.82a9.75,9.75,0,0,1-4.27-1.38,9.76,9.76,0,0,0,5,1.88H237.2s9.55-.26,9.55-12.9V12.9C246.75.26,237.2,0,237.2,0h-.51S246.25.26,246.25,12.88Z"/></g><g class="cls-19"><path class="cls-20" d="M.51,332.56V13.38C.51.76,10.07.5,10.07.5H237.94a9.75,9.75,0,0,1,4.27,1.38,9.76,9.76,0,0,0-5-1.88H9.56S0,.26,0,12.9V332.54c0,12.64,9.55,12.9,9.55,12.9h.51S.51,345.18.51,332.56Z"/></g><g class="cls-21"><path class="cls-22" d="M0,25V322.82c.17-.6.33-1.2.5-1.81V30.36C.33,28.56.16,26.76,0,25Z"/></g><path class="cls-23" d="M26.2,66.72a32.64,32.64,0,0,0-7.76,7.82h0a33.12,33.12,0,0,0-7.76-7.82c-5.22-3.83-6.41-8.61-4.54-12.21s9.33-5.36,12.3,1.8c3-7.16,10.43-5.4,12.3-1.8S31.42,62.89,26.2,66.72Z"/><path class="cls-23" d="M9.37,44.82V40.2H12a6.34,6.34,0,0,0,2,3.27,5.32,5.32,0,0,0,3.41,1.05,5.45,5.45,0,0,0,4.39-1.75,7.92,7.92,0,0,0,1.48-5.21,8.34,8.34,0,0,0-.78-3.83,4.89,4.89,0,0,0-2.12-2.19,6.77,6.77,0,0,0-3.1-.68,14.43,14.43,0,0,0-2.55.19,16.61,16.61,0,0,0-2.29.57l-1.75-1V16.25h12a3.39,3.39,0,0,0,1.07-.12,1.12,1.12,0,0,0,.52-.38,3.36,3.36,0,0,0,.46-.94h1.7l-.32,5.06H13.58v9.57a11.64,11.64,0,0,1,2.47-.72,15,15,0,0,1,2.66-.24,9.78,9.78,0,0,1,4.6,1.06,7.5,7.5,0,0,1,3.1,3,9.09,9.09,0,0,1,1.09,4.53,9.79,9.79,0,0,1-1.22,5,7.88,7.88,0,0,1-3.53,3.19,12.73,12.73,0,0,1-5.48,1.09A22.5,22.5,0,0,1,9.37,44.82Z"/><path class="cls-23" d="M219.1,278.15a32.6,32.6,0,0,0,7.76-7.83h0a32.6,32.6,0,0,0,7.76,7.83c5.22,3.83,6.41,8.61,4.54,12.21s-9.33,5.36-12.3-1.8c-3,7.16-10.44,5.4-12.3,1.8S213.88,282,219.1,278.15Z"/><path class="cls-23" d="M235.92,300.05v4.62h-2.64a6.33,6.33,0,0,0-2-3.27,5.33,5.33,0,0,0-3.42-1,5.44,5.44,0,0,0-4.38,1.75,7.86,7.86,0,0,0-1.48,5.21,8.34,8.34,0,0,0,.78,3.83,4.84,4.84,0,0,0,2.12,2.19A6.73,6.73,0,0,0,228,314a14.62,14.62,0,0,0,2.56-.19,17,17,0,0,0,2.29-.57l1.74,1v14.35h-12a3.1,3.1,0,0,0-1.07.13,1.09,1.09,0,0,0-.52.37,4,4,0,0,0-.46.94h-1.7l.33-5.06h12.54v-9.57a11.72,11.72,0,0,1-2.46.72,15.06,15.06,0,0,1-2.67.24,9.78,9.78,0,0,1-4.6-1.06,7.5,7.5,0,0,1-3.1-3,9.2,9.2,0,0,1-1.09-4.53,9.79,9.79,0,0,1,1.22-5,7.91,7.91,0,0,1,3.54-3.19A12.68,12.68,0,0,1,228,298.5,22.5,22.5,0,0,1,235.92,300.05Z"/><path class="cls-23" d="M93.21,81.73A65,65,0,0,0,77.8,97.27h0A65.28,65.28,0,0,0,62.4,81.73c-10.36-7.6-12.72-17.07-9-24.22S71.9,46.87,77.8,61.07c5.9-14.2,20.71-10.71,24.41-3.56S103.56,74.13,93.21,81.73Z"/><path class="cls-23" d="M62.4,263.3a64.83,64.83,0,0,0,15.4-15.54h0A65.25,65.25,0,0,0,93.21,263.3c10.35,7.6,12.71,17.08,9,24.23S83.7,298.16,77.8,284c-5.89,14.2-20.71,10.72-24.41,3.57S52,270.9,62.4,263.3Z"/><path class="cls-23" d="M138.78,180a65,65,0,0,0-15.4,15.55h0A65.45,65.45,0,0,0,108,180c-10.36-7.59-12.72-17.07-9-24.22s18.51-10.63,24.41,3.57c5.89-14.2,20.71-10.72,24.41-3.57S149.14,172.37,138.78,180Z"/><path class="cls-23" d="M184.36,81.73A65,65,0,0,0,169,97.27h0a65,65,0,0,0-15.4-15.54c-10.35-7.6-12.71-17.07-9-24.22S163.06,46.87,169,61.07c5.89-14.2,20.71-10.71,24.41-3.56S194.72,74.13,184.36,81.73Z"/><path class="cls-23" d="M153.55,263.3A64.83,64.83,0,0,0,169,247.76h0a64.83,64.83,0,0,0,15.4,15.54c10.36,7.6,12.72,17.08,9,24.23S174.85,298.16,169,284c-5.9,14.2-20.71,10.72-24.42,3.57S143.2,270.9,153.55,263.3Z"/></g></g></g></svg>