<svg xmlns="http://www.w3.org/2000/svg" xmlns:xlink="http://www.w3.org/1999/xlink" viewBox="0 0 249.89 349.84"><defs><style>.cls-1,.cls-3{mask:url(#mask);}.cls-1{filter:url(#luminosity-noclip-6);}.cls-10,.cls-14,.cls-16,.cls-2,.cls-4,.cls-6,.cls-8{mix-blend-mode:multiply;}.cls-2{fill:url(#radial-gradient);}.cls-3{filter:url(#luminosity-noclip-7);}.cls-4{fill:url(#radial-gradient-2);}.cls-5{mask:url(#mask-3);filter:url(#luminosity-noclip-8);}.cls-6{fill:url(#radial-gradient-3);}.cls-7{mask:url(#mask-4);filter:url(#luminosity-noclip-9);}.cls-8{fill:url(#radial-gradient-4);}.cls-9{mask:url(#mask-5);filter:url(#luminosity-noclip-10);}.cls-10{fill:url(#radial-gradient-5);}.cls-11{isolation:isolate;}.cls-12{fill:#fff;}.cls-13{mask:url(#mask-6);}.cls-14{fill:url(#radial-gradient-6);}.cls-15{mask:url(#mask-7);}.cls-16{fill:url(#radial-gradient-7);}.cls-17{mask:url(#mask-8);}.cls-18{fill:url(#radial-gradient-8);}.cls-19{mask:url(#mask-9);}.cls-20{mix-blend-mode:screen;fill:url(#radial-gradient-9);}.cls-21{mask:url(#mask-10);}.cls-22{fill:url(#radial-gradient-10);}.cls-23{filter:url(#luminosity-noclip-5);}.cls-24{filter:url(#luminosity-noclip-4);}.cls-25{filter:url(#luminosity-noclip-3);}.cls-26{filter:url(#luminosity-noclip);}</style><filter id="luminosity-noclip" x="0.01" y="-8550.29" width="249.88" height="32766" filterUnits="userSpaceOnUse" color-interpolation-filters="sRGB"><feFlood flood-color="#fff" result="bg"/><feBlend in="SourceGraphic" in2="bg"/></filter><mask id="mask" x="0.01" y="-8550.29" width="249.88" height="32766" maskUnits="userSpaceOnUse"><g class="cls-26"/></mask><radialGradient id="radial-gradient" cx="121.08" cy="-119.27" r="505.88" gradientUnits="userSpaceOnUse"><stop offset="0.62"/><stop offset="0.75" stop-color="#020202"/><stop offset="0.8" stop-color="#090909"/><stop offset="0.84" stop-color="#151515"/><stop offset="0.87" stop-color="#262626"/><stop offset="0.9" stop-color="#3c3c3c"/><stop offset="0.92" stop-color="#585858"/><stop offset="0.94" stop-color="#797979"/><stop offset="0.96" stop-color="#9f9f9f"/><stop offset="0.98" stop-color="#cbcbcb"/><stop offset="1" stop-color="#f9f9f9"/><stop offset="1" stop-color="#fff"/></radialGradient><radialGradient id="radial-gradient-2" cx="126.09" cy="322.84" r="362.49" gradientUnits="userSpaceOnUse"><stop offset="0.62"/><stop offset="0.71" stop-color="#020202"/><stop offset="0.76" stop-color="#0a0a0a"/><stop offset="0.8" stop-color="#181818"/><stop offset="0.84" stop-color="#2c2c2c"/><stop offset="0.88" stop-color="#464646"/><stop offset="0.91" stop-color="#656565"/><stop offset="0.94" stop-color="#8a8a8a"/><stop offset="0.96" stop-color="#b6b6b6"/><stop offset="0.99" stop-color="#e5e5e5"/><stop offset="1" stop-color="#fff"/></radialGradient><filter id="luminosity-noclip-3" x="4.61" y="-8550.29" width="245.28" height="32766" filterUnits="userSpaceOnUse" color-interpolation-filters="sRGB"><feFlood flood-color="#fff" result="bg"/><feBlend in="SourceGraphic" in2="bg"/></filter><mask id="mask-3" x="4.61" y="-8550.29" width="245.28" height="32766" maskUnits="userSpaceOnUse"><g class="cls-25"/></mask><radialGradient id="radial-gradient-3" cx="-10.68" cy="-0.16" r="402.49" gradientUnits="userSpaceOnUse"><stop offset="0.1"/><stop offset="1" stop-color="#fff"/></radialGradient><filter id="luminosity-noclip-4" x="0.01" y="-8550.29" width="245.28" height="32766" filterUnits="userSpaceOnUse" color-interpolation-filters="sRGB"><feFlood flood-color="#fff" result="bg"/><feBlend in="SourceGraphic" in2="bg"/></filter><mask id="mask-4" x="0.01" y="-8550.29" width="245.28" height="32766" maskUnits="userSpaceOnUse"><g class="cls-24"/></mask><radialGradient id="radial-gradient-4" cx="68.26" cy="101.81" r="342.82" gradientUnits="userSpaceOnUse"><stop offset="0"/><stop offset="0.01" stop-color="#090909"/><stop offset="0.05" stop-color="#373737"/><stop offset="0.09" stop-color="#626262"/><stop offset="0.14" stop-color="#888"/><stop offset="0.2" stop-color="#a8a8a8"/><stop offset="0.25" stop-color="#c4c4c4"/><stop offset="0.32" stop-color="#dadada"/><stop offset="0.4" stop-color="#ebebeb"/><stop offset="0.49" stop-color="#f6f6f6"/><stop offset="0.63" stop-color="#fdfdfd"/><stop offset="1" stop-color="#fff"/></radialGradient><filter id="luminosity-noclip-5" x="0" y="-8550.29" width="0.51" height="32766" filterUnits="userSpaceOnUse" color-interpolation-filters="sRGB"><feFlood flood-color="#fff" result="bg"/><feBlend in="SourceGraphic" in2="bg"/></filter><mask id="mask-5" x="0" y="-8550.29" width="0.51" height="32766" maskUnits="userSpaceOnUse"><g class="cls-23"/></mask><radialGradient id="radial-gradient-5" cx="-225.21" cy="-0.16" r="402.14" gradientTransform="matrix(-1, 0, 0, 1, 34.77, 0)" xlink:href="#radial-gradient-3"/><filter id="luminosity-noclip-6" x="0.01" y="188.8" width="249.88" height="161.04" filterUnits="userSpaceOnUse" color-interpolation-filters="sRGB"><feFlood flood-color="#fff" result="bg"/><feBlend in="SourceGraphic" in2="bg"/></filter><mask id="mask-6" x="0.01" y="188.8" width="249.88" height="161.04" maskUnits="userSpaceOnUse"><g class="cls-1"><path class="cls-2" d="M147.35,188.81,0,188.86V336.78c0,12.8,9.67,13.06,9.67,13.06H240.22s9.67-.26,9.67-13.06v-148Z"/></g></mask><radialGradient id="radial-gradient-6" cx="121.08" cy="-119.27" r="505.88" gradientUnits="userSpaceOnUse"><stop offset="0.62" stop-color="#fff"/><stop offset="0.79" stop-color="#fdfdfd"/><stop offset="0.85" stop-color="#f6f6f6"/><stop offset="0.9" stop-color="#eaeaea"/><stop offset="0.94" stop-color="#d9d9d9"/><stop offset="0.97" stop-color="#c3c3c3"/><stop offset="1" stop-color="#ababab"/></radialGradient><filter id="luminosity-noclip-7" x="0.01" y="0" width="249.88" height="174.63" filterUnits="userSpaceOnUse" color-interpolation-filters="sRGB"><feFlood flood-color="#fff" result="bg"/><feBlend in="SourceGraphic" in2="bg"/></filter><mask id="mask-7" x="0.01" y="0" width="249.88" height="174.63" maskUnits="userSpaceOnUse"><g class="cls-3"><path class="cls-4" d="M0,174.54l63.09.05q90.9,0,181.8,0h5V13.07C249.89.26,240.22,0,240.22,0H9.68S0,.26,0,13.07V174.54Z"/></g></mask><radialGradient id="radial-gradient-7" cx="126.09" cy="322.84" r="362.49" gradientUnits="userSpaceOnUse"><stop offset="0.62" stop-color="#fff"/><stop offset="0.75" stop-color="#fdfdfd"/><stop offset="0.82" stop-color="#f5f5f5"/><stop offset="0.88" stop-color="#e7e7e7"/><stop offset="0.93" stop-color="#d3d3d3"/><stop offset="0.98" stop-color="#bababa"/><stop offset="1" stop-color="#ababab"/></radialGradient><filter id="luminosity-noclip-8" x="4.61" y="0" width="245.28" height="349.84" filterUnits="userSpaceOnUse" color-interpolation-filters="sRGB"><feFlood flood-color="#fff" result="bg"/><feBlend in="SourceGraphic" in2="bg"/></filter><mask id="mask-8" x="4.61" y="0" width="245.28" height="349.84" maskUnits="userSpaceOnUse"><g class="cls-5"><path class="cls-6" d="M249.39,13.05V336.29c0,12.78-9.68,13-9.68,13H8.93a9.71,9.71,0,0,1-4.32-1.39,10,10,0,0,0,5.07,1.9H240.22s9.67-.26,9.67-13.07V13.06C249.89.26,240.22,0,240.22,0h-.51S249.39.26,249.39,13.05Z"/></g></mask><radialGradient id="radial-gradient-8" cx="-10.68" cy="-0.16" r="402.49" gradientUnits="userSpaceOnUse"><stop offset="0.1" stop-color="#fff"/><stop offset="1" stop-color="#ababab"/></radialGradient><filter id="luminosity-noclip-9" x="0.01" y="0" width="245.28" height="349.84" filterUnits="userSpaceOnUse" color-interpolation-filters="sRGB"><feFlood flood-color="#fff" result="bg"/><feBlend in="SourceGraphic" in2="bg"/></filter><mask id="mask-9" x="0.01" y="0" width="245.28" height="349.84" maskUnits="userSpaceOnUse"><g class="cls-7"><path class="cls-8" d="M.51,336.79V13.55c0-12.78,9.68-13,9.68-13H241a9.87,9.87,0,0,1,4.32,1.39A10,10,0,0,0,240.22,0H9.68S0,.26,0,13.07V336.78c0,12.8,9.67,13.06,9.67,13.06h.51S.51,349.58.51,336.79Z"/></g></mask><radialGradient id="radial-gradient-9" cx="68.26" cy="101.81" r="342.82" gradientUnits="userSpaceOnUse"><stop offset="0" stop-color="#fff"/><stop offset="0.14" stop-color="#fff"/><stop offset="1" stop-color="#fff"/></radialGradient><filter id="luminosity-noclip-10" x="0" y="25.28" width="0.51" height="301.65" filterUnits="userSpaceOnUse" color-interpolation-filters="sRGB"><feFlood flood-color="#fff" result="bg"/><feBlend in="SourceGraphic" in2="bg"/></filter><mask id="mask-10" x="0" y="25.28" width="0.51" height="301.65" maskUnits="userSpaceOnUse"><g class="cls-9"><path class="cls-10" d="M0,25.28V326.93c.17-.61.33-1.22.5-1.83V30.75C.33,28.92.16,27.1,0,25.28Z"/></g></mask><radialGradient id="radial-gradient-10" cx="-225.21" cy="-0.16" r="402.14" gradientTransform="matrix(-1, 0, 0, 1, 34.77, 0)" xlink:href="#radial-gradient-8"/></defs><g class="cls-11"><g id="Layer_2" data-name="Layer 2"><g id="Layer_1-2" data-name="Layer 1"><path class="cls-12" d="M240.22,0H9.68S0,.26,0,13.07V336.78c0,12.8,9.67,13.06,9.67,13.06H240.22s9.67-.26,9.67-13.06V13.07C249.89.26,240.22,0,240.22,0Z"/><g class="cls-13"><path class="cls-14" d="M147.35,188.81,0,188.86V336.78c0,12.8,9.67,13.06,9.67,13.06H240.22s9.67-.26,9.67-13.06v-148Z"/></g><g class="cls-15"><path class="cls-16" d="M0,174.54l63.09.05q90.9,0,181.8,0h5V13.07C249.89.26,240.22,0,240.22,0H9.68S0,.26,0,13.07V174.54Z"/></g><g class="cls-17"><path class="cls-18" d="M249.39,13.05V336.29c0,12.78-9.68,13-9.68,13H8.93a9.71,9.71,0,0,1-4.32-1.39,10,10,0,0,0,5.07,1.9H240.22s9.67-.26,9.67-13.07V13.06C249.89.26,240.22,0,240.22,0h-.51S249.39.26,249.39,13.05Z"/></g><g class="cls-19"><path class="cls-20" d="M.51,336.79V13.55c0-12.78,9.68-13,9.68-13H241a9.87,9.87,0,0,1,4.32,1.39A10,10,0,0,0,240.22,0H9.68S0,.26,0,13.07V336.78c0,12.8,9.67,13.06,9.67,13.06h.51S.51,349.58.51,336.79Z"/></g><g class="cls-21"><path class="cls-22" d="M0,25.28V326.93c.17-.61.33-1.22.5-1.83V30.75C.33,28.92.16,27.1,0,25.28Z"/></g><path d="M18.67,67.18a22.15,22.15,0,0,1-4.21,11h8.42A22.26,22.26,0,0,1,18.67,67.18Z"/><path d="M26.53,57.54a32.28,32.28,0,0,1-7.86-7.47h0a32,32,0,0,1-7.86,7.47c-5.28,3.65-6.49,8.2-4.6,11.64s9.45,5.11,12.46-1.71c3,6.82,10.57,5.15,12.46,1.71S31.82,61.19,26.53,57.54Z"/><path d="M9.49,45.41V40.72h2.68a6.35,6.35,0,0,0,2,3.32,5.42,5.42,0,0,0,3.45,1.06,5.49,5.49,0,0,0,4.44-1.77,8,8,0,0,0,1.51-5.28,8.42,8.42,0,0,0-.8-3.88A5,5,0,0,0,20.63,32a7,7,0,0,0-3.14-.68,16,16,0,0,0-2.58.18,18.39,18.39,0,0,0-2.32.59l-1.77-1V16.47H23a3.13,3.13,0,0,0,1.08-.13A1.13,1.13,0,0,0,24.6,16a3.83,3.83,0,0,0,.47-1h1.72l-.33,5.12H13.76v9.7a12.27,12.27,0,0,1,2.49-.73,15.4,15.4,0,0,1,2.7-.24,9.91,9.91,0,0,1,4.66,1.07,7.63,7.63,0,0,1,3.14,3,9.32,9.32,0,0,1,1.1,4.58,9.83,9.83,0,0,1-1.24,5.08A7.91,7.91,0,0,1,23,45.87,12.87,12.87,0,0,1,17.49,47,22.86,22.86,0,0,1,9.49,45.41Z"/><path d="M229.75,282.05A22.15,22.15,0,0,1,234,271h-8.42A22.26,22.26,0,0,1,229.75,282.05Z"/><path d="M221.88,291.69a31.82,31.82,0,0,1,7.86,7.47h0a31.87,31.87,0,0,1,7.85-7.47c5.29-3.65,6.49-8.2,4.6-11.64s-9.45-5.11-12.45,1.71c-3-6.82-10.57-5.15-12.46-1.71S216.6,288,221.88,291.69Z"/><path d="M238.92,303.82v4.69h-2.67a6.42,6.42,0,0,0-2-3.32,5.43,5.43,0,0,0-3.46-1.06,5.52,5.52,0,0,0-4.44,1.77,8,8,0,0,0-1.5,5.28,8.42,8.42,0,0,0,.8,3.88,5,5,0,0,0,2.14,2.22,6.92,6.92,0,0,0,3.14.68,16,16,0,0,0,2.58-.18,17.58,17.58,0,0,0,2.32-.59l1.77,1v14.53H225.43a3.16,3.16,0,0,0-1.09.13,1.19,1.19,0,0,0-.53.37,4.3,4.3,0,0,0-.46,1h-1.72l.33-5.12h12.7v-9.7a11.93,11.93,0,0,1-2.5.73,15.2,15.2,0,0,1-2.69.24,9.86,9.86,0,0,1-4.66-1.07,7.57,7.57,0,0,1-3.14-3.05,9.19,9.19,0,0,1-1.1-4.58,9.93,9.93,0,0,1,1.23-5.08,8,8,0,0,1,3.58-3.23,12.84,12.84,0,0,1,5.55-1.1A22.81,22.81,0,0,1,238.92,303.82Z"/><path d="M78.72,84.52a44.1,44.1,0,0,1-8.36,22H87.08A44.1,44.1,0,0,1,78.72,84.52Z"/><path d="M94.32,65.4a63.91,63.91,0,0,1-15.6-14.83h0c-.13.2-5.25,7.68-15.6,14.83S50.25,81.68,54,88.5s18.75,10.15,24.72-3.4c6,13.55,21,10.22,24.72,3.4S104.81,72.64,94.32,65.4Z"/><path d="M78.72,265.47a44.1,44.1,0,0,0-8.36-22H87.08A44.1,44.1,0,0,0,78.72,265.47Z"/><path d="M94.32,284.59a63.91,63.91,0,0,0-15.6,14.83h0c-.13-.2-5.25-7.68-15.6-14.83S50.25,268.31,54,261.49s18.75-10.15,24.72,3.4c6-13.55,21-10.22,24.72-3.4S104.81,277.34,94.32,284.59Z"/><path d="M171,84.52a44.1,44.1,0,0,1-8.36,22h16.71A44.14,44.14,0,0,1,171,84.52Z"/><path d="M186.64,65.4c-10.35-7.15-15.47-14.63-15.6-14.83h0a63.91,63.91,0,0,1-15.6,14.83c-10.49,7.24-12.88,16.28-9.13,23.1S165.07,98.65,171,85.1c6,13.55,21,10.22,24.72,3.4S197.12,72.64,186.64,65.4Z"/><path d="M171,265.47a44.1,44.1,0,0,0-8.36-22h16.71A44.14,44.14,0,0,0,171,265.47Z"/><path d="M186.64,284.59c-10.35,7.15-15.47,14.63-15.6,14.83h0a63.91,63.91,0,0,0-15.6-14.83c-10.49-7.25-12.88-16.28-9.13-23.1s18.76-10.15,24.73,3.4c6-13.55,21-10.22,24.72-3.4S197.12,277.34,186.64,284.59Z"/><path d="M124.88,181A44.1,44.1,0,0,1,116.52,203h16.72A44.1,44.1,0,0,1,124.88,181Z"/><path d="M140.48,161.88a63.91,63.91,0,0,1-15.6-14.83h0a63.91,63.91,0,0,1-15.6,14.83c-10.49,7.25-12.88,16.28-9.12,23.1s18.75,10.15,24.72-3.4c6,13.55,21,10.22,24.72,3.4S151,169.13,140.48,161.88Z"/></g></g></g></svg>