<svg xmlns="http://www.w3.org/2000/svg" xmlns:xlink="http://www.w3.org/1999/xlink" viewBox="0 0 249.9 349.84"><defs><style>.cls-1{mask:url(#mask);filter:url(#luminosity-noclip-6);}.cls-10,.cls-14,.cls-16,.cls-2,.cls-4,.cls-6,.cls-8{mix-blend-mode:multiply;}.cls-2{fill:url(#radial-gradient);}.cls-3{mask:url(#mask-2);filter:url(#luminosity-noclip-7);}.cls-4{fill:url(#radial-gradient-2);}.cls-5{mask:url(#mask-3);filter:url(#luminosity-noclip-8);}.cls-6{fill:url(#radial-gradient-3);}.cls-7{mask:url(#mask-4);filter:url(#luminosity-noclip-9);}.cls-8{fill:url(#radial-gradient-4);}.cls-9{mask:url(#mask-5);filter:url(#luminosity-noclip-10);}.cls-10{fill:url(#radial-gradient-5);}.cls-11{isolation:isolate;}.cls-12{fill:#fff;}.cls-13{mask:url(#mask-6);}.cls-14{fill:url(#radial-gradient-6);}.cls-15{mask:url(#mask-7);}.cls-16{fill:url(#radial-gradient-7);}.cls-17{mask:url(#mask-8);}.cls-18{fill:url(#radial-gradient-8);}.cls-19{mask:url(#mask-9);}.cls-20{mix-blend-mode:screen;fill:url(#radial-gradient-9);}.cls-21{mask:url(#mask-10);}.cls-22{fill:url(#radial-gradient-10);}.cls-23{filter:url(#luminosity-noclip-5);}.cls-24{filter:url(#luminosity-noclip-4);}.cls-25{filter:url(#luminosity-noclip-3);}.cls-26{filter:url(#luminosity-noclip-2);}.cls-27{filter:url(#luminosity-noclip);}</style><filter id="luminosity-noclip" x="0.01" y="-8550.29" width="249.89" height="32766" filterUnits="userSpaceOnUse" color-interpolation-filters="sRGB"><feFlood flood-color="#fff" result="bg"/><feBlend in="SourceGraphic" in2="bg"/></filter><mask id="mask" x="0.01" y="-8550.29" width="249.89" height="32766" maskUnits="userSpaceOnUse"><g class="cls-27"/></mask><radialGradient id="radial-gradient" cx="121.08" cy="-119.27" r="505.88" gradientUnits="userSpaceOnUse"><stop offset="0.62"/><stop offset="0.75" stop-color="#020202"/><stop offset="0.8" stop-color="#090909"/><stop offset="0.84" stop-color="#151515"/><stop offset="0.87" stop-color="#262626"/><stop offset="0.9" stop-color="#3c3c3c"/><stop offset="0.92" stop-color="#585858"/><stop offset="0.94" stop-color="#797979"/><stop offset="0.96" stop-color="#9f9f9f"/><stop offset="0.98" stop-color="#cbcbcb"/><stop offset="1" stop-color="#f9f9f9"/><stop offset="1" stop-color="#fff"/></radialGradient><filter id="luminosity-noclip-2" x="0.01" y="-8550.29" width="249.89" height="32766" filterUnits="userSpaceOnUse" color-interpolation-filters="sRGB"><feFlood flood-color="#fff" result="bg"/><feBlend in="SourceGraphic" in2="bg"/></filter><mask id="mask-2" x="0.01" y="-8550.29" width="249.89" height="32766" maskUnits="userSpaceOnUse"><g class="cls-26"/></mask><radialGradient id="radial-gradient-2" cx="126.09" cy="322.84" r="362.49" gradientUnits="userSpaceOnUse"><stop offset="0.62"/><stop offset="0.71" stop-color="#020202"/><stop offset="0.76" stop-color="#0a0a0a"/><stop offset="0.8" stop-color="#181818"/><stop offset="0.84" stop-color="#2c2c2c"/><stop offset="0.88" stop-color="#464646"/><stop offset="0.91" stop-color="#656565"/><stop offset="0.94" stop-color="#8a8a8a"/><stop offset="0.96" stop-color="#b6b6b6"/><stop offset="0.99" stop-color="#e5e5e5"/><stop offset="1" stop-color="#fff"/></radialGradient><filter id="luminosity-noclip-3" x="4.61" y="-8550.29" width="245.29" height="32766" filterUnits="userSpaceOnUse" color-interpolation-filters="sRGB"><feFlood flood-color="#fff" result="bg"/><feBlend in="SourceGraphic" in2="bg"/></filter><mask id="mask-3" x="4.61" y="-8550.29" width="245.29" height="32766" maskUnits="userSpaceOnUse"><g class="cls-25"/></mask><radialGradient id="radial-gradient-3" cx="-10.68" cy="-0.16" r="402.5" gradientUnits="userSpaceOnUse"><stop offset="0.1"/><stop offset="1" stop-color="#fff"/></radialGradient><filter id="luminosity-noclip-4" x="0.01" y="-8550.29" width="245.29" height="32766" filterUnits="userSpaceOnUse" color-interpolation-filters="sRGB"><feFlood flood-color="#fff" result="bg"/><feBlend in="SourceGraphic" in2="bg"/></filter><mask id="mask-4" x="0.01" y="-8550.29" width="245.29" height="32766" maskUnits="userSpaceOnUse"><g class="cls-24"/></mask><radialGradient id="radial-gradient-4" cx="68.26" cy="101.81" r="342.82" gradientUnits="userSpaceOnUse"><stop offset="0"/><stop offset="0.01" stop-color="#090909"/><stop offset="0.05" stop-color="#373737"/><stop offset="0.09" stop-color="#626262"/><stop offset="0.14" stop-color="#888"/><stop offset="0.2" stop-color="#a8a8a8"/><stop offset="0.25" stop-color="#c4c4c4"/><stop offset="0.32" stop-color="#dadada"/><stop offset="0.4" stop-color="#ebebeb"/><stop offset="0.49" stop-color="#f6f6f6"/><stop offset="0.63" stop-color="#fdfdfd"/><stop offset="1" stop-color="#fff"/></radialGradient><filter id="luminosity-noclip-5" x="0" y="-8550.29" width="0.51" height="32766" filterUnits="userSpaceOnUse" color-interpolation-filters="sRGB"><feFlood flood-color="#fff" result="bg"/><feBlend in="SourceGraphic" in2="bg"/></filter><mask id="mask-5" x="0" y="-8550.29" width="0.51" height="32766" maskUnits="userSpaceOnUse"><g class="cls-23"/></mask><radialGradient id="radial-gradient-5" cx="311" cy="-0.16" r="402.57" gradientTransform="matrix(-1, 0, 0, 1, 571.7, 0)" xlink:href="#radial-gradient-3"/><filter id="luminosity-noclip-6" x="0.01" y="188.8" width="249.89" height="161.04" filterUnits="userSpaceOnUse" color-interpolation-filters="sRGB"><feFlood flood-color="#fff" result="bg"/><feBlend in="SourceGraphic" in2="bg"/></filter><mask id="mask-6" x="0.01" y="188.8" width="249.89" height="161.04" maskUnits="userSpaceOnUse"><g class="cls-1"><path class="cls-2" d="M147.35,188.81,0,188.86V336.78c0,12.8,9.67,13.06,9.67,13.06H240.22s9.67-.26,9.67-13.06v-148Z"/></g></mask><radialGradient id="radial-gradient-6" cx="121.08" cy="-119.27" r="505.88" gradientUnits="userSpaceOnUse"><stop offset="0.62" stop-color="#fff"/><stop offset="0.79" stop-color="#fdfdfd"/><stop offset="0.85" stop-color="#f6f6f6"/><stop offset="0.9" stop-color="#eaeaea"/><stop offset="0.94" stop-color="#d9d9d9"/><stop offset="0.97" stop-color="#c3c3c3"/><stop offset="1" stop-color="#ababab"/></radialGradient><filter id="luminosity-noclip-7" x="0.01" y="0" width="249.89" height="174.63" filterUnits="userSpaceOnUse" color-interpolation-filters="sRGB"><feFlood flood-color="#fff" result="bg"/><feBlend in="SourceGraphic" in2="bg"/></filter><mask id="mask-7" x="0.01" y="0" width="249.89" height="174.63" maskUnits="userSpaceOnUse"><g class="cls-3"><path class="cls-4" d="M0,174.54l63.09.05q90.9,0,181.81,0h5V13.07C249.89.26,240.22,0,240.22,0H9.68S0,.26,0,13.07V174.54Z"/></g></mask><radialGradient id="radial-gradient-7" cx="126.09" cy="322.84" r="362.49" gradientUnits="userSpaceOnUse"><stop offset="0.62" stop-color="#fff"/><stop offset="0.75" stop-color="#fdfdfd"/><stop offset="0.82" stop-color="#f5f5f5"/><stop offset="0.88" stop-color="#e7e7e7"/><stop offset="0.93" stop-color="#d3d3d3"/><stop offset="0.98" stop-color="#bababa"/><stop offset="1" stop-color="#ababab"/></radialGradient><filter id="luminosity-noclip-8" x="4.61" y="0" width="245.29" height="349.84" filterUnits="userSpaceOnUse" color-interpolation-filters="sRGB"><feFlood flood-color="#fff" result="bg"/><feBlend in="SourceGraphic" in2="bg"/></filter><mask id="mask-8" x="4.61" y="0" width="245.29" height="349.84" maskUnits="userSpaceOnUse"><g class="cls-5"><path class="cls-6" d="M249.39,13.05V336.29c0,12.78-9.68,13-9.68,13H8.93a9.75,9.75,0,0,1-4.32-1.39,10,10,0,0,0,5.07,1.9H240.22s9.68-.26,9.68-13.07V13.06C249.9.26,240.22,0,240.22,0h-.51S249.39.26,249.39,13.05Z"/></g></mask><radialGradient id="radial-gradient-8" cx="-10.68" cy="-0.16" r="402.5" gradientUnits="userSpaceOnUse"><stop offset="0.1" stop-color="#fff"/><stop offset="1" stop-color="#ababab"/></radialGradient><filter id="luminosity-noclip-9" x="0.01" y="0" width="245.29" height="349.84" filterUnits="userSpaceOnUse" color-interpolation-filters="sRGB"><feFlood flood-color="#fff" result="bg"/><feBlend in="SourceGraphic" in2="bg"/></filter><mask id="mask-9" x="0.01" y="0" width="245.29" height="349.84" maskUnits="userSpaceOnUse"><g class="cls-7"><path class="cls-8" d="M.51,336.79V13.55C.51.77,10.2.51,10.2.51H241a9.87,9.87,0,0,1,4.32,1.39A10,10,0,0,0,240.22,0H9.68S0,.26,0,13.07V336.78c0,12.8,9.67,13.06,9.67,13.06h.52S.51,349.58.51,336.79Z"/></g></mask><radialGradient id="radial-gradient-9" cx="68.26" cy="101.81" r="342.82" gradientUnits="userSpaceOnUse"><stop offset="0" stop-color="#fff"/><stop offset="0.14" stop-color="#fff"/><stop offset="1" stop-color="#fff"/></radialGradient><filter id="luminosity-noclip-10" x="0" y="25.28" width="0.51" height="301.65" filterUnits="userSpaceOnUse" color-interpolation-filters="sRGB"><feFlood flood-color="#fff" result="bg"/><feBlend in="SourceGraphic" in2="bg"/></filter><mask id="mask-10" x="0" y="25.28" width="0.51" height="301.65" maskUnits="userSpaceOnUse"><g class="cls-9"><path class="cls-10" d="M0,25.28V326.93c.17-.61.33-1.22.51-1.83V30.75C.33,28.92.17,27.1,0,25.28Z"/></g></mask><radialGradient id="radial-gradient-10" cx="311" cy="-0.16" r="402.57" gradientTransform="matrix(-1, 0, 0, 1, 571.7, 0)" xlink:href="#radial-gradient-8"/></defs><g class="cls-11"><g id="Layer_2" data-name="Layer 2"><g id="Layer_1-2" data-name="Layer 1"><path class="cls-12" d="M240.22,0H9.68S0,.26,0,13.07V336.78c0,12.8,9.67,13.06,9.67,13.06H240.22s9.67-.26,9.67-13.06V13.07C249.89.26,240.22,0,240.22,0Z"/><g class="cls-13"><path class="cls-14" d="M147.35,188.81,0,188.86V336.78c0,12.8,9.67,13.06,9.67,13.06H240.22s9.67-.26,9.67-13.06v-148Z"/></g><g class="cls-15"><path class="cls-16" d="M0,174.54l63.09.05q90.9,0,181.81,0h5V13.07C249.89.26,240.22,0,240.22,0H9.68S0,.26,0,13.07V174.54Z"/></g><g class="cls-17"><path class="cls-18" d="M249.39,13.05V336.29c0,12.78-9.68,13-9.68,13H8.93a9.75,9.75,0,0,1-4.32-1.39,10,10,0,0,0,5.07,1.9H240.22s9.68-.26,9.68-13.07V13.06C249.9.26,240.22,0,240.22,0h-.51S249.39.26,249.39,13.05Z"/></g><g class="cls-19"><path class="cls-20" d="M.51,336.79V13.55C.51.77,10.2.51,10.2.51H241a9.87,9.87,0,0,1,4.32,1.39A10,10,0,0,0,240.22,0H9.68S0,.26,0,13.07V336.78c0,12.8,9.67,13.06,9.67,13.06h.52S.51,349.58.51,336.79Z"/></g><g class="cls-21"><path class="cls-22" d="M0,25.28V326.93c.17-.61.33-1.22.51-1.83V30.75C.33,28.92.17,27.1,0,25.28Z"/></g><path d="M18.38,67.18a22.26,22.26,0,0,1-4.21,11h8.42A22.15,22.15,0,0,1,18.38,67.18Z"/><path d="M26.24,57.54a32,32,0,0,1-7.86-7.47h0a32.28,32.28,0,0,1-7.86,7.47C5.23,61.19,4,65.74,5.92,69.18s9.45,5.11,12.46-1.71c3,6.82,10.56,5.15,12.45,1.71S31.52,61.19,26.24,57.54Z"/><path d="M17.25,44.23a4.42,4.42,0,0,0,1.83-.78,2.15,2.15,0,0,0,.61-1.23,14.47,14.47,0,0,0,.14-2.43V36.17H7.55V34.51L20.47,15h3.16V34h.47a6.12,6.12,0,0,0,1.83-.19,1.88,1.88,0,0,0,.92-.66,5.09,5.09,0,0,0,.67-1.56H29.2l-.26,4.55H23.63v3.62a18.05,18.05,0,0,0,.1,2.17A3.14,3.14,0,0,0,24.06,43a1.93,1.93,0,0,0,.69.67,6.23,6.23,0,0,0,1.47.52v1.09h-9ZM11.2,34h8.63v-5.5c0-1.39,0-2.94.07-4.65s.1-3,.16-3.88h-.23L11.2,33.72Z"/><path d="M229.66,282.05A22.15,22.15,0,0,1,233.87,271h-8.42A22.26,22.26,0,0,1,229.66,282.05Z"/><path d="M221.8,291.69a31.87,31.87,0,0,1,7.85,7.47h0a32,32,0,0,1,7.86-7.47c5.28-3.65,6.48-8.2,4.59-11.64s-9.45-5.11-12.45,1.71c-3-6.82-10.57-5.15-12.46-1.71S216.51,288,221.8,291.69Z"/><path d="M230.78,305a4.42,4.42,0,0,0-1.83.78,2.18,2.18,0,0,0-.61,1.23,15.73,15.73,0,0,0-.14,2.43v3.62h12.28v1.66l-12.92,19.5H224.4v-19h-.47a6.12,6.12,0,0,0-1.83.19,2,2,0,0,0-.92.66,5.09,5.09,0,0,0-.67,1.56h-1.68l.27-4.55h5.3v-3.62a16.14,16.14,0,0,0-.1-2.17,3.14,3.14,0,0,0-.33-1.08,1.83,1.83,0,0,0-.69-.66,5.74,5.74,0,0,0-1.47-.53v-1.09h9Zm6.06,10.2H228.2v5.5c0,1.39,0,2.94-.07,4.65s-.09,3-.15,3.88h.22l8.64-13.72Z"/><path d="M78.63,84.45a44.09,44.09,0,0,1-8.36,21.94H87A44.09,44.09,0,0,1,78.63,84.45Z"/><path d="M94.23,65.32A64.2,64.2,0,0,1,78.63,50.5h0A64.2,64.2,0,0,1,63,65.32c-10.49,7.25-12.87,16.29-9.12,23.11S72.66,98.57,78.63,85c6,13.55,21,10.23,24.72,3.41S104.72,72.57,94.23,65.32Z"/><path d="M78.63,265.39a44.09,44.09,0,0,0-8.36-21.94H87A44.09,44.09,0,0,0,78.63,265.39Z"/><path d="M94.23,284.52a64.2,64.2,0,0,0-15.6,14.82h0A64.2,64.2,0,0,0,63,284.52c-10.49-7.25-12.87-16.29-9.12-23.11s18.75-10.14,24.72,3.41c6-13.55,21-10.23,24.72-3.41S104.72,277.27,94.23,284.52Z"/><path d="M171,84.45a44.09,44.09,0,0,1-8.36,21.94H179.3A44.14,44.14,0,0,1,171,84.45Z"/><path d="M186.55,65.32A64,64,0,0,1,171,50.5h0a64.2,64.2,0,0,1-15.6,14.82c-10.49,7.25-12.88,16.29-9.13,23.11S165,98.57,171,85c6,13.55,21,10.23,24.72,3.41S197,72.57,186.55,65.32Z"/><path d="M171,265.39a44.09,44.09,0,0,0-8.36-21.94H179.3A44.14,44.14,0,0,0,171,265.39Z"/><path d="M186.55,284.52A64,64,0,0,0,171,299.34h0a64.2,64.2,0,0,0-15.6-14.82c-10.49-7.25-12.88-16.29-9.13-23.11S165,251.27,171,264.82c6-13.55,21-10.23,24.72-3.41S197,277.27,186.55,284.52Z"/></g></g></g></svg>