<svg xmlns="http://www.w3.org/2000/svg" xmlns:xlink="http://www.w3.org/1999/xlink" viewBox="0 0 249.89 349.84"><defs><style>.cls-1,.cls-3{mask:url(#mask);}.cls-1{filter:url(#luminosity-noclip-6);}.cls-10,.cls-14,.cls-16,.cls-2,.cls-4,.cls-6,.cls-8{mix-blend-mode:multiply;}.cls-2{fill:url(#radial-gradient);}.cls-3{filter:url(#luminosity-noclip-7);}.cls-4{fill:url(#radial-gradient-2);}.cls-5{mask:url(#mask-3);filter:url(#luminosity-noclip-8);}.cls-6{fill:url(#radial-gradient-3);}.cls-7{mask:url(#mask-4);filter:url(#luminosity-noclip-9);}.cls-8{fill:url(#radial-gradient-4);}.cls-9{mask:url(#mask-5);filter:url(#luminosity-noclip-10);}.cls-10{fill:url(#radial-gradient-5);}.cls-11{isolation:isolate;}.cls-12{fill:#fff;}.cls-13{mask:url(#mask-6);}.cls-14{fill:url(#radial-gradient-6);}.cls-15{mask:url(#mask-7);}.cls-16{fill:url(#radial-gradient-7);}.cls-17{mask:url(#mask-8);}.cls-18{fill:url(#radial-gradient-8);}.cls-19{mask:url(#mask-9);}.cls-20{mix-blend-mode:screen;fill:url(#radial-gradient-9);}.cls-21{mask:url(#mask-10);}.cls-22{fill:url(#radial-gradient-10);}.cls-23{filter:url(#luminosity-noclip-5);}.cls-24{filter:url(#luminosity-noclip-4);}.cls-25{filter:url(#luminosity-noclip-3);}.cls-26{filter:url(#luminosity-noclip);}</style><filter id="luminosity-noclip" x="0.01" y="-8550.29" width="249.88" height="32766" filterUnits="userSpaceOnUse" color-interpolation-filters="sRGB"><feFlood flood-color="#fff" result="bg"/><feBlend in="SourceGraphic" in2="bg"/></filter><mask id="mask" x="0.01" y="-8550.29" width="249.88" height="32766" maskUnits="userSpaceOnUse"><g class="cls-26"/></mask><radialGradient id="radial-gradient" cx="121.08" cy="-119.27" r="505.88" gradientUnits="userSpaceOnUse"><stop offset="0.62"/><stop offset="0.75" stop-color="#020202"/><stop offset="0.8" stop-color="#090909"/><stop offset="0.84" stop-color="#151515"/><stop offset="0.87" stop-color="#262626"/><stop offset="0.9" stop-color="#3c3c3c"/><stop offset="0.92" stop-color="#585858"/><stop offset="0.94" stop-color="#797979"/><stop offset="0.96" stop-color="#9f9f9f"/><stop offset="0.98" stop-color="#cbcbcb"/><stop offset="1" stop-color="#f9f9f9"/><stop offset="1" stop-color="#fff"/></radialGradient><radialGradient id="radial-gradient-2" cx="126.09" cy="322.84" r="362.49" gradientUnits="userSpaceOnUse"><stop offset="0.62"/><stop offset="0.71" stop-color="#020202"/><stop offset="0.76" stop-color="#0a0a0a"/><stop offset="0.8" stop-color="#181818"/><stop offset="0.84" stop-color="#2c2c2c"/><stop offset="0.88" stop-color="#464646"/><stop offset="0.91" stop-color="#656565"/><stop offset="0.94" stop-color="#8a8a8a"/><stop offset="0.96" stop-color="#b6b6b6"/><stop offset="0.99" stop-color="#e5e5e5"/><stop offset="1" stop-color="#fff"/></radialGradient><filter id="luminosity-noclip-3" x="4.61" y="-8550.29" width="245.29" height="32766" filterUnits="userSpaceOnUse" color-interpolation-filters="sRGB"><feFlood flood-color="#fff" result="bg"/><feBlend in="SourceGraphic" in2="bg"/></filter><mask id="mask-3" x="4.61" y="-8550.29" width="245.29" height="32766" maskUnits="userSpaceOnUse"><g class="cls-25"/></mask><radialGradient id="radial-gradient-3" cx="-10.68" cy="-0.16" r="402.5" gradientUnits="userSpaceOnUse"><stop offset="0.1"/><stop offset="1" stop-color="#fff"/></radialGradient><filter id="luminosity-noclip-4" x="0.01" y="-8550.29" width="245.28" height="32766" filterUnits="userSpaceOnUse" color-interpolation-filters="sRGB"><feFlood flood-color="#fff" result="bg"/><feBlend in="SourceGraphic" in2="bg"/></filter><mask id="mask-4" x="0.01" y="-8550.29" width="245.28" height="32766" maskUnits="userSpaceOnUse"><g class="cls-24"/></mask><radialGradient id="radial-gradient-4" cx="68.26" cy="101.81" r="342.82" gradientUnits="userSpaceOnUse"><stop offset="0"/><stop offset="0.01" stop-color="#090909"/><stop offset="0.05" stop-color="#373737"/><stop offset="0.09" stop-color="#626262"/><stop offset="0.14" stop-color="#888"/><stop offset="0.2" stop-color="#a8a8a8"/><stop offset="0.25" stop-color="#c4c4c4"/><stop offset="0.32" stop-color="#dadada"/><stop offset="0.4" stop-color="#ebebeb"/><stop offset="0.49" stop-color="#f6f6f6"/><stop offset="0.63" stop-color="#fdfdfd"/><stop offset="1" stop-color="#fff"/></radialGradient><filter id="luminosity-noclip-5" x="0" y="-8550.29" width="0.51" height="32766" filterUnits="userSpaceOnUse" color-interpolation-filters="sRGB"><feFlood flood-color="#fff" result="bg"/><feBlend in="SourceGraphic" in2="bg"/></filter><mask id="mask-5" x="0" y="-8550.29" width="0.51" height="32766" maskUnits="userSpaceOnUse"><g class="cls-23"/></mask><radialGradient id="radial-gradient-5" cx="1384.85" cy="-0.16" r="402.57" gradientTransform="matrix(-1, 0, 0, 1, 1645.56, 0)" xlink:href="#radial-gradient-3"/><filter id="luminosity-noclip-6" x="0.01" y="188.8" width="249.88" height="161.04" filterUnits="userSpaceOnUse" color-interpolation-filters="sRGB"><feFlood flood-color="#fff" result="bg"/><feBlend in="SourceGraphic" in2="bg"/></filter><mask id="mask-6" x="0.01" y="188.8" width="249.88" height="161.04" maskUnits="userSpaceOnUse"><g class="cls-1"><path class="cls-2" d="M147.35,188.81,0,188.86V336.78c0,12.8,9.67,13.06,9.67,13.06H240.22s9.67-.26,9.67-13.06v-148Z"/></g></mask><radialGradient id="radial-gradient-6" cx="121.08" cy="-119.27" r="505.88" gradientUnits="userSpaceOnUse"><stop offset="0.62" stop-color="#fff"/><stop offset="0.79" stop-color="#fdfdfd"/><stop offset="0.85" stop-color="#f6f6f6"/><stop offset="0.9" stop-color="#eaeaea"/><stop offset="0.94" stop-color="#d9d9d9"/><stop offset="0.97" stop-color="#c3c3c3"/><stop offset="1" stop-color="#ababab"/></radialGradient><filter id="luminosity-noclip-7" x="0.01" y="0" width="249.88" height="174.63" filterUnits="userSpaceOnUse" color-interpolation-filters="sRGB"><feFlood flood-color="#fff" result="bg"/><feBlend in="SourceGraphic" in2="bg"/></filter><mask id="mask-7" x="0.01" y="0" width="249.88" height="174.63" maskUnits="userSpaceOnUse"><g class="cls-3"><path class="cls-4" d="M0,174.54l63.09.05q90.9,0,181.81,0h5V13.07C249.89.26,240.22,0,240.22,0H9.68S0,.26,0,13.07V174.54Z"/></g></mask><radialGradient id="radial-gradient-7" cx="126.09" cy="322.84" r="362.49" gradientUnits="userSpaceOnUse"><stop offset="0.62" stop-color="#fff"/><stop offset="0.75" stop-color="#fdfdfd"/><stop offset="0.82" stop-color="#f5f5f5"/><stop offset="0.88" stop-color="#e7e7e7"/><stop offset="0.93" stop-color="#d3d3d3"/><stop offset="0.98" stop-color="#bababa"/><stop offset="1" stop-color="#ababab"/></radialGradient><filter id="luminosity-noclip-8" x="4.61" y="0" width="245.29" height="349.84" filterUnits="userSpaceOnUse" color-interpolation-filters="sRGB"><feFlood flood-color="#fff" result="bg"/><feBlend in="SourceGraphic" in2="bg"/></filter><mask id="mask-8" x="4.61" y="0" width="245.29" height="349.84" maskUnits="userSpaceOnUse"><g class="cls-5"><path class="cls-6" d="M249.39,13.05V336.29c0,12.78-9.68,13-9.68,13H8.93a9.71,9.71,0,0,1-4.32-1.39,10,10,0,0,0,5.07,1.9H240.22s9.67-.26,9.67-13.07V13.06C249.89.26,240.22,0,240.22,0h-.51S249.39.26,249.39,13.05Z"/></g></mask><radialGradient id="radial-gradient-8" cx="-10.68" cy="-0.16" r="402.5" gradientUnits="userSpaceOnUse"><stop offset="0.1" stop-color="#fff"/><stop offset="1" stop-color="#ababab"/></radialGradient><filter id="luminosity-noclip-9" x="0.01" y="0" width="245.28" height="349.84" filterUnits="userSpaceOnUse" color-interpolation-filters="sRGB"><feFlood flood-color="#fff" result="bg"/><feBlend in="SourceGraphic" in2="bg"/></filter><mask id="mask-9" x="0.01" y="0" width="245.28" height="349.84" maskUnits="userSpaceOnUse"><g class="cls-7"><path class="cls-8" d="M.51,336.79V13.55c0-12.78,9.68-13,9.68-13H241a9.87,9.87,0,0,1,4.32,1.39A10,10,0,0,0,240.22,0H9.68S0,.26,0,13.07V336.78c0,12.8,9.67,13.06,9.67,13.06h.51S.51,349.58.51,336.79Z"/></g></mask><radialGradient id="radial-gradient-9" cx="68.26" cy="101.81" r="342.82" gradientUnits="userSpaceOnUse"><stop offset="0" stop-color="#fff"/><stop offset="0.14" stop-color="#fff"/><stop offset="1" stop-color="#fff"/></radialGradient><filter id="luminosity-noclip-10" x="0" y="25.28" width="0.51" height="301.65" filterUnits="userSpaceOnUse" color-interpolation-filters="sRGB"><feFlood flood-color="#fff" result="bg"/><feBlend in="SourceGraphic" in2="bg"/></filter><mask id="mask-10" x="0" y="25.28" width="0.51" height="301.65" maskUnits="userSpaceOnUse"><g class="cls-9"><path class="cls-10" d="M0,25.28V326.93c.17-.61.33-1.22.51-1.83V30.75C.33,28.92.16,27.1,0,25.28Z"/></g></mask><radialGradient id="radial-gradient-10" cx="1384.85" cy="-0.16" r="402.57" gradientTransform="matrix(-1, 0, 0, 1, 1645.56, 0)" xlink:href="#radial-gradient-8"/></defs><g class="cls-11"><g id="Layer_2" data-name="Layer 2"><g id="Layer_1-2" data-name="Layer 1"><path class="cls-12" d="M240.22,0H9.68S0,.26,0,13.07V336.78c0,12.8,9.67,13.06,9.67,13.06H240.22s9.67-.26,9.67-13.06V13.07C249.89.26,240.22,0,240.22,0Z"/><g class="cls-13"><path class="cls-14" d="M147.35,188.81,0,188.86V336.78c0,12.8,9.67,13.06,9.67,13.06H240.22s9.67-.26,9.67-13.06v-148Z"/></g><g class="cls-15"><path class="cls-16" d="M0,174.54l63.09.05q90.9,0,181.81,0h5V13.07C249.89.26,240.22,0,240.22,0H9.68S0,.26,0,13.07V174.54Z"/></g><g class="cls-17"><path class="cls-18" d="M249.39,13.05V336.29c0,12.78-9.68,13-9.68,13H8.93a9.71,9.71,0,0,1-4.32-1.39,10,10,0,0,0,5.07,1.9H240.22s9.67-.26,9.67-13.07V13.06C249.89.26,240.22,0,240.22,0h-.51S249.39.26,249.39,13.05Z"/></g><g class="cls-19"><path class="cls-20" d="M.51,336.79V13.55c0-12.78,9.68-13,9.68-13H241a9.87,9.87,0,0,1,4.32,1.39A10,10,0,0,0,240.22,0H9.68S0,.26,0,13.07V336.78c0,12.8,9.67,13.06,9.67,13.06h.51S.51,349.58.51,336.79Z"/></g><g class="cls-21"><path class="cls-22" d="M0,25.28V326.93c.17-.61.33-1.22.51-1.83V30.75C.33,28.92.16,27.1,0,25.28Z"/></g><path d="M18.07,67.18a22.15,22.15,0,0,1-4.21,11h8.42A22.26,22.26,0,0,1,18.07,67.18Z"/><path d="M25.93,57.54a31.87,31.87,0,0,1-7.85-7.47h0a31.82,31.82,0,0,1-7.86,7.47c-5.28,3.65-6.48,8.2-4.59,11.64s9.45,5.11,12.45-1.71c3,6.82,10.57,5.15,12.46,1.71S31.22,61.19,25.93,57.54Z"/><path d="M21.45,42a9.11,9.11,0,0,0,1.75-.13,2.65,2.65,0,0,0,1.06-.44,2.22,2.22,0,0,0,.63-.81,15.79,15.79,0,0,0,.58-1.54h1.88L27,45.52H8.8V44.45a27.05,27.05,0,0,1,2.56-4.74A50.94,50.94,0,0,1,15.93,34q2.57-2.82,3.69-4.28A19.24,19.24,0,0,0,21.46,27a10.12,10.12,0,0,0,.88-2.19,8.49,8.49,0,0,0,.26-2.06,7.44,7.44,0,0,0-.53-2.93,4.33,4.33,0,0,0-1.62-2A4.84,4.84,0,0,0,17.7,17c-2.76,0-4.61,1.53-5.57,4.6H9.46V17.39a26.68,26.68,0,0,1,5-1.82A18.35,18.35,0,0,1,18.65,15q4.11,0,6.21,1.8A6.52,6.52,0,0,1,27,22a9.18,9.18,0,0,1-.23,2.16A8.36,8.36,0,0,1,26,26.13a14.44,14.44,0,0,1-1.33,2.07c-.56.73-1.18,1.48-1.86,2.24s-1.85,2-3.51,3.79A46.87,46.87,0,0,0,13.12,42Z"/><path d="M229.23,282.05A22.15,22.15,0,0,1,233.44,271H225A22.15,22.15,0,0,1,229.23,282.05Z"/><path d="M221.37,291.69a32.28,32.28,0,0,1,7.86,7.47h0a32.28,32.28,0,0,1,7.86-7.47c5.28-3.65,6.49-8.2,4.6-11.64s-9.45-5.11-12.46,1.71c-3-6.82-10.57-5.15-12.46-1.71S216.09,288,221.37,291.69Z"/><path d="M225.85,307.25a9.26,9.26,0,0,0-1.75.13,2.65,2.65,0,0,0-1.06.44,2.33,2.33,0,0,0-.63.81c-.15.33-.35.84-.58,1.53H220l.38-6.45h18.18v1.07a28.18,28.18,0,0,1-2.56,4.75,52.13,52.13,0,0,1-4.58,5.72q-2.56,2.82-3.69,4.28a19.24,19.24,0,0,0-1.84,2.75,10,10,0,0,0-.87,2.19,8.06,8.06,0,0,0-.27,2.07,7.57,7.57,0,0,0,.53,2.92,4.34,4.34,0,0,0,1.62,2,4.85,4.85,0,0,0,2.76.73c2.75,0,4.61-1.53,5.56-4.6h2.68v4.25a26.07,26.07,0,0,1-5,1.82,17.73,17.73,0,0,1-4.18.56q-4.11,0-6.21-1.8a6.5,6.5,0,0,1-2.1-5.22,9.74,9.74,0,0,1,.23-2.16,8.83,8.83,0,0,1,.73-1.94,14.58,14.58,0,0,1,1.34-2.07c.56-.73,1.18-1.48,1.85-2.24s1.85-2,3.51-3.79a46.34,46.34,0,0,0,6.17-7.75Z"/><path d="M124,85.64a44.09,44.09,0,0,1-8.36,21.94h16.72A44.09,44.09,0,0,1,124,85.64Z"/><path d="M139.61,66.51A63.91,63.91,0,0,1,124,51.68h0a63.91,63.91,0,0,1-15.6,14.83c-10.49,7.25-12.87,16.28-9.12,23.11S118,99.76,124,86.21c6,13.55,21,10.23,24.72,3.41S150.1,73.76,139.61,66.51Z"/><path d="M124,266.58a44,44,0,0,0-8.36-21.94h16.72A44,44,0,0,0,124,266.58Z"/><path d="M139.61,285.7A64.12,64.12,0,0,0,124,300.53h0a64.12,64.12,0,0,0-15.6-14.83c-10.49-7.24-12.87-16.28-9.12-23.1S118,252.45,124,266c6-13.55,21-10.22,24.72-3.4S150.1,278.46,139.61,285.7Z"/></g></g></g></svg>