<?xml version="1.0" encoding="utf-8"?>
<!-- Generator: Adobe Illustrator 25.4.1, SVG Export Plug-In . SVG Version: 6.00 Build 0)  -->
<svg version="1.1" id="Layer_1" xmlns="http://www.w3.org/2000/svg" xmlns:xlink="http://www.w3.org/1999/xlink" x="0px" y="0px"
	 viewBox="0 0 685.7 685.7" style="enable-background:new 0 0 685.7 685.7;" xml:space="preserve">
<style type="text/css">
	.st0{fill:url(#SVGID_1_);}
	.st1{opacity:0.75;}
	.st2{fill:#142E88;fill-opacity:0;}
	.st3{opacity:1.000000e-02;fill:#142E87;enable-background:new    ;}
	.st4{opacity:1.000000e-02;fill:#142D86;enable-background:new    ;}
	.st5{opacity:2.000000e-02;fill:#142D85;enable-background:new    ;}
	.st6{opacity:3.000000e-02;fill:#132D84;enable-background:new    ;}
	.st7{opacity:4.000000e-02;fill:#132C83;enable-background:new    ;}
	.st8{opacity:4.000000e-02;fill:#132C82;enable-background:new    ;}
	.st9{opacity:5.000000e-02;fill:#132C81;enable-background:new    ;}
	.st10{opacity:6.000000e-02;fill:#132B80;enable-background:new    ;}
	.st11{opacity:7.000000e-02;fill:#132B7F;enable-background:new    ;}
	.st12{opacity:7.000000e-02;fill:#132B7E;enable-background:new    ;}
	.st13{opacity:8.000000e-02;fill:#122A7D;enable-background:new    ;}
	.st14{opacity:9.000000e-02;fill:#122A7C;enable-background:new    ;}
	.st15{opacity:0.1;fill:#122A7B;enable-background:new    ;}
	.st16{opacity:0.1;fill:#12297A;enable-background:new    ;}
	.st17{opacity:0.11;fill:#122979;enable-background:new    ;}
	.st18{opacity:0.12;fill:#122978;enable-background:new    ;}
	.st19{opacity:0.13;fill:#112877;enable-background:new    ;}
	.st20{opacity:0.13;fill:#112876;enable-background:new    ;}
	.st21{opacity:0.14;fill:#112875;enable-background:new    ;}
	.st22{opacity:0.15;fill:#112774;enable-background:new    ;}
	.st23{opacity:0.15;fill:#112773;enable-background:new    ;}
	.st24{opacity:0.16;fill:#112772;enable-background:new    ;}
	.st25{opacity:0.17;fill:#112671;enable-background:new    ;}
	.st26{opacity:0.18;fill:#102670;enable-background:new    ;}
	.st27{opacity:0.18;fill:#10266F;enable-background:new    ;}
	.st28{opacity:0.19;fill:#10256E;enable-background:new    ;}
	.st29{opacity:0.2;fill:#10256D;enable-background:new    ;}
	.st30{opacity:0.21;fill:#10256C;enable-background:new    ;}
	.st31{opacity:0.21;fill:#10246B;enable-background:new    ;}
	.st32{opacity:0.22;fill:#10246A;enable-background:new    ;}
	.st33{opacity:0.23;fill:#0F2469;enable-background:new    ;}
	.st34{opacity:0.24;fill:#0F2368;enable-background:new    ;}
	.st35{opacity:0.24;fill:#0F2367;enable-background:new    ;}
	.st36{opacity:0.25;fill:#0F2266;enable-background:new    ;}
	.st37{opacity:0.26;fill:#0F2265;enable-background:new    ;}
	.st38{opacity:0.26;fill:#0F2264;enable-background:new    ;}
	.st39{opacity:0.27;fill:#0F2163;enable-background:new    ;}
	.st40{opacity:0.28;fill:#0E2162;enable-background:new    ;}
	.st41{opacity:0.29;fill:#0E2161;enable-background:new    ;}
	.st42{opacity:0.29;fill:#0E2060;enable-background:new    ;}
	.st43{opacity:0.3;fill:#0E205F;enable-background:new    ;}
	.st44{opacity:0.31;fill:#0E205E;enable-background:new    ;}
	.st45{opacity:0.32;fill:#0E1F5D;enable-background:new    ;}
	.st46{opacity:0.32;fill:#0E1F5C;enable-background:new    ;}
	.st47{opacity:0.33;fill:#0D1F5B;enable-background:new    ;}
	.st48{opacity:0.34;fill:#0D1E5A;enable-background:new    ;}
	.st49{opacity:0.35;fill:#0D1E59;enable-background:new    ;}
	.st50{opacity:0.35;fill:#0D1E58;enable-background:new    ;}
	.st51{opacity:0.36;fill:#0D1D57;enable-background:new    ;}
	.st52{opacity:0.37;fill:#0D1D56;enable-background:new    ;}
	.st53{opacity:0.38;fill:#0C1D55;enable-background:new    ;}
	.st54{opacity:0.38;fill:#0C1C54;enable-background:new    ;}
	.st55{opacity:0.39;fill:#0C1C53;enable-background:new    ;}
	.st56{opacity:0.4;fill:#0C1C52;enable-background:new    ;}
	.st57{opacity:0.4;fill:#0C1B51;enable-background:new    ;}
	.st58{opacity:0.41;fill:#0C1B50;enable-background:new    ;}
	.st59{opacity:0.42;fill:#0C1B4F;enable-background:new    ;}
	.st60{opacity:0.43;fill:#0B1A4E;enable-background:new    ;}
	.st61{opacity:0.43;fill:#0B1A4D;enable-background:new    ;}
	.st62{opacity:0.44;fill:#0B1A4C;enable-background:new    ;}
	.st63{opacity:0.45;fill:#0B194B;enable-background:new    ;}
	.st64{opacity:0.46;fill:#0B194A;enable-background:new    ;}
	.st65{opacity:0.46;fill:#0B1949;enable-background:new    ;}
	.st66{opacity:0.47;fill:#0B1848;enable-background:new    ;}
	.st67{opacity:0.48;fill:#0A1847;enable-background:new    ;}
	.st68{opacity:0.49;fill:#0A1846;enable-background:new    ;}
	.st69{opacity:0.49;fill:#0A1745;enable-background:new    ;}
	.st70{opacity:0.5;fill:#0A1744;enable-background:new    ;}
	.st71{opacity:0.51;fill:#0A1743;enable-background:new    ;}
	.st72{opacity:0.51;fill:#0A1642;enable-background:new    ;}
	.st73{opacity:0.52;fill:#0A1641;enable-background:new    ;}
	.st74{opacity:0.53;fill:#091640;enable-background:new    ;}
	.st75{opacity:0.54;fill:#09153F;enable-background:new    ;}
	.st76{opacity:0.54;fill:#09153E;enable-background:new    ;}
	.st77{opacity:0.55;fill:#09153D;enable-background:new    ;}
	.st78{opacity:0.56;fill:#09143C;enable-background:new    ;}
	.st79{opacity:0.57;fill:#09143B;enable-background:new    ;}
	.st80{opacity:0.57;fill:#09143A;enable-background:new    ;}
	.st81{opacity:0.58;fill:#081339;enable-background:new    ;}
	.st82{opacity:0.59;fill:#081338;enable-background:new    ;}
	.st83{opacity:0.6;fill:#081337;enable-background:new    ;}
	.st84{opacity:0.6;fill:#081236;enable-background:new    ;}
	.st85{opacity:0.61;fill:#081235;enable-background:new    ;}
	.st86{opacity:0.62;fill:#081234;enable-background:new    ;}
	.st87{opacity:0.62;fill:#081133;enable-background:new    ;}
	.st88{opacity:0.63;fill:#071132;enable-background:new    ;}
	.st89{opacity:0.64;fill:#071131;enable-background:new    ;}
	.st90{opacity:0.65;fill:#071030;enable-background:new    ;}
	.st91{opacity:0.65;fill:#07102F;enable-background:new    ;}
	.st92{opacity:0.66;fill:#07102E;enable-background:new    ;}
	.st93{opacity:0.67;fill:#070F2D;enable-background:new    ;}
	.st94{opacity:0.68;fill:#060F2C;enable-background:new    ;}
	.st95{opacity:0.68;fill:#060F2B;enable-background:new    ;}
	.st96{opacity:0.69;fill:#060E2A;enable-background:new    ;}
	.st97{opacity:0.7;fill:#060E29;enable-background:new    ;}
	.st98{opacity:0.71;fill:#060E28;enable-background:new    ;}
	.st99{opacity:0.71;fill:#060D27;enable-background:new    ;}
	.st100{opacity:0.72;fill:#060D26;enable-background:new    ;}
	.st101{opacity:0.73;fill:#050D25;enable-background:new    ;}
	.st102{opacity:0.74;fill:#050C24;enable-background:new    ;}
	.st103{opacity:0.74;fill:#050C23;enable-background:new    ;}
	.st104{opacity:0.75;fill:#050C22;enable-background:new    ;}
	.st105{opacity:0.76;fill:#050B21;enable-background:new    ;}
	.st106{opacity:0.76;fill:#050B20;enable-background:new    ;}
	.st107{opacity:0.77;fill:#050A1F;enable-background:new    ;}
	.st108{opacity:0.78;fill:#040A1E;enable-background:new    ;}
	.st109{opacity:0.79;fill:#040A1D;enable-background:new    ;}
	.st110{opacity:0.79;fill:#04091C;enable-background:new    ;}
	.st111{opacity:0.8;fill:#04091B;enable-background:new    ;}
	.st112{opacity:0.81;fill:#04091A;enable-background:new    ;}
	.st113{opacity:0.82;fill:#040819;enable-background:new    ;}
	.st114{opacity:0.82;fill:#040818;enable-background:new    ;}
	.st115{opacity:0.83;fill:#030817;enable-background:new    ;}
	.st116{opacity:0.84;fill:#030716;enable-background:new    ;}
	.st117{opacity:0.85;fill:#030715;enable-background:new    ;}
	.st118{opacity:0.85;fill:#030714;enable-background:new    ;}
	.st119{opacity:0.86;fill:#030613;enable-background:new    ;}
	.st120{opacity:0.87;fill:#030612;enable-background:new    ;}
	.st121{opacity:0.87;fill:#030611;enable-background:new    ;}
	.st122{opacity:0.88;fill:#020510;enable-background:new    ;}
	.st123{opacity:0.89;fill:#02050F;enable-background:new    ;}
	.st124{opacity:0.9;fill:#02050E;enable-background:new    ;}
	.st125{opacity:0.9;fill:#02040D;enable-background:new    ;}
	.st126{opacity:0.91;fill:#02040C;enable-background:new    ;}
	.st127{opacity:0.92;fill:#02040B;enable-background:new    ;}
	.st128{opacity:0.93;fill:#01030A;enable-background:new    ;}
	.st129{opacity:0.93;fill:#010309;enable-background:new    ;}
	.st130{opacity:0.94;fill:#010308;enable-background:new    ;}
	.st131{opacity:0.95;fill:#010207;enable-background:new    ;}
	.st132{opacity:0.96;fill:#010206;enable-background:new    ;}
	.st133{opacity:0.96;fill:#010205;enable-background:new    ;}
	.st134{opacity:0.97;fill:#010104;enable-background:new    ;}
	.st135{opacity:0.98;fill:#000103;enable-background:new    ;}
	.st136{opacity:0.99;fill:#000102;enable-background:new    ;}
	.st137{opacity:0.99;fill:#000001;enable-background:new    ;}
	.st138{fill:#EAEAEA;}
	.st139{fill:#142E88;}
	.st140{opacity:0.5;fill:url(#SVGID_00000036217475263925428960000004123241227425384342_);enable-background:new    ;}
	.st141{opacity:0.5;fill:url(#SVGID_00000034790230133675965280000007068411899646943408_);enable-background:new    ;}
	.st142{fill:#C6C6C6;}
	.st143{fill:none;stroke:#142E88;stroke-width:14;stroke-miterlimit:10;stroke-dasharray:49.4,49.4;}
	.st144{display:none;fill:#142E88;enable-background:new    ;}
	.st145{font-family:'Oswald-Bold';}
	.st146{font-size:183px;}
	.st147{enable-background:new    ;}
</style>
<g>
	<g id="Layer_2_00000036944729424162042000000007282455625962112188_">
		<g id="Layer_1-2">
			
				<radialGradient id="SVGID_1_" cx="342.9875" cy="854.95" r="229.7438" gradientTransform="matrix(1 0 0 1 0 -512)" gradientUnits="userSpaceOnUse">
				<stop  offset="0.93" style="stop-color:#FFFFFF"/>
				<stop  offset="0.94" style="stop-color:#FCFCFC"/>
				<stop  offset="0.95" style="stop-color:#F1F1F1"/>
				<stop  offset="0.96" style="stop-color:#E0E0E0"/>
				<stop  offset="0.97" style="stop-color:#C7C7C7"/>
				<stop  offset="0.98" style="stop-color:#A8A8A8"/>
				<stop  offset="0.98" style="stop-color:#818181"/>
				<stop  offset="0.99" style="stop-color:#535353"/>
				<stop  offset="1" style="stop-color:#1F1F1F"/>
				<stop  offset="1" style="stop-color:#000000"/>
			</radialGradient>
			<path class="st0" d="M572.7,342.9c0,13-1.1,26-3.3,38.8c-1.9,11.5-4.8,22.8-8.4,33.8c-0.8,2.4-1.6,4.8-2.5,7.1
				c-9,24.4-22.2,47.1-38.8,67.1c-1.6,1.9-3.3,3.9-4.9,5.8c-7.7,8.7-16.1,16.8-25,24.2c-29,24.2-63.6,40.8-100.6,48.4
				c-2.5,0.5-5,1-7.5,1.4c-25.7,4.3-51.9,4.3-77.6,0c-2.5-0.4-5-0.9-7.4-1.4c-37-7.6-71.6-24.2-100.6-48.4
				c-8.9-7.4-17.3-15.5-25-24.2c-1.7-1.9-3.3-3.8-4.9-5.8c-16.7-20-29.8-42.7-38.8-67.1c-0.9-2.4-1.7-4.7-2.5-7.1
				c-3.7-11-6.5-22.3-8.4-33.8c-4.3-25.7-4.3-51.9,0-77.6c1.9-11.5,4.8-22.8,8.4-33.8c0.8-2.4,1.6-4.8,2.5-7.1
				c9-24.4,22.1-47.1,38.8-67.1c1.6-1.9,3.3-3.9,4.9-5.7c25.1-28.2,56.7-49.9,92.2-63c10.9-4,22.1-7.2,33.5-9.6c2.5-0.5,5-1,7.4-1.4
				c25.7-4.3,51.9-4.3,77.6,0c2.5,0.4,5,0.9,7.5,1.4c48.6,10,92.7,35.5,125.6,72.6c1.7,1.9,3.3,3.8,4.9,5.7
				c16.7,20,29.8,42.7,38.8,67.2c0.9,2.4,1.7,4.7,2.5,7.1c3.7,11,6.5,22.3,8.4,33.8C571.6,316.9,572.7,329.9,572.7,342.9z"/>
			<g class="st1">
				<circle class="st2" cx="342.9" cy="342.9" r="210.7"/>
				<circle class="st3" cx="342.9" cy="342.9" r="210.5"/>
				<circle class="st4" cx="342.9" cy="342.9" r="210.4"/>
				<circle class="st5" cx="342.9" cy="342.9" r="210.2"/>
				<circle class="st6" cx="342.9" cy="342.9" r="210.1"/>
				<circle class="st7" cx="342.9" cy="342.9" r="209.9"/>
				<circle class="st8" cx="342.9" cy="342.9" r="209.8"/>
				<circle class="st9" cx="342.9" cy="342.9" r="209.6"/>
				<circle class="st10" cx="342.9" cy="342.9" r="209.5"/>
				<circle class="st11" cx="342.9" cy="342.9" r="209.3"/>
				<circle class="st12" cx="342.9" cy="342.9" r="209.2"/>
				<circle class="st13" cx="342.9" cy="342.9" r="209"/>
				<circle class="st14" cx="342.9" cy="342.9" r="208.8"/>
				<circle class="st15" cx="342.9" cy="342.9" r="208.7"/>
				<circle class="st16" cx="342.9" cy="342.9" r="208.5"/>
				<circle class="st17" cx="342.9" cy="342.9" r="208.4"/>
				<circle class="st18" cx="342.9" cy="342.9" r="208.2"/>
				<circle class="st19" cx="342.9" cy="342.9" r="208.1"/>
				<circle class="st20" cx="342.9" cy="342.9" r="207.9"/>
				<circle class="st21" cx="342.9" cy="342.9" r="207.8"/>
				<circle class="st22" cx="342.9" cy="342.9" r="207.6"/>
				<circle class="st23" cx="342.9" cy="342.9" r="207.5"/>
				<circle class="st24" cx="342.9" cy="342.9" r="207.3"/>
				<circle class="st25" cx="342.9" cy="342.9" r="207.1"/>
				<circle class="st26" cx="342.9" cy="342.9" r="207"/>
				<circle class="st27" cx="342.9" cy="342.9" r="206.8"/>
				<circle class="st28" cx="342.9" cy="342.9" r="206.7"/>
				<circle class="st29" cx="342.9" cy="342.9" r="206.5"/>
				<circle class="st30" cx="342.9" cy="342.9" r="206.4"/>
				<circle class="st31" cx="342.9" cy="342.9" r="206.2"/>
				<circle class="st32" cx="342.9" cy="342.9" r="206.1"/>
				<circle class="st33" cx="342.9" cy="342.9" r="205.9"/>
				<circle class="st34" cx="342.9" cy="342.9" r="205.8"/>
				<circle class="st35" cx="342.9" cy="342.9" r="205.6"/>
				<circle class="st36" cx="342.9" cy="342.9" r="205.5"/>
				<circle class="st37" cx="342.9" cy="342.9" r="205.3"/>
				<circle class="st38" cx="342.9" cy="342.9" r="205.1"/>
				<circle class="st39" cx="342.9" cy="342.9" r="205"/>
				<circle class="st40" cx="342.9" cy="342.9" r="204.8"/>
				<circle class="st41" cx="342.9" cy="342.9" r="204.7"/>
				<circle class="st42" cx="342.9" cy="342.9" r="204.5"/>
				<circle class="st43" cx="342.9" cy="342.9" r="204.4"/>
				<circle class="st44" cx="342.9" cy="342.9" r="204.2"/>
				<circle class="st45" cx="342.9" cy="342.9" r="204.1"/>
				<circle class="st46" cx="342.9" cy="342.9" r="203.9"/>
				<circle class="st47" cx="342.9" cy="342.9" r="203.8"/>
				<circle class="st48" cx="342.9" cy="342.9" r="203.6"/>
				<circle class="st49" cx="342.9" cy="342.9" r="203.4"/>
				<circle class="st50" cx="342.9" cy="342.9" r="203.3"/>
				<circle class="st51" cx="342.9" cy="342.9" r="203.1"/>
				<circle class="st52" cx="342.9" cy="342.9" r="203"/>
				<circle class="st53" cx="342.9" cy="342.9" r="202.8"/>
				<circle class="st54" cx="342.9" cy="342.9" r="202.7"/>
				<circle class="st55" cx="342.9" cy="342.9" r="202.5"/>
				<circle class="st56" cx="342.9" cy="342.9" r="202.4"/>
				<circle class="st57" cx="342.9" cy="342.9" r="202.2"/>
				<circle class="st58" cx="342.9" cy="342.9" r="202"/>
				<circle class="st59" cx="342.9" cy="342.9" r="201.9"/>
				<circle class="st60" cx="342.9" cy="342.9" r="201.7"/>
				<circle class="st61" cx="342.9" cy="342.9" r="201.6"/>
				<circle class="st62" cx="342.9" cy="342.9" r="201.4"/>
				<circle class="st63" cx="342.9" cy="342.9" r="201.3"/>
				<circle class="st64" cx="342.9" cy="342.9" r="201.1"/>
				<circle class="st65" cx="342.9" cy="342.9" r="201"/>
				<circle class="st66" cx="342.9" cy="342.9" r="200.8"/>
				<circle class="st67" cx="342.9" cy="342.9" r="200.7"/>
				<circle class="st68" cx="342.9" cy="342.9" r="200.5"/>
				<circle class="st69" cx="342.9" cy="342.9" r="200.3"/>
				<circle class="st70" cx="342.9" cy="342.9" r="200.2"/>
				<circle class="st71" cx="342.9" cy="342.9" r="200"/>
				<circle class="st72" cx="342.9" cy="342.9" r="199.9"/>
				<circle class="st73" cx="342.9" cy="342.9" r="199.7"/>
				<circle class="st74" cx="342.9" cy="342.9" r="199.6"/>
				<circle class="st75" cx="342.9" cy="342.9" r="199.4"/>
				<circle class="st76" cx="342.9" cy="342.9" r="199.3"/>
				<circle class="st77" cx="342.9" cy="342.9" r="199.1"/>
				<circle class="st78" cx="342.9" cy="342.9" r="199"/>
				<circle class="st79" cx="342.9" cy="342.9" r="198.8"/>
				<circle class="st80" cx="342.9" cy="342.9" r="198.7"/>
				<circle class="st81" cx="342.9" cy="342.9" r="198.5"/>
				<circle class="st82" cx="342.9" cy="342.9" r="198.3"/>
				<circle class="st83" cx="342.9" cy="342.9" r="198.2"/>
				<circle class="st84" cx="342.9" cy="342.9" r="198"/>
				<circle class="st85" cx="342.9" cy="342.9" r="197.9"/>
				<circle class="st86" cx="342.9" cy="342.9" r="197.7"/>
				<circle class="st87" cx="342.9" cy="342.9" r="197.6"/>
				<circle class="st88" cx="342.9" cy="342.9" r="197.4"/>
				<circle class="st89" cx="342.9" cy="342.9" r="197.3"/>
				<circle class="st90" cx="342.9" cy="342.9" r="197.1"/>
				<circle class="st91" cx="342.9" cy="342.9" r="197"/>
				<circle class="st92" cx="342.9" cy="342.9" r="196.8"/>
				<circle class="st93" cx="342.9" cy="342.9" r="196.7"/>
				<circle class="st94" cx="342.9" cy="342.9" r="196.5"/>
				<circle class="st95" cx="342.8" cy="342.8" r="196.3"/>
				<circle class="st96" cx="342.8" cy="342.8" r="196.2"/>
				<circle class="st97" cx="342.8" cy="342.8" r="196"/>
				<circle class="st98" cx="342.9" cy="342.8" r="195.9"/>
				<circle class="st99" cx="342.9" cy="342.9" r="195.7"/>
				<circle class="st100" cx="342.9" cy="342.9" r="195.6"/>
				<circle class="st101" cx="342.9" cy="342.9" r="195.4"/>
				<circle class="st102" cx="342.9" cy="342.9" r="195.3"/>
				<circle class="st103" cx="342.8" cy="342.8" r="195.1"/>
				<circle class="st104" cx="342.8" cy="342.8" r="195"/>
				<circle class="st105" cx="342.8" cy="342.8" r="194.8"/>
				<circle class="st106" cx="342.9" cy="342.8" r="194.6"/>
				<circle class="st107" cx="342.9" cy="342.9" r="194.5"/>
				<circle class="st108" cx="342.9" cy="342.9" r="194.3"/>
				<circle class="st109" cx="342.9" cy="342.9" r="194.2"/>
				<circle class="st110" cx="342.9" cy="342.9" r="194"/>
				<circle class="st111" cx="342.9" cy="342.9" r="193.9"/>
				<circle class="st112" cx="342.8" cy="342.8" r="193.7"/>
				<circle class="st113" cx="342.8" cy="342.8" r="193.6"/>
				<circle class="st114" cx="343.2" cy="343.2" r="193.4"/>
				<circle class="st115" cx="342.8" cy="342.8" r="193.2"/>
				<circle class="st116" cx="342.8" cy="342.8" r="193.1"/>
				<circle class="st117" cx="343.2" cy="343.2" r="192.9"/>
				<circle class="st118" cx="342.9" cy="342.9" r="192.8"/>
				<circle class="st119" cx="342.9" cy="342.9" r="192.6"/>
				<circle class="st120" cx="342.9" cy="342.9" r="192.5"/>
				<circle class="st121" cx="342.9" cy="342.9" r="192.3"/>
				<circle class="st122" cx="342.9" cy="342.9" r="192.2"/>
				<circle class="st123" cx="342.9" cy="342.9" r="192"/>
				<circle class="st124" cx="342.8" cy="342.8" r="191.9"/>
				<circle class="st125" cx="342.8" cy="342.8" r="191.7"/>
				<circle class="st126" cx="342.8" cy="342.8" r="191.5"/>
				<circle class="st127" cx="342.8" cy="342.8" r="191.4"/>
				<circle class="st128" cx="343.3" cy="343.3" r="191.3"/>
				<circle class="st129" cx="342.8" cy="342.8" r="191.1"/>
				<circle class="st130" cx="342.9" cy="342.9" r="190.9"/>
				<circle class="st131" cx="342.9" cy="342.9" r="190.8"/>
				<circle class="st132" cx="342.9" cy="342.9" r="190.6"/>
				<circle class="st133" cx="342.9" cy="342.9" r="190.5"/>
				<circle class="st134" cx="342.9" cy="342.9" r="190.3"/>
				<circle class="st135" cx="342.9" cy="342.9" r="190.2"/>
				<circle class="st136" cx="342.9" cy="342.9" r="190"/>
				<circle class="st137" cx="342.9" cy="342.9" r="189.9"/>
				<circle cx="342.9" cy="342.9" r="189.7"/>
			</g>
			<path class="st138" d="M685.7,342.9C685.5,531.5,532.3,684.3,343.6,684C154.9,683.8,2.2,530.6,2.4,341.9S155.9,0.5,344.5,0.8
				c147,0.2,277.3,94.4,323.7,233.8C679.9,269.5,685.7,306.1,685.7,342.9z"/>
			<path class="st139" d="M529.8,176.9c22.5,25.3,39.6,54.9,50.3,87.1c0,0.1,0.1,0.1,0.1,0.2c2.6,8,11.3,12.4,19.3,9.8
				c1-0.3,2-0.8,2.9-1.3l65.8-38c-14.7-44.1-38.1-84.7-69-119.4l-65.8,38c-7.3,4.2-9.8,13.6-5.6,20.9
				C528.3,175.1,529,176,529.8,176.9L529.8,176.9z"/>
			<path class="st139" d="M105.6,263.9c10.7-32.1,27.8-61.8,50.3-87.1l0.1-0.1c5.7-6.3,5.1-16-1.1-21.6c-0.8-0.7-1.6-1.3-2.6-1.9
				l-65.8-38c-30.9,34.7-54.3,75.3-69,119.4l65.8,38c7.3,4.2,16.7,1.7,20.9-5.7c0.5-0.9,1-1.9,1.3-2.9L105.6,263.9z"/>
			<path class="st139" d="M292.6,97.9c33.2-6.7,67.4-6.7,100.6,0h0.2c8.3,1.7,16.4-3.6,18.1-11.8c0.2-1,0.3-2.1,0.3-3.2v-76
				c-45.5-9.2-92.4-9.2-137.9,0V83c0,8.5,6.9,15.3,15.3,15.3c1.1,0,2.1-0.1,3.2-0.3L292.6,97.9z"/>
			<path class="st139" d="M580.2,421.8c-10.7,32.1-27.8,61.7-50.3,87l-0.1,0.1c-5.7,6.3-5.1,16,1.2,21.6c0.8,0.7,1.6,1.3,2.6,1.9
				l65.8,38c30.9-34.7,54.3-75.3,69-119.4l-65.8-38c-7.3-4.2-16.7-1.7-20.9,5.7c-0.5,0.9-1,1.9-1.3,2.9
				C580.2,421.7,580.2,421.7,580.2,421.8z"/>
			<path class="st139" d="M393.1,587.8c-33.2,6.7-67.4,6.7-100.6,0h-0.2c-8.3-1.7-16.4,3.6-18.1,11.8c-0.2,1-0.3,2.1-0.3,3.2v76
				c45.5,9.2,92.4,9.2,137.9,0v-76c0-8.5-6.8-15.3-15.3-15.3c-1.1,0-2.1,0.1-3.2,0.3H393.1z"/>
			<path class="st139" d="M155.9,508.9c-22.5-25.3-39.6-54.9-50.3-87l-0.1-0.2c-2.6-8-11.3-12.4-19.3-9.8c-1,0.3-2,0.8-2.9,1.3
				l-65.8,38c14.7,44.1,38.1,84.7,69,119.4l65.8-38c7.3-4.3,9.8-13.6,5.5-20.9c-0.5-0.9-1.1-1.7-1.8-2.5L155.9,508.9z"/>
			
				<linearGradient id="SVGID_00000091002951444923257130000015683652168987843462_" gradientUnits="userSpaceOnUse" x1="341.1228" y1="510.2444" x2="341.1228" y2="1197.5244" gradientTransform="matrix(1 0 0 1 0 -512)">
				<stop  offset="0" style="stop-color:#FFFFFF"/>
				<stop  offset="4.000000e-02" style="stop-color:#EFEFEF"/>
				<stop  offset="0.25" style="stop-color:#A8A8A8"/>
				<stop  offset="0.45" style="stop-color:#6C6C6C"/>
				<stop  offset="0.63" style="stop-color:#3D3D3D"/>
				<stop  offset="0.78" style="stop-color:#1C1C1C"/>
				<stop  offset="0.91" style="stop-color:#070707"/>
				<stop  offset="1" style="stop-color:#000000"/>
			</linearGradient>
			<path style="opacity:0.5;fill:url(#SVGID_00000091002951444923257130000015683652168987843462_);enable-background:new    ;" d="
				M668.3,234.6C608.5,53.9,413.6-44,232.9,15.8S-45.7,270.5,14.1,451.1S268.8,729.8,449.4,670c141.1-46.7,236.3-178.5,236.3-327.1
				C685.8,306.1,679.9,269.5,668.3,234.6z M659.6,448.2c-58.2,175.9-248.1,271.3-424,213.1c-175.8-58.2-271.2-248-213-424
				s248-271.3,424-213C584,69.8,676.7,198.2,676.7,342.9C676.7,378.7,670.9,414.3,659.6,448.2z"/>
			
				<linearGradient id="SVGID_00000000190437143924897490000010074894781199110023_" gradientUnits="userSpaceOnUse" x1="341.1228" y1="510.2444" x2="341.1228" y2="1197.5244" gradientTransform="matrix(1 0 0 1 0 -512)">
				<stop  offset="0" style="stop-color:#FFFFFF"/>
				<stop  offset="0.16" style="stop-color:#FCFCFC"/>
				<stop  offset="0.29" style="stop-color:#F2F2F2"/>
				<stop  offset="0.41" style="stop-color:#E1E1E1"/>
				<stop  offset="0.52" style="stop-color:#C9C9C9"/>
				<stop  offset="0.63" style="stop-color:#AAAAAA"/>
				<stop  offset="0.74" style="stop-color:#848484"/>
				<stop  offset="0.84" style="stop-color:#575757"/>
				<stop  offset="0.94" style="stop-color:#242424"/>
				<stop  offset="1" style="stop-color:#000000"/>
			</linearGradient>
			<path style="opacity:0.5;fill:url(#SVGID_00000000190437143924897490000010074894781199110023_);enable-background:new    ;" d="
				M668.3,234.6C608.5,53.9,413.6-44,232.9,15.8S-45.7,270.5,14.1,451.1S268.8,729.8,449.4,670c141.1-46.7,236.3-178.5,236.3-327.1
				C685.8,306.1,679.9,269.5,668.3,234.6z M659.6,448.2c-58.2,175.9-248.1,271.3-424,213.1c-175.8-58.2-271.2-248-213-424
				s248-271.3,424-213C584,69.8,676.7,198.2,676.7,342.9C676.7,378.7,670.9,414.3,659.6,448.2z"/>
			<path class="st142" d="M581.3,342.9C581.1,474,474.6,580.2,343.4,580S106,473.3,106.2,342.1S213,104.8,344.2,105
				c102.2,0.2,192.8,65.6,225,162.6C577.3,291.8,581.3,317.3,581.3,342.9z"/>
			<path class="st138" d="M564.6,342.9c0,23.8-3.8,47.4-11.3,70c-0.8,2.3-1.6,4.6-2.4,6.9c-8.7,23.6-21.4,45.5-37.5,64.8
				c-1.5,1.9-3.1,3.7-4.8,5.5c-31.8,35.8-74.3,60.4-121.2,70c-2.4,0.5-4.8,0.9-7.2,1.3c-24.8,4.2-50.1,4.2-74.8,0
				c-2.4-0.4-4.8-0.8-7.2-1.3c-46.9-9.7-89.4-34.2-121.2-70c-1.6-1.8-3.2-3.7-4.8-5.5c-16.1-19.3-28.7-41.2-37.5-64.8
				c-0.8-2.3-1.7-4.6-2.4-6.9c-3.5-10.6-6.3-21.5-8.1-32.6c-4.2-24.8-4.2-50.1,0-74.8c1.9-11.1,4.6-22,8.1-32.6
				c0.8-2.3,1.6-4.6,2.4-6.9c8.7-23.6,21.4-45.5,37.5-64.8c1.6-1.9,3.1-3.7,4.8-5.5c24.2-27.3,54.8-48.1,88.9-60.8
				c10.5-3.9,21.3-7,32.3-9.2c2.4-0.5,4.8-0.9,7.2-1.3c24.8-4.2,50.1-4.2,74.8,0c2.4,0.4,4.8,0.8,7.2,1.3c11,2.2,21.8,5.3,32.3,9.2
				c34.2,12.7,64.7,33.6,88.9,60.8c1.6,1.8,3.2,3.7,4.8,5.5c16.1,19.3,28.7,41.2,37.4,64.8c0.8,2.3,1.6,4.6,2.4,6.9
				C560.8,295.5,564.6,319.1,564.6,342.9L564.6,342.9z"/>
			<path class="st143" d="M563,342.9c0,12.4-1.1,24.9-3.2,37.1c-1.9,11-4.6,21.8-8.1,32.4c-0.8,2.3-1.6,4.6-2.4,6.8
				c-8.7,23.4-21.2,45.1-37.2,64.3c-1.5,1.9-3.1,3.7-4.7,5.5c-31.5,35.6-73.8,60-120.3,69.5c-2.4,0.5-4.7,0.9-7.1,1.3
				c-24.6,4.2-49.7,4.2-74.3,0c-2.4-0.4-4.8-0.8-7.1-1.3c-46.6-9.6-88.8-34-120.3-69.5c-1.6-1.8-3.2-3.6-4.7-5.5
				c-16-19.2-28.5-40.9-37.2-64.3c-0.8-2.3-1.6-4.5-2.4-6.8c-3.5-10.6-6.2-21.4-8.1-32.4c-4.2-24.6-4.2-49.7,0-74.3
				c1.9-11,4.6-21.8,8.1-32.4c0.8-2.3,1.6-4.6,2.4-6.8c8.7-23.4,21.2-45.1,37.2-64.3c1.5-1.9,3.1-3.7,4.7-5.5
				c31.5-35.6,73.8-60,120.3-69.5c2.4-0.5,4.8-0.9,7.1-1.3c24.6-4.2,49.7-4.2,74.3,0c2.4,0.4,4.8,0.8,7.1,1.3
				c35.5,7.3,68.6,23.2,96.4,46.3c8.6,7.1,16.6,14.9,24,23.2c1.6,1.8,3.2,3.6,4.7,5.5c16,19.2,28.5,40.9,37.2,64.3
				c0.8,2.3,1.6,4.5,2.4,6.8c3.5,10.6,6.2,21.4,8.1,32.4C561.9,318,563,330.4,563,342.9z"/>
			<circle class="st142" cx="342.9" cy="342.9" r="210.7"/>
			<circle class="st138" cx="342.9" cy="342.8" r="201.4"/>
			<text transform="matrix(1 0 0 1 310.03 415.02)" class="st144 st145 st146">1</text>
			<circle class="st139" cx="203.8" cy="98.2" r="11.7"/>
			<circle class="st139" cx="60.2" cy="340.4" r="11.7"/>
			<circle class="st139" cx="634.8" cy="340.4" r="11.7"/>
			<circle class="st139" cx="492.9" cy="92.7" r="11.7"/>
			<circle class="st139" cx="203.8" cy="598.5" r="11.7"/>
			<circle class="st139" cx="492.9" cy="593" r="11.7"/>
		</g>
	</g>
</g>
<g class="st147">
	<path class="st139" d="M334.4,415V297c-1.3,0.7-2.9,1.5-4.6,2.2c-1.7,0.7-3.5,1.5-5.4,2.3c-1.9,0.8-3.7,1.6-5.5,2.3
		c-1.8,0.7-3.4,1.5-4.8,2.2v-22.7c1.3-0.7,3.2-1.7,5.7-3c2.4-1.3,5.1-2.7,7.9-4.3c2.8-1.6,5.4-3.2,7.9-4.8c2.4-1.6,4.3-3.1,5.5-4.3
		h24V415H334.4z"/>
</g>
</svg>
