<svg id="splash-text" xmlns="http://www.w3.org/2000/svg" width="1329.5" height="1313.246" viewBox="0 0 1329.5 1313.246">
  <defs>
    <style>
      .cls-1 {
        fill: #010101;
        fill-rule: evenodd;
        opacity: 0.35;
        mix-blend-mode: overlay;
      }
    </style>
  </defs>
  <path id="BlackJack_copy_2" data-name="BlackJack copy 2" class="cls-1" d="M131.865,436.448V413.1c0-38.1-21.177-48.7-57.649-37.337l-32.55,10.143-23.53,7.331-10.589,3.3a10.724,10.724,0,0,0-7.059,9.982v271.17c0,4.506,3.137,6.806,7.059,5.584l10.589-3.3,23.53-7.331L74.216,662.5c36.472-11.364,57.649-35.167,57.649-73.261V535.167c0-25.4-12.942-37.339-32.158-39.544C118.923,481.443,131.865,461.435,131.865,436.448ZM60.1,423.173c16.079-5.01,29.02-9.452,30.2,6.157v24.577c-1.176,16.342-14.118,27.747-30.2,32.757l-18.432,5.744V428.916Zm30.2,175.74c-1.176,16.342-14.118,19.965-30.2,24.975l-18.432,5.743V535.418L60.1,529.675c16.079-5.01,29.02-1.669,30.2,13.53v55.708Zm164.286-35.624L192.618,582.6V346.653c0-4.5-3.137-6.805-7.451-5.461L158.5,349.5a10.722,10.722,0,0,0-7.059,9.982v271.17c0,4.506,3.137,6.8,7.059,5.583l5.882-1.833,28.236-8.8L254.581,606.3a11.243,11.243,0,0,0,7.451-10.1V568.341C262.032,564.244,258.5,562.067,254.581,563.289Zm176.443-19.75L389.455,285.321c-0.393-4.384-4.314-6.439-8.628-5.094l-15.3,4.765-18.824,5.866-15.294,4.765c-3.922,1.222-7.843,5.721-8.628,10.471l-41.177,284c-0.785,4.75,2.353,7.05,6.274,5.828l26.668-8.31a12.849,12.849,0,0,0,8.235-10.348l5.491-38.577,55.687-17.352,5.491,35.155c0.784,4.262,4.313,6.439,8.627,5.1l26.668-8.309A9.378,9.378,0,0,0,431.024,543.539ZM334.943,493.19L356.12,349.368,377.3,479.993Zm179.193-254.5-10.589,3.3c-36.864,11.486-60.786,50.072-60.786,88.167V478.438c0,38.1,23.922,61.772,60.786,50.286l10.589-3.3c36.471-11.365,60.393-49.95,60.393-88.045V414.032c0-4.1-3.137-6.805-7.451-5.461L540.8,416.758a11.244,11.244,0,0,0-7.451,10.1v17.614c0,17.614-7.843,34.395-24.314,39.527-17.256,5.376-24.707-6.639-24.707-24.252V322.937c0-17.614,7.451-34.273,24.707-39.649,16.471-5.132,24.314,6.76,24.314,24.374v19.252c0,4.1,3.137,6.4,7.451,5.052l26.275-8.187a10.726,10.726,0,0,0,7.451-9.695V289.1C574.529,251,550.607,227.325,514.136,238.689Zm207.028-64.508L694.5,182.49c-3.922,1.222-8.628,5.965-10.589,11.082,0,0-22.745,60.748-48.628,129.027V208.724c0-4.5-3.138-6.8-7.059-5.583l-26.668,8.309a10.827,10.827,0,0,0-7.451,10.105v271.17c0,4.506,3.137,6.8,7.451,5.461l26.668-8.309a10.726,10.726,0,0,0,7.059-9.982V419.27c3.529-9.292,7.451-19.525,11.372-29.759l36.864,75.353c1.569,4.018,6.275,5.828,10.589,4.484l26.667-8.309c3.922-1.222,5.883-5.11,3.922-9,0,0-28.628-57.848-57.649-117.213l58.433-154.2C727.439,175.5,725.478,172.837,721.164,174.181ZM823.1,142.419l-26.668,8.31a10.724,10.724,0,0,0-7.059,9.982V364.7c0,16.794-7.059,32.921-22.353,38.916l-17.648,5.5c-3.921,1.222-7.451,5.6-7.451,9.695v27.855c0,4.506,3.53,6.683,7.451,5.461l17.648-5.5,1.568-.489,1.569-.489c36.472-11.364,60.394-49.949,60.394-88.044V147.88C830.549,143.375,827.019,141.2,823.1,142.419ZM987.783,370.058L946.214,111.84c-0.392-4.383-4.314-6.438-8.628-5.094l-15.294,4.765-18.824,5.866-15.295,4.765c-3.922,1.222-7.843,5.721-8.628,10.471l-41.177,284c-0.784,4.75,2.353,7.05,6.275,5.828l26.667-8.309a12.849,12.849,0,0,0,8.235-10.349l5.491-38.577,55.687-17.352,5.491,35.155c0.784,4.262,4.314,6.439,8.627,5.1l26.668-8.309A9.377,9.377,0,0,0,987.783,370.058ZM891.7,319.71L912.88,175.887l21.177,130.625Zm179.187-254.5-10.58,3.3c-36.87,11.486-60.79,50.072-60.79,88.167V304.957c0,38.1,23.92,61.772,60.79,50.286l10.58-3.3c36.48-11.364,60.4-49.95,60.4-88.045V240.551c0-4.1-3.14-6.8-7.45-5.461l-26.28,8.187a11.249,11.249,0,0,0-7.45,10.105V271c0,17.614-7.84,34.395-24.31,39.527-17.26,5.377-24.71-6.638-24.71-24.252V149.456c0-17.614,7.45-34.273,24.71-39.649,16.47-5.132,24.31,6.761,24.31,24.374v19.253c0,4.1,3.14,6.4,7.45,5.051l26.28-8.187a10.731,10.731,0,0,0,7.45-9.695V115.616C1131.29,77.521,1107.37,53.844,1070.89,65.208ZM1277.92,0.7l-26.66,8.309c-3.93,1.222-8.63,5.965-10.59,11.082,0,0-22.75,60.748-48.63,129.028V35.244c0-4.506-3.14-6.805-7.06-5.583l-26.67,8.309a10.83,10.83,0,0,0-7.45,10.1v271.17c0,4.506,3.14,6.8,7.45,5.461l26.67-8.309a10.727,10.727,0,0,0,7.06-9.982V245.79c3.53-9.293,7.45-19.526,11.37-29.76l36.87,75.354c1.56,4.017,6.27,5.827,10.58,4.483l26.67-8.309c3.92-1.222,5.88-5.11,3.92-9,0,0-28.63-57.848-57.65-117.213l58.44-154.2C1284.2,2.022,1282.24-.644,1277.92.7Z" transform="translate(-0.5 -0.344)"/>
  <path id="BlackJack_copy_3" data-name="BlackJack copy 3" class="cls-1" d="M178.865,1066.45V1043.1c0-38.1-21.177-48.7-57.649-37.34l-32.549,10.15-23.53,7.33-10.588,3.3a10.715,10.715,0,0,0-7.059,9.98v271.17c0,4.51,3.137,6.8,7.059,5.58,0,0,4.706-1.46,10.588-3.3l23.53-7.33,32.549-10.14c36.472-11.36,57.649-35.17,57.649-73.26v-54.07c0-25.4-12.942-37.34-32.158-39.55C165.923,1111.44,178.865,1091.44,178.865,1066.45ZM107.1,1053.17c16.079-5.01,29.021-9.45,30.2,6.16v24.58c-1.176,16.34-14.118,27.74-30.2,32.75l-18.431,5.75v-63.49Zm30.2,175.74c-1.176,16.35-14.118,19.97-30.2,24.98l-18.431,5.74v-94.21l18.432-5.75c16.079-5.01,29.021-1.66,30.2,13.53v55.71Zm164.286-35.62-61.963,19.31V976.653c0-4.5-3.137-6.805-7.451-5.461L205.5,979.5a10.722,10.722,0,0,0-7.059,9.982V1260.65c0,4.51,3.137,6.81,7.059,5.59,0,0,2.353-.74,5.882-1.84l28.236-8.79,61.963-19.31a11.246,11.246,0,0,0,7.451-10.11v-27.85C309.032,1194.24,305.5,1192.07,301.581,1193.29Zm176.443-19.75L436.455,915.321c-0.393-4.384-4.314-6.439-8.628-5.094l-15.3,4.765-18.824,5.866-15.294,4.765c-3.922,1.222-7.843,5.721-8.628,10.471L328.609,1220.1c-0.785,4.75,2.353,7.04,6.274,5.82l26.668-8.31a12.846,12.846,0,0,0,8.235-10.35l5.491-38.57,55.687-17.35,5.491,35.15c0.784,4.26,4.313,6.44,8.627,5.1l26.668-8.31A9.389,9.389,0,0,0,478.024,1173.54Zm-96.081-50.35L403.12,979.368,424.3,1109.99Zm179.193-254.5-10.589,3.3c-36.864,11.486-60.786,50.072-60.786,88.167V1108.44c0,38.09,23.922,61.77,60.786,50.28l10.589-3.3c36.471-11.36,60.393-49.94,60.393-88.04v-23.35c0-4.09-3.137-6.8-7.451-5.46l-26.275,8.19a11.241,11.241,0,0,0-7.451,10.1v17.62c0,17.61-7.843,34.39-24.314,39.52-17.256,5.38-24.707-6.64-24.707-24.25V952.937c0-17.614,7.451-34.273,24.707-39.649,16.471-5.132,24.314,6.76,24.314,24.374v19.252c0,4.1,3.137,6.4,7.451,5.052l26.275-8.187a10.726,10.726,0,0,0,7.451-9.7V919.1C621.529,881,597.607,857.325,561.136,868.689Zm207.028-64.508L741.5,812.49c-3.922,1.222-8.628,5.965-10.589,11.082,0,0-22.745,60.748-48.628,129.027V838.724c0-4.5-3.138-6.805-7.059-5.583l-26.668,8.309a10.827,10.827,0,0,0-7.451,10.1V1122.73c0,4.5,3.137,6.8,7.451,5.46l26.668-8.31a10.739,10.739,0,0,0,7.059-9.99v-60.62c3.529-9.29,7.451-19.53,11.372-29.76l36.864,75.35c1.569,4.02,6.275,5.83,10.589,4.49l26.667-8.31c3.922-1.22,5.883-5.11,3.922-9.01,0,0-28.628-57.84-57.649-117.209l58.433-154.2C774.439,805.5,772.478,802.837,768.164,804.181ZM870.1,772.419l-26.668,8.31a10.724,10.724,0,0,0-7.059,9.982V994.7c0,16.8-7.059,32.917-22.353,38.917l-17.648,5.5c-3.921,1.22-7.451,5.6-7.451,9.69v27.86c0,4.5,3.53,6.68,7.451,5.46l17.648-5.5c0.784-.25,1.176-0.37,1.568-0.49l1.569-.49c36.472-11.36,60.394-49.95,60.394-88.043V777.88C877.549,773.375,874.019,771.2,870.1,772.419ZM1034.78,1000.06L993.214,741.84c-0.392-4.383-4.314-6.438-8.628-5.094l-15.294,4.765-18.824,5.866-15.295,4.765c-3.922,1.222-7.843,5.721-8.628,10.471l-41.177,284c-0.784,4.75,2.353,7.05,6.275,5.83l26.667-8.31a12.845,12.845,0,0,0,8.235-10.35l5.491-38.573,55.687-17.352,5.491,35.155c0.784,4.26,4.314,6.44,8.626,5.09l26.67-8.3A9.378,9.378,0,0,0,1034.78,1000.06ZM938.7,949.71L959.88,805.887l21.177,130.625Zm179.187-254.5-10.58,3.3c-36.87,11.487-60.79,50.072-60.79,88.167V934.957c0,38.1,23.92,61.772,60.79,50.286l10.58-3.3c36.48-11.364,60.4-49.95,60.4-88.045V870.551c0-4.1-3.14-6.805-7.45-5.461l-26.28,8.187a11.249,11.249,0,0,0-7.45,10.1V901c0,17.614-7.84,34.395-24.31,39.527-17.26,5.377-24.71-6.638-24.71-24.252V779.456c0-17.614,7.45-34.273,24.71-39.649,16.47-5.132,24.31,6.761,24.31,24.374v19.253c0,4.1,3.14,6.395,7.45,5.051l26.28-8.187a10.731,10.731,0,0,0,7.45-9.7V745.616C1178.29,707.521,1154.37,683.844,1117.89,695.208ZM1324.92,630.7l-26.66,8.309c-3.93,1.222-8.63,5.965-10.59,11.082,0,0-22.75,60.748-48.63,129.028V665.244c0-4.506-3.14-6.806-7.06-5.584l-26.67,8.309a10.832,10.832,0,0,0-7.45,10.1v271.17c0,4.506,3.14,6.8,7.45,5.461l26.67-8.309a10.727,10.727,0,0,0,7.06-9.982V875.79c3.53-9.293,7.45-19.526,11.37-29.76l36.87,75.354c1.56,4.017,6.27,5.827,10.58,4.483l26.67-8.309c3.92-1.222,5.88-5.11,3.92-9,0,0-28.63-57.848-57.65-117.213l58.44-154.2C1331.2,632.022,1329.24,629.356,1324.92,630.7Z" transform="translate(-0.5 -0.344)"/>
</svg>
