<?xml version="1.0" encoding="utf-8"?>
<!-- Generator: Adobe Illustrator 25.4.1, SVG Export Plug-In . SVG Version: 6.00 Build 0)  -->
<svg version="1.1" id="splash-text" xmlns="http://www.w3.org/2000/svg" xmlns:xlink="http://www.w3.org/1999/xlink" x="0px"
	 y="0px" viewBox="0 0 1282.5 683.2" style="enable-background:new 0 0 1282.5 683.2;" xml:space="preserve">
<style type="text/css">
	.st0{opacity:0.35;fill-rule:evenodd;clip-rule:evenodd;fill:#010101;enable-background:new    ;}
</style>
<path id="BlackJack_copy_3" class="st0" d="M131.4,436.1v-23.3c0-38.1-21.2-48.7-57.6-37.3l-32.5,10.2l-23.5,7.3l-10.6,3.3
	c-4.2,1.5-7,5.5-7.1,10v271.2c0,4.5,3.1,6.8,7.1,5.6c0,0,4.7-1.5,10.6-3.3l23.5-7.3l32.5-10.1c36.5-11.4,57.6-35.2,57.6-73.3v-54.1
	c0-25.4-12.9-37.3-32.2-39.6C118.4,481.1,131.4,461.1,131.4,436.1z M59.6,422.8c16.1-5,29-9.4,30.2,6.2v24.6
	c-1.2,16.3-14.1,27.7-30.2,32.8l-18.4,5.8v-63.5L59.6,422.8z M89.8,598.6c-1.2,16.3-14.1,20-30.2,25l-18.4,5.7v-94.2l18.4-5.8
	c16.1-5,29-1.7,30.2,13.5L89.8,598.6L89.8,598.6z M254.1,562.9l-62,19.3V346.3c0-4.5-3.1-6.8-7.5-5.5l-26.7,8.3
	c-4.2,1.5-7,5.5-7.1,10v271.2c0,4.5,3.1,6.8,7.1,5.6c0,0,2.4-0.7,5.9-1.8l28.2-8.8l62-19.3c4.3-1.5,7.3-5.5,7.5-10.1V568
	C261.5,563.9,258,561.7,254.1,562.9L254.1,562.9z M430.5,543.2L389,285c-0.4-4.4-4.3-6.4-8.6-5.1l-15.3,4.8l-18.8,5.9l-15.3,4.8
	c-3.9,1.2-7.8,5.7-8.6,10.5l-41.2,284c-0.8,4.8,2.4,7,6.3,5.8l26.7-8.3c4.4-1.7,7.6-5.6,8.2-10.3l5.5-38.6l55.7-17.3l5.5,35.2
	c0.8,4.3,4.3,6.4,8.6,5.1l26.7-8.3C428.3,551.5,430.9,547.5,430.5,543.2L430.5,543.2z M334.5,492.8L355.6,349l21.2,130.6
	L334.5,492.8z M513.7,238.3l-10.6,3.3c-36.9,11.5-60.8,50.1-60.8,88.2v148.3c0,38.1,23.9,61.8,60.8,50.3l10.6-3.3
	c36.5-11.4,60.4-49.9,60.4-88v-23.3c0-4.1-3.1-6.8-7.5-5.5l-26.3,8.2c-4.3,1.5-7.3,5.5-7.5,10.1v17.6c0,17.6-7.8,34.4-24.3,39.5
	c-17.3,5.4-24.7-6.6-24.7-24.2V322.6c0-17.6,7.5-34.3,24.7-39.6c16.5-5.1,24.3,6.8,24.3,24.4v19.3c0,4.1,3.1,6.4,7.5,5.1l26.3-8.2
	c4.3-1.4,7.2-5.2,7.5-9.7v-25C574,250.6,550.1,227,513.7,238.3L513.7,238.3z M720.7,173.8l-26.7,8.3c-3.9,1.2-8.6,6-10.6,11.1
	c0,0-22.7,60.7-48.6,129V208.4c0-4.5-3.1-6.8-7.1-5.6l-26.7,8.3c-4.4,1.4-7.4,5.5-7.5,10.1v271.2c0,4.5,3.1,6.8,7.5,5.5l26.7-8.3
	c4.2-1.5,7-5.5,7.1-10v-60.6c3.5-9.3,7.5-19.5,11.4-29.8l36.9,75.3c1.6,4,6.3,5.8,10.6,4.5l26.7-8.3c3.9-1.2,5.9-5.1,3.9-9
	c0,0-28.6-57.8-57.6-117.2L725,180.3C726.9,175.1,725,172.5,720.7,173.8L720.7,173.8z M822.6,142.1l-26.7,8.3c-4.2,1.5-7,5.5-7.1,10
	v204c0,16.8-7.1,32.9-22.4,38.9l-17.6,5.5c-3.9,1.2-7.5,5.6-7.5,9.7v27.9c0,4.5,3.5,6.7,7.5,5.5l17.6-5.5c0.8-0.2,1.2-0.4,1.6-0.5
	l1.6-0.5c36.5-11.4,60.4-49.9,60.4-88V147.5C830.1,143,826.5,140.8,822.6,142.1z M987.3,369.7l-41.6-258.2c-0.4-4.4-4.3-6.4-8.6-5.1
	l-15.3,4.8L903,117l-15.3,4.8c-3.9,1.2-7.8,5.7-8.6,10.5l-41.2,284c-0.8,4.8,2.4,7.1,6.3,5.8l26.7-8.3c4.4-1.7,7.6-5.6,8.2-10.3
	l5.5-38.6l55.7-17.4l5.5,35.2c0.8,4.3,4.3,6.4,8.6,5.1l26.7-8.3C985.1,378,987.7,374,987.3,369.7z M891.2,319.4l21.2-143.8
	l21.2,130.6L891.2,319.4z M1070.4,64.9l-10.6,3.3c-36.9,11.5-60.8,50.1-60.8,88.2v148.3c0,38.1,23.9,61.8,60.8,50.3l10.6-3.3
	c36.5-11.4,60.4-50,60.4-88v-23.3c0-4.1-3.1-6.8-7.4-5.5l-26.3,8.2c-4.3,1.5-7.2,5.5-7.4,10.1v17.6c0,17.6-7.8,34.4-24.3,39.5
	c-17.3,5.4-24.7-6.6-24.7-24.3V149.1c0-17.6,7.4-34.3,24.7-39.6c16.5-5.1,24.3,6.8,24.3,24.4v19.3c0,4.1,3.1,6.4,7.4,5.1l26.3-8.2
	c4.3-1.4,7.2-5.2,7.4-9.7v-25C1130.8,77.2,1106.9,53.5,1070.4,64.9L1070.4,64.9z M1277.4,0.3l-26.7,8.3c-3.9,1.2-8.6,6-10.6,11.1
	c0,0-22.8,60.7-48.6,129V34.9c0-4.5-3.1-6.8-7.1-5.6l-26.7,8.3c-4.4,1.4-7.4,5.5-7.4,10.1v271.2c0,4.5,3.1,6.8,7.4,5.5l26.7-8.3
	c4.2-1.5,7-5.5,7.1-10v-60.6c3.5-9.3,7.4-19.5,11.4-29.8l36.9,75.4c1.6,4,6.3,5.8,10.6,4.5l26.7-8.3c3.9-1.2,5.9-5.1,3.9-9
	c0,0-28.6-57.8-57.7-117.2l58.4-154.2C1283.7,1.7,1281.8-1,1277.4,0.3z"/>
</svg>
