<?xml version="1.0" encoding="utf-8"?>
<!-- Generator: Adobe Illustrator 25.4.1, SVG Export Plug-In . SVG Version: 6.00 Build 0)  -->
<svg version="1.1" id="Layer_1" xmlns="http://www.w3.org/2000/svg" xmlns:xlink="http://www.w3.org/1999/xlink" x="0px" y="0px"
	 viewBox="0 0 55 50" style="enable-background:new 0 0 55 50;" xml:space="preserve">
<style type="text/css">
	.st0{display:none;fill-rule:evenodd;clip-rule:evenodd;fill:#FFFFFF;stroke:#FFFFFF;stroke-linejoin:round;}
	.st1{fill:#FFFFFF;}
	.st2{fill:#FFFFFF;stroke:#FFFFFF;stroke-width:2;stroke-miterlimit:10;}
</style>
<path id="cards-icon" class="st0" d="M30.7,1L31,2.3l22.7,6.3C54,8.7,54.2,9,54.1,9.3L43.9,49.1c-0.1,0.3-0.4,0.5-0.7,0.4
	c-5.2-1.4-10.4-3-15.7-4.4l-15.7,4.4c-0.3,0.1-0.6-0.1-0.7-0.4L1,9.3C0.9,9,1.1,8.7,1.4,8.6l0,0l22.7-6.3c0.1-0.4,0.2-0.9,0.4-1.4
	c0.1-0.2,0.3-0.4,0.6-0.3c0.8,0.2,1.7,0.5,2.5,0.7l2.5-0.7C30.4,0.6,30.7,0.8,30.7,1L30.7,1L30.7,1z M29.8,1.9L2.2,9.6l9.9,38.6
	l27.6-7.7L29.8,1.9z M31.4,3.6l4.5,17.5c0.8-0.3,1.6-0.4,2.4-0.2c1.6,0.5,2.1,1.9,1.7,3.6c-0.6,1.1-1.4,2.1-2.5,2.7L41,40.8
	c0.1,0.3-0.1,0.6-0.4,0.7l-0.5,0.1c0.2,0.2,0.3,0.3,0.5,0.5c0.4-0.1,0.8-0.2,1.3-0.1c0.5,0.1,0.9,0.7,0.7,1.2c0,0.1,0,0.1-0.1,0.2
	c-0.2,0.8-1.9,1.5-2.8,2.1c-0.5-1-1.5-2.7-1.4-3.4c0,0-5.9,1.6-8.6,2.4L43,48.2L53,9.6L31.4,3.6z M26.8,4.5C27.6,5,29,5.3,29.3,6.4
	c0,0.8-0.7,1.4-1.4,1.4l0,0c0.1,0.4,0.2,0.7,0.5,1L27.5,9c0.1-0.4,0.1-0.8-0.1-1.2c-0.6,0.4-1.4,0.3-1.8-0.4c0,0,0,0,0-0.1
	C25.3,6.3,26.3,5.3,26.8,4.5L26.8,4.5L26.8,4.5z M47.7,9.9c0.4,0.2,0.7,0.4,1,0.8c0.4-0.1,0.9-0.2,1.3-0.1c0.5,0.1,0.9,0.7,0.7,1.2
	c0,0.1,0,0.1,0,0.2c-0.2,0.8-1.9,1.5-2.8,2.1c-0.5-1-1.5-2.6-1.4-3.3c0-0.5,0.4-0.9,0.9-0.9C47.5,9.8,47.6,9.8,47.7,9.9L47.7,9.9
	L47.7,9.9z M6.5,10.2c-0.1,0.4,0,0.8,0.1,1.2C7.2,11,8,11.2,8.4,11.8c0,0,0,0,0,0.1C8.7,13,7.6,14,7.2,14.8C6.4,14.3,5,14,4.7,12.9
	c0-0.8,0.6-1.4,1.4-1.3l0,0c-0.1-0.4-0.2-0.8-0.5-1.1L6.5,10.2z M19.6,19.5c2,1.2,5.6,2,6.3,4.7c0.4,1.7-1.9,3.5-3.7,3.4
	c0.2,1,0.6,1.9,1.3,2.6l-2.1,0.6c0.2-1,0.2-2-0.2-2.9c-1.5,1-4.4,0.6-4.8-1C15.6,24.2,18.4,21.6,19.6,19.5L19.6,19.5L19.6,19.5z
	 M35.2,35.3c-0.1,0.4-0.1,0.8,0.1,1.2c0.6-0.4,1.4-0.3,1.8,0.4c0,0,0,0,0,0.1c0.3,1.1-0.8,2.1-1.2,2.9c-0.8-0.5-2.2-0.8-2.5-1.9
	c0-0.8,0.6-1.4,1.4-1.4l0,0c-0.1-0.4-0.2-0.7-0.5-1L35.2,35.3z M14,41.2c0.8,0.5,2.2,0.8,2.5,1.9c0,0.8-0.6,1.4-1.4,1.3l0,0
	c0.1,0.4,0.2,0.8,0.5,1.1l-0.8,0.2c0.1-0.4,0.1-0.8-0.1-1.2c-0.6,0.4-1.4,0.3-1.9-0.4l0,0C12.5,43,13.6,42,14,41.2L14,41.2L14,41.2z
	"/>
<path class="st1" d="M12,42L12,42c0-0.7-0.5-1.2-1.1-1.2c-0.6,0-1.1,0.5-1.1,1.1V42c-0.6,0.1-0.9,0.6-0.9,1.1c0,0.6,0.5,1.1,1.1,1.1
	c0.1,0,0.2,0,0.3,0L10,45h1.6l-0.2-0.8c0.1,0,0.2,0,0.3,0c0.6,0,1.1-0.5,1.1-1.1C12.9,42.6,12.5,42.1,12,42L12,42z"/>
<path class="st1" d="M34,5.8L34,5.8c0-0.7-0.5-1.2-1.1-1.2S31.7,5,31.7,5.7v0.1c-0.5,0.1-0.9,0.6-0.9,1.1c0,0.6,0.5,1.1,1.1,1.1
	c0.1,0,0.2,0,0.3,0L32,8.7h1.6L33.4,8c0.1,0,0.2,0,0.3,0c0.6,0,1.1-0.5,1.1-1.1C34.9,6.3,34.5,5.9,34,5.8L34,5.8z"/>
<path class="st1" d="M46.3,8.9L46.3,8.9c0.1-0.7-0.3-1.2-0.9-1.3c-0.6-0.1-1.2,0.3-1.3,0.9v0.1c-0.5,0-0.9,0.4-1,0.9
	c-0.1,0.6,0.3,1.1,0.9,1.2h0.3l-0.3,0.7l1.5,0.2l0-0.7c0.1,0,0.1,0,0.2,0c0.6,0.1,1.2-0.3,1.3-0.9C47,9.6,46.7,9.1,46.3,8.9
	L46.3,8.9z"/>
<path class="st2" d="M48.1,4.9l-9.8-1.5c-0.6-1-1.6-1.7-2.8-1.7H8.8C7,1.6,5.6,3.1,5.6,4.9v40.1c0,1.8,1.5,3.2,3.2,3.2h26.6
	c0.8,0,1.5-0.3,2-0.7l3.9,0.6c1.7,0.3,3.3-0.9,3.5-2.5l5.8-37.2C50.8,6.7,49.7,5.1,48.1,4.9L48.1,4.9z M35.4,46.7H8.8
	c-0.9,0-1.8-0.8-1.8-1.8v-40c0-1,0.8-1.8,1.8-1.8h26.6c0.9,0,1.8,0.8,1.8,1.8V45C37.2,45.9,36.3,46.7,35.4,46.7L35.4,46.7z
	 M49.2,8.1l-5.8,37.2c-0.1,0.9-1,1.5-1.9,1.4l-3.1-0.5c0.1-0.4,0.2-0.8,0.2-1.2l0-40.1v0l9.2,1.4C48.7,6.4,49.3,7.2,49.2,8.1
	L49.2,8.1z"/>
<g>
	<path class="st1" d="M23.2,27.2c-0.2,2-0.9,4-2.1,5.6h4.3C24.1,31.2,23.3,29.2,23.2,27.2z"/>
	<path class="st1" d="M26.3,23.4c-0.4,0-0.8,0.1-1.2,0.3h0c1.4-1,1.6-3,0.6-4.3c-1-1.4-3-1.6-4.3-0.6c-1.4,1-1.6,3-0.6,4.3
		c0.2,0.3,0.5,0.5,0.8,0.7c-1.5-0.8-3.4-0.2-4.2,1.4s-0.2,3.4,1.4,4.2c1.5,0.8,3.4,0.2,4.2-1.4c0.2-0.4,0.3-0.8,0.3-1.2l0,0
		c0.1,1.7,1.5,3,3.2,2.9c1.7-0.1,3-1.5,2.9-3.2C29.3,24.7,27.9,23.5,26.3,23.4L26.3,23.4z"/>
</g>
</svg>
