<?xml version="1.0" encoding="utf-8"?>
<!-- Generator: Adobe Illustrator 26.0.3, SVG Export Plug-In . SVG Version: 6.00 Build 0)  -->
<svg version="1.1" id="Layer_1" xmlns="http://www.w3.org/2000/svg" xmlns:xlink="http://www.w3.org/1999/xlink" x="0px" y="0px"
	 viewBox="0 0 40.8 58.1" style="enable-background:new 0 0 40.8 58.1;" xml:space="preserve">
<style type="text/css">
	.st0{fill:#FFFFFF;}
</style>
<path class="st0" d="M2.4,0h36c1.3,0,2.4,1.1,2.4,2.4c0,0,0,0,0,0v53.3c0,1.3-1.1,2.4-2.4,2.4c0,0,0,0,0,0h-36C1.1,58.1,0,57,0,55.7
	c0,0,0,0,0,0V2.4C0,1.1,1.1,0,2.4,0C2.4,0,2.4,0,2.4,0z"/>
<path d="M20.9,40.3c-0.4,4.8-2.2,9.3-5,13.2h10C23,49.6,21.3,45,20.9,40.3z"/>
<path d="M28.1,31.5c-1,0-1.9,0.2-2.8,0.6l-0.1,0c3.2-2.4,3.8-7,1.4-10.2s-7-3.8-10.2-1.4s-3.8,7-1.4,10.2c0.5,0.6,1.1,1.2,1.8,1.7
	c-3.6-1.8-8-0.4-9.8,3.2s-0.4,8,3.2,9.8s8,0.4,9.8-3.2c0.5-0.9,0.7-1.9,0.8-2.9l0,0c0.2,4,3.6,7.1,7.6,6.9s7.1-3.6,6.9-7.6
	C35.2,34.6,32,31.5,28.1,31.5L28.1,31.5z"/>
</svg>
