<svg xmlns="http://www.w3.org/2000/svg" xmlns:xlink="http://www.w3.org/1999/xlink" viewBox="0 0 286.92 401.67"><defs><style>.cls-1{mask:url(#mask);filter:url(#luminosity-noclip-6);}.cls-10,.cls-14,.cls-16,.cls-2,.cls-4,.cls-6,.cls-8{mix-blend-mode:multiply;}.cls-2{fill:url(#radial-gradient);}.cls-3{mask:url(#mask-2);filter:url(#luminosity-noclip-7);}.cls-4{fill:url(#radial-gradient-2);}.cls-5{mask:url(#mask-3);filter:url(#luminosity-noclip-8);}.cls-6{fill:url(#radial-gradient-3);}.cls-7{mask:url(#mask-4);filter:url(#luminosity-noclip-9);}.cls-8{fill:url(#radial-gradient-4);}.cls-9{mask:url(#mask-5);filter:url(#luminosity-noclip-10);}.cls-10{fill:url(#radial-gradient-5);}.cls-11{isolation:isolate;}.cls-12{fill:#fff;}.cls-13{mask:url(#mask-6);}.cls-14{fill:url(#radial-gradient-6);}.cls-15{mask:url(#mask-7);}.cls-16{fill:url(#radial-gradient-7);}.cls-17{mask:url(#mask-8);}.cls-18{fill:url(#radial-gradient-8);}.cls-19{mask:url(#mask-9);}.cls-20{mix-blend-mode:screen;fill:url(#radial-gradient-9);}.cls-21{mask:url(#mask-10);}.cls-22{fill:url(#radial-gradient-10);}.cls-23{filter:url(#luminosity-noclip-5);}.cls-24{filter:url(#luminosity-noclip-4);}.cls-25{filter:url(#luminosity-noclip-3);}.cls-26{filter:url(#luminosity-noclip-2);}.cls-27{filter:url(#luminosity-noclip);}</style><filter id="luminosity-noclip" x="0.01" y="-8605.97" width="286.91" height="32766" filterUnits="userSpaceOnUse" color-interpolation-filters="sRGB"><feFlood flood-color="#fff" result="bg"/><feBlend in="SourceGraphic" in2="bg"/></filter><mask id="mask" x="0.01" y="-8605.97" width="286.91" height="32766" maskUnits="userSpaceOnUse"><g class="cls-27"/></mask><radialGradient id="radial-gradient" cx="139.02" cy="-136.93" r="580.83" gradientUnits="userSpaceOnUse"><stop offset="0.62"/><stop offset="0.75" stop-color="#020202"/><stop offset="0.8" stop-color="#090909"/><stop offset="0.84" stop-color="#151515"/><stop offset="0.87" stop-color="#262626"/><stop offset="0.9" stop-color="#3c3c3c"/><stop offset="0.92" stop-color="#585858"/><stop offset="0.94" stop-color="#797979"/><stop offset="0.96" stop-color="#9f9f9f"/><stop offset="0.98" stop-color="#cbcbcb"/><stop offset="1" stop-color="#f9f9f9"/><stop offset="1" stop-color="#fff"/></radialGradient><filter id="luminosity-noclip-2" x="0.01" y="-8605.97" width="286.91" height="32766" filterUnits="userSpaceOnUse" color-interpolation-filters="sRGB"><feFlood flood-color="#fff" result="bg"/><feBlend in="SourceGraphic" in2="bg"/></filter><mask id="mask-2" x="0.01" y="-8605.97" width="286.91" height="32766" maskUnits="userSpaceOnUse"><g class="cls-26"/></mask><radialGradient id="radial-gradient-2" cx="144.77" cy="370.66" r="416.2" gradientUnits="userSpaceOnUse"><stop offset="0.62"/><stop offset="0.71" stop-color="#020202"/><stop offset="0.76" stop-color="#0a0a0a"/><stop offset="0.8" stop-color="#181818"/><stop offset="0.84" stop-color="#2c2c2c"/><stop offset="0.88" stop-color="#464646"/><stop offset="0.91" stop-color="#656565"/><stop offset="0.94" stop-color="#8a8a8a"/><stop offset="0.96" stop-color="#b6b6b6"/><stop offset="0.99" stop-color="#e5e5e5"/><stop offset="1" stop-color="#fff"/></radialGradient><filter id="luminosity-noclip-3" x="0" y="-8605.97" width="0.58" height="32766" filterUnits="userSpaceOnUse" color-interpolation-filters="sRGB"><feFlood flood-color="#fff" result="bg"/><feBlend in="SourceGraphic" in2="bg"/></filter><mask id="mask-3" x="0" y="-8605.97" width="0.58" height="32766" maskUnits="userSpaceOnUse"><g class="cls-25"/></mask><radialGradient id="radial-gradient-3" cx="929.81" cy="-0.18" r="462.07" gradientTransform="matrix(-1, 0, 0, 1, 1228.9, 0)" gradientUnits="userSpaceOnUse"><stop offset="0.1"/><stop offset="1" stop-color="#fff"/></radialGradient><filter id="luminosity-noclip-4" x="0.01" y="-8605.97" width="281.63" height="32766" filterUnits="userSpaceOnUse" color-interpolation-filters="sRGB"><feFlood flood-color="#fff" result="bg"/><feBlend in="SourceGraphic" in2="bg"/></filter><mask id="mask-4" x="0.01" y="-8605.97" width="281.63" height="32766" maskUnits="userSpaceOnUse"><g class="cls-24"/></mask><radialGradient id="radial-gradient-4" cx="78.38" cy="116.9" r="393.61" gradientUnits="userSpaceOnUse"><stop offset="0"/><stop offset="0.01" stop-color="#090909"/><stop offset="0.05" stop-color="#373737"/><stop offset="0.09" stop-color="#626262"/><stop offset="0.14" stop-color="#888"/><stop offset="0.2" stop-color="#a8a8a8"/><stop offset="0.25" stop-color="#c4c4c4"/><stop offset="0.32" stop-color="#dadada"/><stop offset="0.4" stop-color="#ebebeb"/><stop offset="0.49" stop-color="#f6f6f6"/><stop offset="0.63" stop-color="#fdfdfd"/><stop offset="1" stop-color="#fff"/></radialGradient><filter id="luminosity-noclip-5" x="5.29" y="-8605.97" width="281.62" height="32766" filterUnits="userSpaceOnUse" color-interpolation-filters="sRGB"><feFlood flood-color="#fff" result="bg"/><feBlend in="SourceGraphic" in2="bg"/></filter><mask id="mask-5" x="5.29" y="-8605.97" width="281.62" height="32766" maskUnits="userSpaceOnUse"><g class="cls-23"/></mask><radialGradient id="radial-gradient-5" cx="-12.26" cy="-0.18" r="462.12" gradientTransform="matrix(1, 0, 0, 1, 0, 0)" xlink:href="#radial-gradient-3"/><filter id="luminosity-noclip-6" x="0.01" y="216.77" width="286.91" height="184.9" filterUnits="userSpaceOnUse" color-interpolation-filters="sRGB"><feFlood flood-color="#fff" result="bg"/><feBlend in="SourceGraphic" in2="bg"/></filter><mask id="mask-6" x="0.01" y="216.77" width="286.91" height="184.9" maskUnits="userSpaceOnUse"><g class="cls-1"><path class="cls-2" d="M169.17,216.79,0,216.84V386.67c0,14.7,11.1,15,11.1,15h264.7s11.11-.3,11.11-15V216.77Z"/></g></mask><radialGradient id="radial-gradient-6" cx="139.02" cy="-136.93" r="580.83" gradientUnits="userSpaceOnUse"><stop offset="0.62" stop-color="#fff"/><stop offset="0.79" stop-color="#fdfdfd"/><stop offset="0.85" stop-color="#f6f6f6"/><stop offset="0.9" stop-color="#eaeaea"/><stop offset="0.94" stop-color="#d9d9d9"/><stop offset="0.97" stop-color="#c3c3c3"/><stop offset="1" stop-color="#ababab"/></radialGradient><filter id="luminosity-noclip-7" x="0.01" y="0" width="286.91" height="200.5" filterUnits="userSpaceOnUse" color-interpolation-filters="sRGB"><feFlood flood-color="#fff" result="bg"/><feBlend in="SourceGraphic" in2="bg"/></filter><mask id="mask-7" x="0.01" y="0" width="286.91" height="200.5" maskUnits="userSpaceOnUse"><g class="cls-3"><path class="cls-4" d="M0,200.4l72.43,0q104.39.06,208.75.05h5.73V15c0-14.7-11.11-15-11.11-15H11.11S0,.3,0,15V200.4Z"/></g></mask><radialGradient id="radial-gradient-7" cx="144.77" cy="370.66" r="416.2" gradientUnits="userSpaceOnUse"><stop offset="0.62" stop-color="#fff"/><stop offset="0.75" stop-color="#fdfdfd"/><stop offset="0.82" stop-color="#f5f5f5"/><stop offset="0.88" stop-color="#e7e7e7"/><stop offset="0.93" stop-color="#d3d3d3"/><stop offset="0.98" stop-color="#bababa"/><stop offset="1" stop-color="#ababab"/></radialGradient><filter id="luminosity-noclip-8" x="0" y="29.03" width="0.58" height="346.34" filterUnits="userSpaceOnUse" color-interpolation-filters="sRGB"><feFlood flood-color="#fff" result="bg"/><feBlend in="SourceGraphic" in2="bg"/></filter><mask id="mask-8" x="0" y="29.03" width="0.58" height="346.34" maskUnits="userSpaceOnUse"><g class="cls-5"><path class="cls-6" d="M0,29V375.37c.19-.7.38-1.4.58-2.1V35.3Q.28,32.17,0,29Z"/></g></mask><radialGradient id="radial-gradient-8" cx="929.81" cy="-0.18" r="462.07" gradientTransform="matrix(-1, 0, 0, 1, 1228.9, 0)" gradientUnits="userSpaceOnUse"><stop offset="0.1" stop-color="#fff"/><stop offset="1" stop-color="#ababab"/></radialGradient><filter id="luminosity-noclip-9" x="0.01" y="0" width="281.63" height="401.67" filterUnits="userSpaceOnUse" color-interpolation-filters="sRGB"><feFlood flood-color="#fff" result="bg"/><feBlend in="SourceGraphic" in2="bg"/></filter><mask id="mask-9" x="0.01" y="0" width="281.63" height="401.67" maskUnits="userSpaceOnUse"><g class="cls-7"><path class="cls-8" d="M.59,386.69V15.56C.59.88,11.71.58,11.71.58h265a11.27,11.27,0,0,1,5,1.61A11.42,11.42,0,0,0,275.81,0H11.11S0,.3,0,15V386.67c0,14.7,11.1,15,11.1,15h.6S.59,401.37.59,386.69Z"/></g></mask><radialGradient id="radial-gradient-9" cx="78.38" cy="116.9" r="393.61" gradientUnits="userSpaceOnUse"><stop offset="0" stop-color="#fff"/><stop offset="0.14" stop-color="#fff"/><stop offset="1" stop-color="#fff"/></radialGradient><filter id="luminosity-noclip-10" x="5.29" y="0" width="281.62" height="401.67" filterUnits="userSpaceOnUse" color-interpolation-filters="sRGB"><feFlood flood-color="#fff" result="bg"/><feBlend in="SourceGraphic" in2="bg"/></filter><mask id="mask-10" x="5.29" y="0" width="281.62" height="401.67" maskUnits="userSpaceOnUse"><g class="cls-9"><path class="cls-10" d="M286.34,15V386.11c0,14.68-11.12,15-11.12,15h-265a11.3,11.3,0,0,1-5-1.61,11.45,11.45,0,0,0,5.82,2.19h264.7s11.11-.3,11.11-15V15c0-14.7-11.11-15-11.11-15h-.59S286.34.3,286.34,15Z"/></g></mask><radialGradient id="radial-gradient-10" cx="-12.26" cy="-0.18" r="462.12" gradientTransform="matrix(1, 0, 0, 1, 0, 0)" xlink:href="#radial-gradient-8"/></defs><g class="cls-11"><g id="Layer_2" data-name="Layer 2"><g id="Layer_1-2" data-name="Layer 1"><path class="cls-12" d="M275.81,0H11.11S0,.3,0,15V386.67c0,14.7,11.1,15,11.1,15h264.7s11.11-.3,11.11-15V15C286.92.3,275.81,0,275.81,0Z"/><g class="cls-13"><path class="cls-14" d="M169.17,216.79,0,216.84V386.67c0,14.7,11.1,15,11.1,15h264.7s11.11-.3,11.11-15V216.77Z"/></g><g class="cls-15"><path class="cls-16" d="M0,200.4l72.43,0q104.39.06,208.75.05h5.73V15c0-14.7-11.11-15-11.11-15H11.11S0,.3,0,15V200.4Z"/></g><g class="cls-17"><path class="cls-18" d="M0,29V375.37c.19-.7.38-1.4.58-2.1V35.3Q.28,32.17,0,29Z"/></g><g class="cls-19"><path class="cls-20" d="M.59,386.69V15.56C.59.88,11.71.58,11.71.58h265a11.27,11.27,0,0,1,5,1.61A11.42,11.42,0,0,0,275.81,0H11.11S0,.3,0,15V386.67c0,14.7,11.1,15,11.1,15h.6S.59,401.37.59,386.69Z"/></g><g class="cls-21"><path class="cls-22" d="M286.34,15V386.11c0,14.68-11.12,15-11.12,15h-265a11.3,11.3,0,0,1-5-1.61,11.45,11.45,0,0,0,5.82,2.19h264.7s11.11-.3,11.11-15V15c0-14.7-11.11-15-11.11-15h-.59S286.34.3,286.34,15Z"/></g><path d="M21.82,79.83A25.6,25.6,0,0,1,17,92.53h9.66A25.49,25.49,0,0,1,21.82,79.83Z"/><path d="M28.82,71.38a7,7,0,0,0-2.71.55l-.06-.07a7,7,0,1,0-8.1.26,7,7,0,1,0,3.86,6.57h0a7,7,0,1,0,7-7.32Z"/><path d="M11.72,24.51V19.69a32.88,32.88,0,0,1,5.51-2.08,19.37,19.37,0,0,1,4.94-.68,13,13,0,0,1,5,.89,7.22,7.22,0,0,1,3.29,2.54,6.87,6.87,0,0,1,1.14,4,8,8,0,0,1-.86,3.8A8.74,8.74,0,0,1,28.35,31a21,21,0,0,1-4.05,2.38v.23a12.55,12.55,0,0,1,3,.95,9.55,9.55,0,0,1,2.54,1.74,8,8,0,0,1,2.47,5.94A10.41,10.41,0,0,1,31,47.44,8.88,8.88,0,0,1,27.09,51a14.17,14.17,0,0,1-6.41,1.32A24.49,24.49,0,0,1,16,51.87a28,28,0,0,1-4.63-1.31V45.18h3.05A8.16,8.16,0,0,0,16.73,49a6.09,6.09,0,0,0,4,1.2,6.53,6.53,0,0,0,5-1.8,7.56,7.56,0,0,0,1.68-5.33,7.11,7.11,0,0,0-2.23-5.66q-2.24-2-6.54-2H16.31V33.24a15.78,15.78,0,0,0,5.78-1.32,8.27,8.27,0,0,0,3.48-2.87,7,7,0,0,0,1.14-3.93,6,6,0,0,0-1.49-4.34,5.88,5.88,0,0,0-4.37-1.52A5.69,5.69,0,0,0,17,20.55a7.72,7.72,0,0,0-2.21,4Z"/><path d="M264.21,320.78A25.48,25.48,0,0,1,269,308.09h-9.67A25.55,25.55,0,0,1,264.21,320.78Z"/><path d="M257.2,329.23a7,7,0,0,0,2.71-.54l.06.06a7,7,0,1,0,8.11-.26,6.84,6.84,0,0,0,3.13.74,7,7,0,1,0-7-7.31h0a7,7,0,1,0-7,7.32Z"/><path d="M274.3,376.1v4.82a32,32,0,0,1-5.5,2.08,19,19,0,0,1-4.95.69,13.16,13.16,0,0,1-5-.89,7.15,7.15,0,0,1-3.3-2.55,6.85,6.85,0,0,1-1.14-4,8.05,8.05,0,0,1,.86-3.79,9,9,0,0,1,2.42-2.85,21,21,0,0,1,4.05-2.39V367a11.76,11.76,0,0,1-3-.95,9.76,9.76,0,0,1-2.55-1.74,8.15,8.15,0,0,1-1.79-2.54,8.27,8.27,0,0,1-.67-3.39,10.58,10.58,0,0,1,1.28-5.23,8.94,8.94,0,0,1,3.92-3.6,14.24,14.24,0,0,1,6.42-1.32,24.52,24.52,0,0,1,4.7.5,27.5,27.5,0,0,1,4.63,1.3v5.38h-3a8.14,8.14,0,0,0-2.35-3.83,6.1,6.1,0,0,0-4-1.19,6.5,6.5,0,0,0-5,1.8,7.56,7.56,0,0,0-1.69,5.33,7.12,7.12,0,0,0,2.23,5.65q2.24,2,6.55,2h2.28v2.23a15.38,15.38,0,0,0-5.77,1.32,8.29,8.29,0,0,0-3.49,2.86,7.07,7.07,0,0,0-1.14,3.94,5.9,5.9,0,0,0,1.5,4.33,5.83,5.83,0,0,0,4.36,1.52,5.73,5.73,0,0,0,3.88-1.29,7.64,7.64,0,0,0,2.21-4Z"/><path d="M143.41,87.83A50.61,50.61,0,0,1,133.82,113H153A50.57,50.57,0,0,1,143.41,87.83Z"/><path d="M157.31,71.06a13.73,13.73,0,0,0-5.37,1.08,1.59,1.59,0,0,1-.13-.13,13.89,13.89,0,1,0-16.08.52,13.9,13.9,0,1,0,7.67,13l0,0a13.9,13.9,0,1,0,13.88-14.52Z"/><path d="M143.41,208.3a50.67,50.67,0,0,1-9.59,25.2H153A50.63,50.63,0,0,1,143.41,208.3Z"/><path d="M157.31,191.53a13.74,13.74,0,0,0-5.37,1.09,1.59,1.59,0,0,0-.13-.13,13.9,13.9,0,1,0-16.08.51,13.9,13.9,0,1,0,7.67,13l0,0a13.9,13.9,0,1,0,13.88-14.53Z"/><path d="M143.41,313.18A50.57,50.57,0,0,1,153,288H133.82A50.61,50.61,0,0,1,143.41,313.18Z"/><path d="M129.51,330a13.79,13.79,0,0,0,5.38-1.09l.12.13a13.89,13.89,0,1,0,16.08-.52,13.9,13.9,0,1,0-7.66-13l0,0A13.9,13.9,0,1,0,129.51,330Z"/></g></g></g></svg>