<?xml version="1.0" encoding="utf-8"?>
<!-- Generator: Adobe Illustrator 26.0.3, SVG Export Plug-In . SVG Version: 6.00 Build 0)  -->
<svg version="1.1" id="Layer_1" xmlns="http://www.w3.org/2000/svg" xmlns:xlink="http://www.w3.org/1999/xlink" x="0px" y="0px"
	 viewBox="0 0 40.8 58.1" style="enable-background:new 0 0 40.8 58.1;" xml:space="preserve">
<style type="text/css">
	.st0{fill:#FFFFFF;}
	.st1{fill:#B70707;}
</style>
<path class="st0" d="M2.4,0h36c1.3,0,2.4,1.1,2.4,2.4c0,0,0,0,0,0v53.3c0,1.3-1.1,2.4-2.4,2.4c0,0,0,0,0,0h-36C1.1,58.1,0,57,0,55.7
	c0,0,0,0,0,0V2.4C0,1.1,1.1,0,2.4,0C2.4,0,2.4,0,2.4,0z"/>
<path class="st1" d="M34.7,35.9L34.7,35.9c-7.6-4.2-13.7-17-13.9-17.4l0,0C20.7,18.9,14.6,31.7,7,35.9h0c7.6,4.2,13.7,17,13.9,17.4
	l0,0C21.1,52.9,27.2,40.1,34.7,35.9L34.7,35.9z"/>
</svg>
