<svg xmlns="http://www.w3.org/2000/svg" xmlns:xlink="http://www.w3.org/1999/xlink" viewBox="0 0 246.75 345.44"><defs><style>.cls-1,.cls-3{mask:url(#mask);}.cls-1{filter:url(#luminosity-noclip-6);}.cls-10,.cls-14,.cls-16,.cls-2,.cls-4,.cls-6,.cls-8{mix-blend-mode:multiply;}.cls-2{fill:url(#radial-gradient);}.cls-3{filter:url(#luminosity-noclip-7);}.cls-4{fill:url(#radial-gradient-2);}.cls-5{mask:url(#mask-3);filter:url(#luminosity-noclip-8);}.cls-6{fill:url(#radial-gradient-3);}.cls-7{mask:url(#mask-4);filter:url(#luminosity-noclip-9);}.cls-8{fill:url(#radial-gradient-4);}.cls-9{mask:url(#mask-5);filter:url(#luminosity-noclip-10);}.cls-10{fill:url(#radial-gradient-5);}.cls-11{isolation:isolate;}.cls-12{fill:#fff;}.cls-13{mask:url(#mask-6);}.cls-14{fill:url(#radial-gradient-6);}.cls-15{mask:url(#mask-7);}.cls-16{fill:url(#radial-gradient-7);}.cls-17{mask:url(#mask-8);}.cls-18{fill:url(#radial-gradient-8);}.cls-19{mask:url(#mask-9);}.cls-20{mix-blend-mode:screen;fill:url(#radial-gradient-9);}.cls-21{mask:url(#mask-10);}.cls-22{fill:url(#radial-gradient-10);}.cls-23{fill:#ff2601;}.cls-24{filter:url(#luminosity-noclip-5);}.cls-25{filter:url(#luminosity-noclip-4);}.cls-26{filter:url(#luminosity-noclip-3);}.cls-27{filter:url(#luminosity-noclip);}</style><filter id="luminosity-noclip" x="0.01" y="-8548.51" width="246.74" height="32766" filterUnits="userSpaceOnUse" color-interpolation-filters="sRGB"><feFlood flood-color="#fff" result="bg"/><feBlend in="SourceGraphic" in2="bg"/></filter><mask id="mask" x="0.01" y="-8548.51" width="246.74" height="32766" maskUnits="userSpaceOnUse"><g class="cls-27"/></mask><radialGradient id="radial-gradient" cx="119.56" cy="-117.76" r="499.52" gradientUnits="userSpaceOnUse"><stop offset="0.62"/><stop offset="0.75" stop-color="#020202"/><stop offset="0.8" stop-color="#090909"/><stop offset="0.84" stop-color="#151515"/><stop offset="0.87" stop-color="#262626"/><stop offset="0.9" stop-color="#3c3c3c"/><stop offset="0.92" stop-color="#585858"/><stop offset="0.94" stop-color="#797979"/><stop offset="0.96" stop-color="#9f9f9f"/><stop offset="0.98" stop-color="#cbcbcb"/><stop offset="1" stop-color="#f9f9f9"/><stop offset="1" stop-color="#fff"/></radialGradient><radialGradient id="radial-gradient-2" cx="124.5" cy="318.78" r="357.94" gradientUnits="userSpaceOnUse"><stop offset="0.62"/><stop offset="0.71" stop-color="#020202"/><stop offset="0.76" stop-color="#0a0a0a"/><stop offset="0.8" stop-color="#181818"/><stop offset="0.84" stop-color="#2c2c2c"/><stop offset="0.88" stop-color="#464646"/><stop offset="0.91" stop-color="#656565"/><stop offset="0.94" stop-color="#8a8a8a"/><stop offset="0.96" stop-color="#b6b6b6"/><stop offset="0.99" stop-color="#e5e5e5"/><stop offset="1" stop-color="#fff"/></radialGradient><filter id="luminosity-noclip-3" x="4.55" y="-8548.51" width="242.2" height="32766" filterUnits="userSpaceOnUse" color-interpolation-filters="sRGB"><feFlood flood-color="#fff" result="bg"/><feBlend in="SourceGraphic" in2="bg"/></filter><mask id="mask-3" x="4.55" y="-8548.51" width="242.2" height="32766" maskUnits="userSpaceOnUse"><g class="cls-26"/></mask><radialGradient id="radial-gradient-3" cx="-10.55" cy="-0.16" r="397.43" gradientUnits="userSpaceOnUse"><stop offset="0.1"/><stop offset="1" stop-color="#fff"/></radialGradient><filter id="luminosity-noclip-4" x="0.01" y="-8548.51" width="242.2" height="32766" filterUnits="userSpaceOnUse" color-interpolation-filters="sRGB"><feFlood flood-color="#fff" result="bg"/><feBlend in="SourceGraphic" in2="bg"/></filter><mask id="mask-4" x="0.01" y="-8548.51" width="242.2" height="32766" maskUnits="userSpaceOnUse"><g class="cls-25"/></mask><radialGradient id="radial-gradient-4" cx="67.41" cy="100.53" r="338.51" gradientUnits="userSpaceOnUse"><stop offset="0"/><stop offset="0.01" stop-color="#090909"/><stop offset="0.05" stop-color="#373737"/><stop offset="0.09" stop-color="#626262"/><stop offset="0.14" stop-color="#888"/><stop offset="0.2" stop-color="#a8a8a8"/><stop offset="0.25" stop-color="#c4c4c4"/><stop offset="0.32" stop-color="#dadada"/><stop offset="0.4" stop-color="#ebebeb"/><stop offset="0.49" stop-color="#f6f6f6"/><stop offset="0.63" stop-color="#fdfdfd"/><stop offset="1" stop-color="#fff"/></radialGradient><filter id="luminosity-noclip-5" x="0" y="-8548.51" width="0.5" height="32766" filterUnits="userSpaceOnUse" color-interpolation-filters="sRGB"><feFlood flood-color="#fff" result="bg"/><feBlend in="SourceGraphic" in2="bg"/></filter><mask id="mask-5" x="0" y="-8548.51" width="0.5" height="32766" maskUnits="userSpaceOnUse"><g class="cls-24"/></mask><radialGradient id="radial-gradient-5" cx="1371.1" cy="-0.16" r="397.38" gradientTransform="matrix(-1, 0, 0, 1, 1628.31, 0)" xlink:href="#radial-gradient-3"/><filter id="luminosity-noclip-6" x="0.01" y="186.43" width="246.74" height="159.02" filterUnits="userSpaceOnUse" color-interpolation-filters="sRGB"><feFlood flood-color="#fff" result="bg"/><feBlend in="SourceGraphic" in2="bg"/></filter><mask id="mask-6" x="0.01" y="186.43" width="246.74" height="159.02" maskUnits="userSpaceOnUse"><g class="cls-1"><path class="cls-2" d="M145.49,186.44,0,186.49V332.54c0,12.64,9.55,12.9,9.55,12.9H237.2s9.55-.26,9.55-12.9V186.43Z"/></g></mask><radialGradient id="radial-gradient-6" cx="119.56" cy="-117.76" r="499.52" gradientUnits="userSpaceOnUse"><stop offset="0.62" stop-color="#fff"/><stop offset="0.79" stop-color="#fdfdfd"/><stop offset="0.85" stop-color="#f6f6f6"/><stop offset="0.9" stop-color="#eaeaea"/><stop offset="0.94" stop-color="#d9d9d9"/><stop offset="0.97" stop-color="#c3c3c3"/><stop offset="1" stop-color="#ababab"/></radialGradient><filter id="luminosity-noclip-7" x="0.01" y="0" width="246.74" height="172.44" filterUnits="userSpaceOnUse" color-interpolation-filters="sRGB"><feFlood flood-color="#fff" result="bg"/><feBlend in="SourceGraphic" in2="bg"/></filter><mask id="mask-7" x="0.01" y="0" width="246.74" height="172.44" maskUnits="userSpaceOnUse"><g class="cls-3"><path class="cls-4" d="M0,172.35l62.29,0q89.76.06,179.53.05h4.92V12.9C246.75.26,237.2,0,237.2,0H9.56S0,.26,0,12.9V172.35Z"/></g></mask><radialGradient id="radial-gradient-7" cx="124.5" cy="318.78" r="357.94" gradientUnits="userSpaceOnUse"><stop offset="0.62" stop-color="#fff"/><stop offset="0.75" stop-color="#fdfdfd"/><stop offset="0.82" stop-color="#f5f5f5"/><stop offset="0.88" stop-color="#e7e7e7"/><stop offset="0.93" stop-color="#d3d3d3"/><stop offset="0.98" stop-color="#bababa"/><stop offset="1" stop-color="#ababab"/></radialGradient><filter id="luminosity-noclip-8" x="4.55" y="0" width="242.2" height="345.44" filterUnits="userSpaceOnUse" color-interpolation-filters="sRGB"><feFlood flood-color="#fff" result="bg"/><feBlend in="SourceGraphic" in2="bg"/></filter><mask id="mask-8" x="4.55" y="0" width="242.2" height="345.44" maskUnits="userSpaceOnUse"><g class="cls-5"><path class="cls-6" d="M246.25,12.88V332.06c0,12.62-9.56,12.88-9.56,12.88H8.82a9.75,9.75,0,0,1-4.27-1.38,9.76,9.76,0,0,0,5,1.88H237.2s9.55-.26,9.55-12.9V12.9C246.75.26,237.2,0,237.2,0h-.51S246.25.26,246.25,12.88Z"/></g></mask><radialGradient id="radial-gradient-8" cx="-10.55" cy="-0.16" r="397.43" gradientUnits="userSpaceOnUse"><stop offset="0.1" stop-color="#fff"/><stop offset="1" stop-color="#ababab"/></radialGradient><filter id="luminosity-noclip-9" x="0.01" y="0" width="242.2" height="345.44" filterUnits="userSpaceOnUse" color-interpolation-filters="sRGB"><feFlood flood-color="#fff" result="bg"/><feBlend in="SourceGraphic" in2="bg"/></filter><mask id="mask-9" x="0.01" y="0" width="242.2" height="345.44" maskUnits="userSpaceOnUse"><g class="cls-7"><path class="cls-8" d="M.51,332.56V13.38C.51.76,10.07.5,10.07.5H237.94a9.75,9.75,0,0,1,4.27,1.38,9.76,9.76,0,0,0-5-1.88H9.56S0,.26,0,12.9V332.54c0,12.64,9.55,12.9,9.55,12.9h.51S.51,345.18.51,332.56Z"/></g></mask><radialGradient id="radial-gradient-9" cx="67.41" cy="100.53" r="338.51" gradientUnits="userSpaceOnUse"><stop offset="0" stop-color="#fff"/><stop offset="0.14" stop-color="#fff"/><stop offset="1" stop-color="#fff"/></radialGradient><filter id="luminosity-noclip-10" x="0" y="24.96" width="0.5" height="297.86" filterUnits="userSpaceOnUse" color-interpolation-filters="sRGB"><feFlood flood-color="#fff" result="bg"/><feBlend in="SourceGraphic" in2="bg"/></filter><mask id="mask-10" x="0" y="24.96" width="0.5" height="297.86" maskUnits="userSpaceOnUse"><g class="cls-9"><path class="cls-10" d="M0,25V322.82c.17-.6.33-1.2.5-1.81V30.36C.33,28.56.16,26.76,0,25Z"/></g></mask><radialGradient id="radial-gradient-10" cx="1371.1" cy="-0.16" r="397.38" gradientTransform="matrix(-1, 0, 0, 1, 1628.31, 0)" xlink:href="#radial-gradient-8"/></defs><g class="cls-11"><g id="Layer_2" data-name="Layer 2"><g id="Layer_1-2" data-name="Layer 1"><path class="cls-12" d="M237.2,0H9.56S0,.26,0,12.9V332.54c0,12.64,9.55,12.9,9.55,12.9H237.2s9.55-.26,9.55-12.9V12.9C246.75.26,237.2,0,237.2,0Z"/><g class="cls-13"><path class="cls-14" d="M145.49,186.44,0,186.49V332.54c0,12.64,9.55,12.9,9.55,12.9H237.2s9.55-.26,9.55-12.9V186.43Z"/></g><g class="cls-15"><path class="cls-16" d="M0,172.35l62.29,0q89.76.06,179.53.05h4.92V12.9C246.75.26,237.2,0,237.2,0H9.56S0,.26,0,12.9V172.35Z"/></g><g class="cls-17"><path class="cls-18" d="M246.25,12.88V332.06c0,12.62-9.56,12.88-9.56,12.88H8.82a9.75,9.75,0,0,1-4.27-1.38,9.76,9.76,0,0,0,5,1.88H237.2s9.55-.26,9.55-12.9V12.9C246.75.26,237.2,0,237.2,0h-.51S246.25.26,246.25,12.88Z"/></g><g class="cls-19"><path class="cls-20" d="M.51,332.56V13.38C.51.76,10.07.5,10.07.5H237.94a9.75,9.75,0,0,1,4.27,1.38,9.76,9.76,0,0,0-5-1.88H9.56S0,.26,0,12.9V332.54c0,12.64,9.55,12.9,9.55,12.9h.51S.51,345.18.51,332.56Z"/></g><g class="cls-21"><path class="cls-22" d="M0,25V322.82c.17-.6.33-1.2.5-1.81V30.36C.33,28.56.16,26.76,0,25Z"/></g><path class="cls-23" d="M25.61,66.72a32.64,32.64,0,0,0-7.76,7.82h0a32.64,32.64,0,0,0-7.76-7.82c-5.21-3.83-6.4-8.61-4.53-12.21s9.33-5.36,12.3,1.8c3-7.16,10.43-5.4,12.3-1.8S30.82,62.89,25.61,66.72Z"/><path class="cls-23" d="M21.18,41.44a9,9,0,0,0,1.73-.13,2.43,2.43,0,0,0,1-.44,2.12,2.12,0,0,0,.62-.79,14.48,14.48,0,0,0,.58-1.52H27l-.37,6.37h-18v-1a27,27,0,0,1,2.52-4.69,52.21,52.21,0,0,1,4.52-5.65q2.54-2.79,3.64-4.23a18.29,18.29,0,0,0,1.82-2.72,10.38,10.38,0,0,0,.87-2.16,8.25,8.25,0,0,0,.26-2,7.41,7.41,0,0,0-.53-2.89,4.3,4.3,0,0,0-1.6-2,4.79,4.79,0,0,0-2.72-.72c-2.71,0-4.55,1.51-5.49,4.54H9.34V17.16a25.82,25.82,0,0,1,4.94-1.8,17.75,17.75,0,0,1,4.13-.55q4.07,0,6.13,1.77a6.44,6.44,0,0,1,2.07,5.16,9.48,9.48,0,0,1-.22,2.13,9,9,0,0,1-.72,1.92,15.06,15.06,0,0,1-1.32,2c-.56.72-1.17,1.46-1.84,2.21s-1.82,2-3.46,3.74A45.66,45.66,0,0,0,13,41.44Z"/><path class="cls-23" d="M218.59,278.15a32.6,32.6,0,0,0,7.76-7.83h0a32.6,32.6,0,0,0,7.76,7.83c5.22,3.83,6.4,8.61,4.54,12.21s-9.33,5.36-12.3-1.8c-3,7.16-10.44,5.4-12.3,1.8S213.37,282,218.59,278.15Z"/><path class="cls-23" d="M223,303.43a8.84,8.84,0,0,0-1.72.13,2.42,2.42,0,0,0-1,.44,2.12,2.12,0,0,0-.62.79c-.15.33-.35.84-.58,1.52h-1.85l.37-6.37h17.95V301a27.82,27.82,0,0,1-2.53,4.69,51,51,0,0,1-4.52,5.65c-1.68,1.86-2.9,3.27-3.64,4.23a19.11,19.11,0,0,0-1.82,2.72,9.93,9.93,0,0,0-.86,2.15,7.93,7.93,0,0,0-.26,2,7.5,7.5,0,0,0,.52,2.9,4.32,4.32,0,0,0,1.6,2,4.81,4.81,0,0,0,2.72.72q4.08,0,5.5-4.54h2.64v4.19a25.89,25.89,0,0,1-5,1.8,17.75,17.75,0,0,1-4.13.55c-2.7,0-4.75-.59-6.13-1.77a6.44,6.44,0,0,1-2.07-5.16,9.46,9.46,0,0,1,.23-2.13,8,8,0,0,1,.72-1.92,14.15,14.15,0,0,1,1.32-2c.55-.73,1.16-1.46,1.83-2.21s1.83-2,3.47-3.74a46,46,0,0,0,6.08-7.66Z"/><path class="cls-23" d="M138.78,81.65a65.24,65.24,0,0,0-15.4,15.54h0A65.66,65.66,0,0,0,108,81.65c-10.35-7.6-12.71-17.07-9-24.22S117.48,46.79,123.38,61c5.89-14.2,20.71-10.71,24.41-3.56S149.14,74.05,138.78,81.65Z"/><path class="cls-23" d="M108,263.22a65.31,65.31,0,0,0,15.4-15.54h0a65.2,65.2,0,0,0,15.4,15.55c10.36,7.59,12.72,17.07,9,24.22s-18.51,10.63-24.41-3.57c-5.9,14.2-20.71,10.72-24.41,3.57S97.62,270.82,108,263.22Z"/></g></g></g></svg>