<svg xmlns="http://www.w3.org/2000/svg" xmlns:xlink="http://www.w3.org/1999/xlink" viewBox="0 0 246.75 345.44"><defs><style>.cls-1{mask:url(#mask);filter:url(#luminosity-noclip-6);}.cls-10,.cls-14,.cls-16,.cls-2,.cls-4,.cls-6,.cls-8{mix-blend-mode:multiply;}.cls-2{fill:url(#radial-gradient);}.cls-3{mask:url(#mask-2);filter:url(#luminosity-noclip-7);}.cls-4{fill:url(#radial-gradient-2);}.cls-5{mask:url(#mask-3);filter:url(#luminosity-noclip-8);}.cls-6{fill:url(#radial-gradient-3);}.cls-7{mask:url(#mask-4);filter:url(#luminosity-noclip-9);}.cls-8{fill:url(#radial-gradient-4);}.cls-9{mask:url(#mask-5);filter:url(#luminosity-noclip-10);}.cls-10{fill:url(#radial-gradient-5);}.cls-11{isolation:isolate;}.cls-12{fill:#fff;}.cls-13{mask:url(#mask-6);}.cls-14{fill:url(#radial-gradient-6);}.cls-15{mask:url(#mask-7);}.cls-16{fill:url(#radial-gradient-7);}.cls-17{mask:url(#mask-8);}.cls-18{fill:url(#radial-gradient-8);}.cls-19{mask:url(#mask-9);}.cls-20{mix-blend-mode:screen;fill:url(#radial-gradient-9);}.cls-21{mask:url(#mask-10);}.cls-22{fill:url(#radial-gradient-10);}.cls-23{fill:#ff2601;}.cls-24{filter:url(#luminosity-noclip-5);}.cls-25{filter:url(#luminosity-noclip-4);}.cls-26{filter:url(#luminosity-noclip-3);}.cls-27{filter:url(#luminosity-noclip-2);}.cls-28{filter:url(#luminosity-noclip);}</style><filter id="luminosity-noclip" x="0.01" y="-8548.51" width="246.74" height="32766" filterUnits="userSpaceOnUse" color-interpolation-filters="sRGB"><feFlood flood-color="#fff" result="bg"/><feBlend in="SourceGraphic" in2="bg"/></filter><mask id="mask" x="0.01" y="-8548.51" width="246.74" height="32766" maskUnits="userSpaceOnUse"><g class="cls-28"/></mask><radialGradient id="radial-gradient" cx="119.56" cy="-117.76" r="499.52" gradientUnits="userSpaceOnUse"><stop offset="0.62"/><stop offset="0.75" stop-color="#020202"/><stop offset="0.8" stop-color="#090909"/><stop offset="0.84" stop-color="#151515"/><stop offset="0.87" stop-color="#262626"/><stop offset="0.9" stop-color="#3c3c3c"/><stop offset="0.92" stop-color="#585858"/><stop offset="0.94" stop-color="#797979"/><stop offset="0.96" stop-color="#9f9f9f"/><stop offset="0.98" stop-color="#cbcbcb"/><stop offset="1" stop-color="#f9f9f9"/><stop offset="1" stop-color="#fff"/></radialGradient><filter id="luminosity-noclip-2" x="0.01" y="-8548.51" width="246.75" height="32766" filterUnits="userSpaceOnUse" color-interpolation-filters="sRGB"><feFlood flood-color="#fff" result="bg"/><feBlend in="SourceGraphic" in2="bg"/></filter><mask id="mask-2" x="0.01" y="-8548.51" width="246.75" height="32766" maskUnits="userSpaceOnUse"><g class="cls-27"/></mask><radialGradient id="radial-gradient-2" cx="124.5" cy="318.78" r="357.94" gradientUnits="userSpaceOnUse"><stop offset="0.62"/><stop offset="0.71" stop-color="#020202"/><stop offset="0.76" stop-color="#0a0a0a"/><stop offset="0.8" stop-color="#181818"/><stop offset="0.84" stop-color="#2c2c2c"/><stop offset="0.88" stop-color="#464646"/><stop offset="0.91" stop-color="#656565"/><stop offset="0.94" stop-color="#8a8a8a"/><stop offset="0.96" stop-color="#b6b6b6"/><stop offset="0.99" stop-color="#e5e5e5"/><stop offset="1" stop-color="#fff"/></radialGradient><filter id="luminosity-noclip-3" x="4.55" y="-8548.51" width="242.2" height="32766" filterUnits="userSpaceOnUse" color-interpolation-filters="sRGB"><feFlood flood-color="#fff" result="bg"/><feBlend in="SourceGraphic" in2="bg"/></filter><mask id="mask-3" x="4.55" y="-8548.51" width="242.2" height="32766" maskUnits="userSpaceOnUse"><g class="cls-26"/></mask><radialGradient id="radial-gradient-3" cx="-10.55" cy="-0.16" r="397.43" gradientUnits="userSpaceOnUse"><stop offset="0.1"/><stop offset="1" stop-color="#fff"/></radialGradient><filter id="luminosity-noclip-4" x="0.01" y="-8548.51" width="242.2" height="32766" filterUnits="userSpaceOnUse" color-interpolation-filters="sRGB"><feFlood flood-color="#fff" result="bg"/><feBlend in="SourceGraphic" in2="bg"/></filter><mask id="mask-4" x="0.01" y="-8548.51" width="242.2" height="32766" maskUnits="userSpaceOnUse"><g class="cls-25"/></mask><radialGradient id="radial-gradient-4" cx="67.41" cy="100.53" r="338.51" gradientUnits="userSpaceOnUse"><stop offset="0"/><stop offset="0.01" stop-color="#090909"/><stop offset="0.05" stop-color="#373737"/><stop offset="0.09" stop-color="#626262"/><stop offset="0.14" stop-color="#888"/><stop offset="0.2" stop-color="#a8a8a8"/><stop offset="0.25" stop-color="#c4c4c4"/><stop offset="0.32" stop-color="#dadada"/><stop offset="0.4" stop-color="#ebebeb"/><stop offset="0.49" stop-color="#f6f6f6"/><stop offset="0.63" stop-color="#fdfdfd"/><stop offset="1" stop-color="#fff"/></radialGradient><filter id="luminosity-noclip-5" x="0" y="-8548.51" width="0.5" height="32766" filterUnits="userSpaceOnUse" color-interpolation-filters="sRGB"><feFlood flood-color="#fff" result="bg"/><feBlend in="SourceGraphic" in2="bg"/></filter><mask id="mask-5" x="0" y="-8548.51" width="0.5" height="32766" maskUnits="userSpaceOnUse"><g class="cls-24"/></mask><radialGradient id="radial-gradient-5" cx="310.75" cy="-0.16" r="397.38" gradientTransform="matrix(-1, 0, 0, 1, 567.96, 0)" xlink:href="#radial-gradient-3"/><filter id="luminosity-noclip-6" x="0.01" y="186.43" width="246.74" height="159.02" filterUnits="userSpaceOnUse" color-interpolation-filters="sRGB"><feFlood flood-color="#fff" result="bg"/><feBlend in="SourceGraphic" in2="bg"/></filter><mask id="mask-6" x="0.01" y="186.43" width="246.74" height="159.02" maskUnits="userSpaceOnUse"><g class="cls-1"><path class="cls-2" d="M145.49,186.44,0,186.49V332.54c0,12.64,9.55,12.9,9.55,12.9H237.2s9.55-.26,9.55-12.9V186.43Z"/></g></mask><radialGradient id="radial-gradient-6" cx="119.56" cy="-117.76" r="499.52" gradientUnits="userSpaceOnUse"><stop offset="0.62" stop-color="#fff"/><stop offset="0.79" stop-color="#fdfdfd"/><stop offset="0.85" stop-color="#f6f6f6"/><stop offset="0.9" stop-color="#eaeaea"/><stop offset="0.94" stop-color="#d9d9d9"/><stop offset="0.97" stop-color="#c3c3c3"/><stop offset="1" stop-color="#ababab"/></radialGradient><filter id="luminosity-noclip-7" x="0.01" y="0" width="246.75" height="172.44" filterUnits="userSpaceOnUse" color-interpolation-filters="sRGB"><feFlood flood-color="#fff" result="bg"/><feBlend in="SourceGraphic" in2="bg"/></filter><mask id="mask-7" x="0.01" y="0" width="246.75" height="172.44" maskUnits="userSpaceOnUse"><g class="cls-3"><path class="cls-4" d="M0,172.35l62.29,0q89.76.06,179.53.05h4.92V12.9C246.75.26,237.2,0,237.2,0H9.56S0,.26,0,12.9V172.35Z"/></g></mask><radialGradient id="radial-gradient-7" cx="124.5" cy="318.78" r="357.94" gradientUnits="userSpaceOnUse"><stop offset="0.62" stop-color="#fff"/><stop offset="0.75" stop-color="#fdfdfd"/><stop offset="0.82" stop-color="#f5f5f5"/><stop offset="0.88" stop-color="#e7e7e7"/><stop offset="0.93" stop-color="#d3d3d3"/><stop offset="0.98" stop-color="#bababa"/><stop offset="1" stop-color="#ababab"/></radialGradient><filter id="luminosity-noclip-8" x="4.55" y="0" width="242.2" height="345.44" filterUnits="userSpaceOnUse" color-interpolation-filters="sRGB"><feFlood flood-color="#fff" result="bg"/><feBlend in="SourceGraphic" in2="bg"/></filter><mask id="mask-8" x="4.55" y="0" width="242.2" height="345.44" maskUnits="userSpaceOnUse"><g class="cls-5"><path class="cls-6" d="M246.25,12.88V332.06c0,12.62-9.56,12.88-9.56,12.88H8.82a9.75,9.75,0,0,1-4.27-1.38,9.76,9.76,0,0,0,5,1.88H237.2s9.55-.26,9.55-12.9V12.9C246.75.26,237.2,0,237.2,0h-.51S246.25.26,246.25,12.88Z"/></g></mask><radialGradient id="radial-gradient-8" cx="-10.55" cy="-0.16" r="397.43" gradientUnits="userSpaceOnUse"><stop offset="0.1" stop-color="#fff"/><stop offset="1" stop-color="#ababab"/></radialGradient><filter id="luminosity-noclip-9" x="0.01" y="0" width="242.2" height="345.44" filterUnits="userSpaceOnUse" color-interpolation-filters="sRGB"><feFlood flood-color="#fff" result="bg"/><feBlend in="SourceGraphic" in2="bg"/></filter><mask id="mask-9" x="0.01" y="0" width="242.2" height="345.44" maskUnits="userSpaceOnUse"><g class="cls-7"><path class="cls-8" d="M.51,332.56V13.38C.51.76,10.07.5,10.07.5H237.94a9.75,9.75,0,0,1,4.27,1.38,9.76,9.76,0,0,0-5-1.88H9.56S0,.26,0,12.9V332.54c0,12.64,9.55,12.9,9.55,12.9h.51S.51,345.18.51,332.56Z"/></g></mask><radialGradient id="radial-gradient-9" cx="67.41" cy="100.53" r="338.51" gradientUnits="userSpaceOnUse"><stop offset="0" stop-color="#fff"/><stop offset="0.14" stop-color="#fff"/><stop offset="1" stop-color="#fff"/></radialGradient><filter id="luminosity-noclip-10" x="0" y="24.96" width="0.5" height="297.86" filterUnits="userSpaceOnUse" color-interpolation-filters="sRGB"><feFlood flood-color="#fff" result="bg"/><feBlend in="SourceGraphic" in2="bg"/></filter><mask id="mask-10" x="0" y="24.96" width="0.5" height="297.86" maskUnits="userSpaceOnUse"><g class="cls-9"><path class="cls-10" d="M0,25V322.82c.17-.6.33-1.2.5-1.81V30.36C.33,28.56.16,26.76,0,25Z"/></g></mask><radialGradient id="radial-gradient-10" cx="310.75" cy="-0.16" r="397.38" gradientTransform="matrix(-1, 0, 0, 1, 567.96, 0)" xlink:href="#radial-gradient-8"/></defs><g class="cls-11"><g id="Layer_2" data-name="Layer 2"><g id="Layer_1-2" data-name="Layer 1"><path class="cls-12" d="M237.2,0H9.56S0,.26,0,12.9V332.54c0,12.64,9.55,12.9,9.55,12.9H237.2s9.55-.26,9.55-12.9V12.9C246.75.26,237.2,0,237.2,0Z"/><g class="cls-13"><path class="cls-14" d="M145.49,186.44,0,186.49V332.54c0,12.64,9.55,12.9,9.55,12.9H237.2s9.55-.26,9.55-12.9V186.43Z"/></g><g class="cls-15"><path class="cls-16" d="M0,172.35l62.29,0q89.76.06,179.53.05h4.92V12.9C246.75.26,237.2,0,237.2,0H9.56S0,.26,0,12.9V172.35Z"/></g><g class="cls-17"><path class="cls-18" d="M246.25,12.88V332.06c0,12.62-9.56,12.88-9.56,12.88H8.82a9.75,9.75,0,0,1-4.27-1.38,9.76,9.76,0,0,0,5,1.88H237.2s9.55-.26,9.55-12.9V12.9C246.75.26,237.2,0,237.2,0h-.51S246.25.26,246.25,12.88Z"/></g><g class="cls-19"><path class="cls-20" d="M.51,332.56V13.38C.51.76,10.07.5,10.07.5H237.94a9.75,9.75,0,0,1,4.27,1.38,9.76,9.76,0,0,0-5-1.88H9.56S0,.26,0,12.9V332.54c0,12.64,9.55,12.9,9.55,12.9h.51S.51,345.18.51,332.56Z"/></g><g class="cls-21"><path class="cls-22" d="M0,25V322.82c.17-.6.33-1.2.5-1.81V30.36C.33,28.56.16,26.76,0,25Z"/></g><path class="cls-23" d="M25.91,66.72a32.64,32.64,0,0,0-7.76,7.82h0a32.64,32.64,0,0,0-7.76-7.82C5.17,62.89,4,58.11,5.84,54.51s9.33-5.36,12.3,1.8c3-7.16,10.44-5.4,12.31-1.8S31.12,62.89,25.91,66.72Z"/><path class="cls-23" d="M17,43.67a4.58,4.58,0,0,0,1.81-.78,2.05,2.05,0,0,0,.6-1.21,14.14,14.14,0,0,0,.14-2.4V35.7H7.46V34.07L20.22,14.81h3.12V33.59h.45a6,6,0,0,0,1.82-.19,1.87,1.87,0,0,0,.9-.65,4.94,4.94,0,0,0,.67-1.54h1.65l-.26,4.49H23.34v3.58a15.63,15.63,0,0,0,.1,2.14,3,3,0,0,0,.32,1.07,1.85,1.85,0,0,0,.68.65,6.1,6.1,0,0,0,1.45.53v1.06H17Zm-6-10.08h8.52V28.16c0-1.37,0-2.9.07-4.6s.1-3,.15-3.82h-.22L11.06,33.28Z"/><path class="cls-23" d="M219,278.15a32.6,32.6,0,0,0,7.76-7.83h0a32.6,32.6,0,0,0,7.76,7.83c5.22,3.83,6.41,8.61,4.54,12.21s-9.33,5.36-12.3-1.8c-3,7.16-10.44,5.4-12.3,1.8S213.79,282,219,278.15Z"/><path class="cls-23" d="M227.88,301.2a4.65,4.65,0,0,0-1.81.78,2.11,2.11,0,0,0-.6,1.21,15.29,15.29,0,0,0-.14,2.4v3.58h12.13v1.63L224.7,330.06h-3.12V311.28h-.46a5.92,5.92,0,0,0-1.81.19,1.85,1.85,0,0,0-.91.65,4.84,4.84,0,0,0-.66,1.54h-1.66l.26-4.49h5.24v-3.58a17.59,17.59,0,0,0-.1-2.14,3.15,3.15,0,0,0-.33-1.07,1.78,1.78,0,0,0-.68-.65,6,6,0,0,0-1.44-.53v-1.06h8.85Zm6,10.08h-8.53v5.43c0,1.37,0,2.9-.07,4.6s-.09,3-.15,3.82h.22l8.53-13.54Z"/><path class="cls-23" d="M93.07,81.93a65.24,65.24,0,0,0-15.4,15.54h0A65.66,65.66,0,0,0,62.26,81.93c-10.35-7.6-12.71-17.07-9-24.22s18.51-10.64,24.41,3.57c5.89-14.21,20.71-10.72,24.41-3.57S103.43,74.33,93.07,81.93Z"/><path class="cls-23" d="M62.27,263.51A65.24,65.24,0,0,0,77.67,248h0a65.48,65.48,0,0,0,15.4,15.54c10.36,7.6,12.72,17.07,9,24.22s-18.51,10.64-24.41-3.57c-5.89,14.21-20.71,10.72-24.41,3.57S51.91,271.11,62.27,263.51Z"/><path class="cls-23" d="M184.23,81.93a65.24,65.24,0,0,0-15.4,15.54h0a65.24,65.24,0,0,0-15.4-15.54c-10.35-7.6-12.71-17.07-9-24.22s18.52-10.64,24.42,3.57c5.89-14.21,20.7-10.72,24.41-3.57S194.59,74.33,184.23,81.93Z"/><path class="cls-23" d="M153.42,263.51A65.24,65.24,0,0,0,168.82,248h0a65.24,65.24,0,0,0,15.4,15.54c10.36,7.6,12.71,17.07,9,24.22s-18.52,10.64-24.41-3.57c-5.9,14.21-20.71,10.72-24.42,3.57S143.07,271.11,153.42,263.51Z"/></g></g></g></svg>