<?xml version="1.0" encoding="utf-8"?>
<!-- Generator: Adobe Illustrator 25.4.1, SVG Export Plug-In . SVG Version: 6.00 Build 0)  -->
<svg version="1.1" id="Layer_1" xmlns="http://www.w3.org/2000/svg" xmlns:xlink="http://www.w3.org/1999/xlink" x="0px" y="0px"
	 viewBox="0 0 24.8 24.8" style="enable-background:new 0 0 24.8 24.8;" xml:space="preserve">
<style type="text/css">
	.st0{fill-rule:evenodd;clip-rule:evenodd;fill:#FFFFFF;}
</style>
<path id="question" class="st0" d="M12.4,5.9c-2,0-3.5,1.6-3.5,3.5l0,0c0,0.5,0.4,0.9,0.9,0.9c0,0,0,0,0,0c0.5,0,0.9-0.4,0.9-0.9
	c0-0.9,0.8-1.7,1.7-1.7c0.9,0,1.7,0.6,1.7,1.6c0,0,0,0.1,0,0.1v0.1c0.1,1.1-0.8,2-1.9,2.1c0,0,0,0,0,0c-0.4,0.1-0.8,0.4-0.8,0.9v2.4
	c0,0.5,0.4,0.9,0.9,0.9c0,0,0,0,0,0c0.5,0,0.9-0.4,0.9-0.9v-1.7c1.6-0.5,2.7-2,2.6-3.8c0-1.9-1.5-3.4-3.4-3.5
	C12.4,5.9,12.4,5.9,12.4,5.9L12.4,5.9L12.4,5.9z M12.4,16.8c-0.6,0-1.2,0.5-1.2,1.2s0.5,1.2,1.2,1.2c0.6,0,1.2-0.5,1.2-1.2
	C13.5,17.3,13,16.8,12.4,16.8L12.4,16.8z M12.4,0.6C5.8,0.6,0.6,5.8,0.6,12.4s5.3,11.8,11.8,11.8s11.8-5.3,11.8-11.8
	C24.2,5.9,18.9,0.6,12.4,0.6C12.4,0.6,12.4,0.6,12.4,0.6z M12.4,22.4c-5.5,0-10-4.5-10-10s4.5-10,10-10c5.5,0,10,4.5,10,10
	c0,0,0,0,0,0C22.4,17.9,17.9,22.4,12.4,22.4C12.4,22.4,12.4,22.4,12.4,22.4z"/>
</svg>
