<svg xmlns="http://www.w3.org/2000/svg" xmlns:xlink="http://www.w3.org/1999/xlink" viewBox="0 0 249.9 349.84"><defs><style>.cls-1{mask:url(#mask);filter:url(#luminosity-noclip-6);}.cls-10,.cls-14,.cls-16,.cls-2,.cls-4,.cls-6,.cls-8{mix-blend-mode:multiply;}.cls-2{fill:url(#radial-gradient);}.cls-3{mask:url(#mask-2);filter:url(#luminosity-noclip-7);}.cls-4{fill:url(#radial-gradient-2);}.cls-5{mask:url(#mask-3);filter:url(#luminosity-noclip-8);}.cls-6{fill:url(#radial-gradient-3);}.cls-7{mask:url(#mask-4);filter:url(#luminosity-noclip-9);}.cls-8{fill:url(#radial-gradient-4);}.cls-9{mask:url(#mask-5);filter:url(#luminosity-noclip-10);}.cls-10{fill:url(#radial-gradient-5);}.cls-11{isolation:isolate;}.cls-12{fill:#fff;}.cls-13{mask:url(#mask-6);}.cls-14{fill:url(#radial-gradient-6);}.cls-15{mask:url(#mask-7);}.cls-16{fill:url(#radial-gradient-7);}.cls-17{mask:url(#mask-8);}.cls-18{fill:url(#radial-gradient-8);}.cls-19{mask:url(#mask-9);}.cls-20{mix-blend-mode:screen;fill:url(#radial-gradient-9);}.cls-21{mask:url(#mask-10);}.cls-22{fill:url(#radial-gradient-10);}.cls-23{filter:url(#luminosity-noclip-5);}.cls-24{filter:url(#luminosity-noclip-4);}.cls-25{filter:url(#luminosity-noclip-3);}.cls-26{filter:url(#luminosity-noclip-2);}.cls-27{filter:url(#luminosity-noclip);}</style><filter id="luminosity-noclip" x="0.01" y="-8183.14" width="249.89" height="32766" filterUnits="userSpaceOnUse" color-interpolation-filters="sRGB"><feFlood flood-color="#fff" result="bg"/><feBlend in="SourceGraphic" in2="bg"/></filter><mask id="mask" x="0.01" y="-8183.14" width="249.89" height="32766" maskUnits="userSpaceOnUse"><g class="cls-27"/></mask><radialGradient id="radial-gradient" cx="121.08" cy="-119.27" r="505.88" gradientUnits="userSpaceOnUse"><stop offset="0.62"/><stop offset="0.75" stop-color="#020202"/><stop offset="0.8" stop-color="#090909"/><stop offset="0.84" stop-color="#151515"/><stop offset="0.87" stop-color="#262626"/><stop offset="0.9" stop-color="#3c3c3c"/><stop offset="0.92" stop-color="#585858"/><stop offset="0.94" stop-color="#797979"/><stop offset="0.96" stop-color="#9f9f9f"/><stop offset="0.98" stop-color="#cbcbcb"/><stop offset="1" stop-color="#f9f9f9"/><stop offset="1" stop-color="#fff"/></radialGradient><filter id="luminosity-noclip-2" x="0.01" y="-8183.14" width="249.89" height="32766" filterUnits="userSpaceOnUse" color-interpolation-filters="sRGB"><feFlood flood-color="#fff" result="bg"/><feBlend in="SourceGraphic" in2="bg"/></filter><mask id="mask-2" x="0.01" y="-8183.14" width="249.89" height="32766" maskUnits="userSpaceOnUse"><g class="cls-26"/></mask><radialGradient id="radial-gradient-2" cx="126.09" cy="322.84" r="362.49" gradientUnits="userSpaceOnUse"><stop offset="0.62"/><stop offset="0.71" stop-color="#020202"/><stop offset="0.76" stop-color="#0a0a0a"/><stop offset="0.8" stop-color="#181818"/><stop offset="0.84" stop-color="#2c2c2c"/><stop offset="0.88" stop-color="#464646"/><stop offset="0.91" stop-color="#656565"/><stop offset="0.94" stop-color="#8a8a8a"/><stop offset="0.96" stop-color="#b6b6b6"/><stop offset="0.99" stop-color="#e5e5e5"/><stop offset="1" stop-color="#fff"/></radialGradient><filter id="luminosity-noclip-3" x="4.61" y="-8183.14" width="245.28" height="32766" filterUnits="userSpaceOnUse" color-interpolation-filters="sRGB"><feFlood flood-color="#fff" result="bg"/><feBlend in="SourceGraphic" in2="bg"/></filter><mask id="mask-3" x="4.61" y="-8183.14" width="245.28" height="32766" maskUnits="userSpaceOnUse"><g class="cls-25"/></mask><radialGradient id="radial-gradient-3" cx="-10.68" cy="-0.16" r="402.49" gradientUnits="userSpaceOnUse"><stop offset="0.1"/><stop offset="1" stop-color="#fff"/></radialGradient><filter id="luminosity-noclip-4" x="0.01" y="-8183.14" width="245.29" height="32766" filterUnits="userSpaceOnUse" color-interpolation-filters="sRGB"><feFlood flood-color="#fff" result="bg"/><feBlend in="SourceGraphic" in2="bg"/></filter><mask id="mask-4" x="0.01" y="-8183.14" width="245.29" height="32766" maskUnits="userSpaceOnUse"><g class="cls-24"/></mask><radialGradient id="radial-gradient-4" cx="68.26" cy="101.81" r="342.82" gradientUnits="userSpaceOnUse"><stop offset="0"/><stop offset="0.01" stop-color="#090909"/><stop offset="0.05" stop-color="#373737"/><stop offset="0.09" stop-color="#626262"/><stop offset="0.14" stop-color="#888"/><stop offset="0.2" stop-color="#a8a8a8"/><stop offset="0.25" stop-color="#c4c4c4"/><stop offset="0.32" stop-color="#dadada"/><stop offset="0.4" stop-color="#ebebeb"/><stop offset="0.49" stop-color="#f6f6f6"/><stop offset="0.63" stop-color="#fdfdfd"/><stop offset="1" stop-color="#fff"/></radialGradient><filter id="luminosity-noclip-5" x="0" y="-8183.14" width="0.51" height="32766" filterUnits="userSpaceOnUse" color-interpolation-filters="sRGB"><feFlood flood-color="#fff" result="bg"/><feBlend in="SourceGraphic" in2="bg"/></filter><mask id="mask-5" x="0" y="-8183.14" width="0.51" height="32766" maskUnits="userSpaceOnUse"><g class="cls-23"/></mask><radialGradient id="radial-gradient-5" cx="1921.79" cy="-0.16" r="402.57" gradientTransform="matrix(-1, 0, 0, 1, 2182.5, 0)" xlink:href="#radial-gradient-3"/><filter id="luminosity-noclip-6" x="0.01" y="188.8" width="249.89" height="161.04" filterUnits="userSpaceOnUse" color-interpolation-filters="sRGB"><feFlood flood-color="#fff" result="bg"/><feBlend in="SourceGraphic" in2="bg"/></filter><mask id="mask-6" x="0.01" y="188.8" width="249.89" height="161.04" maskUnits="userSpaceOnUse"><g class="cls-1"><path class="cls-2" d="M147.35,188.81,0,188.86V336.78c0,12.8,9.67,13.06,9.67,13.06H240.22s9.67-.26,9.67-13.06v-148Z"/></g></mask><radialGradient id="radial-gradient-6" cx="121.08" cy="-119.27" r="505.88" gradientUnits="userSpaceOnUse"><stop offset="0.62" stop-color="#fff"/><stop offset="0.79" stop-color="#fdfdfd"/><stop offset="0.85" stop-color="#f6f6f6"/><stop offset="0.9" stop-color="#eaeaea"/><stop offset="0.94" stop-color="#d9d9d9"/><stop offset="0.97" stop-color="#c3c3c3"/><stop offset="1" stop-color="#ababab"/></radialGradient><filter id="luminosity-noclip-7" x="0.01" y="0" width="249.89" height="174.63" filterUnits="userSpaceOnUse" color-interpolation-filters="sRGB"><feFlood flood-color="#fff" result="bg"/><feBlend in="SourceGraphic" in2="bg"/></filter><mask id="mask-7" x="0.01" y="0" width="249.89" height="174.63" maskUnits="userSpaceOnUse"><g class="cls-3"><path class="cls-4" d="M0,174.54l63.09.05q90.9,0,181.81,0h5V13.07C249.89.26,240.22,0,240.22,0H9.68S0,.26,0,13.07V174.54Z"/></g></mask><radialGradient id="radial-gradient-7" cx="126.09" cy="322.84" r="362.49" gradientUnits="userSpaceOnUse"><stop offset="0.62" stop-color="#fff"/><stop offset="0.75" stop-color="#fdfdfd"/><stop offset="0.82" stop-color="#f5f5f5"/><stop offset="0.88" stop-color="#e7e7e7"/><stop offset="0.93" stop-color="#d3d3d3"/><stop offset="0.98" stop-color="#bababa"/><stop offset="1" stop-color="#ababab"/></radialGradient><filter id="luminosity-noclip-8" x="4.61" y="0" width="245.28" height="349.84" filterUnits="userSpaceOnUse" color-interpolation-filters="sRGB"><feFlood flood-color="#fff" result="bg"/><feBlend in="SourceGraphic" in2="bg"/></filter><mask id="mask-8" x="4.61" y="0" width="245.28" height="349.84" maskUnits="userSpaceOnUse"><g class="cls-5"><path class="cls-6" d="M249.39,13V336.29c0,12.78-9.68,13-9.68,13H8.93a9.75,9.75,0,0,1-4.32-1.39,9.88,9.88,0,0,0,5.07,1.9H240.22s9.68-.26,9.68-13.07V13.06C249.9.26,240.22,0,240.22,0h-.51S249.39.26,249.39,13Z"/></g></mask><radialGradient id="radial-gradient-8" cx="-10.68" cy="-0.16" r="402.49" gradientUnits="userSpaceOnUse"><stop offset="0.1" stop-color="#fff"/><stop offset="1" stop-color="#ababab"/></radialGradient><filter id="luminosity-noclip-9" x="0.01" y="0" width="245.29" height="349.84" filterUnits="userSpaceOnUse" color-interpolation-filters="sRGB"><feFlood flood-color="#fff" result="bg"/><feBlend in="SourceGraphic" in2="bg"/></filter><mask id="mask-9" x="0.01" y="0" width="245.29" height="349.84" maskUnits="userSpaceOnUse"><g class="cls-7"><path class="cls-8" d="M.51,336.79V13.55C.51.77,10.2.51,10.2.51H241a9.87,9.87,0,0,1,4.32,1.39A10,10,0,0,0,240.22,0H9.68S0,.26,0,13.07V336.78c0,12.8,9.67,13.06,9.67,13.06h.52S.51,349.58.51,336.79Z"/></g></mask><radialGradient id="radial-gradient-9" cx="68.26" cy="101.81" r="342.82" gradientUnits="userSpaceOnUse"><stop offset="0" stop-color="#fff"/><stop offset="0.14" stop-color="#fff"/><stop offset="1" stop-color="#fff"/></radialGradient><filter id="luminosity-noclip-10" x="0" y="25.28" width="0.51" height="301.65" filterUnits="userSpaceOnUse" color-interpolation-filters="sRGB"><feFlood flood-color="#fff" result="bg"/><feBlend in="SourceGraphic" in2="bg"/></filter><mask id="mask-10" x="0" y="25.28" width="0.51" height="301.65" maskUnits="userSpaceOnUse"><g class="cls-9"><path class="cls-10" d="M0,25.28V326.93l.51-1.83V30.75Z"/></g></mask><radialGradient id="radial-gradient-10" cx="1921.79" cy="-0.16" r="402.57" gradientTransform="matrix(-1, 0, 0, 1, 2182.5, 0)" xlink:href="#radial-gradient-8"/></defs><g class="cls-11"><g id="Layer_2" data-name="Layer 2"><g id="Layer_1-2" data-name="Layer 1"><path class="cls-12" d="M240.22,0H9.68S0,.26,0,13.07V336.78c0,12.8,9.67,13.06,9.67,13.06H240.22s9.67-.26,9.67-13.06V13.07C249.89.26,240.22,0,240.22,0Z"/><g class="cls-13"><path class="cls-14" d="M147.35,188.81,0,188.86V336.78c0,12.8,9.67,13.06,9.67,13.06H240.22s9.67-.26,9.67-13.06v-148Z"/></g><g class="cls-15"><path class="cls-16" d="M0,174.54l63.09.05q90.9,0,181.81,0h5V13.07C249.89.26,240.22,0,240.22,0H9.68S0,.26,0,13.07V174.54Z"/></g><g class="cls-17"><path class="cls-18" d="M249.39,13V336.29c0,12.78-9.68,13-9.68,13H8.93a9.75,9.75,0,0,1-4.32-1.39,9.88,9.88,0,0,0,5.07,1.9H240.22s9.68-.26,9.68-13.07V13.06C249.9.26,240.22,0,240.22,0h-.51S249.39.26,249.39,13Z"/></g><g class="cls-19"><path class="cls-20" d="M.51,336.79V13.55C.51.77,10.2.51,10.2.51H241a9.87,9.87,0,0,1,4.32,1.39A10,10,0,0,0,240.22,0H9.68S0,.26,0,13.07V336.78c0,12.8,9.67,13.06,9.67,13.06h.52S.51,349.58.51,336.79Z"/></g><g class="cls-21"><path class="cls-22" d="M0,25.28V326.93l.51-1.83V30.75Z"/></g><path d="M19.07,67.18a22.26,22.26,0,0,1-4.21,11h8.42A22.15,22.15,0,0,1,19.07,67.18Z"/><path d="M26.93,57.54a32,32,0,0,1-7.86-7.47h0a31.87,31.87,0,0,1-7.85,7.47c-5.29,3.65-6.49,8.2-4.6,11.64s9.45,5.11,12.46-1.71c3,6.82,10.56,5.15,12.45,1.71S32.21,61.19,26.93,57.54Z"/><path d="M24,29.59l0,.28a7.94,7.94,0,0,1,3.78,2.84,7.81,7.81,0,0,1,1.28,4.5,8.32,8.32,0,0,1-1.24,4.55,8.06,8.06,0,0,1-3.59,3,13.21,13.21,0,0,1-5.49,1.07,12.73,12.73,0,0,1-5.16-1A7.81,7.81,0,0,1,10.22,42,8,8,0,0,1,9,37.56a7.64,7.64,0,0,1,.67-3.33,6.77,6.77,0,0,1,1.73-2.33,11.54,11.54,0,0,1,2.71-1.67l0-.29a7.17,7.17,0,0,1-4.75-7,6.94,6.94,0,0,1,1.25-4.06A8.31,8.31,0,0,1,14.11,16a12.63,12.63,0,0,1,5.11-1,14.22,14.22,0,0,1,5.35.89,6.9,6.9,0,0,1,3.26,2.59,7.33,7.33,0,0,1,1.09,4.05,7.32,7.32,0,0,1-1.19,4.19A8.51,8.51,0,0,1,24,29.59Zm-10.83,7.6a10.47,10.47,0,0,0,.33,2.68A5.88,5.88,0,0,0,14.59,42a5.09,5.09,0,0,0,1.85,1.43,6.29,6.29,0,0,0,2.74.53,6.18,6.18,0,0,0,3.1-.74,4.71,4.71,0,0,0,2-2.2,8.12,8.12,0,0,0,.67-3.44A8.38,8.38,0,0,0,24.19,34a5.34,5.34,0,0,0-2.05-2.34,5.79,5.79,0,0,0-3.07-.81,6.59,6.59,0,0,0-2.75.51,5,5,0,0,0-1.82,1.37,5.3,5.3,0,0,0-1,2A9.94,9.94,0,0,0,13.21,37.19Zm.25-14.49a9.73,9.73,0,0,0,.3,2.45,5.34,5.34,0,0,0,1,2,4.74,4.74,0,0,0,1.78,1.33,6.48,6.48,0,0,0,2.68.5,6.08,6.08,0,0,0,3.08-.72,4.44,4.44,0,0,0,1.86-2.1A7.93,7.93,0,0,0,24.77,23a7.23,7.23,0,0,0-.72-3.37,4.65,4.65,0,0,0-2-2,6.13,6.13,0,0,0-2.89-.66,5.67,5.67,0,0,0-4.26,1.51A5.91,5.91,0,0,0,13.46,22.7Z"/><path d="M230.3,282.05A22.15,22.15,0,0,1,234.51,271h-8.42A22.26,22.26,0,0,1,230.3,282.05Z"/><path d="M222.44,291.69a32.28,32.28,0,0,1,7.86,7.47h0a32,32,0,0,1,7.86-7.47c5.28-3.65,6.48-8.2,4.59-11.64s-9.44-5.11-12.45,1.71c-3-6.82-10.57-5.15-12.46-1.71S217.15,288,222.44,291.69Z"/><path d="M225.33,319.64l-.05-.28a7.91,7.91,0,0,1-3.77-2.84,7.74,7.74,0,0,1-1.28-4.5,8.4,8.4,0,0,1,1.23-4.55,8.11,8.11,0,0,1,3.59-3,13.21,13.21,0,0,1,5.49-1.07,12.73,12.73,0,0,1,5.16,1,7.78,7.78,0,0,1,3.45,2.88,8,8,0,0,1,1.22,4.45,7.79,7.79,0,0,1-.66,3.33,6.66,6.66,0,0,1-1.74,2.33,11.14,11.14,0,0,1-2.7,1.67l0,.29a7.17,7.17,0,0,1,4.75,7,6.87,6.87,0,0,1-1.25,4.06,8.27,8.27,0,0,1-3.55,2.81,12.71,12.71,0,0,1-5.12,1,14.12,14.12,0,0,1-5.34-.89,6.9,6.9,0,0,1-3.26-2.59,8,8,0,0,1,.1-8.24A8.39,8.39,0,0,1,225.33,319.64Zm10.82-7.6a10.47,10.47,0,0,0-.33-2.68,5.76,5.76,0,0,0-1-2.15,5,5,0,0,0-1.84-1.44,6.47,6.47,0,0,0-2.74-.53,6.2,6.2,0,0,0-3.11.74,4.74,4.74,0,0,0-2,2.2,8.13,8.13,0,0,0-.68,3.45,8.52,8.52,0,0,0,.73,3.65,5.36,5.36,0,0,0,2.06,2.34,5.77,5.77,0,0,0,3.07.81,6.59,6.59,0,0,0,2.75-.51,4.83,4.83,0,0,0,1.81-1.37,5.16,5.16,0,0,0,1-2A9.94,9.94,0,0,0,236.15,312Zm-.24,14.5a9.32,9.32,0,0,0-.31-2.46,5.55,5.55,0,0,0-1-2,4.93,4.93,0,0,0-1.78-1.33,6.52,6.52,0,0,0-2.69-.5,6.08,6.08,0,0,0-3.08.72,4.37,4.37,0,0,0-1.85,2.1,7.76,7.76,0,0,0-.61,3.19,7.21,7.21,0,0,0,.72,3.37,4.63,4.63,0,0,0,2,2,6.05,6.05,0,0,0,2.9.67,5.66,5.66,0,0,0,4.25-1.52A5.91,5.91,0,0,0,235.91,326.54Z"/><path d="M79.72,180.93a44.09,44.09,0,0,1-8.36,21.94H88.08A44.09,44.09,0,0,1,79.72,180.93Z"/><path d="M95.32,161.8A64.2,64.2,0,0,1,79.72,147h0a64.2,64.2,0,0,1-15.6,14.82c-10.49,7.25-12.87,16.29-9.12,23.11s18.75,10.14,24.72-3.4c6,13.54,21,10.22,24.72,3.4S105.81,169.05,95.32,161.8Z"/><path d="M79.72,265.39a44.09,44.09,0,0,0-8.36-21.94H88.08A44.09,44.09,0,0,0,79.72,265.39Z"/><path d="M95.32,284.52a64.2,64.2,0,0,0-15.6,14.82h0a64.2,64.2,0,0,0-15.6-14.82c-10.49-7.25-12.87-16.29-9.12-23.11s18.75-10.14,24.72,3.4c6-13.54,21-10.22,24.72-3.4S105.81,277.27,95.32,284.52Z"/><path d="M79.72,84.45a44.09,44.09,0,0,1-8.36,21.94H88.08A44.09,44.09,0,0,1,79.72,84.45Z"/><path d="M95.32,65.32A64.2,64.2,0,0,1,79.72,50.5h0a64.2,64.2,0,0,1-15.6,14.82C53.63,72.57,51.25,81.61,55,88.43S73.75,98.57,79.72,85c6,13.54,21,10.22,24.72,3.4S105.81,72.57,95.32,65.32Z"/><path d="M170.17,180.93a44.09,44.09,0,0,1-8.36,21.94h16.72A44.09,44.09,0,0,1,170.17,180.93Z"/><path d="M185.77,161.8A64.2,64.2,0,0,1,170.17,147h0a64,64,0,0,1-15.6,14.82c-10.49,7.25-12.87,16.29-9.12,23.11s18.75,10.14,24.72-3.4c6,13.54,21,10.22,24.72,3.4S196.26,169.05,185.77,161.8Z"/><path d="M170.17,265.39a44.09,44.09,0,0,0-8.36-21.94h16.72A44.09,44.09,0,0,0,170.17,265.39Z"/><path d="M185.77,284.52a64.2,64.2,0,0,0-15.6,14.82h0a64,64,0,0,0-15.6-14.82c-10.49-7.25-12.87-16.29-9.12-23.11s18.75-10.14,24.72,3.4c6-13.54,21-10.22,24.72-3.4S196.26,277.27,185.77,284.52Z"/><path d="M170.17,84.45a44.09,44.09,0,0,1-8.36,21.94h16.72A44.09,44.09,0,0,1,170.17,84.45Z"/><path d="M185.77,65.32a64.2,64.2,0,0,1-15.6-14.82h0a64,64,0,0,1-15.6,14.82c-10.49,7.25-12.87,16.29-9.12,23.11S164.2,98.57,170.17,85c6,13.54,21,10.22,24.72,3.4S196.26,72.57,185.77,65.32Z"/><path d="M125,130.18a44,44,0,0,1-8.36,21.94H133.3A44.08,44.08,0,0,1,125,130.18Z"/><path d="M140.55,111.06c-10.35-7.15-15.47-14.63-15.6-14.83h0c-.13.2-5.25,7.68-15.59,14.83s-12.88,16.28-9.13,23.1S119,144.31,125,130.76c6,13.55,21,10.22,24.72,3.4S151,118.3,140.55,111.06Z"/><path d="M125,219.66a44,44,0,0,0-8.36-21.94H133.3A44.08,44.08,0,0,0,125,219.66Z"/><path d="M140.55,238.78A64.1,64.1,0,0,0,125,253.61h0a64.16,64.16,0,0,0-15.59-14.83c-10.49-7.24-12.88-16.28-9.13-23.1S119,205.53,125,219.08c6-13.55,21-10.22,24.72-3.4S151,231.54,140.55,238.78Z"/></g></g></g></svg>