<svg xmlns="http://www.w3.org/2000/svg" xmlns:xlink="http://www.w3.org/1999/xlink" viewBox="0 0 249.9 349.84"><defs><style>.cls-1{mask:url(#mask);filter:url(#luminosity-noclip-6);}.cls-10,.cls-14,.cls-16,.cls-2,.cls-4,.cls-6,.cls-8{mix-blend-mode:multiply;}.cls-2{fill:url(#radial-gradient);}.cls-3{mask:url(#mask-2);filter:url(#luminosity-noclip-7);}.cls-4{fill:url(#radial-gradient-2);}.cls-5{mask:url(#mask-3);filter:url(#luminosity-noclip-8);}.cls-6{fill:url(#radial-gradient-3);}.cls-7{mask:url(#mask-4);filter:url(#luminosity-noclip-9);}.cls-8{fill:url(#radial-gradient-4);}.cls-9{mask:url(#mask-5);filter:url(#luminosity-noclip-10);}.cls-10{fill:url(#radial-gradient-5);}.cls-11{isolation:isolate;}.cls-12{fill:#fff;}.cls-13{mask:url(#mask-6);}.cls-14{fill:url(#radial-gradient-6);}.cls-15{mask:url(#mask-7);}.cls-16{fill:url(#radial-gradient-7);}.cls-17{mask:url(#mask-8);}.cls-18{fill:url(#radial-gradient-8);}.cls-19{mask:url(#mask-9);}.cls-20{mix-blend-mode:screen;fill:url(#radial-gradient-9);}.cls-21{mask:url(#mask-10);}.cls-22{fill:url(#radial-gradient-10);}.cls-23{filter:url(#luminosity-noclip-5);}.cls-24{filter:url(#luminosity-noclip-4);}.cls-25{filter:url(#luminosity-noclip-3);}.cls-26{filter:url(#luminosity-noclip-2);}.cls-27{filter:url(#luminosity-noclip);}</style><filter id="luminosity-noclip" x="0.01" y="-8183.14" width="249.88" height="32766" filterUnits="userSpaceOnUse" color-interpolation-filters="sRGB"><feFlood flood-color="#fff" result="bg"/><feBlend in="SourceGraphic" in2="bg"/></filter><mask id="mask" x="0.01" y="-8183.14" width="249.88" height="32766" maskUnits="userSpaceOnUse"><g class="cls-27"/></mask><radialGradient id="radial-gradient" cx="121.08" cy="-119.27" r="505.88" gradientUnits="userSpaceOnUse"><stop offset="0.62"/><stop offset="0.75" stop-color="#020202"/><stop offset="0.8" stop-color="#090909"/><stop offset="0.84" stop-color="#151515"/><stop offset="0.87" stop-color="#262626"/><stop offset="0.9" stop-color="#3c3c3c"/><stop offset="0.92" stop-color="#585858"/><stop offset="0.94" stop-color="#797979"/><stop offset="0.96" stop-color="#9f9f9f"/><stop offset="0.98" stop-color="#cbcbcb"/><stop offset="1" stop-color="#f9f9f9"/><stop offset="1" stop-color="#fff"/></radialGradient><filter id="luminosity-noclip-2" x="0.01" y="-8183.14" width="249.89" height="32766" filterUnits="userSpaceOnUse" color-interpolation-filters="sRGB"><feFlood flood-color="#fff" result="bg"/><feBlend in="SourceGraphic" in2="bg"/></filter><mask id="mask-2" x="0.01" y="-8183.14" width="249.89" height="32766" maskUnits="userSpaceOnUse"><g class="cls-26"/></mask><radialGradient id="radial-gradient-2" cx="126.09" cy="322.84" r="362.49" gradientUnits="userSpaceOnUse"><stop offset="0.62"/><stop offset="0.71" stop-color="#020202"/><stop offset="0.76" stop-color="#0a0a0a"/><stop offset="0.8" stop-color="#181818"/><stop offset="0.84" stop-color="#2c2c2c"/><stop offset="0.88" stop-color="#464646"/><stop offset="0.91" stop-color="#656565"/><stop offset="0.94" stop-color="#8a8a8a"/><stop offset="0.96" stop-color="#b6b6b6"/><stop offset="0.99" stop-color="#e5e5e5"/><stop offset="1" stop-color="#fff"/></radialGradient><filter id="luminosity-noclip-3" x="4.61" y="-8183.14" width="245.29" height="32766" filterUnits="userSpaceOnUse" color-interpolation-filters="sRGB"><feFlood flood-color="#fff" result="bg"/><feBlend in="SourceGraphic" in2="bg"/></filter><mask id="mask-3" x="4.61" y="-8183.14" width="245.29" height="32766" maskUnits="userSpaceOnUse"><g class="cls-25"/></mask><radialGradient id="radial-gradient-3" cx="-10.68" cy="-0.16" r="402.5" gradientUnits="userSpaceOnUse"><stop offset="0.1"/><stop offset="1" stop-color="#fff"/></radialGradient><filter id="luminosity-noclip-4" x="0.01" y="-8183.14" width="245.29" height="32766" filterUnits="userSpaceOnUse" color-interpolation-filters="sRGB"><feFlood flood-color="#fff" result="bg"/><feBlend in="SourceGraphic" in2="bg"/></filter><mask id="mask-4" x="0.01" y="-8183.14" width="245.29" height="32766" maskUnits="userSpaceOnUse"><g class="cls-24"/></mask><radialGradient id="radial-gradient-4" cx="68.26" cy="101.81" r="342.82" gradientUnits="userSpaceOnUse"><stop offset="0"/><stop offset="0.01" stop-color="#090909"/><stop offset="0.05" stop-color="#373737"/><stop offset="0.09" stop-color="#626262"/><stop offset="0.14" stop-color="#888"/><stop offset="0.2" stop-color="#a8a8a8"/><stop offset="0.25" stop-color="#c4c4c4"/><stop offset="0.32" stop-color="#dadada"/><stop offset="0.4" stop-color="#ebebeb"/><stop offset="0.49" stop-color="#f6f6f6"/><stop offset="0.63" stop-color="#fdfdfd"/><stop offset="1" stop-color="#fff"/></radialGradient><filter id="luminosity-noclip-5" x="0" y="-8183.14" width="0.51" height="32766" filterUnits="userSpaceOnUse" color-interpolation-filters="sRGB"><feFlood flood-color="#fff" result="bg"/><feBlend in="SourceGraphic" in2="bg"/></filter><mask id="mask-5" x="0" y="-8183.14" width="0.51" height="32766" maskUnits="userSpaceOnUse"><g class="cls-23"/></mask><radialGradient id="radial-gradient-5" cx="848.19" cy="-0.16" r="402.42" gradientTransform="matrix(-1, 0, 0, 1, 1108.64, 0)" xlink:href="#radial-gradient-3"/><filter id="luminosity-noclip-6" x="0.01" y="188.8" width="249.88" height="161.04" filterUnits="userSpaceOnUse" color-interpolation-filters="sRGB"><feFlood flood-color="#fff" result="bg"/><feBlend in="SourceGraphic" in2="bg"/></filter><mask id="mask-6" x="0.01" y="188.8" width="249.88" height="161.04" maskUnits="userSpaceOnUse"><g class="cls-1"><path class="cls-2" d="M147.35,188.81,0,188.86V336.78c0,12.8,9.67,13.06,9.67,13.06H240.22s9.67-.26,9.67-13.06v-148Z"/></g></mask><radialGradient id="radial-gradient-6" cx="121.08" cy="-119.27" r="505.88" gradientUnits="userSpaceOnUse"><stop offset="0.62" stop-color="#fff"/><stop offset="0.79" stop-color="#fdfdfd"/><stop offset="0.85" stop-color="#f6f6f6"/><stop offset="0.9" stop-color="#eaeaea"/><stop offset="0.94" stop-color="#d9d9d9"/><stop offset="0.97" stop-color="#c3c3c3"/><stop offset="1" stop-color="#ababab"/></radialGradient><filter id="luminosity-noclip-7" x="0.01" y="0" width="249.89" height="174.63" filterUnits="userSpaceOnUse" color-interpolation-filters="sRGB"><feFlood flood-color="#fff" result="bg"/><feBlend in="SourceGraphic" in2="bg"/></filter><mask id="mask-7" x="0.01" y="0" width="249.89" height="174.63" maskUnits="userSpaceOnUse"><g class="cls-3"><path class="cls-4" d="M0,174.54l63.09.05q90.9,0,181.81,0h5V13.07C249.89.26,240.22,0,240.22,0H9.68S0,.26,0,13.07V174.54Z"/></g></mask><radialGradient id="radial-gradient-7" cx="126.09" cy="322.84" r="362.49" gradientUnits="userSpaceOnUse"><stop offset="0.62" stop-color="#fff"/><stop offset="0.75" stop-color="#fdfdfd"/><stop offset="0.82" stop-color="#f5f5f5"/><stop offset="0.88" stop-color="#e7e7e7"/><stop offset="0.93" stop-color="#d3d3d3"/><stop offset="0.98" stop-color="#bababa"/><stop offset="1" stop-color="#ababab"/></radialGradient><filter id="luminosity-noclip-8" x="4.61" y="0" width="245.29" height="349.84" filterUnits="userSpaceOnUse" color-interpolation-filters="sRGB"><feFlood flood-color="#fff" result="bg"/><feBlend in="SourceGraphic" in2="bg"/></filter><mask id="mask-8" x="4.61" y="0" width="245.29" height="349.84" maskUnits="userSpaceOnUse"><g class="cls-5"><path class="cls-6" d="M249.39,13V336.29c0,12.78-9.68,13-9.68,13H8.93a9.71,9.71,0,0,1-4.32-1.39,9.88,9.88,0,0,0,5.07,1.9H240.22s9.68-.26,9.68-13.07V13.06C249.9.26,240.22,0,240.22,0h-.51S249.39.26,249.39,13Z"/></g></mask><radialGradient id="radial-gradient-8" cx="-10.68" cy="-0.16" r="402.5" gradientUnits="userSpaceOnUse"><stop offset="0.1" stop-color="#fff"/><stop offset="1" stop-color="#ababab"/></radialGradient><filter id="luminosity-noclip-9" x="0.01" y="0" width="245.29" height="349.84" filterUnits="userSpaceOnUse" color-interpolation-filters="sRGB"><feFlood flood-color="#fff" result="bg"/><feBlend in="SourceGraphic" in2="bg"/></filter><mask id="mask-9" x="0.01" y="0" width="245.29" height="349.84" maskUnits="userSpaceOnUse"><g class="cls-7"><path class="cls-8" d="M.51,336.79V13.55C.51.77,10.2.51,10.2.51H241a9.87,9.87,0,0,1,4.32,1.39A10,10,0,0,0,240.22,0H9.68S0,.26,0,13.07V336.78c0,12.8,9.67,13.06,9.67,13.06h.52S.51,349.58.51,336.79Z"/></g></mask><radialGradient id="radial-gradient-9" cx="68.26" cy="101.81" r="342.82" gradientUnits="userSpaceOnUse"><stop offset="0" stop-color="#fff"/><stop offset="0.14" stop-color="#fff"/><stop offset="1" stop-color="#fff"/></radialGradient><filter id="luminosity-noclip-10" x="0" y="25.28" width="0.51" height="301.65" filterUnits="userSpaceOnUse" color-interpolation-filters="sRGB"><feFlood flood-color="#fff" result="bg"/><feBlend in="SourceGraphic" in2="bg"/></filter><mask id="mask-10" x="0" y="25.28" width="0.51" height="301.65" maskUnits="userSpaceOnUse"><g class="cls-9"><path class="cls-10" d="M0,25.28V326.93c.17-.61.33-1.22.51-1.83V30.75C.33,28.92.17,27.1,0,25.28Z"/></g></mask><radialGradient id="radial-gradient-10" cx="848.19" cy="-0.16" r="402.42" gradientTransform="matrix(-1, 0, 0, 1, 1108.64, 0)" xlink:href="#radial-gradient-8"/></defs><g class="cls-11"><g id="Layer_2" data-name="Layer 2"><g id="Layer_1-2" data-name="Layer 1"><path class="cls-12" d="M240.22,0H9.68S0,.26,0,13.07V336.78c0,12.8,9.67,13.06,9.67,13.06H240.22s9.67-.26,9.67-13.06V13.07C249.89.26,240.22,0,240.22,0Z"/><g class="cls-13"><path class="cls-14" d="M147.35,188.81,0,188.86V336.78c0,12.8,9.67,13.06,9.67,13.06H240.22s9.67-.26,9.67-13.06v-148Z"/></g><g class="cls-15"><path class="cls-16" d="M0,174.54l63.09.05q90.9,0,181.81,0h5V13.07C249.89.26,240.22,0,240.22,0H9.68S0,.26,0,13.07V174.54Z"/></g><g class="cls-17"><path class="cls-18" d="M249.39,13V336.29c0,12.78-9.68,13-9.68,13H8.93a9.71,9.71,0,0,1-4.32-1.39,9.88,9.88,0,0,0,5.07,1.9H240.22s9.68-.26,9.68-13.07V13.06C249.9.26,240.22,0,240.22,0h-.51S249.39.26,249.39,13Z"/></g><g class="cls-19"><path class="cls-20" d="M.51,336.79V13.55C.51.77,10.2.51,10.2.51H241a9.87,9.87,0,0,1,4.32,1.39A10,10,0,0,0,240.22,0H9.68S0,.26,0,13.07V336.78c0,12.8,9.67,13.06,9.67,13.06h.52S.51,349.58.51,336.79Z"/></g><g class="cls-21"><path class="cls-22" d="M0,25.28V326.93c.17-.61.33-1.22.51-1.83V30.75C.33,28.92.17,27.1,0,25.28Z"/></g><path d="M25,67.18a22.15,22.15,0,0,1-4.21,11h8.42A22.26,22.26,0,0,1,25,67.18Z"/><path d="M32.81,57.54A32.28,32.28,0,0,1,25,50.07h0a32,32,0,0,1-7.86,7.47c-5.28,3.65-6.48,8.2-4.6,11.64S21.94,74.29,25,67.47c3,6.82,10.57,5.15,12.46,1.71S38.1,61.19,32.81,57.54Z"/><path d="M18.56,39.75a10.15,10.15,0,0,0,.14,1.93,2.34,2.34,0,0,0,.51,1.06,2.27,2.27,0,0,0,1.05.64,8,8,0,0,0,1.72.36c.69.08,1.61.13,2.74.16v1.62H8.39V43.9a28.45,28.45,0,0,0,3.51-.3A4.12,4.12,0,0,0,13.5,43,2.11,2.11,0,0,0,14.3,42a7,7,0,0,0,.26-2.23V21.83a2.13,2.13,0,0,0-.31-1.29,1.08,1.08,0,0,0-.91-.41,4.73,4.73,0,0,0-2,.73c-.87.49-1.94,1.16-3.22,2l-1-1.7L17.48,15h1.21q-.14,2.12-.13,5.87Z"/><path d="M32.85,45.87a7.77,7.77,0,0,1-7.1-3.76q-2.34-3.75-2.33-11.4a30.55,30.55,0,0,1,.71-7,15.22,15.22,0,0,1,2-4.89,8.38,8.38,0,0,1,3.11-2.87,8.63,8.63,0,0,1,4-.92,8,8,0,0,1,7.21,3.73Q42.77,22.48,42.77,30q0,7.81-2.53,11.83A8.21,8.21,0,0,1,32.85,45.87ZM27.72,30.05c0,4.8.45,8.33,1.34,10.57S31.33,44,33.2,44s3.11-1.06,4-3.17,1.29-5.38,1.29-9.82a41.58,41.58,0,0,0-.66-8.23A10.24,10.24,0,0,0,36,18.25a3.63,3.63,0,0,0-2.86-1.36,3.75,3.75,0,0,0-2.55.9,6.32,6.32,0,0,0-1.66,2.61A17.55,17.55,0,0,0,28,24.54,50.52,50.52,0,0,0,27.72,30.05Z"/><path d="M225.63,282.05A22.15,22.15,0,0,1,229.84,271h-8.42A22.26,22.26,0,0,1,225.63,282.05Z"/><path d="M217.77,291.69a31.87,31.87,0,0,1,7.85,7.47h0a32,32,0,0,1,7.86-7.47c5.28-3.65,6.48-8.2,4.59-11.64s-9.44-5.11-12.45,1.71c-3-6.82-10.57-5.15-12.46-1.71S212.48,288,217.77,291.69Z"/><path d="M232,309.48a10.15,10.15,0,0,0-.14-1.93,2.34,2.34,0,0,0-.51-1.06,2.27,2.27,0,0,0-1.05-.64,8.17,8.17,0,0,0-1.72-.36c-.69-.08-1.61-.13-2.74-.16v-1.62h16.32v1.62a28.43,28.43,0,0,0-3.5.3,4.12,4.12,0,0,0-1.6.56,2.12,2.12,0,0,0-.81,1.06,7,7,0,0,0-.25,2.23V327.4a2.13,2.13,0,0,0,.31,1.29,1.08,1.08,0,0,0,.91.41,4.6,4.6,0,0,0,2-.73c.86-.49,1.94-1.16,3.22-2l1,1.7-10.34,6.16h-1.21q.13-2.12.13-5.87Z"/><path d="M217.73,303.36a7.77,7.77,0,0,1,7.1,3.76q2.34,3.75,2.33,11.4a30.55,30.55,0,0,1-.71,7,14.91,14.91,0,0,1-2,4.89,8.28,8.28,0,0,1-3.1,2.87,8.66,8.66,0,0,1-4,.92,8,8,0,0,1-7.21-3.73q-2.35-3.74-2.36-11.29,0-7.81,2.53-11.83A8.21,8.21,0,0,1,217.73,303.36Zm5.12,15.82c0-4.8-.44-8.33-1.33-10.57s-2.27-3.37-4.14-3.37-3.11,1.06-4,3.17-1.29,5.38-1.29,9.82a41.51,41.51,0,0,0,.66,8.23,10.24,10.24,0,0,0,1.85,4.52,3.64,3.64,0,0,0,2.86,1.37,3.76,3.76,0,0,0,2.55-.91,6.21,6.21,0,0,0,1.65-2.61,17.52,17.52,0,0,0,.9-4.14A50.69,50.69,0,0,0,222.85,319.18Z"/><path d="M170.64,201.15a44.1,44.1,0,0,1,8.36-22H162.29A44.14,44.14,0,0,1,170.64,201.15Z"/><path d="M155,220.27c10.35,7.15,15.47,14.63,15.6,14.83h0c.13-.2,5.24-7.68,15.59-14.83s12.88-16.28,9.13-23.11-18.76-10.14-24.73,3.41c-6-13.55-21-10.22-24.72-3.41S144.55,213,155,220.27Z"/><path d="M170.64,265.47a44.14,44.14,0,0,0-8.35-22H179A44.1,44.1,0,0,0,170.64,265.47Z"/><path d="M186.24,284.59c-10.35,7.15-15.46,14.63-15.59,14.83h0c-.13-.2-5.25-7.68-15.6-14.83s-12.87-16.28-9.12-23.1,18.75-10.15,24.72,3.4c6-13.55,21-10.22,24.73-3.4S196.73,277.35,186.24,284.59Z"/><path d="M170.64,84.52a44.14,44.14,0,0,1-8.35,22H179A44.1,44.1,0,0,1,170.64,84.52Z"/><path d="M186.24,65.4c-10.35-7.15-15.46-14.63-15.59-14.83h0c-.13.2-5.25,7.68-15.6,14.83s-12.87,16.28-9.12,23.1,18.75,10.15,24.72-3.4c6,13.55,21,10.22,24.73,3.4S196.73,72.64,186.24,65.4Z"/><path d="M170.64,148.84a44.14,44.14,0,0,1-8.35,21.95H179A44.1,44.1,0,0,1,170.64,148.84Z"/><path d="M186.24,129.72c-10.35-7.15-15.46-14.63-15.59-14.83h0c-.13.2-5.25,7.68-15.6,14.83s-12.87,16.28-9.12,23.11,18.75,10.14,24.72-3.41c6,13.55,21,10.22,24.73,3.41S196.73,137,186.24,129.72Z"/><path d="M79.26,201.15a44.14,44.14,0,0,1,8.35-22H70.9A44.1,44.1,0,0,1,79.26,201.15Z"/><path d="M63.66,220.27a63.91,63.91,0,0,1,15.6,14.83h0c.13-.2,5.25-7.68,15.6-14.83S107.73,204,104,197.16,85.23,187,79.26,200.57c-6-13.55-21-10.22-24.72-3.41S53.17,213,63.66,220.27Z"/><path d="M79.26,265.47a44.1,44.1,0,0,0-8.36-22H87.61A44.14,44.14,0,0,0,79.26,265.47Z"/><path d="M94.86,284.59c-10.35,7.15-15.47,14.63-15.6,14.83h0a63.91,63.91,0,0,0-15.6-14.83c-10.49-7.24-12.88-16.28-9.12-23.1s18.75-10.15,24.72,3.4c6-13.55,21-10.22,24.72-3.4S105.35,277.35,94.86,284.59Z"/><path d="M79.26,84.52a44.1,44.1,0,0,1-8.36,22H87.61A44.14,44.14,0,0,1,79.26,84.52Z"/><path d="M94.86,65.4c-10.35-7.15-15.47-14.63-15.6-14.83h0A63.91,63.91,0,0,1,63.66,65.4c-10.49,7.24-12.88,16.28-9.12,23.1s18.75,10.15,24.72-3.4c6,13.55,21,10.22,24.72,3.4S105.35,72.64,94.86,65.4Z"/><path d="M79.26,148.84a44.1,44.1,0,0,1-8.36,21.95H87.61A44.14,44.14,0,0,1,79.26,148.84Z"/><path d="M94.86,129.72c-10.35-7.15-15.47-14.63-15.6-14.83h0a63.91,63.91,0,0,1-15.6,14.83C53.17,137,50.78,146,54.54,152.83S73.29,163,79.26,149.42c6,13.55,21,10.22,24.72,3.41S105.35,137,94.86,129.72Z"/><path d="M125,114.88a44.09,44.09,0,0,1-8.36,21.94h16.72A44.09,44.09,0,0,1,125,114.88Z"/><path d="M140.55,95.75A64.2,64.2,0,0,1,125,80.93h0a64.2,64.2,0,0,1-15.6,14.82C98.86,103,96.48,112,100.23,118.86S119,129,125,115.46c6,13.54,21,10.22,24.72,3.4S151,103,140.55,95.75Z"/><path d="M125,230.44a44.09,44.09,0,0,0-8.36-21.94h16.72A44.09,44.09,0,0,0,125,230.44Z"/><path d="M140.55,249.57A64.2,64.2,0,0,0,125,264.39h0a64.2,64.2,0,0,0-15.6-14.82c-10.49-7.25-12.87-16.29-9.12-23.11S119,216.32,125,229.86c6-13.54,21-10.22,24.72-3.4S151,242.32,140.55,249.57Z"/></g></g></g></svg>