<svg xmlns="http://www.w3.org/2000/svg" xmlns:xlink="http://www.w3.org/1999/xlink" viewBox="0 0 249.9 349.84"><defs><style>.cls-1{mask:url(#mask);filter:url(#luminosity-noclip-6);}.cls-10,.cls-14,.cls-16,.cls-2,.cls-4,.cls-6,.cls-8{mix-blend-mode:multiply;}.cls-2{fill:url(#radial-gradient);}.cls-3{mask:url(#mask-2);filter:url(#luminosity-noclip-7);}.cls-4{fill:url(#radial-gradient-2);}.cls-5{mask:url(#mask-3);filter:url(#luminosity-noclip-8);}.cls-6{fill:url(#radial-gradient-3);}.cls-7{mask:url(#mask-4);filter:url(#luminosity-noclip-9);}.cls-8{fill:url(#radial-gradient-4);}.cls-9{mask:url(#mask-5);filter:url(#luminosity-noclip-10);}.cls-10{fill:url(#radial-gradient-5);}.cls-11{isolation:isolate;}.cls-12{fill:#fff;}.cls-13{mask:url(#mask-6);}.cls-14{fill:url(#radial-gradient-6);}.cls-15{mask:url(#mask-7);}.cls-16{fill:url(#radial-gradient-7);}.cls-17{mask:url(#mask-8);}.cls-18{fill:url(#radial-gradient-8);}.cls-19{mask:url(#mask-9);}.cls-20{mix-blend-mode:screen;fill:url(#radial-gradient-9);}.cls-21{mask:url(#mask-10);}.cls-22{fill:url(#radial-gradient-10);}.cls-23{filter:url(#luminosity-noclip-5);}.cls-24{filter:url(#luminosity-noclip-4);}.cls-25{filter:url(#luminosity-noclip-3);}.cls-26{filter:url(#luminosity-noclip-2);}.cls-27{filter:url(#luminosity-noclip);}</style><filter id="luminosity-noclip" x="0.01" y="-8183.14" width="249.89" height="32766" filterUnits="userSpaceOnUse" color-interpolation-filters="sRGB"><feFlood flood-color="#fff" result="bg"/><feBlend in="SourceGraphic" in2="bg"/></filter><mask id="mask" x="0.01" y="-8183.14" width="249.89" height="32766" maskUnits="userSpaceOnUse"><g class="cls-27"/></mask><radialGradient id="radial-gradient" cx="121.08" cy="-119.27" r="505.88" gradientUnits="userSpaceOnUse"><stop offset="0.62"/><stop offset="0.75" stop-color="#020202"/><stop offset="0.8" stop-color="#090909"/><stop offset="0.84" stop-color="#151515"/><stop offset="0.87" stop-color="#262626"/><stop offset="0.9" stop-color="#3c3c3c"/><stop offset="0.92" stop-color="#585858"/><stop offset="0.94" stop-color="#797979"/><stop offset="0.96" stop-color="#9f9f9f"/><stop offset="0.98" stop-color="#cbcbcb"/><stop offset="1" stop-color="#f9f9f9"/><stop offset="1" stop-color="#fff"/></radialGradient><filter id="luminosity-noclip-2" x="0.01" y="-8183.14" width="249.89" height="32766" filterUnits="userSpaceOnUse" color-interpolation-filters="sRGB"><feFlood flood-color="#fff" result="bg"/><feBlend in="SourceGraphic" in2="bg"/></filter><mask id="mask-2" x="0.01" y="-8183.14" width="249.89" height="32766" maskUnits="userSpaceOnUse"><g class="cls-26"/></mask><radialGradient id="radial-gradient-2" cx="126.09" cy="322.84" r="362.49" gradientUnits="userSpaceOnUse"><stop offset="0.62"/><stop offset="0.71" stop-color="#020202"/><stop offset="0.76" stop-color="#0a0a0a"/><stop offset="0.8" stop-color="#181818"/><stop offset="0.84" stop-color="#2c2c2c"/><stop offset="0.88" stop-color="#464646"/><stop offset="0.91" stop-color="#656565"/><stop offset="0.94" stop-color="#8a8a8a"/><stop offset="0.96" stop-color="#b6b6b6"/><stop offset="0.99" stop-color="#e5e5e5"/><stop offset="1" stop-color="#fff"/></radialGradient><filter id="luminosity-noclip-3" x="4.61" y="-8183.14" width="245.28" height="32766" filterUnits="userSpaceOnUse" color-interpolation-filters="sRGB"><feFlood flood-color="#fff" result="bg"/><feBlend in="SourceGraphic" in2="bg"/></filter><mask id="mask-3" x="4.61" y="-8183.14" width="245.28" height="32766" maskUnits="userSpaceOnUse"><g class="cls-25"/></mask><radialGradient id="radial-gradient-3" cx="-10.68" cy="-0.16" r="402.49" gradientUnits="userSpaceOnUse"><stop offset="0.1"/><stop offset="1" stop-color="#fff"/></radialGradient><filter id="luminosity-noclip-4" x="0.01" y="-8183.14" width="245.29" height="32766" filterUnits="userSpaceOnUse" color-interpolation-filters="sRGB"><feFlood flood-color="#fff" result="bg"/><feBlend in="SourceGraphic" in2="bg"/></filter><mask id="mask-4" x="0.01" y="-8183.14" width="245.29" height="32766" maskUnits="userSpaceOnUse"><g class="cls-24"/></mask><radialGradient id="radial-gradient-4" cx="68.26" cy="101.81" r="342.82" gradientUnits="userSpaceOnUse"><stop offset="0"/><stop offset="0.01" stop-color="#090909"/><stop offset="0.05" stop-color="#373737"/><stop offset="0.09" stop-color="#626262"/><stop offset="0.14" stop-color="#888"/><stop offset="0.2" stop-color="#a8a8a8"/><stop offset="0.25" stop-color="#c4c4c4"/><stop offset="0.32" stop-color="#dadada"/><stop offset="0.4" stop-color="#ebebeb"/><stop offset="0.49" stop-color="#f6f6f6"/><stop offset="0.63" stop-color="#fdfdfd"/><stop offset="1" stop-color="#fff"/></radialGradient><filter id="luminosity-noclip-5" x="0" y="-8183.14" width="0.51" height="32766" filterUnits="userSpaceOnUse" color-interpolation-filters="sRGB"><feFlood flood-color="#fff" result="bg"/><feBlend in="SourceGraphic" in2="bg"/></filter><mask id="mask-5" x="0" y="-8183.14" width="0.51" height="32766" maskUnits="userSpaceOnUse"><g class="cls-23"/></mask><radialGradient id="radial-gradient-5" cx="1384.81" cy="-0.16" r="402.61" gradientTransform="matrix(-1, 0, 0, 1, 1645.57, 0)" xlink:href="#radial-gradient-3"/><filter id="luminosity-noclip-6" x="0.01" y="188.8" width="249.89" height="161.04" filterUnits="userSpaceOnUse" color-interpolation-filters="sRGB"><feFlood flood-color="#fff" result="bg"/><feBlend in="SourceGraphic" in2="bg"/></filter><mask id="mask-6" x="0.01" y="188.8" width="249.89" height="161.04" maskUnits="userSpaceOnUse"><g class="cls-1"><path class="cls-2" d="M147.35,188.81,0,188.86V336.78c0,12.8,9.67,13.06,9.67,13.06H240.22s9.67-.26,9.67-13.06v-148Z"/></g></mask><radialGradient id="radial-gradient-6" cx="121.08" cy="-119.27" r="505.88" gradientUnits="userSpaceOnUse"><stop offset="0.62" stop-color="#fff"/><stop offset="0.79" stop-color="#fdfdfd"/><stop offset="0.85" stop-color="#f6f6f6"/><stop offset="0.9" stop-color="#eaeaea"/><stop offset="0.94" stop-color="#d9d9d9"/><stop offset="0.97" stop-color="#c3c3c3"/><stop offset="1" stop-color="#ababab"/></radialGradient><filter id="luminosity-noclip-7" x="0.01" y="0" width="249.89" height="174.63" filterUnits="userSpaceOnUse" color-interpolation-filters="sRGB"><feFlood flood-color="#fff" result="bg"/><feBlend in="SourceGraphic" in2="bg"/></filter><mask id="mask-7" x="0.01" y="0" width="249.89" height="174.63" maskUnits="userSpaceOnUse"><g class="cls-3"><path class="cls-4" d="M0,174.54l63.09.05q90.9,0,181.81,0h5V13.07C249.89.26,240.22,0,240.22,0H9.68S0,.26,0,13.07V174.54Z"/></g></mask><radialGradient id="radial-gradient-7" cx="126.09" cy="322.84" r="362.49" gradientUnits="userSpaceOnUse"><stop offset="0.62" stop-color="#fff"/><stop offset="0.75" stop-color="#fdfdfd"/><stop offset="0.82" stop-color="#f5f5f5"/><stop offset="0.88" stop-color="#e7e7e7"/><stop offset="0.93" stop-color="#d3d3d3"/><stop offset="0.98" stop-color="#bababa"/><stop offset="1" stop-color="#ababab"/></radialGradient><filter id="luminosity-noclip-8" x="4.61" y="0" width="245.28" height="349.84" filterUnits="userSpaceOnUse" color-interpolation-filters="sRGB"><feFlood flood-color="#fff" result="bg"/><feBlend in="SourceGraphic" in2="bg"/></filter><mask id="mask-8" x="4.61" y="0" width="245.28" height="349.84" maskUnits="userSpaceOnUse"><g class="cls-5"><path class="cls-6" d="M249.39,13V336.29c0,12.78-9.68,13-9.68,13H8.93a9.75,9.75,0,0,1-4.32-1.39,9.88,9.88,0,0,0,5.07,1.9H240.22s9.68-.26,9.68-13.07V13.06C249.9.26,240.22,0,240.22,0h-.51S249.39.26,249.39,13Z"/></g></mask><radialGradient id="radial-gradient-8" cx="-10.68" cy="-0.16" r="402.49" gradientUnits="userSpaceOnUse"><stop offset="0.1" stop-color="#fff"/><stop offset="1" stop-color="#ababab"/></radialGradient><filter id="luminosity-noclip-9" x="0.01" y="0" width="245.29" height="349.84" filterUnits="userSpaceOnUse" color-interpolation-filters="sRGB"><feFlood flood-color="#fff" result="bg"/><feBlend in="SourceGraphic" in2="bg"/></filter><mask id="mask-9" x="0.01" y="0" width="245.29" height="349.84" maskUnits="userSpaceOnUse"><g class="cls-7"><path class="cls-8" d="M.51,336.79V13.55C.51.77,10.2.51,10.2.51H241a9.87,9.87,0,0,1,4.32,1.39A10,10,0,0,0,240.22,0H9.68S0,.26,0,13.07V336.78c0,12.8,9.67,13.06,9.67,13.06h.52S.51,349.58.51,336.79Z"/></g></mask><radialGradient id="radial-gradient-9" cx="68.26" cy="101.81" r="342.82" gradientUnits="userSpaceOnUse"><stop offset="0" stop-color="#fff"/><stop offset="0.14" stop-color="#fff"/><stop offset="1" stop-color="#fff"/></radialGradient><filter id="luminosity-noclip-10" x="0" y="25.28" width="0.51" height="301.65" filterUnits="userSpaceOnUse" color-interpolation-filters="sRGB"><feFlood flood-color="#fff" result="bg"/><feBlend in="SourceGraphic" in2="bg"/></filter><mask id="mask-10" x="0" y="25.28" width="0.51" height="301.65" maskUnits="userSpaceOnUse"><g class="cls-9"><path class="cls-10" d="M0,25.28V326.93l.51-1.83V30.75Z"/></g></mask><radialGradient id="radial-gradient-10" cx="1384.81" cy="-0.16" r="402.61" gradientTransform="matrix(-1, 0, 0, 1, 1645.57, 0)" xlink:href="#radial-gradient-8"/></defs><g class="cls-11"><g id="Layer_2" data-name="Layer 2"><g id="Layer_1-2" data-name="Layer 1"><path class="cls-12" d="M240.22,0H9.68S0,.26,0,13.07V336.78c0,12.8,9.67,13.06,9.67,13.06H240.22s9.67-.26,9.67-13.06V13.07C249.89.26,240.22,0,240.22,0Z"/><g class="cls-13"><path class="cls-14" d="M147.35,188.81,0,188.86V336.78c0,12.8,9.67,13.06,9.67,13.06H240.22s9.67-.26,9.67-13.06v-148Z"/></g><g class="cls-15"><path class="cls-16" d="M0,174.54l63.09.05q90.9,0,181.81,0h5V13.07C249.89.26,240.22,0,240.22,0H9.68S0,.26,0,13.07V174.54Z"/></g><g class="cls-17"><path class="cls-18" d="M249.39,13V336.29c0,12.78-9.68,13-9.68,13H8.93a9.75,9.75,0,0,1-4.32-1.39,9.88,9.88,0,0,0,5.07,1.9H240.22s9.68-.26,9.68-13.07V13.06C249.9.26,240.22,0,240.22,0h-.51S249.39.26,249.39,13Z"/></g><g class="cls-19"><path class="cls-20" d="M.51,336.79V13.55C.51.77,10.2.51,10.2.51H241a9.87,9.87,0,0,1,4.32,1.39A10,10,0,0,0,240.22,0H9.68S0,.26,0,13.07V336.78c0,12.8,9.67,13.06,9.67,13.06h.52S.51,349.58.51,336.79Z"/></g><g class="cls-21"><path class="cls-22" d="M0,25.28V326.93l.51-1.83V30.75Z"/></g><path d="M20.8,67.18a22.15,22.15,0,0,1-4.21,11H25A22.26,22.26,0,0,1,20.8,67.18Z"/><path d="M28.66,57.54a32.28,32.28,0,0,1-7.86-7.47h0a32.28,32.28,0,0,1-7.86,7.47c-5.28,3.65-6.49,8.2-4.6,11.64s9.45,5.11,12.46-1.71c3,6.82,10.57,5.15,12.46,1.71S33.94,61.19,28.66,57.54Z"/><path d="M15.53,44.65V43.57a10.11,10.11,0,0,0,5.36-1.37,9.82,9.82,0,0,0,3.65-4.05,20.25,20.25,0,0,0,1.84-7L26.16,31A14.21,14.21,0,0,1,22.5,33a12,12,0,0,1-3.9.62,7.88,7.88,0,0,1-4.25-1.1,6.78,6.78,0,0,1-2.64-3.07,11.25,11.25,0,0,1-.88-4.63A10.7,10.7,0,0,1,11.49,21a8.76,8.76,0,0,1,2-3.12,9.31,9.31,0,0,1,3.25-2.12A12.32,12.32,0,0,1,21.28,15a8.35,8.35,0,0,1,7.07,3.2c1.61,2.14,2.43,5.21,2.43,9.21A23.44,23.44,0,0,1,29,37a14.74,14.74,0,0,1-5,6.27,15.52,15.52,0,0,1-7.53,2.64Zm4.6-13.38a8.28,8.28,0,0,0,1.6-.15,7.88,7.88,0,0,0,1.49-.42,8.59,8.59,0,0,0,1.43-.7,9.5,9.5,0,0,0,1.24-.92,1.71,1.71,0,0,0,.36-.46,3,3,0,0,0,.24-.76,8.29,8.29,0,0,0,.09-1.45A19,19,0,0,0,26,21.23,6.46,6.46,0,0,0,24.11,18,4.48,4.48,0,0,0,21,16.89a6.24,6.24,0,0,0-2.8.57A5,5,0,0,0,16.36,19a6.77,6.77,0,0,0-1,2.36,12.51,12.51,0,0,0-.33,3,8.42,8.42,0,0,0,1.35,5.11A4.47,4.47,0,0,0,20.13,31.27Z"/><path d="M230.21,282.05A22.15,22.15,0,0,1,234.42,271H226A22.26,22.26,0,0,1,230.21,282.05Z"/><path d="M222.35,291.69a32.28,32.28,0,0,1,7.86,7.47h0a32,32,0,0,1,7.86-7.47c5.28-3.65,6.48-8.2,4.6-11.64s-9.45-5.11-12.46,1.71c-3-6.82-10.57-5.15-12.46-1.71S217.06,288,222.35,291.69Z"/><path d="M235.48,304.58v1.08a10.17,10.17,0,0,0-5.36,1.37,9.82,9.82,0,0,0-3.65,4.05,20.25,20.25,0,0,0-1.84,7l.22.09a14.32,14.32,0,0,1,3.65-1.95,12.09,12.09,0,0,1,3.91-.62,7.88,7.88,0,0,1,4.25,1.1,6.78,6.78,0,0,1,2.64,3.07,11.25,11.25,0,0,1,.88,4.63,10.7,10.7,0,0,1-.66,3.76,8.76,8.76,0,0,1-2,3.12,9.26,9.26,0,0,1-3.26,2.12,12.23,12.23,0,0,1-4.56.78,8.35,8.35,0,0,1-7.07-3.2q-2.43-3.21-2.43-9.21a23.35,23.35,0,0,1,1.79-9.53,14.7,14.7,0,0,1,5-6.28,15.52,15.52,0,0,1,7.53-2.64ZM230.88,318a8.28,8.28,0,0,0-1.6.15,7.67,7.67,0,0,0-1.49.42,8.59,8.59,0,0,0-1.43.7,10.37,10.37,0,0,0-1.25.92,1.8,1.8,0,0,0-.35.47,2.76,2.76,0,0,0-.24.75,8.29,8.29,0,0,0-.09,1.45A19,19,0,0,0,225,328a6.53,6.53,0,0,0,1.85,3.25,4.51,4.51,0,0,0,3.08,1.1,6.28,6.28,0,0,0,2.81-.58,5,5,0,0,0,1.87-1.58,7,7,0,0,0,1-2.36,12.51,12.51,0,0,0,.33-2.95,8.37,8.37,0,0,0-1.35-5.1A4.46,4.46,0,0,0,230.88,318Z"/><path d="M170.6,201.07A44.09,44.09,0,0,1,179,179.13H162.24A44.09,44.09,0,0,1,170.6,201.07Z"/><path d="M155,220.2A64.2,64.2,0,0,1,170.6,235h0a64.2,64.2,0,0,1,15.6-14.82c10.49-7.25,12.88-16.29,9.12-23.11s-18.75-10.14-24.72,3.4c-6-13.54-21-10.22-24.72-3.4S144.51,213,155,220.2Z"/><path d="M170.6,265.39a44.09,44.09,0,0,0-8.36-21.94H179A44.14,44.14,0,0,0,170.6,265.39Z"/><path d="M186.2,284.52a64.2,64.2,0,0,0-15.6,14.82h0A64.2,64.2,0,0,0,155,284.52c-10.49-7.25-12.88-16.29-9.12-23.11s18.75-10.14,24.72,3.4c6-13.54,21-10.22,24.72-3.4S196.69,277.27,186.2,284.52Z"/><path d="M170.6,84.45a44.09,44.09,0,0,1-8.36,21.94H179A44.14,44.14,0,0,1,170.6,84.45Z"/><path d="M186.2,65.32A64.2,64.2,0,0,1,170.6,50.5h0A64.2,64.2,0,0,1,155,65.32c-10.49,7.25-12.88,16.29-9.12,23.11S164.63,98.57,170.6,85c6,13.54,21,10.22,24.72,3.4S196.69,72.57,186.2,65.32Z"/><path d="M170.6,148.77a44.09,44.09,0,0,1-8.36,21.94H179A44.14,44.14,0,0,1,170.6,148.77Z"/><path d="M186.2,129.64a64.2,64.2,0,0,1-15.6-14.82h0A64.2,64.2,0,0,1,155,129.64c-10.49,7.25-12.88,16.29-9.12,23.11s18.75,10.14,24.72-3.4c6,13.54,21,10.22,24.72,3.4S196.69,136.89,186.2,129.64Z"/><path d="M79.22,201.07a44.14,44.14,0,0,1,8.35-21.94H70.86A44.2,44.2,0,0,1,79.22,201.07Z"/><path d="M63.62,220.2A64,64,0,0,1,79.21,235h0A64,64,0,0,1,94.81,220.2c10.49-7.25,12.88-16.29,9.13-23.11S85.19,187,79.22,200.49c-6-13.54-21-10.22-24.73-3.4S53.13,213,63.62,220.2Z"/><path d="M79.21,265.39a44.14,44.14,0,0,0-8.35-21.94H87.57A44.2,44.2,0,0,0,79.21,265.39Z"/><path d="M94.81,284.52a64,64,0,0,0-15.59,14.82h0a64,64,0,0,0-15.59-14.82c-10.49-7.25-12.88-16.29-9.13-23.11s18.75-10.14,24.72,3.4c6-13.54,21-10.22,24.73-3.4S105.3,277.27,94.81,284.52Z"/><path d="M79.21,84.45a44.14,44.14,0,0,1-8.35,21.94H87.57A44.2,44.2,0,0,1,79.21,84.45Z"/><path d="M94.81,65.32A64,64,0,0,1,79.22,50.5h0A64,64,0,0,1,63.62,65.32c-10.49,7.25-12.88,16.29-9.13,23.11S73.24,98.57,79.21,85c6,13.54,21,10.22,24.73,3.4S105.3,72.57,94.81,65.32Z"/><path d="M79.21,148.77a44.14,44.14,0,0,1-8.35,21.94H87.57A44.2,44.2,0,0,1,79.21,148.77Z"/><path d="M94.81,129.64a64,64,0,0,1-15.59-14.82h0a64,64,0,0,1-15.59,14.82c-10.49,7.25-12.88,16.29-9.13,23.11s18.75,10.14,24.72-3.4c6,13.54,21,10.22,24.73,3.4S105.3,136.89,94.81,129.64Z"/><path d="M124.91,180.93a44.09,44.09,0,0,1-8.36,21.94h16.71A44.14,44.14,0,0,1,124.91,180.93Z"/><path d="M140.51,161.81A64.1,64.1,0,0,1,124.91,147h0a63.92,63.92,0,0,1-15.59,14.83c-10.49,7.24-12.88,16.28-9.13,23.1s18.76,10.14,24.73-3.4c6,13.54,21,10.22,24.72,3.4S151,169.05,140.51,161.81Z"/></g></g></g></svg>