<svg xmlns="http://www.w3.org/2000/svg" xmlns:xlink="http://www.w3.org/1999/xlink" viewBox="0 0 249.9 349.84"><defs><style>.cls-1{mask:url(#mask);filter:url(#luminosity-noclip-6);}.cls-10,.cls-14,.cls-16,.cls-2,.cls-4,.cls-6,.cls-8{mix-blend-mode:multiply;}.cls-2{fill:url(#radial-gradient);}.cls-3{mask:url(#mask-2);filter:url(#luminosity-noclip-7);}.cls-4{fill:url(#radial-gradient-2);}.cls-5{mask:url(#mask-3);filter:url(#luminosity-noclip-8);}.cls-6{fill:url(#radial-gradient-3);}.cls-7{mask:url(#mask-4);filter:url(#luminosity-noclip-9);}.cls-8{fill:url(#radial-gradient-4);}.cls-9{mask:url(#mask-5);filter:url(#luminosity-noclip-10);}.cls-10{fill:url(#radial-gradient-5);}.cls-11{isolation:isolate;}.cls-12{fill:#fff;}.cls-13{mask:url(#mask-6);}.cls-14{fill:url(#radial-gradient-6);}.cls-15{mask:url(#mask-7);}.cls-16{fill:url(#radial-gradient-7);}.cls-17{mask:url(#mask-8);}.cls-18{fill:url(#radial-gradient-8);}.cls-19{mask:url(#mask-9);}.cls-20{mix-blend-mode:screen;fill:url(#radial-gradient-9);}.cls-21{mask:url(#mask-10);}.cls-22{fill:url(#radial-gradient-10);}.cls-23{filter:url(#luminosity-noclip-5);}.cls-24{filter:url(#luminosity-noclip-4);}.cls-25{filter:url(#luminosity-noclip-3);}.cls-26{filter:url(#luminosity-noclip-2);}.cls-27{filter:url(#luminosity-noclip);}</style><filter id="luminosity-noclip" x="0.01" y="-8550.29" width="249.89" height="32766" filterUnits="userSpaceOnUse" color-interpolation-filters="sRGB"><feFlood flood-color="#fff" result="bg"/><feBlend in="SourceGraphic" in2="bg"/></filter><mask id="mask" x="0.01" y="-8550.29" width="249.89" height="32766" maskUnits="userSpaceOnUse"><g class="cls-27"/></mask><radialGradient id="radial-gradient" cx="121.08" cy="-119.27" r="505.88" gradientUnits="userSpaceOnUse"><stop offset="0.62"/><stop offset="0.75" stop-color="#020202"/><stop offset="0.8" stop-color="#090909"/><stop offset="0.84" stop-color="#151515"/><stop offset="0.87" stop-color="#262626"/><stop offset="0.9" stop-color="#3c3c3c"/><stop offset="0.92" stop-color="#585858"/><stop offset="0.94" stop-color="#797979"/><stop offset="0.96" stop-color="#9f9f9f"/><stop offset="0.98" stop-color="#cbcbcb"/><stop offset="1" stop-color="#f9f9f9"/><stop offset="1" stop-color="#fff"/></radialGradient><filter id="luminosity-noclip-2" x="0.01" y="-8550.29" width="249.89" height="32766" filterUnits="userSpaceOnUse" color-interpolation-filters="sRGB"><feFlood flood-color="#fff" result="bg"/><feBlend in="SourceGraphic" in2="bg"/></filter><mask id="mask-2" x="0.01" y="-8550.29" width="249.89" height="32766" maskUnits="userSpaceOnUse"><g class="cls-26"/></mask><radialGradient id="radial-gradient-2" cx="126.09" cy="322.84" r="362.49" gradientUnits="userSpaceOnUse"><stop offset="0.62"/><stop offset="0.71" stop-color="#020202"/><stop offset="0.76" stop-color="#0a0a0a"/><stop offset="0.8" stop-color="#181818"/><stop offset="0.84" stop-color="#2c2c2c"/><stop offset="0.88" stop-color="#464646"/><stop offset="0.91" stop-color="#656565"/><stop offset="0.94" stop-color="#8a8a8a"/><stop offset="0.96" stop-color="#b6b6b6"/><stop offset="0.99" stop-color="#e5e5e5"/><stop offset="1" stop-color="#fff"/></radialGradient><filter id="luminosity-noclip-3" x="4.61" y="-8550.29" width="245.29" height="32766" filterUnits="userSpaceOnUse" color-interpolation-filters="sRGB"><feFlood flood-color="#fff" result="bg"/><feBlend in="SourceGraphic" in2="bg"/></filter><mask id="mask-3" x="4.61" y="-8550.29" width="245.29" height="32766" maskUnits="userSpaceOnUse"><g class="cls-25"/></mask><radialGradient id="radial-gradient-3" cx="-10.68" cy="-0.16" r="402.5" gradientUnits="userSpaceOnUse"><stop offset="0.1"/><stop offset="1" stop-color="#fff"/></radialGradient><filter id="luminosity-noclip-4" x="0.01" y="-8550.29" width="245.29" height="32766" filterUnits="userSpaceOnUse" color-interpolation-filters="sRGB"><feFlood flood-color="#fff" result="bg"/><feBlend in="SourceGraphic" in2="bg"/></filter><mask id="mask-4" x="0.01" y="-8550.29" width="245.29" height="32766" maskUnits="userSpaceOnUse"><g class="cls-24"/></mask><radialGradient id="radial-gradient-4" cx="68.26" cy="101.81" r="342.82" gradientUnits="userSpaceOnUse"><stop offset="0"/><stop offset="0.01" stop-color="#090909"/><stop offset="0.05" stop-color="#373737"/><stop offset="0.09" stop-color="#626262"/><stop offset="0.14" stop-color="#888"/><stop offset="0.2" stop-color="#a8a8a8"/><stop offset="0.25" stop-color="#c4c4c4"/><stop offset="0.32" stop-color="#dadada"/><stop offset="0.4" stop-color="#ebebeb"/><stop offset="0.49" stop-color="#f6f6f6"/><stop offset="0.63" stop-color="#fdfdfd"/><stop offset="1" stop-color="#fff"/></radialGradient><filter id="luminosity-noclip-5" x="0" y="-8550.29" width="0.51" height="32766" filterUnits="userSpaceOnUse" color-interpolation-filters="sRGB"><feFlood flood-color="#fff" result="bg"/><feBlend in="SourceGraphic" in2="bg"/></filter><mask id="mask-5" x="0" y="-8550.29" width="0.51" height="32766" maskUnits="userSpaceOnUse"><g class="cls-23"/></mask><radialGradient id="radial-gradient-5" cx="-762.6" cy="-0.16" r="402.42" gradientTransform="matrix(-1, 0, 0, 1, -502.15, 0)" xlink:href="#radial-gradient-3"/><filter id="luminosity-noclip-6" x="0.01" y="188.8" width="249.89" height="161.04" filterUnits="userSpaceOnUse" color-interpolation-filters="sRGB"><feFlood flood-color="#fff" result="bg"/><feBlend in="SourceGraphic" in2="bg"/></filter><mask id="mask-6" x="0.01" y="188.8" width="249.89" height="161.04" maskUnits="userSpaceOnUse"><g class="cls-1"><path class="cls-2" d="M147.34,188.81,0,188.86V336.78c0,12.8,9.67,13.06,9.67,13.06H240.22s9.67-.26,9.67-13.06v-148Z"/></g></mask><radialGradient id="radial-gradient-6" cx="121.08" cy="-119.27" r="505.88" gradientUnits="userSpaceOnUse"><stop offset="0.62" stop-color="#fff"/><stop offset="0.79" stop-color="#fdfdfd"/><stop offset="0.85" stop-color="#f6f6f6"/><stop offset="0.9" stop-color="#eaeaea"/><stop offset="0.94" stop-color="#d9d9d9"/><stop offset="0.97" stop-color="#c3c3c3"/><stop offset="1" stop-color="#ababab"/></radialGradient><filter id="luminosity-noclip-7" x="0.01" y="0" width="249.89" height="174.63" filterUnits="userSpaceOnUse" color-interpolation-filters="sRGB"><feFlood flood-color="#fff" result="bg"/><feBlend in="SourceGraphic" in2="bg"/></filter><mask id="mask-7" x="0.01" y="0" width="249.89" height="174.63" maskUnits="userSpaceOnUse"><g class="cls-3"><path class="cls-4" d="M0,174.54l63.09.05q90.9,0,181.81,0h5V13.07C249.89.26,240.22,0,240.22,0H9.68S0,.26,0,13.07V174.54Z"/></g></mask><radialGradient id="radial-gradient-7" cx="126.09" cy="322.84" r="362.49" gradientUnits="userSpaceOnUse"><stop offset="0.62" stop-color="#fff"/><stop offset="0.75" stop-color="#fdfdfd"/><stop offset="0.82" stop-color="#f5f5f5"/><stop offset="0.88" stop-color="#e7e7e7"/><stop offset="0.93" stop-color="#d3d3d3"/><stop offset="0.98" stop-color="#bababa"/><stop offset="1" stop-color="#ababab"/></radialGradient><filter id="luminosity-noclip-8" x="4.61" y="0" width="245.29" height="349.84" filterUnits="userSpaceOnUse" color-interpolation-filters="sRGB"><feFlood flood-color="#fff" result="bg"/><feBlend in="SourceGraphic" in2="bg"/></filter><mask id="mask-8" x="4.61" y="0" width="245.29" height="349.84" maskUnits="userSpaceOnUse"><g class="cls-5"><path class="cls-6" d="M249.39,13.05V336.29c0,12.78-9.68,13-9.68,13H8.93a9.75,9.75,0,0,1-4.32-1.39,10,10,0,0,0,5.07,1.9H240.22s9.68-.26,9.68-13.07V13.06C249.9.26,240.22,0,240.22,0h-.51S249.39.26,249.39,13.05Z"/></g></mask><radialGradient id="radial-gradient-8" cx="-10.68" cy="-0.16" r="402.5" gradientUnits="userSpaceOnUse"><stop offset="0.1" stop-color="#fff"/><stop offset="1" stop-color="#ababab"/></radialGradient><filter id="luminosity-noclip-9" x="0.01" y="0" width="245.29" height="349.84" filterUnits="userSpaceOnUse" color-interpolation-filters="sRGB"><feFlood flood-color="#fff" result="bg"/><feBlend in="SourceGraphic" in2="bg"/></filter><mask id="mask-9" x="0.01" y="0" width="245.29" height="349.84" maskUnits="userSpaceOnUse"><g class="cls-7"><path class="cls-8" d="M.51,336.79V13.55C.51.77,10.2.51,10.2.51H241a9.87,9.87,0,0,1,4.32,1.39A10,10,0,0,0,240.22,0H9.68S0,.26,0,13.07V336.78c0,12.8,9.67,13.06,9.67,13.06h.52S.51,349.58.51,336.79Z"/></g></mask><radialGradient id="radial-gradient-9" cx="68.26" cy="101.81" r="342.82" gradientUnits="userSpaceOnUse"><stop offset="0" stop-color="#fff"/><stop offset="0.14" stop-color="#fff"/><stop offset="1" stop-color="#fff"/></radialGradient><filter id="luminosity-noclip-10" x="0" y="25.28" width="0.51" height="301.65" filterUnits="userSpaceOnUse" color-interpolation-filters="sRGB"><feFlood flood-color="#fff" result="bg"/><feBlend in="SourceGraphic" in2="bg"/></filter><mask id="mask-10" x="0" y="25.28" width="0.51" height="301.65" maskUnits="userSpaceOnUse"><g class="cls-9"><path class="cls-10" d="M0,25.28V326.93c.17-.61.33-1.22.5-1.83V30.75C.33,28.92.17,27.1,0,25.28Z"/></g></mask><radialGradient id="radial-gradient-10" cx="-762.6" cy="-0.16" r="402.42" gradientTransform="matrix(-1, 0, 0, 1, -502.15, 0)" xlink:href="#radial-gradient-8"/></defs><g class="cls-11"><g id="Layer_2" data-name="Layer 2"><g id="Layer_1-2" data-name="Layer 1"><path class="cls-12" d="M240.22,0H9.68S0,.26,0,13.07V336.78c0,12.8,9.67,13.06,9.67,13.06H240.22s9.67-.26,9.67-13.06V13.07C249.89.26,240.22,0,240.22,0Z"/><g class="cls-13"><path class="cls-14" d="M147.34,188.81,0,188.86V336.78c0,12.8,9.67,13.06,9.67,13.06H240.22s9.67-.26,9.67-13.06v-148Z"/></g><g class="cls-15"><path class="cls-16" d="M0,174.54l63.09.05q90.9,0,181.81,0h5V13.07C249.89.26,240.22,0,240.22,0H9.68S0,.26,0,13.07V174.54Z"/></g><g class="cls-17"><path class="cls-18" d="M249.39,13.05V336.29c0,12.78-9.68,13-9.68,13H8.93a9.75,9.75,0,0,1-4.32-1.39,10,10,0,0,0,5.07,1.9H240.22s9.68-.26,9.68-13.07V13.06C249.9.26,240.22,0,240.22,0h-.51S249.39.26,249.39,13.05Z"/></g><g class="cls-19"><path class="cls-20" d="M.51,336.79V13.55C.51.77,10.2.51,10.2.51H241a9.87,9.87,0,0,1,4.32,1.39A10,10,0,0,0,240.22,0H9.68S0,.26,0,13.07V336.78c0,12.8,9.67,13.06,9.67,13.06h.52S.51,349.58.51,336.79Z"/></g><g class="cls-21"><path class="cls-22" d="M0,25.28V326.93c.17-.61.33-1.22.5-1.83V30.75C.33,28.92.17,27.1,0,25.28Z"/></g><path d="M18.67,67.18a22.15,22.15,0,0,1-4.21,11h8.42A22.15,22.15,0,0,1,18.67,67.18Z"/><path d="M26.53,57.54a32.28,32.28,0,0,1-7.86-7.47h0a32.28,32.28,0,0,1-7.86,7.47c-5.28,3.65-6.49,8.2-4.6,11.64s9.45,5.11,12.46-1.71c3,6.82,10.57,5.15,12.46,1.71S31.81,61.19,26.53,57.54Z"/><path d="M25.94,16.22V17.3a12.23,12.23,0,0,0-6,1.46,11.8,11.8,0,0,0-4.37,4.29,19.4,19.4,0,0,0-2.44,6.71l.22.09A14.47,14.47,0,0,1,17,27.91a12,12,0,0,1,3.9-.62,7.88,7.88,0,0,1,4.25,1.09,6.83,6.83,0,0,1,2.64,3.07,11.25,11.25,0,0,1,.88,4.63,11.07,11.07,0,0,1-1.1,5.07,8,8,0,0,1-3.41,3.46,11.76,11.76,0,0,1-5.69,1.26q-4.84,0-7.3-3T8.69,34a21.62,21.62,0,0,1,1.23-7.36,18.37,18.37,0,0,1,3.51-6,17.16,17.16,0,0,1,5.28-4A16.27,16.27,0,0,1,25,15ZM19.36,29.61a8.93,8.93,0,0,0-2.09.24,8.56,8.56,0,0,0-1.89.71,9.69,9.69,0,0,0-1.72,1.17,1.7,1.7,0,0,0-.4.51,2.72,2.72,0,0,0-.29,1c0,.41-.07,1.1-.07,2.07a12,12,0,0,0,1.42,6.43A4.74,4.74,0,0,0,18.6,44a6.13,6.13,0,0,0,2.79-.57,4.9,4.9,0,0,0,1.82-1.58,6.67,6.67,0,0,0,1-2.37,13.62,13.62,0,0,0,.3-2.94,8.43,8.43,0,0,0-1.35-5.1A4.44,4.44,0,0,0,19.36,29.61Z"/><path d="M229.87,282.05A22.15,22.15,0,0,1,234.08,271h-8.42A22.15,22.15,0,0,1,229.87,282.05Z"/><path d="M222,291.69a32,32,0,0,1,7.86,7.47h0a32.28,32.28,0,0,1,7.86-7.47c5.29-3.65,6.49-8.2,4.6-11.64s-9.45-5.11-12.46,1.71c-3-6.82-10.57-5.15-12.46-1.71S216.73,288,222,291.69Z"/><path d="M222.6,333v-1.08a12.23,12.23,0,0,0,6-1.46,11.8,11.8,0,0,0,4.37-4.29,19.4,19.4,0,0,0,2.44-6.71l-.22-.09a14.47,14.47,0,0,1-3.66,1.94,12,12,0,0,1-3.9.62,7.88,7.88,0,0,1-4.25-1.09,6.83,6.83,0,0,1-2.64-3.07,11.25,11.25,0,0,1-.88-4.63,11.07,11.07,0,0,1,1.1-5.07,8,8,0,0,1,3.41-3.46,11.76,11.76,0,0,1,5.69-1.26q4.84,0,7.3,3c1.64,2,2.47,4.95,2.47,8.85a21.34,21.34,0,0,1-1.24,7.36,18.37,18.37,0,0,1-3.51,6,17.16,17.16,0,0,1-5.28,4,16.09,16.09,0,0,1-6.32,1.64Zm6.59-13.39a9.05,9.05,0,0,0,2.09-.24,7.85,7.85,0,0,0,1.88-.71,9.76,9.76,0,0,0,1.73-1.17,1.83,1.83,0,0,0,.39-.51,2.72,2.72,0,0,0,.29-1c0-.41.07-1.1.07-2.07a12,12,0,0,0-1.42-6.43,4.74,4.74,0,0,0-4.28-2.21,6.13,6.13,0,0,0-2.79.57,4.9,4.9,0,0,0-1.82,1.58,6.67,6.67,0,0,0-1,2.37,13.62,13.62,0,0,0-.3,2.94,8.43,8.43,0,0,0,1.35,5.1A4.44,4.44,0,0,0,229.19,319.62Z"/><path d="M79.91,181A44.1,44.1,0,0,1,71.55,203H88.26A44.14,44.14,0,0,1,79.91,181Z"/><path d="M95.51,161.88c-10.35-7.15-15.47-14.63-15.6-14.83h0a63.91,63.91,0,0,1-15.6,14.83c-10.49,7.25-12.88,16.28-9.13,23.11s18.76,10.14,24.73-3.41c6,13.55,21,10.22,24.72,3.41S106,169.13,95.51,161.88Z"/><path d="M79.91,265.47a44.1,44.1,0,0,0-8.36-22H88.26A44.14,44.14,0,0,0,79.91,265.47Z"/><path d="M95.51,284.59c-10.35,7.15-15.47,14.63-15.6,14.83h0a63.91,63.91,0,0,0-15.6-14.83c-10.49-7.25-12.88-16.28-9.13-23.1s18.76-10.15,24.73,3.4c6-13.55,21-10.22,24.72-3.4S106,277.34,95.51,284.59Z"/><path d="M79.91,84.52a44.1,44.1,0,0,1-8.36,22H88.26A44.14,44.14,0,0,1,79.91,84.52Z"/><path d="M95.51,65.4C85.16,58.25,80,50.77,79.91,50.57h0A63.91,63.91,0,0,1,64.31,65.4c-10.49,7.24-12.88,16.28-9.12,23.1s18.75,10.15,24.72-3.4c6,13.55,21,10.22,24.72,3.4S106,72.64,95.51,65.4Z"/><path d="M170.36,181A44.1,44.1,0,0,1,162,203h16.71A44.14,44.14,0,0,1,170.36,181Z"/><path d="M186,161.88a63.91,63.91,0,0,1-15.6-14.83h0a63.91,63.91,0,0,1-15.6,14.83c-10.49,7.25-12.88,16.28-9.12,23.11s18.75,10.14,24.72-3.41c6,13.55,21,10.22,24.72,3.41S196.45,169.13,186,161.88Z"/><path d="M170.36,265.47a44.1,44.1,0,0,0-8.36-22h16.71A44.14,44.14,0,0,0,170.36,265.47Z"/><path d="M186,284.59a63.91,63.91,0,0,0-15.6,14.83h0a63.91,63.91,0,0,0-15.6-14.83c-10.49-7.25-12.88-16.28-9.12-23.1s18.75-10.15,24.72,3.4c6-13.55,21-10.22,24.72-3.4S196.45,277.34,186,284.59Z"/><path d="M170.36,84.52a44.1,44.1,0,0,1-8.36,22h16.72A44.1,44.1,0,0,1,170.36,84.52Z"/><path d="M186,65.4a63.91,63.91,0,0,1-15.6-14.83h0a63.91,63.91,0,0,1-15.6,14.83c-10.49,7.24-12.88,16.28-9.12,23.1s18.75,10.15,24.72-3.4c6,13.55,21,10.22,24.72,3.4S196.45,72.64,186,65.4Z"/></g></g></g></svg>