<?xml version="1.0" encoding="utf-8"?>
<!-- Generator: Adobe Illustrator 25.4.6, SVG Export Plug-In . SVG Version: 6.00 Build 0)  -->
<svg version="1.1" id="Layer_1" xmlns="http://www.w3.org/2000/svg" xmlns:xlink="http://www.w3.org/1999/xlink" x="0px" y="0px"
	 viewBox="0 0 40 40" style="enable-background:new 0 0 40 40;" xml:space="preserve">
<style type="text/css">
	.st0{fill:#FFFFFF;}
</style>
<path class="st0" d="M33.6,37.7l-5.3-5.3c-0.8,0.5-1.6,0.9-2.4,1.3c-0.9,0.4-1.8,0.7-2.7,0.9v-2.9c0.6-0.2,1.1-0.4,1.6-0.6
	c0.5-0.2,1-0.5,1.5-0.8l-6.5-6.5v9.5L11.5,25H4.8V15h6.1L2.1,6.2l2-2l31.4,31.4L33.6,37.7z M32.5,28l-2-2c0.5-0.9,0.9-1.9,1.2-2.9
	c0.3-1,0.4-2.1,0.4-3.1c0-2.8-0.8-5.3-2.4-7.5c-1.6-2.2-3.8-3.6-6.5-4.2V5.4c3.4,0.8,6.3,2.5,8.4,5.2c2.2,2.7,3.2,5.8,3.2,9.4
	c0,1.4-0.2,2.8-0.6,4.2C33.8,25.5,33.2,26.8,32.5,28z M26.9,22.4l-3.8-3.8v-5.4c1.3,0.6,2.3,1.5,3.1,2.8c0.7,1.2,1.1,2.6,1.1,4
	c0,0.4,0,0.8-0.1,1.2C27.1,21.6,27,22,26.9,22.4z M19.8,15.3L15.5,11l4.3-4.3V15.3z M17,26.6v-5.5l-3.3-3.3H7.6v4.4h5.1L17,26.6z"/>
</svg>
