<?xml version="1.0" encoding="utf-8"?>
<!-- Generator: Adobe Illustrator 25.4.6, SVG Export Plug-In . SVG Version: 6.00 Build 0)  -->
<svg version="1.1" id="Layer_1" xmlns="http://www.w3.org/2000/svg" xmlns:xlink="http://www.w3.org/1999/xlink" x="0px" y="0px"
	 viewBox="0 0 40 40" style="enable-background:new 0 0 40 40;" xml:space="preserve">
<style type="text/css">
	.st0{fill:#FFFFFF;}
</style>
<path class="st0" d="M23.3,34.5v-2.9c2.6-0.8,4.8-2.2,6.4-4.4c1.6-2.2,2.5-4.6,2.5-7.4s-0.8-5.2-2.5-7.4S26,9,23.3,8.2V5.4
	c3.4,0.8,6.3,2.5,8.4,5.2c2.2,2.7,3.2,5.8,3.2,9.4c0,3.5-1.1,6.6-3.2,9.4C29.6,32,26.8,33.8,23.3,34.5z M5,25V15h6.7L20,6.7v26.7
	L11.7,25H5z M22.8,26.9V13c1.4,0.5,2.6,1.4,3.4,2.7c0.8,1.3,1.3,2.7,1.3,4.2c0,1.5-0.4,2.9-1.3,4.2C25.3,25.5,24.2,26.4,22.8,26.9z
	 M17.2,13.6l-4.3,4.2H7.8v4.4h5.1l4.3,4.2V13.6z"/>
</svg>
